<?xml version="1.0" encoding="utf-8"?>
<!-- Generator: Adobe Illustrator 25.0.1, SVG Export Plug-In . SVG Version: 6.00 Build 0)  -->
<svg version="1.1" id="图层_1" xmlns="http://www.w3.org/2000/svg" xmlns:xlink="http://www.w3.org/1999/xlink" x="0px" y="0px"
	 viewBox="0 0 226.8 226.8" style="enable-background:new 0 0 226.8 226.8;" xml:space="preserve">
<style type="text/css">
	.st0{fill:#2C2E52;}
	.st1{fill:#FFFFFF;}
	.st2{fill:url(#SVGID_1_);}
	.st3{fill:url(#SVGID_2_);}
	.st4{fill:url(#SVGID_3_);}
	.st5{fill:url(#SVGID_4_);}
</style>
<g>
	<path class="st0" d="M206.9,226.3H19.3c-10.8,0-19.6-8.8-19.6-19.6V19.1c0-10.8,8.8-19.6,19.6-19.6h187.7
		c10.8,0,19.6,8.8,19.6,19.6v187.7C226.5,217.6,217.7,226.3,206.9,226.3z"/>
	<g>
		<path class="st1" d="M129.7,154.1L129.7,154.1L129.7,154.1c-2.9,0-5.7,0-8.2,0l-2.7,0l-2.7,0l-1.5,0c-0.2,0-0.4,0-0.6,0
			c-0.1,0-0.2,0-0.2,0l-0.6,0v0.6v22.8v0.6h0.6h16.7h0.6v-0.6v-13.3v-0.6h-0.6h-9.2h-0.6v0.6v2.4c0,0.9,0.4,1.4,1.3,1.4
			c0,0,0.1,0,0.1,0c0.4,0,0.9,0,1.4,0c0.3,0,0.7,0,1,0c0.1,0,0.3,0,0.4,0v5.6c-0.2,0-0.4,0-0.7,0c-0.7,0-1.6,0-2.5,0
			c-0.8,0-1.6,0-2.1,0c-0.1,0-0.2,0-0.2,0c0,0,0-0.1,0-0.1c0-3.6,0-7.2,0-10.7c0-1.4,0-2.8,0-4.2c0-0.1,0-0.1,0-0.2h11.2h0.6v-0.6
			v-2.3C131.2,154.6,130.7,154.1,129.7,154.1z"/>
		<path class="st1" d="M84.4,152.7h-0.6v0.6v8.1h-0.3c-0.8,0-1.6,0-2.3,0c-0.8,0-1.6,0-2.3,0c-1.6,0-2.8,0-4,0l0,0
			c-0.3,0-0.8,0-1.1,0.4c-0.3,0.3-0.4,0.8-0.4,1.2c0,2.8,0,7.5,0,10.9c0,2.7,0,3.7,0,3.8l0,0.6h0.6h15.4H90v-0.6v-24.3v-0.6h-0.6
			H84.4z M79.7,173.8v-7.8h4.1v7.8H79.7z"/>
		<path class="st1" d="M193.1,177.5c-0.1-0.2-0.2-0.3-0.2-0.5c-0.1-0.2-0.2-0.4-0.3-0.5l-1.2-2.1c-1.6-2.7-3.2-5.5-4.8-8.2
			c-0.2-0.3-0.2-0.4,0-0.7c1.5-2.5,2.9-5,4.4-7.4l1.2-2c0.1-0.1,0.2-0.3,0.2-0.4c0.1-0.1,0.1-0.3,0.2-0.5l0.5-0.9h-1
			c-0.6,0-1.1,0-1.7,0c-0.5,0-1,0-1.5,0c-0.5,0-1,0-1.5,0l0,0l0,0c-0.9,0-1.2,0.5-1.5,0.9c-0.8,1.4-1.7,2.8-2.5,4.2l-0.5,0.8
			c-0.1-0.2-0.3-0.5-0.4-0.7c-0.7-1.2-1.4-2.4-2.1-3.6c-0.6-1.1-1.3-1.5-2.6-1.5h-3.9h-1l0.5,0.9c0.1,0.1,0.1,0.3,0.2,0.4
			c0.1,0.2,0.1,0.3,0.2,0.4l1.1,1.9c1.5,2.5,3,5.2,4.5,7.7c0.2,0.3,0.2,0.4,0,0.6c-1.6,2.8-3.3,5.6-4.9,8.4l-1.2,2.1
			c-0.1,0.1-0.2,0.3-0.2,0.5c-0.1,0.1-0.1,0.2-0.2,0.4l-0.5,0.9h1h4.3c0.7,0,1.6-0.3,2-0.9c0.6-1.1,1.3-2.3,1.9-3.4l0.7-1.2
			c0.3-0.4,0.5-0.9,0.8-1.3c0.3,0.4,0.5,0.9,0.8,1.3c0.7,1.2,1.5,2.5,2.1,3.7c0.7,1.4,1.7,1.7,2.9,1.7h3.8h1L193.1,177.5z"/>
		<path class="st1" d="M110.5,162.8c0-0.3,0-0.7-0.3-1c-0.3-0.3-0.7-0.3-1-0.3c-2.4,0-4.8,0-7.2,0c-2.4,0-4.8,0-7.1,0h0h0
			c-0.3,0-0.8,0-1.1,0.4c-0.3,0.3-0.4,0.7-0.4,1.1c0,3.5,0,7,0,10.4l0,3.5l0,0.1c0,0.5,0,0.8,0.3,1.1c0.1,0.1,0.3,0.2,0.6,0.2
			c5.1,0,10.3,0,15.2,0c0.4,0,1.2-0.1,1.2-1.2v-1.8c0-1.1-0.4-1.5-1.5-1.5l-0.1,0c-1.2,0-2.5,0-4.2,0c-0.8,0-1.7,0-2.5,0
			c-0.8,0-1.7,0-2.5,0h-0.2v-2h10c0.5,0,0.9-0.4,0.9-0.9c0-0.4,0-1.3,0-2.3C110.5,166.9,110.5,164.3,110.5,162.8z M104.2,165.8v1.8
			h-4.6v-1.8H104.2z"/>
		<path class="st1" d="M151,162.8c0-0.3,0-0.7-0.3-1c-0.3-0.3-0.7-0.3-1-0.3c-2.4,0-4.8,0-7.2,0c-2.4,0-4.8,0-7.1,0h0h0
			c-0.3,0-0.8,0-1.1,0.4c-0.3,0.3-0.4,0.7-0.4,1.1c0,3.5,0,7,0,10.4l0,3.5l0,0.1c0,0.5,0,0.8,0.3,1.1c0.1,0.1,0.3,0.2,0.6,0.2
			c5.1,0,10.3,0,15.2,0c0.4,0,1.2-0.1,1.2-1.2v-1.8c0-1.1-0.4-1.5-1.5-1.5l-0.1,0c-1.2,0-2.5,0-4.2,0c-0.8,0-1.7,0-2.5,0
			c-0.8,0-1.7,0-2.5,0h-0.2v-2h10c0.5,0,0.9-0.4,0.9-0.9c0-0.4,0-1.3,0-2.3C151,166.9,151,164.3,151,162.8z M144.7,165.8v1.8h-4.6
			v-1.8H144.7z"/>
		<path class="st1" d="M171.3,162.8c0-0.3,0-0.7-0.3-1c-0.3-0.3-0.7-0.3-1-0.3c-2.4,0-4.8,0-7.2,0c-2.4,0-4.8,0-7.1,0h0h0
			c-0.3,0-0.8,0-1.1,0.4c-0.3,0.3-0.4,0.7-0.4,1.1c0,3.5,0,7,0,10.4l0,3.5l0,0.1c0,0.5,0,0.8,0.3,1.1c0.1,0.1,0.3,0.2,0.6,0.2
			c5.1,0,10.3,0,15.2,0c0.4,0,1.2-0.1,1.2-1.2v-1.8c0-1.1-0.4-1.5-1.5-1.5l-0.1,0c-1.2,0-2.5,0-4.2,0c-0.8,0-1.7,0-2.5,0
			c-0.8,0-1.7,0-2.5,0h-0.2v-2h10c0.5,0,0.9-0.4,0.9-0.9c0-0.4,0-1.3,0-2.3C171.2,166.9,171.2,164.3,171.3,162.8z M164.9,165.8v1.8
			h-4.6v-1.8H164.9z"/>
		<path class="st1" d="M69.8,162.9c0-0.1,0-0.2,0-0.3v-0.1l0-0.1c-0.1-0.3-0.3-0.9-1.1-1l0,0h0h-4.7c-0.8,0-1.6,0-2.3,0
			c-2.3,0-4.7,0-7,0h0h0h-0.2c-0.8,0-1.3,0.4-1.4,1.1c0,0.1,0,0.2,0,0.3c0,2.5,0,4.9,0,7.4v6.7c0,0.1,0,0.2,0,0.3c0,0,0,0,0,0v0.3
			l0.1,0.1c0.1,0.3,0.4,0.7,1,0.7l0,0h0h4.6h0l0,0l0.1,0c0.8,0,1.5,0,2.3,0c2.3,0,4.7,0,7,0h0.2c0.8,0,1.3-0.4,1.4-1.1
			c0-0.1,0-0.2,0-0.3c0-2.5,0-4.9,0-7.4V162.9z M63.5,165.9v8h-4.1l0,0v-8H63.5z"/>
		<path class="st1" d="M48.3,154.1L48.3,154.1L48.3,154.1c-2,0-4.2,0-7.1,0l-3.6,0l-3.4,0h-0.8h-0.6v0.6v23v0.6h0.6h4.5h0.1l2,0l2,0
			c1.9,0,4.1,0,6.3,0c1.2,0,1.4-0.6,1.4-1v-3v-0.6H49H38.9v-15.2H49h0.6v-0.6v-2.2C49.6,155.1,49.6,154.1,48.3,154.1z"/>
		<linearGradient id="SVGID_1_" gradientUnits="userSpaceOnUse" x1="124.9682" y1="89.2293" x2="52.5086" y2="89.2293">
			<stop  offset="0" style="stop-color:#219ED9"/>
			<stop  offset="0.137" style="stop-color:#2A99D3"/>
			<stop  offset="0.379" style="stop-color:#3A88C5"/>
			<stop  offset="0.6953" style="stop-color:#486CAD"/>
			<stop  offset="1" style="stop-color:#514C94"/>
		</linearGradient>
		<path class="st2" d="M121.5,91.5c4.5,0,6.7,5.4,3.6,8.6l0,0l-29.4,29.4c-2,2-5.2,2-7.2,0L49,89.9c-2-2-2-5.2,0-7.2l33.2-33.2
			c2.7-2.7,7.2-2.7,9.9,0l0,0c2.7,2.7,2.7,7.2,0,9.9L68.8,82.8c-2,2-2,5.2,0,7.2l19.7,19.7c2,2,5.2,2,7.2,0l2.6-2.6
			c1-1,1.5-2.2,1.5-3.6v-5.1c0-0.7,0-1.4,0.1-2.1c0.2-2.7,2.4-4.7,5.1-4.7H121.5z"/>
		<linearGradient id="SVGID_2_" gradientUnits="userSpaceOnUse" x1="99.8018" y1="89.2293" x2="178.8067" y2="89.2293">
			<stop  offset="0" style="stop-color:#219ED9"/>
			<stop  offset="0.1279" style="stop-color:#32A1D4"/>
			<stop  offset="0.354" style="stop-color:#51A9C5"/>
			<stop  offset="0.6517" style="stop-color:#74B5A9"/>
			<stop  offset="1" style="stop-color:#9AC57A"/>
		</linearGradient>
		<path class="st3" d="M177.3,95.7l-33.2,33.2c-2.7,2.7-7.2,2.7-9.9,0v0c-2.7-2.7-2.7-7.2,0-9.9l23.3-23.3c2-2,2-5.2,0-7.2
			l-19.7-19.7c-2-2-5.2-2-7.2,0l-2.6,2.6c-0.9,0.9-1.5,2.2-1.5,3.6v5.1c0,0.7,0,1.4-0.1,2.1c-0.2,2.7-2.4,4.7-5.1,4.7h-16.5
			c-4.5,0-6.7-5.4-3.6-8.6l0,0l22.3-22.3l2.9-3l4.1-4.1c2-2,5.2-2,7.2,0l39.5,39.5C179.3,90.5,179.3,93.7,177.3,95.7z"/>
	</g>
</g>
</svg>
