<?xml version="1.0" encoding="utf-8"?>
<!-- Generator: Adobe Illustrator 19.0.0, SVG Export Plug-In . SVG Version: 6.00 Build 0)  -->
<svg version="1.1" id="Layer_1" xmlns="http://www.w3.org/2000/svg" x="0px" y="0px"
     viewBox="0 0 564.1 641" style="enable-background:new 0 0 564.1 641;" xml:space="preserve">
<style type="text/css">
	.st0{fill-rule:evenodd;clip-rule:evenodd;fill:url(#SVGID_1_);}
	.st1{fill-rule:evenodd;clip-rule:evenodd;fill:url(#SVGID_2_);}
	.st2{fill-rule:evenodd;clip-rule:evenodd;fill:url(#SVGID_3_);}
	.st3{fill-rule:evenodd;clip-rule:evenodd;fill:url(#SVGID_4_);}
	.st4{fill-rule:evenodd;clip-rule:evenodd;fill:url(#SVGID_5_);}
	.st5{fill-rule:evenodd;clip-rule:evenodd;fill:url(#SVGID_6_);}
	.st6{fill-rule:evenodd;clip-rule:evenodd;fill:url(#SVGID_7_);}
	.st7{fill-rule:evenodd;clip-rule:evenodd;fill:url(#SVGID_8_);}
	.st8{fill-rule:evenodd;clip-rule:evenodd;fill:url(#SVGID_9_);}
	.st9{fill-rule:evenodd;clip-rule:evenodd;fill:url(#SVGID_10_);}
	.st10{fill-rule:evenodd;clip-rule:evenodd;fill:url(#SVGID_11_);}
	.st11{fill-rule:evenodd;clip-rule:evenodd;fill:url(#SVGID_12_);}
</style>
<linearGradient id="SVGID_1_" gradientUnits="userSpaceOnUse" x1="248.1335" y1="-30.6988" x2="196.7026" y2="294.0233">
	<stop  offset="0" style="stop-color:#FFCB11"/>
	<stop  offset="0.57" style="stop-color:#ED2124"/>
	<stop  offset="1" style="stop-color:#EC008A"/>
</linearGradient>
<polygon class="st0" points="278.4,0 280.5,185.2 162.5,253.5 166.5,64.7 "/>
<linearGradient id="SVGID_2_" gradientUnits="userSpaceOnUse" x1="224.6281" y1="274.5963" x2="-81.6383" y2="-90.3979">
	<stop  offset="0" style="stop-color:#FFCB11"/>
	<stop  offset="0.62" style="stop-color:#ED2124"/>
	<stop  offset="1" style="stop-color:#EC008A"/>
</linearGradient>
<polygon class="st1" points="0,162.6 163.3,254.8 280.3,185.3 113.1,95.7 "/>
<linearGradient id="SVGID_3_" gradientUnits="userSpaceOnUse" x1="99.3597" y1="300.8224" x2="34.4826" y2="196.9973">
	<stop  offset="0" style="stop-color:#311B69"/>
	<stop  offset="1" style="stop-color:#4E2F91"/>
</linearGradient>
<polygon class="st2" points="0.3,162.4 163,254.5 163.2,389.1 0.7,291 "/>
<linearGradient id="SVGID_4_" gradientUnits="userSpaceOnUse" x1="219.0447" y1="225.3814" x2="65.8526" y2="389.6599">
	<stop  offset="0" style="stop-color:#492F92"/>
	<stop  offset="1" style="stop-color:#4E2F91"/>
</linearGradient>
<polygon class="st3" points="3.5,483.4 164.6,389.1 163,254.6 1.8,353 "/>
<linearGradient id="SVGID_5_" gradientUnits="userSpaceOnUse" x1="437.7576" y1="340.6123" x2="558.0012" y2="412.8619">
	<stop  offset="0" style="stop-color:#311B69"/>
	<stop  offset="1" style="stop-color:#4E2F91"/>
</linearGradient>
<polygon class="st4" points="561.8,478.5 401.1,386.5 400.9,252 563.5,348.2 "/>
<linearGradient id="SVGID_6_" gradientUnits="userSpaceOnUse" x1="306.5148" y1="426.8773" x2="518.7206" y2="235.8063">
	<stop  offset="0" style="stop-color:#492F92"/>
	<stop  offset="1" style="stop-color:#4E2F91"/>
</linearGradient>
<polygon class="st5" points="562.7,156.3 400.8,251.9 401.1,386.7 564.1,285 "/>
<linearGradient id="SVGID_7_" gradientUnits="userSpaceOnUse" x1="498.5576" y1="146.2046" x2="405.1925" y2="178.3528">
	<stop  offset="0" style="stop-color:#E70B69"/>
	<stop  offset="1" style="stop-color:#8C0262"/>
</linearGradient>
<polygon class="st6" points="562.7,156.6 400.9,251.9 283.1,184.8 446,92.2 "/>
<linearGradient id="SVGID_8_" gradientUnits="userSpaceOnUse" x1="332.9124" y1="62.7416" x2="325.0169" y2="-87.9117">
	<stop  offset="0" style="stop-color:#E70B69"/>
	<stop  offset="1" style="stop-color:#8C0262"/>
</linearGradient>
<polygon class="st7" points="278.3,0 280.4,185.3 400.9,252 391.9,63.1 "/>
<linearGradient id="SVGID_9_" gradientUnits="userSpaceOnUse" x1="69.9241" y1="513.2597" x2="176.5484" y2="449.1934">
	<stop  offset="0" style="stop-color:#E70B69"/>
	<stop  offset="1" style="stop-color:#8C0262"/>
</linearGradient>
<polygon class="st8" points="3.4,483.4 164.6,389.1 281.2,456.2 116.6,548.8 "/>
<linearGradient id="SVGID_10_" gradientUnits="userSpaceOnUse" x1="207.649" y1="576.3867" x2="169.5041" y2="729.3774">
	<stop  offset="0" style="stop-color:#E70B69"/>
	<stop  offset="1" style="stop-color:#8C0262"/>
</linearGradient>
<polygon class="st9" points="281.3,641 281.9,454.9 164.6,389.1 169.2,577.9 "/>
<linearGradient id="SVGID_11_" gradientUnits="userSpaceOnUse" x1="254.6563" y1="611.2106" x2="469.7242" y2="363.8033">
	<stop  offset="0" style="stop-color:#FFCB11"/>
	<stop  offset="0.57" style="stop-color:#ED2124"/>
	<stop  offset="1" style="stop-color:#EC008A"/>
</linearGradient>
<polygon class="st10" points="280.9,641.1 281.8,455 399.7,387.5 393.6,576.4 "/>
<linearGradient id="SVGID_12_" gradientUnits="userSpaceOnUse" x1="316.8599" y1="407.9745" x2="903.5728" y2="733.1948">
	<stop  offset="0" style="stop-color:#FFCB11"/>
	<stop  offset="0.38" style="stop-color:#ED2124"/>
	<stop  offset="1" style="stop-color:#EC008A"/>
</linearGradient>
<polygon class="st11" points="561.7,478.5 401.1,386.5 281.6,455 442.4,545.7 "/>
</svg>
