<?xml version="1.0" encoding="UTF-8"?>
<svg width="696px" height="696px" viewBox="0 0 696 696" version="1.1" xmlns="http://www.w3.org/2000/svg" xmlns:xlink="http://www.w3.org/1999/xlink">
  <title>Combined Shape</title>
  <ellipse stroke="#000" ry="340" rx="340" id="svg_3" cy="348" cx="348" fill="#fff"/>
  <g id="Logos" stroke="none" stroke-width="1" fill="none" fill-rule="evenodd">
    <g id="Artboard-Copy-46" transform="translate(-152.000000, -152.000000)" fill="#131316">
      <path d="M500,152 C692.195093,152 848,307.804907 848,500 C848,692.195093 692.195093,848 500,848 C307.804907,848 152,692.195093 152,500 C152,307.804907 307.804907,152 500,152 Z M500,257.28 L497.202377,257.301009 L494.469916,257.362178 C404.452402,260.040519 329.81482,327.886022 318.70254,416.585489 L318.70254,416.585489 L318.427,418.929 L318.298217,419.843135 C317.621499,424.849378 317.28,429.91735 317.28,435.022118 L317.28,435.022118 L317.28,630.272 L317.295065,632.131533 C318.28807,693.377175 368.245718,742.72 429.728,742.72 L429.728,742.72 L431.669106,742.704935 L433.502867,742.660493 C493.896669,740.711625 542.257572,691.13946 542.257572,630.272 L542.257572,630.272 L542.257,616.561 L542.870716,616.419848 L545.289905,615.823572 C624.90419,595.622539 682.72,523.683783 682.72,439.369748 C682.72,338.786238 600.895428,257.28 500,257.28 L500,257.28 Z M500,298.72 C578.044831,298.72 641.28,361.709156 641.28,439.369748 C641.28,501.895514 600.045538,555.658239 542.259057,573.632962 L542.259057,573.632962 L542.257572,473.142663 L542.248147,471.979296 C541.626901,433.662613 510.372246,402.792605 471.907514,402.792605 C433.486681,402.792605 402.188934,433.616369 401.566829,471.98604 L401.566829,471.98604 L401.558137,472.974807 L401.557457,512.12605 L401.571792,513.914009 C402.472158,570.026947 445.677518,615.964743 500.817072,621.001343 L500.817072,621.001343 L500.817572,630.271647 L500.808059,631.445905 C500.181002,670.121284 468.634041,701.28 429.809572,701.28 L429.809572,701.28 L428.553753,701.270487 C389.878716,700.64343 358.72,669.096469 358.72,630.272 L358.72,630.272 L358.72,435.022118 L358.727614,433.968346 C358.773283,430.810626 359.02421,427.685676 359.475932,424.605029 L359.475932,424.605029 L359.530202,424.234923 L359.571077,423.863099 L359.820571,421.741747 C368.571881,351.904106 428.472705,298.72 500,298.72 Z M471.907514,444.232605 L472.385595,444.236478 C488.131674,444.491777 500.817572,457.335745 500.817572,473.142663 L500.817572,473.142663 L500.817572,579.277 L499.960492,579.145436 C467.633206,573.917278 442.997,545.866096 442.997,512.12605 L442.997,512.12605 L442.997,473.142 L443.002,472.619 L443.01282,472.186074 C443.514413,456.649064 456.278096,444.232605 471.907514,444.232605 L471.907514,444.232605 Z"
            id="Combined-Shape"/>
    </g>
  </g>
</svg>