<?xml version="1.0" standalone="no"?>
<!DOCTYPE svg PUBLIC "-//W3C//DTD SVG 20010904//EN"
 "http://www.w3.org/TR/2001/REC-SVG-20010904/DTD/svg10.dtd">
<svg version="1.0" xmlns="http://www.w3.org/2000/svg"
 width="512.000000pt" height="512.000000pt" viewBox="0 0 512.000000 512.000000"
 preserveAspectRatio="xMidYMid meet">

<g transform="translate(0.000000,512.000000) scale(0.100000,-0.100000)"
fill="#000000" stroke="none">
<path d="M1861 4889 c-235 -46 -411 -297 -372 -531 6 -38 18 -85 26 -104 l14
-33 -426 -3 -425 -3 -19 -24 c-19 -23 -19 -63 -19 -1602 l0 -1579 -299 0 -300
0 -21 -27 c-20 -25 -22 -36 -17 -103 13 -172 81 -315 212 -445 99 -100 175
-146 305 -187 l75 -23 1965 0 1965 0 75 23 c130 41 206 87 305 187 97 97 143
170 187 300 l23 70 3 1683 2 1683 -24 24 -25 25 -306 0 -306 0 -24 -25 c-32
-31 -33 -74 -2 -103 23 -21 30 -22 280 -22 l257 0 0 -1592 c0 -1761 3 -1663
-65 -1799 -92 -181 -301 -310 -504 -309 -145 1 -283 61 -392 169 -109 109
-169 243 -169 377 0 34 -6 51 -25 69 l-24 25 -931 0 -931 0 -24 -25 c-14 -13
-25 -31 -25 -40 0 -24 27 -72 45 -79 9 -3 410 -6 890 -6 l874 0 11 -56 c30
-146 95 -268 195 -370 l63 -64 -1642 0 c-1405 0 -1651 2 -1711 15 -173 36
-321 151 -395 306 -22 46 -42 103 -46 127 l-7 42 730 0 c724 0 731 0 757 21
33 26 36 79 6 109 -19 19 -33 20 -440 20 l-420 0 0 1530 0 1530 425 0 425 0
45 -34 c79 -61 145 -80 270 -81 116 0 197 20 255 65 l25 19 225 -224 c197
-196 230 -225 257 -225 44 0 76 30 76 69 0 29 -21 54 -181 214 -100 100 -182
186 -182 190 0 4 389 7 865 7 852 0 865 0 885 20 30 30 27 83 -6 109 -27 21
-32 21 -904 21 l-878 0 20 63 c15 49 19 83 16 162 -3 91 -7 107 -40 178 -96
202 -308 309 -527 266z"/>
<path d="M3020 3013 c-8 -3 -23 -12 -32 -21 -17 -14 -18 -46 -18 -412 0 -467
-8 -437 112 -433 169 6 340 74 427 169 63 68 86 133 85 235 -1 63 -6 87 -32
144 -59 126 -198 229 -387 288 -95 29 -135 36 -155 30z m205 -212 c142 -66
217 -155 218 -256 2 -121 -97 -203 -290 -240 l-33 -7 0 271 c0 191 3 271 11
271 6 0 48 -18 94 -39z"/>
<path d="M1414 2930 c-26 -10 -54 -48 -54 -72 0 -9 11 -29 24 -44 22 -26 29
-28 120 -32 l96 -4 0 -289 c0 -287 0 -288 23 -315 28 -33 76 -37 107 -9 19 17
20 30 20 315 l0 298 101 4 c91 3 103 6 120 27 26 31 25 83 -2 107 -19 18 -41
19 -278 21 -141 1 -266 -2 -277 -7z"/>
<path d="M2267 2929 c-62 -15 -112 -45 -155 -94 -54 -62 -80 -118 -99 -215
-15 -73 -15 -87 0 -160 19 -99 46 -155 103 -218 84 -95 209 -121 317 -68 218
106 269 469 92 664 -64 72 -176 111 -258 91z m142 -188 c47 -47 71 -114 71
-201 0 -87 -24 -154 -71 -201 -34 -34 -45 -39 -85 -39 -56 0 -94 25 -128 83
-50 85 -50 229 -1 314 35 59 71 82 128 83 41 0 51 -4 86 -39z"/>
<path d="M4017 2926 c-228 -62 -324 -407 -177 -636 60 -93 146 -143 245 -143
78 1 140 30 200 94 151 161 151 437 0 598 -76 81 -173 113 -268 87z m146 -176
c109 -95 109 -325 0 -420 -67 -59 -156 -33 -209 62 -26 48 -29 62 -29 148 0
86 3 100 29 148 53 95 142 122 209 62z"/>
<path d="M2105 1870 c-28 -31 -24 -79 9 -107 l27 -23 820 0 821 0 29 29 c34
35 36 59 8 95 l-20 26 -838 0 c-827 0 -838 0 -856 -20z"/>
<path d="M2269 1472 c-33 -27 -30 -78 5 -109 l27 -23 540 0 541 0 30 30 c24
25 29 36 23 58 -16 66 19 62 -590 62 -522 0 -554 -1 -576 -18z"/>
</g>
</svg>
