<?xml version="1.0" standalone="no"?>
<!DOCTYPE svg PUBLIC "-//W3C//DTD SVG 20010904//EN"
 "http://www.w3.org/TR/2001/REC-SVG-20010904/DTD/svg10.dtd">
<svg version="1.0" xmlns="http://www.w3.org/2000/svg"
 width="478.000000pt" height="398.000000pt" viewBox="0 0 478.000000 398.000000"
 preserveAspectRatio="xMidYMid meet">

<g transform="translate(0.000000,398.000000) scale(0.100000,-0.100000)"
fill="#000000" stroke="none">
<path d="M346 3970 c-70 -18 -173 -80 -226 -136 -28 -30 -65 -84 -83 -121 -29
-62 -32 -76 -31 -158 1 -96 22 -171 71 -249 69 -108 151 -157 844 -503 401
-199 450 -227 487 -268 130 -148 79 -375 -103 -461 l-50 -24 -581 0 c-653 0
-594 8 -594 -79 l0 -48 61 -7 c34 -3 297 -6 584 -6 493 0 527 1 586 20 170 52
291 204 306 381 10 122 -31 233 -124 330 -52 55 -79 70 -506 283 -533 265
-698 354 -750 404 -55 54 -89 129 -95 212 -4 61 -1 76 22 124 32 65 89 118
164 153 l54 25 586 -3 587 -4 3 68 3 67 -268 0 c-147 0 -412 2 -588 5 -195 3
-335 1 -359 -5z"/>
<path d="M2041 3970 c-96 -23 -216 -101 -271 -178 -78 -109 -75 -73 -75 -847
l0 -690 23 -60 c43 -115 138 -211 252 -258 53 -21 68 -22 443 -25 484 -4 573
3 675 53 l74 37 37 -36 37 -36 99 0 100 0 -89 89 -88 89 28 68 29 69 3 665 c2
473 0 682 -8 725 -35 178 -171 310 -347 334 -81 12 -873 12 -922 1z m949 -146
c39 -12 66 -29 105 -67 89 -89 85 -53 85 -812 0 -631 -4 -725 -28 -725 -4 0
-142 135 -307 300 l-301 301 -87 -3 -88 -3 346 -355 346 -355 -53 -25 -53 -25
-460 0 c-455 0 -460 0 -501 22 -23 12 -62 45 -87 73 -81 90 -78 58 -75 816 3
668 3 669 25 710 30 56 103 119 167 143 48 19 77 20 482 20 364 1 439 -1 484
-15z"/>
<path d="M3400 3140 c0 -568 3 -846 11 -882 26 -125 114 -233 237 -291 l67
-32 513 -3 512 -3 0 70 0 70 -492 -2 c-482 -2 -494 -2 -538 19 -62 29 -105 67
-138 123 l-27 46 -3 858 -2 857 -70 0 -70 0 0 -830z"/>
<path d="M270 1854 c-71 -13 -97 -38 -114 -108 -6 -23 -9 -27 -17 -15 -6 10
-9 5 -9 -18 0 -18 -1 -33 -3 -33 -1 0 -17 4 -35 9 -20 6 -32 6 -32 0 0 -5 6
-9 13 -10 6 -1 1 -4 -13 -8 l-25 -7 35 -19 35 -18 -35 -10 -35 -10 35 -12 35
-12 -33 -7 c-39 -9 -33 -26 11 -27 34 -1 31 -3 -18 -14 l-30 -7 25 -13 25 -14
-35 -1 -35 -2 50 -22 50 -23 -32 -7 c-38 -9 -44 -26 -10 -27 20 -1 19 -2 -7
-13 l-29 -13 34 -13 34 -13 -33 -10 -34 -10 34 -18 33 -18 -32 -1 c-44 0 -42
-14 5 -33 35 -14 36 -15 10 -16 -34 -1 -37 -17 -6 -27 21 -7 20 -9 -12 -14
l-35 -6 35 -16 c29 -14 31 -17 13 -17 -34 -1 -28 -17 10 -26 l32 -8 -27 -4
c-34 -5 -36 -18 -5 -28 21 -6 20 -7 -13 -23 l-35 -16 30 -4 c17 -2 35 -8 42
-13 7 -7 14 -6 18 1 3 5 -4 14 -17 19 l-23 9 28 7 c33 9 36 25 5 26 -17 1 -14
4 12 11 19 6 29 13 23 15 -7 3 -13 10 -13 17 0 7 -15 20 -32 29 -27 13 -29 16
-12 16 32 1 37 14 12 28 -22 12 -22 12 12 13 41 0 32 13 -25 34 l-40 15 32 0
c44 1 49 17 10 31 l-32 12 35 13 35 13 -35 13 -35 13 35 9 35 9 -30 12 -30 13
30 8 30 8 -38 17 c-29 13 -35 19 -22 24 9 3 25 6 36 6 30 0 22 20 -8 21 -22 1
-18 4 22 17 l50 16 -45 6 c-43 6 -44 7 -20 17 l25 11 -35 8 -34 7 34 13 c19 7
30 13 24 13 -5 1 -19 8 -30 16 -18 14 -18 15 0 8 13 -4 23 0 32 12 8 11 14 13
14 6 0 -7 5 -9 10 -6 6 3 10 1 10 -4 0 -23 18 -9 28 22 10 32 10 32 11 5 1
-16 5 -28 10 -28 5 0 14 12 19 28 l10 27 12 -30 12 -30 19 24 20 24 6 -21 c6
-24 23 -30 23 -9 0 8 3 8 9 -2 7 -12 14 -10 36 8 35 27 41 27 49 -4 8 -30 26
-24 27 8 0 19 2 19 11 -5 11 -33 24 -36 33 -8 3 11 11 20 16 20 5 0 9 -9 9
-20 0 -29 14 -25 27 8 10 24 11 25 12 5 2 -36 19 -36 38 -1 l17 33 6 -33 5
-34 23 31 c27 37 41 40 34 6 -6 -34 16 -32 24 2 l7 28 12 -35 12 -35 10 35 10
35 13 -27 c14 -30 30 -37 30 -13 0 8 5 15 10 15 6 0 10 -10 10 -22 1 -23 1
-23 15 2 11 19 14 21 15 8 0 -10 5 -18 10 -18 6 0 10 8 11 18 0 12 3 10 10 -8
l10 -25 13 24 c12 22 13 22 20 5 7 -17 9 -17 18 6 l9 25 14 -25 c8 -14 14 -20
15 -13 0 7 7 10 15 7 10 -4 15 0 15 16 0 11 -4 18 -10 15 -6 -3 -10 4 -10 17
-1 21 -2 21 -11 5 -9 -15 -12 -16 -25 -2 -21 21 -29 19 -45 -12 l-13 -28 -4
33 c-4 35 -22 35 -22 -1 0 -20 -1 -20 -13 -3 -13 18 -14 18 -22 0 -7 -17 -8
-17 -15 6 l-7 25 -12 -30 -13 -30 -15 29 -15 29 -13 -24 -13 -24 -8 30 c-6 26
-8 27 -15 10 -7 -20 -8 -20 -9 0 -1 17 -7 14 -35 -19 l-35 -39 0 36 c0 21 -4
37 -10 37 -5 0 -10 11 -10 24 0 14 -11 38 -24 53 l-24 28 -139 1 c-76 1 -149
0 -163 -2z m286 -42 c19 -12 34 -49 33 -79 -2 -23 -2 -24 -6 -5 -6 30 -19 28
-28 -5 l-8 -28 -12 30 -13 30 -15 -35 -14 -35 -18 37 c-17 34 -20 36 -31 20
-8 -9 -14 -13 -14 -8 0 6 -14 -3 -30 -19 -26 -25 -32 -27 -40 -15 -5 8 -10 21
-10 27 0 19 -40 10 -56 -12 -16 -21 -16 -21 -37 20 l-16 30 -10 -25 c-7 -18
-10 -20 -10 -7 -1 20 -17 23 -25 5 -3 -7 -3 -2 0 12 8 32 23 50 49 60 25 11
296 12 311 2z"/>
<path d="M3315 1728 c-5 -23 -9 -27 -12 -15 -7 27 -21 20 -15 -9 4 -24 3 -25
-16 -15 -34 18 -49 12 -22 -9 25 -19 25 -19 5 -34 -11 -9 -23 -16 -27 -16 -16
0 -7 -20 10 -21 14 0 14 -2 -3 -9 -14 -6 -15 -9 -5 -10 12 0 12 -3 -3 -14 -16
-13 -16 -15 -2 -30 9 -9 22 -16 28 -17 7 0 3 -4 -8 -9 l-20 -9 20 0 c18 -1 18
-3 -4 -14 -33 -17 -38 -37 -9 -37 17 0 19 -3 9 -9 -11 -7 -10 -10 5 -14 15 -4
14 -5 -5 -6 -19 -1 -21 -4 -12 -15 10 -11 8 -17 -6 -25 -17 -10 -16 -11 6 -18
22 -5 23 -7 7 -13 -17 -6 -17 -7 -2 -23 15 -14 15 -17 2 -17 -12 0 -13 -6 -6
-31 8 -26 7 -29 -5 -19 -12 10 -15 9 -15 -6 -1 -16 -3 -15 -15 6 -14 25 -14
25 -15 3 0 -28 -8 -29 -26 -5 -12 16 -13 15 -14 -8 l-1 -25 -13 23 -12 23 -12
-23 -11 -23 0 23 c-1 12 -5 22 -9 22 -5 0 -14 -10 -20 -22 l-11 -23 -1 25 c0
19 -3 21 -9 10 -5 -8 -6 -30 -3 -49 l5 -34 18 34 18 34 1 -27 c0 -16 4 -28 9
-28 5 0 12 12 16 28 l8 27 13 -30 c13 -30 13 -30 20 -6 l7 23 13 -23 13 -24 1
25 c1 23 2 24 14 8 18 -24 26 -23 26 5 0 21 1 20 25 -8 27 -33 30 -30 15 10
-10 26 -9 27 17 21 23 -6 25 -5 14 7 -9 12 -9 17 0 23 9 5 7 10 -7 15 -13 5
-14 8 -4 8 10 1 15 11 15 31 0 20 -5 30 -15 30 -13 0 -13 1 0 10 8 5 11 10 5
10 -5 0 -3 5 5 10 13 9 13 11 0 20 -12 8 -10 10 9 10 23 0 23 1 8 18 -10 10
-17 24 -17 30 0 7 -6 12 -12 12 -7 1 -2 7 11 14 l24 14 -29 15 c-24 14 -26 16
-9 18 17 1 16 2 -5 8 l-25 7 23 8 c26 9 30 46 5 47 -14 0 -12 3 5 10 13 5 21
13 18 18 -3 5 0 11 8 14 8 3 17 20 21 38 l7 33 21 -39 c20 -39 21 -39 27 -15
l6 25 9 -25 8 -25 12 29 c12 29 13 29 20 7 l7 -23 15 22 16 23 12 -22 c10 -20
13 -21 24 -7 11 13 11 19 1 31 -7 8 -16 12 -21 9 -5 -3 -9 1 -9 8 0 7 -9 2
-19 -12 l-19 -24 -4 29 -4 30 -15 -33 -15 -33 -13 28 c-13 26 -14 27 -21 8 -7
-19 -8 -18 -20 8 -17 35 -26 34 -35 -5z"/>
<path d="M3792 1723 l-21 -28 -21 24 c-20 23 -20 23 -20 2 0 -27 -8 -26 -37 1
l-23 21 0 -24 0 -24 -19 24 -18 24 -17 -24 -16 -23 0 24 c-1 23 -2 22 -15 -8
-9 -21 -12 -40 -6 -49 6 -12 13 -8 31 22 l23 37 23 -29 c22 -27 23 -27 24 -5
0 28 8 28 37 0 21 -19 23 -20 23 -4 0 16 2 16 15 6 11 -10 19 -10 27 -2 7 7
16 5 31 -9 11 -10 30 -19 41 -19 21 -1 21 -1 2 -15 -11 -8 -15 -15 -9 -15 6 0
10 -8 8 -17 -2 -10 -4 -21 -4 -25 -1 -5 -8 -8 -16 -8 -16 0 -20 -12 -8 -24 13
-13 10 -32 -6 -33 -9 -1 -28 -4 -43 -7 -16 -2 -28 0 -28 6 0 6 -6 5 -15 -2 -8
-7 -15 -8 -15 -3 0 14 -60 10 -69 -5 -6 -10 -10 -8 -15 10 -5 14 -9 18 -13 10
-2 -6 -9 -10 -14 -6 -5 3 -9 0 -9 -6 0 -6 -4 -8 -10 -5 -5 3 -10 0 -10 -7 0
-9 -3 -9 -8 -2 -4 6 -15 13 -24 17 -14 5 -18 1 -18 -15 0 -21 0 -21 -25 2 -14
13 -25 18 -25 12 0 -6 5 -14 10 -17 20 -12 10 -27 -15 -23 -31 6 -33 -7 -2
-17 l22 -7 -25 -7 c-17 -4 -25 -13 -26 -28 0 -13 4 -23 10 -23 7 0 7 -3 -1 -8
-17 -11 -4 -58 20 -70 l22 -11 -22 0 c-13 -1 -23 -6 -23 -12 0 -7 10 -9 25 -5
31 8 31 8 0 -34 -28 -38 -25 -52 5 -25 20 18 20 17 20 -11 l1 -29 13 24 c12
22 13 22 20 5 7 -17 9 -17 18 6 l9 25 17 -30 17 -30 3 25 4 25 13 -30 c13 -30
13 -30 15 -5 l1 25 11 -23 12 -23 12 28 c8 19 13 22 13 11 1 -10 6 -18 11 -18
6 0 10 8 10 18 1 16 1 16 14 0 10 -13 15 -15 24 -6 9 9 12 9 12 -2 0 -11 3
-11 12 -2 10 10 15 7 25 -10 10 -19 12 -20 13 -5 0 10 4 16 9 13 5 -3 12 2 16
12 6 16 7 16 16 0 6 -10 14 -18 19 -18 5 0 7 8 3 18 -6 15 -4 15 15 -2 22 -19
22 -19 22 0 1 16 3 15 15 -6 l14 -25 10 25 c8 21 10 22 11 5 1 -18 2 -18 14 4
l14 24 6 -21 c4 -12 12 -22 17 -22 6 0 7 9 4 21 -7 22 -7 22 25 -1 l32 -23 -7
22 -7 22 41 -21 c46 -23 56 -14 14 12 l-28 17 24 1 c24 0 24 0 5 16 -10 8 -14
13 -7 10 6 -4 14 -2 17 3 3 5 -2 12 -12 16 -15 6 -14 8 8 17 24 10 24 10 5 18
-11 5 -14 9 -7 9 25 2 11 21 -15 22 -16 0 -21 3 -13 6 8 2 22 7 30 9 13 5 13
6 0 14 -11 7 -12 10 -2 10 7 0 11 4 8 9 -4 5 6 14 21 19 l28 10 -35 2 c-19 1
-29 4 -22 7 6 2 12 11 12 19 0 8 8 14 18 14 13 1 11 4 -8 15 -22 13 -23 14 -5
15 17 0 17 2 5 10 -13 9 -13 11 0 20 13 8 12 10 -4 10 -12 0 -16 5 -13 14 3 8
1 17 -6 20 -7 2 -2 5 10 5 24 1 26 27 2 42 -11 7 -11 9 -1 9 8 0 10 5 6 13 -5
8 -2 7 9 -2 16 -12 17 -12 11 5 -5 18 -5 18 10 0 16 -19 16 -19 16 5 l1 24 14
-25 c14 -24 14 -24 15 -3 0 31 16 37 24 10 7 -21 7 -21 16 -2 5 11 9 14 9 7 1
-22 21 -2 21 21 0 20 2 20 25 -8 16 -19 25 -25 25 -15 0 12 4 11 15 -3 13 -18
14 -17 17 10 l3 28 17 -30 c10 -16 17 -23 18 -15 0 12 2 12 9 2 13 -22 29 8
24 46 -6 39 -18 41 -31 5 l-9 -28 -13 28 c-17 34 -30 35 -30 0 0 -26 -1 -26
-15 -7 -10 13 -14 15 -15 5 0 -11 -4 -10 -19 3 -14 13 -21 14 -26 6 -6 -9 -10
-9 -16 1 -7 11 -9 10 -9 -3 0 -10 -4 -18 -10 -18 -5 0 -10 7 -10 15 0 8 -4 15
-10 15 -5 0 -10 -9 -10 -20 0 -11 -4 -20 -10 -20 -5 0 -10 7 -10 15 0 24 -20
17 -21 -7 l0 -23 -11 23 c-14 27 -32 29 -25 2 5 -20 5 -20 -24 1 -32 22 -37
16 -13 -16 14 -19 13 -20 -13 -25 l-28 -6 30 -17 c26 -14 27 -16 8 -17 -12 0
-29 -3 -37 -6 -14 -5 -13 -9 5 -25 12 -11 17 -19 11 -19 -22 0 -12 -20 11 -21
16 -1 18 -2 5 -6 -25 -6 -22 -40 4 -49 l21 -6 -24 -14 c-15 -8 -18 -13 -9 -14
12 0 13 -2 1 -9 -7 -5 -10 -14 -7 -20 4 -6 1 -11 -6 -12 -7 0 -4 -4 7 -8 19
-8 19 -8 -3 -15 -12 -4 -20 -11 -17 -16 3 -4 -5 -11 -18 -15 -19 -7 -16 -9 18
-14 28 -4 36 -9 26 -15 -9 -6 -10 -11 -2 -15 7 -5 0 -19 -20 -39 -33 -34 -44
-38 -54 -22 -10 16 -35 11 -36 -7 0 -11 -3 -13 -6 -5 -8 20 -23 14 -23 -10 -1
-21 -2 -20 -18 7 -16 29 -17 29 -20 7 -3 -23 -4 -23 -23 -6 -15 13 -19 14 -19
3 -1 -10 -4 -9 -11 3 -9 17 -11 17 -32 -2 l-21 -20 -13 22 c-11 21 -12 21 -13
4 0 -20 0 -20 -15 0 -14 19 -14 19 -15 -1 -1 -18 -2 -17 -15 5 -14 25 -14 25
-15 3 0 -25 -15 -31 -23 -10 -3 7 -9 2 -14 -13 l-10 -24 -13 23 c-10 19 -14
21 -21 10 -7 -11 -9 -10 -9 4 0 25 -20 21 -21 -5 -1 -21 -2 -20 -14 7 l-13 30
-11 -25 -10 -25 -1 25 c0 18 -3 21 -9 11 -5 -7 -11 -9 -14 -4 -3 5 -2 15 3 23
7 11 3 18 -13 27 l-22 12 24 1 23 0 -23 20 c-13 10 -19 19 -12 20 6 0 9 9 6
20 -3 13 0 20 8 20 11 0 12 2 1 9 -10 6 -7 12 13 25 15 10 29 15 32 12 4 -3
12 -1 20 5 10 9 13 7 14 -7 0 -11 3 -14 6 -6 2 6 9 10 14 6 5 -3 9 2 9 10 0 9
5 16 10 16 6 0 10 -7 10 -16 0 -11 6 -14 20 -9 15 5 20 2 21 -12 0 -16 1 -16
9 2 5 11 9 14 9 7 1 -9 6 -10 20 -2 27 14 41 13 41 -5 0 -23 17 -18 25 8 l7
22 6 -23 7 -23 22 20 c15 15 23 17 27 8 4 -7 4 -1 2 12 l-5 23 23 -21 c29 -28
41 -27 22 1 -21 29 -20 39 2 32 12 -4 10 0 -5 12 -22 16 -33 42 -14 29 5 -3
12 -1 16 5 3 5 0 10 -7 11 -7 0 -1 5 15 11 32 11 36 28 7 28 -18 0 -19 3 -10
20 6 11 18 20 26 20 27 0 -9 28 -42 32 l-29 4 28 14 c45 22 30 31 -18 10 -47
-20 -48 -19 -45 18 2 28 -1 28 -28 -5z"/>
<path d="M4581 1742 c-1 -7 -5 -10 -11 -7 -5 3 -12 -6 -16 -20 -3 -14 -11 -22
-17 -18 -7 4 -8 0 -4 -11 4 -10 7 -21 7 -24 1 -4 7 4 15 18 13 22 14 23 15 5
0 -17 2 -18 11 -5 8 11 12 12 16 3 7 -19 23 -16 24 5 0 10 3 12 6 5 7 -19 23
-16 24 5 0 12 3 11 10 -7 6 -16 14 -21 25 -17 12 4 15 2 10 -9 -3 -10 1 -15
12 -15 16 -1 16 -2 -1 -14 -14 -11 -15 -15 -5 -19 8 -4 7 -6 -4 -6 -10 -1 -18
-5 -18 -10 0 -5 8 -12 18 -14 15 -4 15 -5 -2 -6 -15 -1 -16 -4 -6 -16 10 -12
10 -21 0 -46 -8 -19 -16 -26 -20 -19 -6 9 -10 9 -16 -1 -6 -10 -10 -7 -15 11
-7 24 -7 25 -14 3 l-7 -21 -21 21 c-20 20 -21 20 -28 1 -4 -10 -8 -14 -8 -8
-1 16 -48 15 -61 -1 -7 -8 -7 -21 -1 -36 8 -22 10 -22 16 -6 6 15 10 16 16 5
7 -10 9 -10 9 2 1 8 6 4 12 -10 10 -24 10 -24 18 -5 5 11 9 16 9 10 1 -5 6 -3
11 5 8 13 10 12 10 -2 0 -10 4 -18 9 -18 5 0 11 8 14 18 3 14 6 13 14 -7 l10
-24 21 21 c12 12 22 18 22 12 0 -18 20 -11 20 8 1 15 2 15 17 -3 15 -20 15
-20 10 3 -4 19 -3 21 9 11 22 -18 17 5 -8 36 l-21 27 21 -6 c26 -9 29 2 5 20
-17 13 -17 13 2 14 18 1 18 2 -4 14 l-23 13 22 6 c12 3 19 10 15 16 -3 6 -1
11 4 11 6 0 11 5 11 10 0 6 -8 10 -17 10 -15 0 -14 2 3 15 10 8 15 15 9 15 -5
0 -3 5 5 10 13 8 13 10 -2 10 -9 0 -28 -4 -42 -10 -25 -9 -26 -8 -20 18 l6 27
-20 -24 -19 -24 -11 29 -10 29 -10 -25 c-8 -18 -11 -20 -11 -7 -1 9 -5 17 -10
17 -5 0 -11 -8 -14 -17 -3 -15 -6 -14 -15 7 -6 14 -11 19 -11 12z"/>
<path d="M1020 1733 c0 -7 9 -27 20 -45 16 -26 20 -29 20 -13 1 18 2 18 14 -4
l13 -23 7 33 7 34 17 -30 c14 -25 17 -27 20 -11 3 15 6 16 13 5 8 -12 12 -11
24 5 15 19 15 19 15 -5 l0 -24 20 25 20 25 1 -25 c1 -25 1 -24 14 5 l14 30 11
-33 c11 -30 13 -31 26 -15 11 14 13 15 14 3 0 -12 4 -10 15 4 12 16 15 17 15
4 0 -10 7 -15 18 -14 9 2 19 0 22 -4 12 -16 58 -19 70 -5 11 13 8 15 -15 15
-27 0 -27 1 -12 18 24 26 21 36 -5 18 -30 -21 -38 -20 -38 7 -1 21 -1 21 -14
4 -14 -18 -15 -18 -24 0 -10 17 -11 17 -18 -1 -7 -19 -8 -19 -15 0 -6 18 -7
18 -16 -4 l-9 -24 -13 28 c-10 22 -14 25 -22 13 -7 -12 -9 -12 -9 1 0 10 -7 7
-20 -10 l-20 -25 0 25 0 25 -19 -29 -19 -28 -13 23 c-12 23 -12 23 -19 4 -7
-19 -7 -19 -14 3 -4 12 -12 22 -17 22 -5 0 -9 -10 -9 -22 -1 -23 -1 -23 -16
-3 -12 15 -18 16 -21 7 -4 -10 -9 -8 -19 5 -8 10 -13 13 -14 6z"/>
<path d="M3540 1712 c0 -20 -4 -31 -10 -27 -16 10 -12 -11 5 -25 13 -11 15 -8
15 14 0 16 4 25 10 21 15 -9 12 8 -5 31 -14 18 -14 17 -15 -14z"/>
<path d="M4442 1728 c-15 -15 -16 -32 -2 -23 6 3 10 -3 10 -14 0 -12 5 -21 10
-21 6 0 10 10 10 23 0 21 1 21 24 -7 l23 -30 6 30 c3 16 1 33 -4 39 -5 5 -9 0
-9 -15 l0 -25 -20 25 c-11 14 -20 21 -20 15 0 -5 -4 -4 -8 2 -6 10 -11 10 -20
1z"/>
<path d="M1379 1619 l-24 -20 35 5 35 6 -25 -21 c-22 -19 -23 -22 -7 -30 24
-14 21 -26 -10 -42 l-27 -14 24 -8 c23 -7 23 -8 4 -22 -18 -13 -18 -15 15 -40
33 -26 33 -27 11 -35 -22 -8 -22 -9 -5 -22 18 -13 18 -14 -1 -24 -18 -10 -17
-11 10 -22 20 -7 32 -8 40 0 7 7 2 10 -14 10 -24 1 -25 1 -5 16 17 13 18 16 5
24 -12 8 -11 10 5 10 17 1 15 5 -12 29 -38 32 -41 41 -13 41 30 0 21 34 -10
41 l-25 6 28 13 c33 16 34 24 5 37 -21 9 -21 11 17 36 l40 27 -33 0 c-20 0
-31 4 -27 10 11 17 -12 11 -36 -11z"/>
<path d="M170 1613 c0 -49 91 -94 233 -112 111 -15 178 -54 207 -121 10 -24
10 -24 4 5 -13 68 -85 109 -230 131 -116 17 -177 44 -198 87 -13 27 -16 28
-16 10z"/>
<path d="M830 1523 c0 -31 -16 -37 -25 -10 -6 20 -7 20 -19 -12 l-12 -34 -14
33 -14 34 -8 -32 c-7 -28 -12 -31 -33 -26 -20 5 -23 3 -18 -15 4 -17 1 -21
-17 -21 -18 0 -20 -3 -11 -14 10 -11 8 -15 -6 -18 -15 -3 -12 -7 12 -20 l30
-16 -28 -7 c-26 -7 -26 -8 -10 -21 17 -13 17 -13 -2 -14 -18 -1 -17 -2 5 -15
20 -11 22 -15 10 -20 -9 -3 -16 -15 -17 -26 -1 -15 3 -19 13 -15 11 4 9 -3 -6
-24 -25 -36 -19 -38 22 -8 l31 22 -6 -26 c-4 -15 -10 -33 -13 -42 -11 -27 10
-17 36 18 28 38 40 38 40 0 0 -27 20 -34 21 -6 0 10 3 12 6 4 3 -8 11 -5 24
10 l18 23 1 -22 c0 -13 5 -23 10 -23 6 0 10 7 10 15 0 8 5 15 10 15 6 0 10 -7
10 -16 0 -8 4 -13 9 -10 5 4 12 0 14 -6 4 -9 8 -9 14 -3 4 6 16 16 25 23 14
12 16 10 10 -10 -4 -19 -3 -21 9 -12 11 9 17 9 27 -2 11 -12 10 -15 -2 -20
-24 -9 -20 -51 5 -59 17 -6 19 -9 8 -16 -8 -5 -9 -9 -4 -9 6 0 2 -5 -8 -11 -9
-6 -23 -25 -31 -42 l-13 -32 -15 30 -16 30 -8 -29 -7 -30 -10 25 -9 24 -11
-22 c-14 -31 -22 -29 -35 10 -6 19 -10 24 -11 13 -1 -11 -6 -16 -15 -13 -8 3
-19 -5 -26 -21 l-13 -27 -10 35 -10 35 -12 -29 -13 -30 -7 33 c-8 37 -15 34
-31 -12 l-11 -32 -19 35 -19 35 -3 -27 c-4 -36 -13 -35 -37 5 l-20 32 -5 -34
-5 -34 -14 26 c-18 34 -24 34 -42 0 l-14 -26 -5 29 -5 29 -22 -35 -22 -34 -9
24 c-5 14 -11 32 -14 40 -4 9 -9 2 -16 -20 -6 -19 -11 -27 -11 -17 -1 20 -17
23 -24 5 -3 -8 -6 -6 -6 5 -1 24 -17 21 -26 -5 -7 -22 -8 -21 -12 6 l-5 29
-19 -29 c-14 -21 -19 -24 -19 -11 0 9 -4 17 -10 17 -5 0 -10 -10 -10 -22 0
-21 -2 -21 -25 9 -28 35 -50 35 -61 0 -6 -20 -7 -19 -23 9 -22 40 -36 40 -65
-3 -32 -47 -25 -55 15 -17 37 35 49 23 49 -48 0 -37 8 -60 34 -100 103 -163
120 -294 57 -450 -50 -124 -41 -235 26 -309 59 -65 133 -73 218 -24 94 54 113
161 57 322 -51 145 -38 280 43 452 19 40 35 84 35 98 0 13 4 21 10 18 6 -4 10
6 10 22 l0 28 19 -28 18 -29 13 34 12 33 12 -35 13 -35 10 30 10 30 8 -34 7
-35 14 25 c10 18 13 20 14 7 0 -30 18 -20 26 15 l7 32 15 -35 15 -35 10 30 11
30 7 -30 6 -30 14 32 13 32 18 -27 17 -27 12 32 c10 31 11 32 35 17 26 -18 33
-4 9 16 -23 19 -18 30 15 30 35 0 41 24 13 46 -17 13 -17 13 2 14 17 1 17 3
-5 12 -21 9 -22 12 -7 15 19 5 24 23 5 23 -6 0 -3 7 8 15 18 14 18 14 -10 15
-24 0 -27 2 -16 15 10 12 10 15 -2 15 -8 0 -20 -6 -27 -12 -11 -11 -12 -8 -6
12 4 14 10 32 12 40 3 8 -4 5 -15 -8 -18 -20 -21 -21 -25 -5 -3 14 -8 9 -20
-17 -13 -29 -16 -31 -17 -12 0 24 -15 30 -23 10 -3 -7 -6 -3 -6 10 -1 26 -21
30 -22 5 0 -16 -1 -16 -8 1 -7 18 -8 18 -24 -4 -15 -22 -17 -22 -23 -5 -7 18
-8 18 -15 -1 -7 -18 -8 -17 -15 4 l-7 24 -24 -29 -24 -28 6 31 c4 22 1 36 -10
47 -14 14 -14 17 2 26 17 10 17 10 -2 11 -13 1 -15 3 -6 7 10 4 8 9 -10 19
-24 13 -24 13 -2 14 32 0 37 17 8 24 -31 8 -32 22 -4 29 16 4 20 11 16 26 -3
14 -1 18 9 14 8 -3 17 3 20 12 6 15 9 14 20 -6 l12 -24 8 29 7 29 17 -23 17
-23 7 24 7 24 11 -22 c13 -27 28 -30 29 -5 1 9 4 4 8 -13 l7 -30 21 40 21 39
7 -34 8 -35 12 35 11 34 26 -38 26 -37 10 28 10 28 7 -29 8 -29 28 34 28 34 1
-27 c0 -16 3 -27 8 -27 4 1 18 1 31 0 24 -1 24 -1 5 -16 -19 -14 -19 -14 1
-15 12 0 16 -3 9 -8 -23 -15 -21 -37 5 -49 l26 -11 -24 -1 c-24 -1 -24 -1 -5
-16 18 -13 18 -14 1 -15 -10 0 -15 -4 -12 -10 3 -5 1 -10 -6 -10 -7 0 -4 -7 7
-15 17 -13 17 -14 2 -15 -23 0 -24 -20 -2 -20 14 0 14 -3 4 -15 -10 -12 -10
-15 1 -15 11 0 11 -2 -1 -10 -12 -7 -10 -11 10 -19 17 -7 20 -10 8 -10 -10 -1
-22 -10 -28 -20 -8 -16 -6 -21 13 -27 21 -7 21 -7 2 -14 -19 -8 -19 -8 5 -18
18 -8 20 -11 8 -11 -10 -1 -18 -5 -18 -11 0 -5 8 -10 18 -11 9 -1 2 -6 -15
-11 -40 -13 -42 -25 -5 -30 l27 -4 -23 -10 -24 -10 29 -14 28 -13 -25 -7 -25
-7 25 -11 c25 -10 24 -12 -20 -25 -10 -3 -6 -8 13 -18 l29 -13 -24 -9 -23 -8
25 -14 c25 -14 25 -14 3 -15 -13 0 -23 -4 -23 -10 0 -5 7 -10 15 -10 23 0 18
-18 -7 -23 l-23 -4 24 -8 24 -8 -24 -18 -24 -19 23 0 c31 0 28 -16 -5 -25
l-28 -8 35 -14 35 -15 -30 -16 -30 -16 25 -6 25 -6 -24 -13 -24 -14 24 -12 23
-13 -24 -4 -25 -3 30 -17 30 -16 -27 -11 c-16 -6 -28 -13 -28 -15 0 -3 12 -12
28 -20 25 -14 25 -15 5 -16 -31 0 -38 -17 -11 -26 22 -8 22 -8 -7 -14 l-30 -6
39 -20 39 -21 -34 -7 -34 -6 30 -20 c29 -20 30 -20 8 -26 -32 -9 -29 -24 5
-25 l27 0 -22 -16 c-28 -19 -29 -30 -5 -35 13 -3 11 -7 -13 -21 -27 -15 -28
-16 -7 -17 24 0 30 -15 10 -23 -9 -3 -5 -11 11 -23 l24 -18 -34 -29 -34 -29
32 4 32 4 -20 -37 c-26 -52 -24 -54 15 -24 l35 26 3 -33 c4 -32 4 -33 14 -9
l11 25 7 -25 7 -24 13 30 c12 29 13 29 20 8 8 -25 22 -30 29 -10 3 6 6 3 7 -8
1 -16 5 -12 20 15 l19 35 1 -27 c0 -16 5 -28 10 -28 6 0 10 7 10 15 0 18 16
20 26 4 4 -8 11 -4 19 10 11 22 11 22 25 -6 l13 -28 7 25 6 25 14 -25 13 -25
12 29 c11 27 13 28 23 10 10 -16 13 -17 22 -4 9 13 14 11 35 -13 24 -27 25
-27 25 -6 0 21 1 22 13 5 12 -16 14 -16 26 11 l13 28 15 -23 c18 -26 35 -30
26 -5 -6 16 -5 16 17 0 35 -24 47 -21 22 6 -27 29 -27 33 -1 40 12 3 18 10 14
16 -8 14 -35 14 -35 1 0 -5 -7 -10 -16 -10 -8 0 -12 -4 -9 -10 4 -7 -2 -7 -18
-1 -22 9 -26 7 -32 -16 -6 -24 -7 -25 -25 -8 -19 17 -20 17 -20 -5 0 -22 0
-22 -22 5 -19 25 -22 25 -31 10 -9 -16 -11 -16 -23 6 l-12 24 -8 -29 -7 -30
-23 30 -24 29 0 -25 -1 -25 -13 24 -14 24 -6 -21 c-8 -25 -17 -27 -34 -10 -9
9 -12 9 -13 -2 -1 -8 -4 -1 -8 15 l-7 30 -19 -35 c-18 -32 -20 -33 -23 -12 -4
29 -22 29 -22 0 -1 -23 -1 -23 -15 2 l-15 25 -6 -22 c-8 -27 -24 -21 -25 10
-1 19 -2 19 -6 3 -4 -15 -7 -16 -13 -5 -7 11 -13 9 -31 -6 l-22 -20 17 32 c20
40 20 44 -1 36 -16 -6 -16 -4 1 15 21 24 21 24 -8 39 -18 10 -17 12 10 26 27
15 27 16 7 17 -13 0 -23 4 -23 9 0 5 10 13 23 17 21 7 21 7 -7 17 l-28 9 28
24 29 23 -25 2 -25 1 25 7 c25 7 25 7 -10 26 -19 10 -30 19 -25 21 6 1 24 5
40 9 l30 7 -39 15 -38 16 28 13 29 13 -24 7 -25 7 25 9 24 9 -30 17 -30 16 28
10 c33 12 34 22 5 32 l-23 8 25 6 25 6 -30 16 -30 16 28 13 c33 15 35 29 5 29
-23 1 -23 1 2 15 l25 13 -30 12 -30 12 35 16 c22 9 30 16 20 19 -45 13 -45 14
-20 28 19 11 21 14 8 15 -22 0 -24 20 -3 20 21 0 19 20 -2 21 -12 1 -9 4 7 8
l25 7 -30 17 -30 16 35 1 35 1 -33 17 c-33 18 -34 32 0 32 23 0 24 20 1 20
-17 1 -17 1 -1 14 16 12 15 14 -10 26 l-27 12 25 10 25 10 -29 13 -30 13 34 7
c30 7 32 9 17 20 -17 12 -17 13 0 20 17 7 17 8 -2 15 -11 5 -14 9 -7 9 18 1
15 19 -5 24 -16 4 -16 5 1 6 15 1 16 4 6 16 -10 13 -9 15 11 16 23 1 22 1 -6
14 -16 8 -24 14 -17 15 8 0 11 9 8 25 -3 15 0 25 7 25 7 1 1 7 -13 15 -19 11
-21 14 -7 15 20 0 23 16 5 23 -8 3 -5 6 6 6 11 1 16 6 13 15 -3 8 -1 17 6 20
9 3 8 5 -1 5 -7 1 -10 6 -7 12 4 6 -1 17 -11 24 -18 13 -18 14 -1 15 25 0 21
20 -5 21 l-23 0 23 11 c33 16 27 28 -10 22 l-33 -6 28 26 c40 37 33 42 -17 12
l-45 -26 -3 37 -3 37 -25 -37 c-14 -20 -27 -37 -30 -37 -3 0 -12 15 -19 33
l-14 32 -4 -27 c-5 -35 -16 -35 -38 -1 -16 24 -19 25 -30 10 -11 -15 -13 -15
-22 6 -10 21 -11 21 -26 -13 -12 -28 -16 -31 -16 -13 -1 31 -18 38 -27 11 -6
-21 -8 -20 -25 13 -15 28 -18 30 -19 12z m-270 -558 l22 -35 -36 -83 c-53
-123 -70 -198 -69 -307 0 -82 4 -105 29 -165 37 -89 41 -188 8 -231 -53 -72
-133 -93 -194 -52 -80 54 -94 164 -40 308 58 153 43 284 -50 444 -41 70 -54
131 -25 120 10 -4 15 0 15 12 0 16 3 15 18 -6 21 -32 40 -32 57 0 l14 25 1
-27 c0 -37 16 -44 25 -11 4 19 9 23 15 14 4 -8 13 -10 19 -7 6 4 11 2 11 -3 0
-22 30 -10 30 12 1 19 2 19 13 -7 l13 -30 17 24 c17 24 17 24 17 2 0 -30 12
-28 33 8 10 17 22 30 27 30 4 0 18 -16 30 -35z"/>
<path d="M370 368 c-31 -71 -38 -168 -16 -191 26 -26 72 -22 92 8 13 19 15 37
10 76 -8 57 -43 159 -55 159 -5 0 -19 -24 -31 -52z m48 -113 c4 -51 3 -55 -17
-55 -30 0 -35 21 -21 81 15 63 31 52 38 -26z"/>
<path d="M4310 1522 c0 -7 5 -23 11 -34 11 -20 9 -21 -22 -15 l-34 7 24 -20
c18 -16 20 -20 7 -20 -10 0 -14 -4 -11 -10 3 -5 -4 -10 -17 -11 -21 -1 -21 -1
6 -13 22 -10 25 -14 12 -19 -22 -8 -21 -37 2 -38 14 0 14 -2 -3 -9 -18 -7 -16
-9 13 -16 l34 -7 -31 -19 c-37 -24 -40 -32 -6 -24 28 7 30 1 10 -34 -23 -39
-17 -48 10 -15 l25 30 0 -30 1 -30 19 24 20 23 0 -23 c1 -23 2 -22 17 6 14 24
18 26 21 13 2 -10 8 -18 13 -18 5 0 9 8 9 18 1 15 2 14 12 -3 16 -30 18 -31
28 -15 9 13 10 13 10 0 1 -9 6 -5 15 10 14 25 14 25 15 3 0 -29 16 -30 25 -2
l7 21 23 -22 23 -22 12 21 c7 15 8 27 1 39 -9 15 -10 14 -11 -5 0 -27 -12 -29
-30 -8 -11 13 -14 13 -26 -2 -12 -16 -13 -15 -14 12 -1 29 -1 29 -16 10 -12
-16 -17 -17 -23 -7 -6 10 -10 8 -15 -10 -6 -22 -7 -23 -18 -3 -19 33 -32 36
-50 12 -17 -21 -18 -21 -18 -2 0 18 -2 18 -21 -5 l-20 -25 3 55 c3 50 1 55
-22 61 -14 4 -18 7 -9 8 27 2 32 31 6 41 -17 7 -18 9 -4 9 15 1 21 12 18 33
-1 10 37 20 49 13 5 -3 10 -1 10 6 0 7 3 9 7 6 3 -4 12 1 19 11 12 16 13 15
14 -5 0 -23 20 -33 20 -10 0 9 3 8 9 -2 7 -10 10 -10 16 -1 4 7 3 15 -2 19 -5
3 -12 14 -16 24 -4 10 -11 15 -17 12 -5 -3 -10 0 -10 7 -1 9 -5 7 -14 -4 -7
-10 -16 -15 -19 -11 -4 3 -7 -1 -7 -10 0 -14 -3 -14 -21 4 -17 17 -23 19 -30
8 -7 -11 -11 -10 -23 6 -9 12 -15 15 -16 7z"/>
<path d="M170 1334 c0 -25 44 -68 90 -88 20 -8 74 -20 120 -26 47 -6 103 -19
125 -29 42 -19 95 -72 95 -97 0 -8 4 -14 9 -14 19 0 -11 60 -42 86 -46 39 -87
53 -180 65 -108 13 -183 47 -202 91 -11 25 -14 28 -15 12z"/>
<path d="M1390 1305 c-15 -9 -19 -15 -10 -15 12 0 11 -3 -3 -14 -18 -14 -17
-14 2 -21 23 -7 29 -25 9 -25 -7 -1 -2 -7 11 -14 20 -11 21 -14 7 -19 -10 -4
-14 -12 -11 -18 4 -5 -1 -16 -11 -24 -18 -13 -18 -14 -1 -20 14 -6 15 -10 6
-21 -9 -11 -8 -14 5 -14 20 0 21 -16 2 -23 -18 -7 -15 -35 5 -48 11 -7 9 -9
-8 -9 -23 0 -33 -20 -10 -20 8 0 7 -4 -3 -10 -11 -7 -11 -10 -2 -10 7 0 10 -5
7 -11 -4 -6 1 -17 11 -24 18 -14 18 -14 1 -15 -26 0 -10 -20 16 -20 19 0 17
-3 -12 -22 -35 -22 -35 -22 -10 -28 23 -6 23 -6 4 -17 -18 -11 -19 -12 -2 -18
22 -9 22 -25 1 -25 -14 0 -14 -3 -4 -15 15 -18 31 -20 28 -3 -2 6 8 14 22 17
24 7 24 7 -9 21 l-33 13 28 16 29 15 -25 6 -25 6 23 12 c26 15 28 29 5 35 -15
4 -15 5 2 6 18 2 18 3 -5 16 -19 11 -21 14 -7 15 9 0 17 4 17 9 0 5 -8 12 -17
14 -14 4 -13 5 4 6 26 1 25 25 -3 45 -18 14 -18 15 -2 21 10 4 15 11 12 16 -3
5 5 13 18 18 18 8 19 10 5 10 -10 1 -16 5 -12 10 3 5 -5 13 -17 17 l-23 7 25
9 c20 7 22 11 10 18 -13 9 -13 10 0 11 10 0 9 3 -5 9 -19 9 -19 9 3 16 21 6
21 7 5 20 -15 11 -15 14 -3 14 8 1 -1 9 -20 20 l-35 18 28 7 c20 5 25 11 17
20 -5 6 -7 15 -3 18 11 12 -11 7 -37 -8z"/>
<path d="M1990 1265 c-1 -11 -4 -14 -7 -7 -7 17 -23 15 -23 -4 0 -14 -3 -14
-15 -4 -21 17 -19 1 3 -23 16 -19 16 -20 -5 -15 -13 4 -23 2 -23 -3 0 -5 7 -9
17 -9 13 0 12 -3 -5 -19 -24 -20 -20 -31 12 -31 20 0 20 0 -2 -16 -26 -18 -30
-54 -4 -55 12 0 10 -3 -8 -11 -21 -9 -22 -12 -7 -15 18 -5 18 -5 0 -19 -17
-12 -16 -13 7 -14 25 -1 25 -1 -5 -17 l-30 -17 25 -6 c23 -7 23 -8 6 -15 -19
-8 -19 -9 0 -16 17 -7 17 -8 2 -8 -29 -1 -20 -18 13 -25 37 -7 62 4 33 15 -17
7 -17 8 -1 8 9 1 17 6 17 11 0 6 -8 10 -17 11 -11 0 -13 3 -5 6 20 8 14 23
-10 23 -21 1 -20 2 7 18 28 16 29 17 8 20 l-23 3 26 24 c20 19 22 25 12 36
-21 22 -21 49 -1 50 10 0 13 3 6 6 -9 3 -10 10 -3 23 7 13 5 21 -5 30 -8 7
-15 18 -15 24 0 6 5 4 10 -4 9 -13 11 -13 20 0 8 12 10 12 10 1 0 -10 3 -11
14 -2 12 10 17 8 26 -8 14 -27 27 -27 35 0 6 17 9 19 16 8 4 -8 14 -14 21 -14
7 -1 12 -6 11 -13 -2 -7 3 -12 10 -12 8 0 7 -4 -3 -10 -12 -8 -12 -10 5 -11
l20 0 -20 -9 c-18 -7 -18 -8 -3 -15 16 -6 16 -8 2 -23 -15 -15 -15 -16 2 -23
17 -7 17 -8 2 -8 -10 -1 -18 -5 -18 -11 0 -5 8 -10 18 -10 14 0 15 -2 2 -10
-13 -9 -13 -11 0 -20 10 -6 11 -10 3 -10 -21 0 -16 -50 5 -50 14 0 15 -2 2
-10 -13 -9 -13 -10 0 -10 13 0 13 -2 1 -9 -11 -7 -10 -10 5 -13 16 -4 15 -6
-8 -18 -25 -12 -26 -14 -10 -26 10 -8 12 -13 5 -14 -19 0 -16 -18 5 -23 16 -4
16 -5 0 -6 -19 -1 -26 -21 -8 -21 18 0 11 -20 -7 -20 -14 -1 -12 -4 7 -15 l25
-14 -25 -1 c-20 0 -22 -2 -10 -10 10 -6 11 -10 3 -10 -7 0 -13 -4 -13 -10 0
-5 7 -10 16 -10 8 0 12 -4 9 -10 -3 -5 0 -10 7 -10 10 0 10 -2 -1 -9 -7 -5
-11 -13 -7 -19 3 -5 -4 -13 -17 -17 -21 -7 -20 -8 8 -15 17 -4 24 -8 16 -9 -7
0 -11 -7 -8 -15 3 -8 1 -16 -5 -18 -6 -2 -4 -11 6 -21 16 -16 16 -17 -3 -17
-23 0 -28 -15 -8 -23 7 -3 5 -6 -5 -6 -10 -1 -18 -5 -18 -11 0 -5 8 -10 18
-11 14 0 14 -2 -3 -8 l-20 -8 20 -5 c16 -5 17 -6 3 -7 -10 0 -18 -8 -18 -16 0
-7 8 -19 18 -24 16 -10 16 -10 -1 -11 -10 0 -15 -4 -12 -10 3 -5 -2 -10 -12
-11 -11 0 -5 -7 17 -16 31 -14 33 -16 15 -23 -19 -8 -19 -8 5 -18 24 -10 24
-11 3 -11 -32 -1 -29 -21 3 -21 26 0 26 -1 10 -25 -22 -33 -20 -42 4 -20 20
18 20 17 20 -11 l1 -29 23 28 23 29 6 -32 c7 -30 7 -30 25 -13 11 10 24 27 29
37 10 18 11 16 18 -12 4 -21 11 -29 21 -25 8 3 14 -1 15 -8 0 -8 6 -1 14 15
12 30 13 30 20 6 7 -21 8 -22 18 -5 9 17 11 16 23 -6 l13 -24 9 24 9 25 7 -25
c7 -24 8 -24 23 21 3 11 8 9 18 -10 l13 -25 7 28 8 29 18 -29 c10 -15 19 -26
20 -23 6 36 1 74 -10 83 -12 10 -13 8 -8 -12 4 -18 3 -21 -6 -12 -16 16 -25
14 -29 -7 -3 -13 -7 -11 -21 13 -14 25 -16 27 -17 9 0 -32 -13 -37 -27 -12
-12 23 -12 23 -13 -7 l0 -30 -20 25 c-18 23 -20 23 -20 5 -1 -19 -1 -19 -14
-2 -18 23 -26 22 -26 -5 l-1 -23 -13 24 c-15 28 -45 36 -52 16 -3 -8 -12 -11
-19 -9 -7 3 -15 -3 -18 -13 -4 -14 -5 -14 -6 5 -1 28 -14 28 -34 -1 -16 -22
-16 -22 -16 15 -1 20 4 38 12 41 7 3 2 9 -13 15 -22 9 -22 11 -5 12 16 1 14 4
-10 15 l-30 13 30 1 c21 1 26 4 16 10 -8 5 -11 16 -8 25 4 9 -1 20 -11 25 -14
9 -12 11 13 12 l30 1 -29 12 c-20 9 -25 15 -15 19 12 5 12 7 -1 16 -13 9 -12
11 5 12 l20 0 -20 8 c-20 8 -20 8 1 15 24 7 28 36 5 36 -11 1 -7 6 9 15 l25
14 -24 1 c-24 0 -24 0 -5 15 19 14 19 14 -1 15 -15 1 -17 3 -5 8 17 8 20 33 5
44 -6 4 -1 8 10 8 15 0 16 3 7 12 -18 18 -15 38 6 39 11 0 7 5 -13 14 -24 11
-26 14 -10 15 20 1 20 1 1 15 -19 14 -18 15 15 16 l34 1 -35 13 c-19 7 -30 14
-24 14 19 1 25 41 6 41 -14 0 -14 1 0 13 18 14 31 57 16 57 -5 0 -8 17 -5 38
3 29 -1 39 -17 49 -21 12 -21 12 2 13 12 0 22 5 22 10 0 6 -4 10 -9 10 -5 0
-7 9 -4 20 3 12 0 20 -7 20 -10 0 -10 3 0 15 10 12 10 15 -4 15 -13 0 -12 4 7
23 l22 22 -25 3 -24 4 24 14 c24 15 24 15 -12 9 -34 -5 -37 -4 -40 22 l-4 28
-11 -25 c-10 -22 -12 -22 -13 -5 0 18 -2 18 -20 -5 l-20 -25 -1 25 -1 25 -7
-25 -7 -24 -16 23 c-9 13 -21 20 -26 17 -6 -3 -13 0 -15 6 -3 7 -6 4 -7 -7z"/>
<path d="M2620 1274 c0 -5 9 -20 20 -34 25 -32 25 -43 0 -35 -11 3 -20 2 -20
-4 0 -5 9 -13 20 -16 17 -5 18 -8 6 -20 -7 -8 -12 -25 -11 -39 2 -19 -2 -26
-13 -26 -12 -1 -11 -4 7 -14 23 -13 23 -13 2 -19 -25 -6 -28 -24 -3 -30 16 -4
16 -5 0 -6 -24 -1 -22 -17 4 -35 15 -11 18 -16 8 -16 -13 0 -13 -2 0 -10 13
-8 13 -10 -1 -10 -9 0 -20 -7 -23 -16 -8 -22 -8 -22 12 -27 16 -4 16 -5 0 -6
-10 0 -18 -5 -18 -11 0 -5 8 -10 18 -11 11 -1 9 -4 -8 -9 -14 -4 -20 -8 -13
-9 7 -1 10 -8 7 -16 -4 -10 0 -15 10 -15 14 0 15 -4 6 -20 -6 -12 -7 -20 -1
-20 5 0 8 -8 6 -17 -1 -10 2 -24 8 -30 7 -10 4 -13 -9 -13 -18 -1 -18 -1 0
-15 17 -13 18 -15 3 -15 -9 0 -17 -7 -17 -15 0 -8 6 -15 13 -15 8 0 7 -4 -3
-10 -13 -9 -13 -10 0 -10 13 0 13 -1 0 -10 -12 -7 -10 -11 10 -19 14 -5 19
-10 12 -10 -7 -1 -20 -8 -28 -16 -14 -13 -14 -15 2 -15 16 0 16 -1 0 -19 -13
-15 -14 -20 -4 -24 10 -3 11 -8 1 -26 -12 -19 -10 -21 13 -27 l27 -7 -24 -13
c-22 -12 -22 -13 -4 -14 16 -1 14 -4 -10 -15 -30 -14 -30 -14 -5 -15 25 -2 24
-2 -5 -15 -21 -9 -25 -15 -15 -18 8 -3 22 -8 30 -10 10 -4 9 -6 -5 -6 -17 -1
-17 -3 -5 -11 12 -8 9 -10 -12 -10 -31 0 -44 -15 -29 -34 6 -7 9 -15 6 -18 -3
-3 4 -13 15 -23 26 -24 39 -11 15 15 -20 23 -17 24 19 10 30 -11 34 -3 9 16
-16 12 -15 13 10 14 15 0 27 5 27 10 0 6 -4 10 -10 10 -17 0 -11 18 8 23 11 3
6 7 -17 12 l-34 8 32 16 c17 10 29 20 25 24 -4 4 -2 7 4 7 6 0 10 9 9 20 -1
11 -7 20 -14 20 -21 0 -15 18 9 31 22 12 22 13 -12 25 -29 10 -31 13 -11 13
16 1 21 5 17 16 -3 8 -1 15 4 15 10 0 3 51 -8 60 -4 3 -7 14 -7 25 1 11 -4 23
-10 27 -6 5 -3 8 8 8 19 0 24 20 5 21 -7 0 -4 4 7 9 11 5 14 9 7 9 -9 1 -10 6
-2 20 8 16 6 21 -10 26 -18 6 -18 8 -5 21 18 18 20 34 4 34 -6 0 -3 7 6 16 13
14 14 19 3 25 -7 5 -8 9 -3 9 6 0 1 7 -9 15 -20 15 -20 15 0 16 11 0 14 3 6 6
-10 4 -9 8 4 17 15 12 15 13 -1 29 -15 16 -15 17 7 17 21 1 21 2 5 11 -9 6
-15 14 -12 20 4 5 1 9 -5 9 -7 0 -8 6 -1 17 5 10 5 26 0 40 -7 18 -5 23 9 24
9 0 12 3 6 5 -6 3 -9 16 -6 29 2 14 0 25 -5 25 -5 0 -9 9 -9 19 0 14 4 17 12
11 6 -6 14 -7 17 -3 4 3 7 0 8 -8 0 -8 5 -3 10 10 9 23 10 24 24 5 14 -19 14
-19 15 1 0 17 2 17 10 5 8 -12 11 -11 16 8 6 21 7 21 20 5 11 -15 13 -15 14
-3 1 13 2 13 13 -1 19 -25 47 -31 47 -11 1 15 2 15 15 -2 15 -20 15 -20 16 0
0 15 2 16 7 4 11 -23 33 -23 49 0 19 27 33 25 33 -5 0 -28 15 -34 24 -9 9 25
7 41 -4 24 -8 -12 -10 -11 -10 6 0 30 -11 36 -32 17 -17 -15 -18 -15 -18 0 0
22 -16 22 -25 0 -6 -16 -8 -16 -16 4 -9 24 -39 22 -39 -3 0 -21 -18 -17 -25 6
-3 11 -11 20 -17 20 -5 0 -7 -8 -4 -17 6 -17 5 -17 -8 0 -19 24 -55 22 -65 -5
l-8 -22 -5 22 c-8 28 -24 28 -32 0 l-7 -23 -11 25 -12 25 -4 -29 -4 -28 -29
28 c-16 15 -29 24 -29 18z"/>
<path d="M4697 1252 l-28 -27 -5 23 c-7 24 -24 30 -24 8 0 -8 -6 -16 -12 -19
-10 -4 -10 -7 0 -18 10 -11 12 -11 12 1 0 11 3 11 12 2 7 -7 21 -12 33 -12 15
0 20 -7 21 -30 1 -17 -3 -30 -7 -30 -12 0 -7 -23 6 -32 6 -5 4 -8 -5 -8 -12
-1 -11 -3 3 -14 16 -13 16 -14 -8 -20 -14 -4 -25 -11 -25 -16 0 -15 -30 -12
-30 3 -1 7 -6 5 -14 -6 -10 -13 -15 -15 -19 -5 -3 9 -9 8 -21 -7 -14 -18 -15
-18 -16 -2 0 14 -4 16 -17 9 -10 -5 -24 -7 -30 -5 -7 3 -13 -1 -14 -9 -1 -7
-4 -2 -9 12 l-7 25 -11 -25 c-8 -18 -11 -20 -11 -7 -1 25 -21 21 -21 -5 0 -19
-2 -20 -10 -8 -9 13 -11 13 -20 0 -8 -13 -10 -13 -10 1 0 23 -27 32 -34 12 -6
-14 -8 -14 -21 3 -14 19 -14 19 -15 -1 0 -18 -2 -18 -20 5 -21 26 -27 12 -10
-20 10 -18 8 -19 -22 -14 l-33 6 28 -20 c20 -14 25 -21 15 -25 -11 -5 -11 -7
0 -15 11 -7 8 -11 -10 -16 -19 -5 -20 -8 -8 -16 13 -9 13 -10 0 -10 -11 -1
-10 -4 4 -15 11 -8 14 -15 8 -15 -19 0 -14 -18 6 -23 16 -4 16 -5 0 -6 -23 -1
-23 -21 -1 -21 14 0 13 -3 -5 -16 -15 -10 -21 -22 -17 -32 3 -8 0 -19 -7 -24
-10 -8 -10 -11 0 -15 6 -2 10 -9 6 -14 -3 -5 1 -9 8 -9 10 0 9 -3 -2 -10 -12
-7 -10 -11 10 -19 14 -5 19 -10 13 -10 -21 -1 -15 -29 8 -36 24 -8 32 -2 36
25 2 13 -3 20 -15 20 -16 1 -16 1 1 11 17 10 17 12 -4 30 -16 14 -18 19 -7 19
10 0 15 8 14 23 -1 12 5 32 12 45 16 25 16 24 -13 40 -19 11 -19 11 5 13 25 1
24 1 -5 14 l-30 13 25 11 c18 7 20 10 8 10 -23 1 -24 21 -2 21 11 0 15 6 11
20 -3 13 0 20 8 20 8 0 19 8 24 18 10 16 10 16 11 -1 0 -10 5 -15 10 -12 6 3
10 -2 10 -12 1 -17 2 -17 15 1 8 11 15 16 15 11 0 -5 7 0 15 11 13 17 14 17
15 2 0 -20 20 -25 21 -5 0 6 4 4 8 -7 7 -17 8 -17 23 -2 12 12 18 13 21 3 4
-9 8 -9 15 2 8 11 10 11 14 0 3 -9 10 -7 26 9 l22 22 0 -22 c1 -22 1 -23 15
-4 9 12 15 15 15 7 0 -10 3 -11 14 -2 11 9 15 9 19 -1 4 -10 6 -10 6 1 1 11 4
11 17 0 15 -12 16 -11 9 10 -6 21 -5 22 16 16 22 -7 23 -6 10 9 -13 15 -13 19
0 27 8 5 10 9 4 9 -5 0 -3 5 5 10 13 8 12 11 -5 24 -15 12 -16 15 -5 16 13 0
13 1 0 10 -13 8 -12 10 3 10 20 0 23 16 5 23 -7 3 -4 6 7 6 11 1 16 5 10 9 -5
4 -10 14 -10 22 0 8 5 19 10 23 6 5 -8 6 -30 2 l-40 -7 19 21 c29 32 14 34
-17 3z"/>
<path d="M3030 1051 c-9 -19 -14 -21 -21 -10 -5 8 -9 10 -9 5 0 -5 -7 -3 -15
4 -12 10 -15 10 -15 -1 0 -11 -2 -11 -10 1 -8 13 -10 12 -10 -2 0 -10 -3 -18
-7 -18 -3 0 -15 8 -26 18 -19 16 -20 16 -14 -1 6 -15 4 -16 -13 -7 -29 16 -35
12 -15 -10 18 -19 17 -20 -5 -20 -20 0 -21 -2 -9 -17 12 -15 12 -16 -1 -8 -9
5 -8 0 4 -13 12 -14 14 -22 7 -22 -7 0 -10 -4 -7 -9 4 -5 0 -12 -6 -14 -10 -4
-9 -8 2 -16 8 -6 10 -11 5 -11 -17 0 -12 -40 5 -41 8 0 4 -5 -10 -10 -19 -8
-21 -12 -11 -19 8 -4 11 -15 8 -24 -4 -9 -1 -16 6 -16 8 0 8 -3 2 -8 -10 -6
-11 -20 -5 -39 1 -5 2 -11 1 -15 0 -5 4 -8 11 -8 6 0 3 -7 -8 -15 -14 -11 -15
-14 -4 -15 9 0 11 -3 5 -8 -13 -10 -18 -42 -6 -42 10 0 9 -19 -2 -37 -5 -8 -3
-13 5 -13 10 0 10 -2 -1 -9 -9 -6 -10 -11 -2 -15 6 -4 8 -12 5 -18 -11 -18
-10 -68 1 -69 6 -1 -1 -4 -15 -9 l-25 -7 25 -11 c14 -6 19 -11 11 -11 -11 -1
-10 -5 5 -16 18 -14 18 -14 0 -15 -15 0 -16 -3 -6 -15 10 -12 10 -15 -1 -15
-11 0 -11 -2 1 -10 12 -8 13 -11 1 -19 -11 -7 -11 -9 0 -14 12 -4 11 -7 -1
-16 -13 -9 -13 -11 3 -11 9 0 17 -4 17 -10 0 -5 -5 -10 -11 -10 -6 0 -9 -6 -6
-14 3 -8 -2 -17 -11 -21 -15 -6 -15 -8 3 -15 11 -5 14 -9 6 -9 -11 -1 -11 -4
-1 -16 10 -12 10 -15 -1 -15 -11 0 -11 -2 1 -10 13 -8 12 -10 -1 -15 -18 -7
-21 -37 -6 -47 15 -9 -11 -38 -34 -38 -11 0 -19 -5 -19 -11 0 -6 -7 -4 -14 4
-9 8 -28 13 -45 11 -20 -2 -31 1 -31 9 0 8 -4 7 -10 -3 -7 -12 -10 -12 -10 -1
0 7 -6 11 -15 7 -10 -3 -15 1 -15 13 0 14 -5 18 -20 14 -11 -3 -20 -13 -20
-22 0 -14 -2 -14 -10 -1 -8 13 -10 13 -10 -1 0 -21 -24 -31 -38 -17 -7 7 -16
6 -30 -1 -10 -6 -22 -7 -26 -4 -3 3 -6 1 -6 -7 0 -9 -4 -9 -12 -2 -20 16 -22
16 -45 3 -20 -10 -23 -9 -23 6 -1 16 -2 16 -13 3 -14 -18 -37 -24 -37 -10 0 6
-4 10 -10 10 -5 0 -10 -8 -10 -17 0 -15 -2 -15 -9 -4 -12 19 -43 23 -53 8 -5
-8 -8 -5 -8 8 -1 19 -1 19 -11 1 -9 -15 -13 -16 -20 -5 -7 12 -9 11 -9 -1 0
-13 -1 -13 -10 0 -8 12 -10 12 -16 -3 -6 -17 -7 -17 -20 0 -8 11 -13 13 -14 5
0 -10 -4 -10 -20 0 -26 16 -33 6 -19 -25 13 -28 39 -44 39 -24 0 7 15 13 35
13 20 1 35 -3 35 -10 0 -6 5 -4 10 4 8 12 10 12 10 -5 1 -19 1 -19 11 -1 9 14
13 15 19 6 6 -9 10 -6 15 9 6 20 8 20 18 7 17 -22 60 -26 74 -7 11 15 12 15
13 0 0 -16 30 -23 30 -8 0 5 11 4 25 -1 17 -6 25 -6 25 1 0 6 5 7 10 4 6 -3
10 0 11 7 0 7 4 4 9 -7 5 -11 9 -15 9 -9 1 7 14 10 32 8 20 -3 28 0 23 8 -4 7
-3 8 5 4 6 -4 19 -2 28 6 15 11 16 11 10 -4 -7 -21 4 -23 22 -6 10 11 11 9 6
-7 l-7 -20 17 20 c12 14 19 16 22 8 3 -7 11 -13 18 -13 7 0 16 6 18 13 4 9 8
9 15 -2 11 -16 52 -21 69 -9 6 5 14 5 18 -2 10 -16 25 -12 25 7 0 15 2 14 16
-3 14 -18 15 -18 8 6 -5 20 -4 23 7 13 22 -22 30 -14 13 12 -16 24 -16 25 2
19 14 -4 13 -1 -6 15 -20 17 -22 21 -7 21 9 0 17 4 17 9 0 5 -8 12 -17 16 -16
6 -15 8 7 18 22 9 23 11 6 15 -15 3 -16 6 -5 13 12 8 12 11 -1 19 -12 8 -12
10 5 10 18 1 18 2 -4 14 -22 12 -23 14 -6 24 24 13 28 42 7 43 -11 0 -9 4 8
11 l25 11 -23 5 c-22 3 -23 4 -5 17 17 14 17 14 -1 15 -20 0 -20 0 0 15 19 14
19 14 -1 15 -19 1 -19 1 1 13 18 10 20 14 8 25 -7 6 -19 12 -26 12 -7 1 -2 7
12 15 22 13 23 14 5 15 -16 0 -17 2 -6 9 19 12 23 43 8 53 -9 6 -9 8 1 8 19 0
14 20 -5 20 -15 0 -16 2 -3 10 8 5 11 10 5 10 -5 0 -4 5 2 11 13 13 5 59 -11
59 -6 0 -3 5 8 11 15 9 16 13 5 20 -10 6 -11 9 -1 9 17 0 15 15 -4 34 -14 15
-14 17 2 23 16 6 16 7 -2 14 -17 7 -17 8 -1 8 20 1 21 5 7 32 -8 14 -7 19 2
19 9 0 9 3 -2 10 -8 5 -10 10 -5 10 15 0 11 86 -5 104 -10 14 -10 16 6 16 18
1 18 1 1 14 -16 13 -16 14 4 19 12 3 31 2 41 -4 13 -7 18 -6 18 3 0 8 3 9 8 3
13 -18 31 -15 43 7 l12 22 10 -24 c9 -23 10 -23 15 -6 4 18 5 18 18 -5 11 -20
13 -21 14 -5 0 16 2 17 17 5 19 -16 23 -16 34 3 7 10 9 10 9 1 0 -7 5 -13 10
-13 6 0 10 8 10 17 0 15 1 15 14 -2 8 -11 20 -16 33 -13 21 6 25 -6 10 -29 -4
-7 1 -14 14 -18 12 -4 18 -10 13 -14 -15 -10 -16 -41 -2 -42 7 0 5 -4 -6 -8
-17 -7 -18 -8 -1 -24 16 -17 16 -19 -5 -37 -17 -15 -19 -20 -8 -20 11 0 14 -9
12 -35 -2 -27 1 -35 14 -35 15 -1 14 -3 -2 -15 -11 -8 -16 -15 -10 -15 5 0 2
-5 -6 -10 -9 -6 -11 -13 -5 -17 13 -10 13 -56 0 -65 -5 -4 2 -11 15 -17 19 -8
21 -10 6 -10 -12 -1 -16 -6 -12 -16 3 -9 0 -15 -9 -15 -21 0 -19 -20 3 -21 14
0 14 -2 -3 -9 -18 -8 -18 -9 -2 -9 14 -1 17 -6 12 -21 -4 -13 -2 -20 7 -20 10
0 9 -3 -2 -10 -13 -9 -13 -11 0 -20 12 -8 11 -10 -7 -10 -13 0 -23 -4 -23 -10
0 -5 10 -11 23 -11 16 -1 18 -2 5 -6 -22 -6 -24 -23 -2 -23 10 0 12 -5 7 -12
-15 -25 -13 -48 5 -48 14 0 13 -4 -7 -19 l-24 -18 24 -6 c15 -4 29 -1 39 8 11
12 11 15 1 15 -11 0 -11 3 -1 15 10 12 9 15 -6 15 -16 0 -17 2 -4 10 8 5 11
10 5 10 -5 0 -1 7 9 15 17 13 18 15 3 15 -9 0 -17 5 -17 10 0 6 4 10 10 10 5
0 7 7 4 15 -4 9 0 15 7 15 9 0 6 5 -6 12 -19 11 -19 11 0 19 18 7 18 8 2 8
-14 1 -16 5 -8 18 7 13 5 21 -7 30 -16 11 -16 12 -1 13 17 0 34 40 17 40 -5 0
-7 4 -4 9 4 5 0 12 -6 14 -10 4 -10 8 -2 14 16 12 12 73 -5 73 -11 0 -11 3 -1
15 7 8 9 15 4 15 -5 0 -1 5 9 11 16 9 16 12 1 26 -11 12 -12 18 -3 23 15 10 3
30 -19 30 -12 1 -10 5 8 15 14 8 21 15 15 15 -5 0 -3 5 5 10 11 7 11 10 2 10
-7 0 -10 5 -7 10 3 6 -2 10 -12 10 -15 0 -16 2 -3 11 11 8 12 12 3 16 -10 3
-9 9 3 20 14 15 14 17 -8 29 -18 11 -19 13 -5 14 9 0 17 4 17 10 0 5 -8 7 -17
3 -16 -6 -15 -3 2 17 l20 23 -22 -5 c-19 -5 -21 -3 -13 12 17 32 12 45 -10 25
-19 -17 -20 -17 -20 -1 0 9 -4 14 -10 11 -5 -3 -10 0 -10 7 -1 8 -6 6 -15 -6
-15 -20 -15 -20 -15 0 -1 16 -3 16 -15 -6 -8 -14 -14 -20 -15 -13 0 6 -9 10
-20 8 -11 -2 -20 2 -20 8 0 7 -7 3 -15 -7 -13 -17 -15 -18 -15 -3 0 19 -20 24
-21 5 0 -7 -4 -4 -8 7 -8 19 -8 19 -21 -4z"/>
<path d="M3762 1048 c-10 -21 -11 -22 -12 -3 -1 20 -1 20 -15 1 -8 -11 -15
-14 -15 -7 0 7 -8 11 -17 9 -10 -1 -24 1 -30 5 -9 5 -13 3 -13 -8 0 -14 -2
-14 -25 1 -15 10 -25 12 -25 5 0 -6 -7 -11 -15 -11 -8 0 -15 4 -15 9 0 15 -38
0 -45 -17 -5 -15 -9 -13 -26 8 l-21 25 5 -23 c5 -23 5 -23 -19 -7 -28 18 -31
10 -6 -18 16 -19 16 -20 0 -14 -14 5 -17 2 -14 -15 1 -12 8 -24 15 -26 8 -3 6
-8 -6 -18 -14 -11 -15 -13 -3 -14 13 0 13 -1 0 -10 -13 -9 -13 -11 0 -20 12
-8 12 -10 1 -10 -10 0 -11 -3 -2 -14 10 -11 8 -15 -6 -19 -15 -3 -14 -6 7 -15
19 -8 20 -11 7 -11 -14 -1 -16 -5 -8 -20 8 -14 7 -20 -4 -25 -18 -7 -9 -33 13
-39 15 -4 15 -5 0 -6 -10 0 -18 -5 -18 -10 0 -5 8 -12 18 -14 16 -4 16 -5 0
-6 -23 -1 -23 -17 -1 -25 14 -6 15 -9 4 -15 -11 -7 -11 -10 0 -16 10 -7 8 -10
-5 -15 -17 -6 -17 -7 -1 -23 16 -16 15 -18 -7 -26 -13 -6 -18 -10 -11 -10 7
-1 10 -8 7 -16 -4 -9 0 -15 7 -15 11 0 11 -3 -1 -10 -8 -5 -10 -10 -5 -10 6 0
9 -18 8 -42 -2 -31 2 -47 14 -55 15 -11 13 -13 -13 -13 -19 0 -25 -3 -16 -9 7
-4 12 -23 10 -43 -1 -20 4 -43 11 -52 10 -12 10 -16 1 -16 -7 0 -10 -7 -6 -15
3 -8 1 -15 -3 -15 -5 0 -7 -9 -4 -20 3 -13 0 -20 -8 -20 -9 -1 -7 -6 5 -15 19
-15 19 -15 -4 -15 -23 0 -23 0 -4 -15 10 -8 15 -15 10 -15 -5 0 -1 -10 10 -22
19 -21 19 -21 -4 -15 -19 4 -21 3 -12 -8 7 -8 9 -18 6 -24 -7 -10 -61 -9 -72
2 -3 3 -17 -1 -30 -10 -14 -9 -24 -11 -24 -4 0 6 -12 8 -32 5 l-33 -5 21 18
22 19 -21 17 c-12 9 -16 17 -10 17 15 0 13 40 -2 40 -5 0 -1 7 9 15 11 8 14
15 7 15 -7 0 -10 4 -6 9 6 11 -34 36 -43 27 -12 -13 -10 -36 4 -36 8 0 14 -4
14 -10 0 -5 -5 -10 -11 -10 -6 0 -9 -6 -6 -14 3 -8 1 -17 -6 -20 -7 -2 -3 -5
7 -5 20 -1 20 -1 0 -16 -13 -10 -14 -14 -5 -15 11 0 11 -3 1 -15 -10 -12 -9
-15 6 -15 18 -1 18 -1 0 -15 -19 -14 -19 -15 -2 -15 16 0 17 -2 5 -17 -12 -15
-12 -16 4 -10 10 4 17 2 17 -5 0 -6 9 -3 20 7 19 17 20 17 20 1 0 -9 5 -14 10
-11 6 3 10 1 10 -6 0 -6 9 -1 20 12 12 16 19 19 20 10 0 -8 3 -11 7 -8 3 4 12
2 20 -4 9 -9 13 -8 13 0 0 15 22 10 37 -9 11 -13 13 -12 13 5 1 11 4 14 7 8 7
-20 23 -15 16 5 -6 15 -5 15 10 3 22 -17 22 -7 0 26 -17 26 -17 27 0 20 18 -7
24 7 7 18 -5 3 -10 11 -10 16 0 6 5 7 10 4 6 -3 10 -2 10 4 0 5 -8 15 -17 20
-17 10 -17 10 1 11 15 0 16 3 6 15 -10 12 -10 15 3 15 18 0 12 29 -7 42 -7 5
-5 8 5 8 19 0 36 33 20 38 -5 2 -7 10 -4 18 3 8 0 14 -7 14 -10 0 -10 3 0 15
9 11 9 15 1 15 -9 0 -9 5 -1 20 6 11 8 24 5 29 -3 5 1 12 7 14 9 4 8 6 -2 6
-10 1 -15 11 -14 33 1 18 -4 36 -10 40 -7 5 -4 8 7 8 21 0 22 14 1 34 -12 12
-12 16 -2 16 8 1 6 6 -6 15 -19 15 -19 15 2 15 12 0 22 5 22 10 0 6 -4 10 -8
10 -5 0 -9 7 -9 15 0 8 5 15 11 15 6 0 4 5 -4 10 -13 8 -12 10 3 10 26 0 21
15 -10 27 -26 10 -26 11 -5 12 26 1 30 18 5 24 -17 4 -17 5 0 6 19 1 24 21 5
21 -9 0 -8 4 2 10 12 8 12 10 -5 11 -15 0 -16 2 -5 7 20 9 24 33 8 43 -10 7
-10 9 2 9 12 1 12 3 -3 14 -15 12 -16 14 -2 20 21 8 19 36 -2 36 -15 0 -16 2
-3 10 13 9 13 11 1 19 -11 7 -9 10 9 13 23 3 23 4 6 21 -15 15 -15 17 -2 17 9
0 16 5 16 11 0 8 4 8 14 0 11 -9 15 -7 21 11 6 19 8 20 12 6 2 -10 8 -18 11
-19 4 0 15 -2 25 -4 10 -2 17 3 17 13 0 15 2 15 10 2 9 -13 11 -13 20 0 5 8
10 10 10 4 0 -14 33 -14 42 0 6 8 8 8 8 -1 0 -15 40 -4 40 11 0 6 5 4 10 -4 9
-13 11 -13 20 0 8 12 10 12 10 1 0 -11 3 -11 15 -1 12 10 15 10 15 0 0 -8 3
-10 7 -7 3 4 13 2 20 -5 11 -9 17 -9 24 3 5 8 9 10 9 4 0 -5 7 -1 15 9 15 19
15 19 15 -5 1 -23 1 -23 15 -5 8 11 15 15 15 9 0 -12 18 -12 38 0 7 5 12 3 12
-7 0 -17 20 -17 32 -1 4 6 8 1 8 -10 0 -17 2 -17 10 -5 8 13 10 12 10 -2 0
-10 5 -18 12 -18 6 0 3 -7 -8 -15 -15 -11 -16 -14 -4 -15 21 0 23 -37 3 -44
-14 -6 -14 -8 3 -21 13 -10 14 -14 5 -15 -7 0 -11 -6 -8 -14 3 -8 1 -17 -6
-20 -7 -2 1 -5 17 -5 l29 -1 -27 -25 c-29 -26 -33 -41 -13 -48 10 -4 10 -6 0
-6 -20 -1 -15 -21 5 -21 14 0 15 -2 2 -10 -13 -9 -13 -10 0 -10 11 -1 10 -4
-4 -15 -19 -15 -19 -15 5 -15 22 -1 23 -1 6 -14 -18 -14 -18 -14 0 -19 15 -4
16 -5 1 -6 -9 0 -16 -9 -16 -18 0 -10 -2 -25 -6 -34 -5 -10 1 -19 16 -27 18
-8 19 -11 6 -11 -10 -1 -18 -5 -18 -10 0 -5 8 -12 18 -14 16 -4 16 -5 0 -6
-10 0 -18 -6 -18 -12 0 -6 6 -9 13 -6 10 4 9 -4 -4 -30 -16 -32 -16 -37 -3
-51 13 -12 13 -16 2 -23 -7 -5 -9 -9 -4 -9 6 0 1 -7 -10 -15 -18 -13 -18 -14
-1 -15 10 0 15 -4 12 -10 -3 -5 0 -10 7 -10 10 0 10 -2 -1 -9 -11 -7 -11 -9 0
-14 10 -4 10 -6 2 -6 -19 -1 -16 -19 5 -24 15 -4 15 -5 -2 -6 -12 -1 -16 -6
-12 -16 3 -8 2 -15 -3 -15 -4 0 -8 -7 -8 -15 0 -8 4 -15 9 -15 4 0 6 -13 3
-30 -3 -16 -1 -30 3 -30 5 0 9 -7 9 -15 0 -8 -4 -15 -9 -15 -16 0 -7 -20 10
-21 13 0 12 -3 -5 -11 -32 -15 -29 -30 3 -17 30 11 43 4 26 -13 -7 -7 -12 -19
-12 -28 0 -10 9 -5 26 15 24 29 25 29 18 5 -6 -22 -5 -23 10 -11 13 11 16 11
16 0 1 -11 4 -10 13 2 10 14 14 14 25 2 7 -7 17 -11 23 -8 15 10 49 14 49 7 0
-4 9 -8 20 -8 11 0 20 7 20 14 0 12 3 12 15 2 22 -18 18 -3 -7 32 l-21 30 22
-12 c33 -17 36 -6 5 19 -19 15 -22 21 -10 21 14 0 21 11 17 33 0 4 4 7 11 7 6
0 3 7 -8 15 -19 14 -19 14 0 15 20 0 20 0 0 15 -10 8 -14 15 -8 15 15 0 25 38
13 46 -5 3 -7 10 -4 15 4 5 1 9 -6 9 -8 0 -6 5 4 13 18 13 13 57 -7 57 -6 0
-4 5 4 10 12 7 10 11 -10 19 -19 8 -21 10 -6 10 12 1 16 6 12 16 -3 10 1 15
12 16 9 0 12 3 6 5 -15 6 -6 44 10 44 6 0 4 5 -4 10 -8 5 -10 10 -5 10 6 0 -1
7 -15 15 -25 14 -25 14 -2 15 12 0 22 5 22 10 0 6 -10 11 -22 11 -17 1 -19 2
-5 6 19 5 24 33 5 33 -9 0 -8 3 2 10 19 12 9 20 -26 23 -21 1 -28 -2 -26 -13
11 -45 10 -50 -6 -51 -10 0 -12 -3 -5 -5 7 -3 9 -12 6 -20 -3 -8 0 -14 6 -14
6 0 11 -7 11 -15 0 -8 6 -15 13 -15 7 -1 5 -6 -6 -14 -11 -8 -14 -15 -7 -18 7
-2 3 -13 -10 -28 -20 -23 -20 -25 -4 -37 14 -10 14 -13 3 -13 -10 -1 -9 -5 5
-15 12 -9 15 -15 7 -15 -11 0 -11 -3 -1 -15 7 -8 9 -15 4 -15 -5 0 -2 -5 6
-10 13 -8 12 -10 -2 -10 -20 0 -25 -30 -5 -30 8 0 8 -3 2 -8 -6 -4 -11 -16
-10 -27 0 -11 -4 -23 -10 -27 -6 -4 -2 -8 8 -8 10 0 16 -4 13 -9 -4 -5 0 -12
6 -14 8 -3 6 -6 -5 -6 -10 -1 -15 -5 -12 -11 3 -5 2 -10 -3 -10 -5 0 -7 -19
-5 -41 5 -39 4 -41 -16 -36 -12 3 -21 1 -21 -4 0 -5 -10 -5 -22 0 -13 5 -33 5
-45 0 -15 -5 -23 -4 -27 7 -3 8 -11 14 -18 14 -7 0 -13 11 -13 25 0 14 4 25 8
25 10 0 5 43 -7 51 -4 4 -3 16 3 27 9 17 8 21 -7 25 -16 4 -16 5 1 6 18 1 25
21 6 21 -5 0 -7 5 -4 10 3 6 0 10 -7 11 -7 0 -2 5 12 11 21 9 22 12 7 15 -9 3
-15 9 -12 14 4 5 -4 9 -17 9 -20 0 -19 2 10 16 31 16 43 34 22 34 -5 0 -10 9
-10 20 0 11 -6 20 -12 20 -10 0 -9 3 1 9 7 5 10 14 7 20 -4 6 -2 11 4 11 15 0
6 70 -10 80 -9 5 -9 9 -1 14 6 4 9 11 6 16 -3 5 -1 11 5 15 15 9 12 25 -5 25
-20 0 -19 10 3 26 16 12 15 13 -8 14 -14 0 -20 4 -14 8 20 13 25 42 7 42 -14
0 -14 2 3 15 18 14 18 14 -6 15 l-25 0 25 20 c14 11 21 20 16 20 -5 0 -3 7 4
15 10 12 9 15 -6 15 -16 0 -17 2 -4 10 13 9 13 10 0 10 -12 1 -12 3 3 14 16
13 16 14 -5 20 -23 6 -23 7 -3 19 24 14 22 47 -2 47 -11 0 -9 6 8 20 l24 19
-22 1 c-27 0 -30 12 -8 30 8 7 15 19 15 27 0 11 -6 8 -20 -8 -16 -20 -19 -21
-20 -6 0 20 -16 23 -23 5 -3 -8 -6 -6 -6 5 -1 18 -31 24 -31 6 0 -8 -5 -8 -15
1 -8 7 -15 8 -15 3 0 -13 -30 -12 -30 1 0 6 -7 2 -15 -8 -15 -19 -15 -19 -15
2 0 16 -4 20 -17 15 -10 -4 -23 -14 -30 -22 -11 -14 -12 -14 -13 0 0 20 -31
20 -43 1 -7 -11 -12 -10 -23 5 -7 10 -14 14 -14 8 0 -5 -4 -4 -8 3 -7 9 -11 7
-20 -10z"/>
<path d="M1916 901 c-4 -6 1 -11 11 -11 15 0 16 -2 3 -10 -13 -9 -13 -11 0
-20 10 -6 11 -10 3 -10 -7 0 -13 -6 -13 -14 0 -8 6 -17 13 -19 10 -4 10 -6 0
-6 -20 -1 -15 -21 4 -21 16 0 16 -1 0 -12 -19 -15 -18 -75 2 -87 9 -6 4 -11
-16 -16 l-28 -7 25 -10 25 -10 -22 -11 c-25 -11 -31 -27 -10 -27 8 0 7 -4 -3
-10 -13 -9 -13 -10 0 -10 10 0 16 -11 16 -30 1 -16 -1 -30 -5 -30 -3 0 -7 -16
-7 -35 -1 -19 3 -35 8 -35 5 0 7 -4 3 -9 -10 -17 -13 -71 -3 -71 5 0 6 -4 3
-10 -3 -5 0 -10 7 -10 8 -1 6 -6 -6 -15 -14 -11 -16 -15 -5 -15 12 0 12 -2 -1
-10 -13 -9 -13 -11 0 -20 9 -5 10 -10 3 -10 -9 0 -11 -19 -3 -40 1 -3 2 -8 1
-12 0 -5 5 -8 11 -8 9 0 8 -4 -2 -10 -8 -5 -11 -10 -6 -10 6 0 1 -7 -10 -16
-18 -15 -18 -15 4 -11 19 5 21 3 11 -9 -9 -11 -9 -14 0 -14 7 0 9 -5 5 -11 -4
-8 1 -9 16 -4 20 6 22 4 17 -15 -4 -16 -2 -20 8 -16 8 3 17 -3 20 -15 4 -12
13 -18 20 -15 10 3 12 0 8 -11 -4 -11 -2 -14 5 -9 7 4 12 2 12 -5 0 -8 4 -8
15 1 13 10 15 9 15 -10 0 -19 2 -20 15 -10 12 10 15 9 15 -6 0 -17 1 -17 15 2
17 22 20 38 5 29 -5 -3 -10 1 -10 10 0 9 -4 13 -10 10 -5 -3 -10 1 -10 10 0 9
-4 13 -10 10 -5 -3 -10 -1 -10 4 0 6 -6 11 -14 11 -8 0 -17 7 -20 16 -4 11
-13 13 -27 9 -18 -6 -21 -4 -16 9 4 9 2 16 -4 16 -7 0 -9 10 -5 25 4 15 2 25
-4 25 -6 0 -9 4 -6 9 4 5 0 12 -6 14 -10 4 -10 6 -1 6 18 1 3 31 -16 31 -11 1
-8 5 9 15 14 8 20 14 13 15 -8 0 -8 7 0 30 8 20 8 33 2 38 -13 9 -15 42 -3 42
6 0 8 13 4 33 -8 42 -8 45 -2 95 3 32 1 42 -10 42 -8 0 -14 5 -14 10 0 6 7 10
15 10 21 0 19 20 -2 20 -14 1 -12 4 7 15 l25 14 -25 1 c-25 2 -24 2 5 15 19 9
24 14 13 15 -20 0 -24 15 -8 25 16 10 12 25 -7 25 -15 0 -14 2 3 15 19 14 19
14 -1 15 -19 1 -19 1 -2 14 15 12 16 15 2 26 -13 11 -13 15 -3 21 10 7 10 9
-1 9 -11 0 -11 3 -1 15 10 12 10 15 -1 15 -11 0 -11 2 1 10 18 11 13 16 -21
25 -16 4 -30 2 -33 -4z"/>
<path d="M1408 763 c-10 -2 -15 -10 -11 -19 3 -9 -1 -14 -13 -14 -16 -1 -15
-3 6 -15 14 -8 19 -14 13 -15 -7 0 -13 -7 -13 -15 0 -8 -6 -15 -12 -16 -7 0
-4 -4 7 -9 l20 -9 -20 -1 c-18 -1 -17 -2 5 -15 22 -12 22 -14 6 -15 -20 0 -20
0 0 -15 18 -13 18 -14 1 -15 -22 0 -19 -32 3 -41 12 -5 9 -9 -10 -17 -22 -9
-22 -11 -5 -12 20 -1 20 -1 1 -15 -15 -11 -16 -15 -5 -19 43 -14 44 -15 22
-21 -27 -9 -30 -25 -5 -26 10 0 3 -7 -18 -16 l-35 -16 39 -12 39 -11 -34 -29
-34 -28 38 6 c20 3 37 4 37 2 0 -2 -9 -20 -21 -39 -23 -39 -10 -50 15 -14 16
22 16 22 16 -12 1 -33 1 -34 15 -16 17 23 20 40 5 31 -6 -4 -10 8 -10 29 0 31
-3 36 -22 36 l-23 1 24 19 23 20 -31 6 c-40 8 -39 16 2 33 28 11 30 13 13 20
-19 7 -18 8 5 15 23 7 23 8 -11 18 l-35 11 30 10 c26 9 27 11 10 18 -19 6 -18
8 5 17 17 7 20 11 8 11 -11 1 -15 6 -12 16 4 9 1 15 -7 15 -8 0 -5 6 7 15 18
14 18 16 2 29 -23 17 -23 26 -1 26 15 0 14 2 -3 15 -12 9 -14 14 -6 15 7 0 11
4 7 9 -3 5 0 13 7 17 8 5 6 10 -8 15 -15 6 -16 8 -2 8 9 1 15 8 14 18 -3 19
-12 23 -38 16z"/>
<path d="M1477 317 c-7 -18 2 -57 13 -57 5 0 11 8 13 18 4 16 5 16 6 0 1 -22
9 -23 33 -1 14 13 18 13 18 2 1 -10 5 -8 15 5 13 17 15 17 15 4 0 -19 10 -27
40 -33 11 -2 20 2 20 8 0 8 3 7 9 -2 7 -11 11 -10 20 5 9 17 10 17 11 2 0 -10
5 -18 10 -18 6 0 10 10 10 22 l0 22 15 -21 c8 -12 25 -23 38 -25 21 -4 21 -5
-5 -18 -34 -16 -36 -30 -5 -31 15 0 17 -2 7 -6 -25 -10 -30 -26 -12 -40 15
-11 14 -12 -8 -13 -17 0 -21 -3 -13 -11 8 -8 21 -7 47 2 38 14 47 29 19 30
-15 0 -15 2 2 9 11 5 14 9 6 9 -10 1 -11 4 -2 15 10 12 8 15 -11 18 -23 4 -23
4 4 18 32 15 28 30 -8 30 -24 0 -24 1 -10 22 24 34 19 42 -11 18 -25 -20 -27
-20 -36 -3 -15 27 -17 29 -27 13 -9 -13 -10 -13 -10 0 0 13 -1 13 -10 0 -8
-13 -11 -12 -24 5 -14 20 -15 20 -25 -5 -7 -19 -10 -21 -10 -6 -1 11 -6 16
-15 13 -8 -3 -17 -1 -19 6 -3 8 -16 1 -36 -17 -29 -28 -31 -28 -31 -8 0 11 -4
24 -10 27 -5 3 -10 0 -10 -7 0 -11 -2 -10 -9 0 -7 11 -9 11 -14 -1z"/>
</g>
</svg>
