<svg width="32" height="32" viewBox="0 0 32 32" fill="none" xmlns="http://www.w3.org/2000/svg">
<circle cx="16" cy="16" r="8" fill="#1F98E9"/>
<path d="M13 20H16.3261C17.9865 20 19 19.1351 19 17.7325V17.7214C19 16.6847 18.2776 15.9085 17.2318 15.8087V15.7089C18.0135 15.5814 18.6173 14.8385 18.6173 14.0014V13.9903C18.6173 12.7651 17.7278 12 16.2507 12H13V20ZM15.9111 13.1143C16.752 13.1143 17.2426 13.5301 17.2426 14.2398V14.2509C17.2426 14.9771 16.7197 15.3708 15.7332 15.3708H14.3908V13.1143H15.9111ZM15.9542 16.3853C17.0162 16.3853 17.5768 16.8122 17.5768 17.6216V17.6327C17.5768 18.4477 17.0323 18.8857 16.0081 18.8857H14.3908V16.3853H15.9542Z" fill="white"/>
</svg>
