<?xml version="1.0" encoding="UTF-8"?>
<!DOCTYPE svg PUBLIC "-//W3C//DTD SVG 1.1//EN" "http://www.w3.org/Graphics/SVG/1.1/DTD/svg11.dtd">
<svg version="1.1" xmlns="http://www.w3.org/2000/svg" xmlns:xlink="http://www.w3.org/1999/xlink" x="0" y="0" width="200" height="200" viewBox="0, 0, 200, 200">
  <g id="Layer_1">
    <path d="M0,0 L200,0 L200,200 L0,200 L0,0 z" fill="#000000"/>
    <g>
      <path d="M129.16,168.316 L129.16,110.768 L165.527,110.768 L165.527,121.159 L141.149,121.159 L141.149,133.627 L162.73,133.627 L162.73,144.018 L141.149,144.018 L141.149,157.925 L165.527,157.925 L165.527,168.316 z" fill="#FFFFFF"/>
      <path d="M98.788,157.126 Q102.464,157.126 104.702,155.048 Q106.94,152.97 106.94,149.533 L106.94,129.471 Q106.94,126.114 104.702,124.036 Q102.464,121.958 98.788,121.958 L91.834,121.958 L91.834,157.126 z M79.845,168.316 L79.845,110.768 L98.788,110.768 Q103.344,110.768 107.06,112.087 Q110.777,113.406 113.414,115.883 Q116.052,118.361 117.491,121.798 Q118.929,125.235 118.929,129.471 L118.929,149.533 Q118.929,153.769 117.491,157.246 Q116.052,160.723 113.414,163.16 Q110.777,165.598 107.06,166.957 Q103.344,168.316 98.788,168.316 z" fill="#FFFFFF"/>
      <path d="M32.848,168.316 L32.848,157.925 L44.837,157.925 L44.837,121.159 L32.848,121.159 L32.848,110.768 L68.815,110.768 L68.815,121.159 L56.826,121.159 L56.826,157.925 L68.815,157.925 L68.815,168.316 z" fill="#FFFFFF"/>
      <path d="M125.963,89.055 L125.963,31.507 L139.87,31.507 Q146.493,46.81 146.489,46.809 L153.458,31.507 L167.525,31.507 L167.525,89.055 L157.055,89.055 L157.295,44.534 L146.489,67.39 L136.194,44.534 L136.434,89.055 z" fill="#FFFFFF"/>
      <path d="M81.204,89.054 L81.204,31.507 L117.571,31.507 L117.571,41.897 L93.193,41.897 L93.193,54.366 L114.773,54.366 L114.773,64.757 L93.193,64.757 L93.193,78.664 L117.571,78.664 L117.571,89.054 z" fill="#FFFFFF"/>
      <path d="M27.653,89.054 L42.999,31.507 L58.984,31.507 L74.01,89.054 L61.861,89.054 L58.824,75.866 L42.759,75.866 L39.722,89.054 z M56.586,66.515 L52.19,47.572 Q51.95,46.373 51.711,44.975 Q51.471,43.576 51.311,42.297 Q51.151,40.938 50.991,39.5 L50.512,39.5 Q50.352,40.938 50.112,42.297 Q49.952,43.576 49.752,44.975 Q49.553,46.373 49.233,47.572 L44.917,66.515 z" fill="#FFFFFF"/>
    </g>
  </g>
</svg>
