<?xml version="1.0" standalone="yes"?>
<svg xmlns="http://www.w3.org/2000/svg" width="500" height="500">
<path style="fill:#00FFFF; stroke:none;" d="M0 0L0 500L500 500L500 0L0 0z"/>
<path style="fill:#f90707; stroke:none;" d="M12 12L12 488L488 488L488 12L12 12z"/>
<path style="fill:#fb6565; stroke:none;" d="M169 116L169 117L199 117L169 116M294 116L294 117L308 117L294 116z"/>
<path style="fill:#fffdfd; stroke:none;" d="M169 117L169 212C189.306 212 213.871 215.743 232 204.532C255.244 190.158 256.439 141.867 233.996 126.221C215.632 113.418 190.119 117 169 117z"/>
<path style="fill:#fd9595; stroke:none;" d="M208.667 117.333L209.333 117.667L208.667 117.333z"/>
<path style="fill:#fb6565; stroke:none;" d="M210 117L211 118L210 117M289 117L290 118L289 117z"/>
<path style="fill:#fd9595; stroke:none;" d="M290 117L291 118L290 117z"/>
<path style="fill:#fffdfd; stroke:none;" d="M272 121L272 133L295 129L295 182L293.397 200.397L274 202L274 212L329 212L329 202L308 202L308 117L272 121z"/>
<path style="fill:#fd9595; stroke:none;" d="M214 118L215 119L214 118z"/>
<path style="fill:#fb6565; stroke:none;" d="M215 118L216 119L215 118M284 118L285 119L284 118z"/>
<path style="fill:#fd9595; stroke:none;" d="M285 118L286 119L285 118M219 119L220 120L219 119M280 119L281 120L280 119M222 120L223 121L222 120z"/>
<path style="fill:#fb6565; stroke:none;" d="M275 120L276 121L275 120z"/>
<path style="fill:#fd9595; stroke:none;" d="M276 120L277 121L276 120M225 121L226 122L225 121z"/>
<path style="fill:#fb6565; stroke:none;" d="M271 121L271 133L272 133L271 121z"/>
<path style="fill:#fd9595; stroke:none;" d="M227 122L228 123L227 122M229 123L230 124L229 123z"/>
<path style="fill:#fb6565; stroke:none;" d="M231 124L232 125L231 124M234 126L235 127L234 126z"/>
<path style="fill:#fd9595; stroke:none;" d="M183 127L183 128L198 128L183 127M235 127L236 128L235 127z"/>
<path style="fill:#f90707; stroke:none;" d="M182 128L182 201C195.456 201 211.18 203.4 222.961 195.451C240.017 183.942 240.356 146.755 223.985 134.498C212.389 125.816 195.544 128 182 128z"/>
<path style="fill:#fb6565; stroke:none;" d="M207 128L208 129L207 128z"/>
<path style="fill:#fd9595; stroke:none;" d="M208 128L209 129L208 128z"/>
<path style="fill:#fb6565; stroke:none;" d="M212 129L213 130L212 129z"/>
<path style="fill:#fd9595; stroke:none;" d="M213 129L214 130L213 129M290 129L291 130L290 129z"/>
<path style="fill:#fb6565; stroke:none;" d="M291 129L292 130L291 129M294 129L294 201L295 201L295 152L294 129z"/>
<path style="fill:#fd9595; stroke:none;" d="M216 130L217 131L216 130M285 130L286 131L285 130z"/>
<path style="fill:#fb6565; stroke:none;" d="M286 130L287 131L286 130M218 131L219 132L218 131z"/>
<path style="fill:#fd9595; stroke:none;" d="M280 131L281 132L280 131z"/>
<path style="fill:#fb6565; stroke:none;" d="M281 131L282 132L281 131M220 132L221 133L220 132z"/>
<path style="fill:#fd9595; stroke:none;" d="M240 132L241 133L240 132M275 132L276 133L275 132z"/>
<path style="fill:#fb6565; stroke:none;" d="M276 132L277 133L276 132M241 133L242 134L241 133z"/>
<path style="fill:#fd9595; stroke:none;" d="M225 135L226 136L225 135M242 135L243 136L242 135M226 136L227 137L226 136z"/>
<path style="fill:#fb6565; stroke:none;" d="M244 138L245 139L244 138M229 140L230 141L229 140z"/>
<path style="fill:#fd9595; stroke:none;" d="M230 141L231 142L230 141M231 143L232 144L231 143M246 143L247 144L246 143M232 145L233 146L232 145z"/>
<path style="fill:#fb6565; stroke:none;" d="M247 146L248 147L247 146M233 148L234 149L233 148M248 150L249 151L248 150z"/>
<path style="fill:#fd9595; stroke:none;" d="M248 151L249 152L248 151M234 152L235 153L234 152z"/>
<path style="fill:#fb6565; stroke:none;" d="M234 153L235 154L234 153z"/>
<path style="fill:#fd9595; stroke:none;" d="M235 157L235 161L236 161L235 157z"/>
<path style="fill:#fb6565; stroke:none;" d="M249 157L250 158L249 157z"/>
<path style="fill:#fd9595; stroke:none;" d="M249 158L249 164L250 164L249 158z"/>
<path style="fill:#fb6565; stroke:none;" d="M235 161L235 164L236 164L235 161M235 165L235 168L236 168L235 165z"/>
<path style="fill:#fd9595; stroke:none;" d="M249 165L249 170L250 170L249 165M235 168L235 171L236 171L235 168z"/>
<path style="fill:#fb6565; stroke:none;" d="M249.333 170.667L249.667 171.333L249.333 170.667M234 176L235 177L234 176z"/>
<path style="fill:#fd9595; stroke:none;" d="M234 177L235 178L234 177M248 177L249 178L248 177z"/>
<path style="fill:#fb6565; stroke:none;" d="M248 178L249 179L248 178M233 180L234 181L233 180M247 182L248 183L247 182z"/>
<path style="fill:#fd9595; stroke:none;" d="M232 183L233 184L232 183M231 185L232 186L231 185M246 185L247 186L246 185z"/>
<path style="fill:#fb6565; stroke:none;" d="M230 187L231 188L230 187M245 188L246 189L245 188z"/>
<path style="fill:#fd9595; stroke:none;" d="M228 190L229 191L228 190z"/>
<path style="fill:#fb6565; stroke:none;" d="M244 190L245 191L244 190M227 191L228 192L227 191M243 192L244 193L243 192M225 193L226 194L225 193z"/>
<path style="fill:#fd9595; stroke:none;" d="M224 194L225 195L224 194z"/>
<path style="fill:#fb6565; stroke:none;" d="M241 195L242 196L241 195M221 196L222 197L221 196z"/>
<path style="fill:#fd9595; stroke:none;" d="M240 196L241 197L240 196z"/>
<path style="fill:#fb6565; stroke:none;" d="M219 197L220 198L219 197z"/>
<path style="fill:#fd9595; stroke:none;" d="M217 198L218 199L217 198z"/>
<path style="fill:#fb6565; stroke:none;" d="M214 199L215 200L214 199M210 200L211 201L210 200z"/>
<path style="fill:#fd9595; stroke:none;" d="M211 200L212 201L211 200z"/>
<path style="fill:#fb6565; stroke:none;" d="M182 201L182 202L200 202L182 201z"/>
<path style="fill:#fd9595; stroke:none;" d="M200 201L200 202L207 202L200 201z"/>
<path style="fill:#fb6565; stroke:none;" d="M273 201L274 202L273 201z"/>
<path style="fill:#fd9595; stroke:none;" d="M274 201L274 202L294 202L274 201M308 201L308 202L329 202L308 201M273 202L274.603 211.972L289 213L329 213L329 212L274 212L273 202z"/>
<path style="fill:#fb6565; stroke:none;" d="M233 203L234 204L233 203M230 205L231 206L230 205M228 206L229 207L228 206M226 207L227 208L226 207z"/>
<path style="fill:#fd9595; stroke:none;" d="M223 208L224 209L223 208M220 209L221 210L220 209M216 210L217 211L216 210z"/>
<path style="fill:#fb6565; stroke:none;" d="M217 210L218 211L217 210z"/>
<path style="fill:#fd9595; stroke:none;" d="M211.667 211.333L212.333 211.667L211.667 211.333z"/>
<path style="fill:#fb6565; stroke:none;" d="M213 211L214 212L213 211z"/>
<path style="fill:#fd9595; stroke:none;" d="M169 212L169 213L205 213C195.44 208.989 179.387 212 169 212z"/>
<path style="fill:#fb6565; stroke:none;" d="M205.667 212.333L206.333 212.667L205.667 212.333M273 212L274 213L273 212M276 283L276 284L281 284L276 283M382 283L382 284L387 284L382 283M268 284L269 285L268 284z"/>
<path style="fill:#fd9595; stroke:none;" d="M269 284L270 285L269 284z"/>
<path style="fill:#fffdfd; stroke:none;" d="M270 284.465C233.008 291.122 223.607 343.842 246.468 369.91C256.498 381.347 273.458 385.002 288 382.384C344.222 372.266 329.866 273.69 270 284.465z"/>
<path style="fill:#fd9595; stroke:none;" d="M288 284L289 285L288 284z"/>
<path style="fill:#fb6565; stroke:none;" d="M289 284L290 285L289 284z"/>
<path style="fill:#fd9595; stroke:none;" d="M373.667 284.333L374.333 284.667L373.667 284.333z"/>
<path style="fill:#fffdfd; stroke:none;" d="M415 361C402.568 367.184 393.719 373.732 378.996 371.819C346.422 367.586 342.334 314.29 368 298.98C384.925 288.884 399.989 298.533 415 306C415 302.232 416.003 296.677 413.972 293.329C406.619 281.206 379.312 282.583 368 286.039C347.823 292.205 338.031 312.044 338 332C337.968 352.913 345.82 372.982 367 380.452C378.236 384.415 406.59 385.842 413.972 373.671C416.003 370.323 415 364.768 415 361z"/>
<path style="fill:#fd9595; stroke:none;" d="M394 284L395 285L394 284z"/>
<path style="fill:#fb6565; stroke:none;" d="M81 285L81 357C81 361.956 78.4459 377.679 82.6034 380.972C85.0522 382.912 90.0896 382 93 382L118 382L118 381L82 381L82 314L81 285z"/>
<path style="fill:#fd9595; stroke:none;" d="M82 285L82 286L116 286L82 285z"/>
<path style="fill:#fb6565; stroke:none;" d="M116 285L116 286L120 286L116 285M171 285L172 286L171 285z"/>
<path style="fill:#fd9595; stroke:none;" d="M171 381L172 381L172 286L184 286C168.597 279.537 171 296.167 171 306L171 381z"/>
<path style="fill:#fb6565; stroke:none;" d="M184 285L185 286L184 285z"/>
<path style="fill:#fd9595; stroke:none;" d="M265 285L266 286L265 285M292 285L293 286L292 285M369 285L370 286L369 285M398 285L399 286L398 285z"/>
<path style="fill:#fffdfd; stroke:none;" d="M82 286L82 381C99.6747 381 124.669 385.58 139.96 374.895C157.522 362.623 149.167 334.555 130 330C147.164 323.157 151.881 299.688 134 289.533C120.294 281.749 97.2527 286 82 286z"/>
<path style="fill:#fd9595; stroke:none;" d="M124 286L125 287L124 286z"/>
<path style="fill:#fb6565; stroke:none;" d="M125.667 286.333L126.333 286.667L125.667 286.333z"/>
<path style="fill:#fffdfd; stroke:none;" d="M172 286L172 381L231 381L231 370L185 370L185 286L172 286z"/>
<path style="fill:#fd9595; stroke:none;" d="M262 286L263 287L262 286z"/>
<path style="fill:#fb6565; stroke:none;" d="M295 286L296 287L295 286z"/>
<path style="fill:#fd9595; stroke:none;" d="M366 286L367 287L366 286M401 286L402 287L401 286z"/>
<path style="fill:#fb6565; stroke:none;" d="M129 287L130 288L129 287M259 287L260 288L259 287M363 287L364 288L363 287z"/>
<path style="fill:#fd9595; stroke:none;" d="M404 287L405 288L404 287z"/>
<path style="fill:#fb6565; stroke:none;" d="M132 288L133 289L132 288M257 288L258 289L257 288M300 288L301 289L300 288M361 288L362 289L361 288M407 288L408 289L407 288M134 289L135 290L134 289M255 289L256 290L255 289M409 289L410 290L409 289z"/>
<path style="fill:#fd9595; stroke:none;" d="M135 290L136 291L135 290M254 290L255 291L254 290M303 290L304 291L303 290M358 290L359 291L358 290z"/>
<path style="fill:#fb6565; stroke:none;" d="M137 291L138 292L137 291M356 291L357 292L356 291z"/>
<path style="fill:#fd9595; stroke:none;" d="M412 291L413 292L412 291M138 292L139 293L138 292z"/>
<path style="fill:#fb6565; stroke:none;" d="M251 292L252 293L251 292M306 292L307 293L306 292z"/>
<path style="fill:#fd9595; stroke:none;" d="M355 292L356 293L355 292M414 292L415 293L414 292M139 293L140 294L139 293M250 293L251 294L250 293z"/>
<path style="fill:#fb6565; stroke:none;" d="M307 293L308 294L307 293z"/>
<path style="fill:#fd9595; stroke:none;" d="M140 294L141 295L140 294M276.667 294.333L277.333 294.667L276.667 294.333z"/>
<path style="fill:#fb6565; stroke:none;" d="M278 294L279 295L278 294z"/>
<path style="fill:#fd9595; stroke:none;" d="M279.667 294.333L280.333 294.667L279.667 294.333M308 294L309 295L308 294M385 294L386 295L385 294z"/>
<path style="fill:#fb6565; stroke:none;" d="M141 295L142 296L141 295M271 295L272 296L271 295z"/>
<path style="fill:#f90707; stroke:none;" d="M272 295.518C233.745 303.692 243.037 381.039 287 370.981C323.806 362.561 314.389 286.461 272 295.518z"/>
<path style="fill:#fb6565; stroke:none;" d="M286 295L287 296L286 295z"/>
<path style="fill:#fd9595; stroke:none;" d="M309 295L310 296L309 295z"/>
<path style="fill:#fb6565; stroke:none;" d="M377.667 295.333L378.333 295.667L377.667 295.333M392.667 295.333L393.333 295.667L392.667 295.333M95 296L95 297L117 297L95 296z"/>
<path style="fill:#fd9595; stroke:none;" d="M117.667 296.333L118.333 296.667L117.667 296.333z"/>
<path style="fill:#fb6565; stroke:none;" d="M268 296L269 297L268 296M289 296L290 297L289 296z"/>
<path style="fill:#fd9595; stroke:none;" d="M310 296L311 297L310 296M373 296L374 297L373 296z"/>
<path style="fill:#fb6565; stroke:none;" d="M396 296L397 297L396 296z"/>
<path style="fill:#fd9595; stroke:none;" d="M397 296L398 297L397 296M94 297L94 325L95 325L94 297z"/>
<path style="fill:#f90707; stroke:none;" d="M95 297L95 325C104.353 325 117.651 327.161 125.981 321.991C134.355 316.794 133.955 302.984 124.985 298.573C116.896 294.594 103.828 297 95 297z"/>
<path style="fill:#fd9595; stroke:none;" d="M122 297L123 298L122 297M142 297L143 298L142 297M265 297L266 298L265 297M311 297L312 298L311 297z"/>
<path style="fill:#fb6565; stroke:none;" d="M370 297L371 298L370 297z"/>
<path style="fill:#fd9595; stroke:none;" d="M400 297L401 298L400 297M125 298L126 299L125 298z"/>
<path style="fill:#fb6565; stroke:none;" d="M143 298L144 299L143 298z"/>
<path style="fill:#fd9595; stroke:none;" d="M245 298L246 299L245 298z"/>
<path style="fill:#fb6565; stroke:none;" d="M293 298L294 299L293 298M312 298L313 299L312 298z"/>
<path style="fill:#fd9595; stroke:none;" d="M368 298L369 299L368 298z"/>
<path style="fill:#fb6565; stroke:none;" d="M402 298L403 299L402 298M244 299L245 300L244 299M262 299L263 300L262 299z"/>
<path style="fill:#fd9595; stroke:none;" d="M295 299L296 300L295 299M348 299L349 300L348 299M366 299L367 300L366 299z"/>
<path style="fill:#fb6565; stroke:none;" d="M404 299L405 300L404 299z"/>
<path style="fill:#fd9595; stroke:none;" d="M128 300L129 301L128 300M347 300L348 301L347 300M406 300L407 301L406 300M129 301L130 302L129 301M144 301L145 302L144 301M314 301L315 302L314 301M242 302L243 303L242 302z"/>
<path style="fill:#fb6565; stroke:none;" d="M315 302L316 303L315 302M409 302L410 303L409 302M130 303L131 304L130 303z"/>
<path style="fill:#fd9595; stroke:none;" d="M345 303L346 304L345 303M361 303L362 304L361 303z"/>
<path style="fill:#fb6565; stroke:none;" d="M300 304L301 305L300 304z"/>
<path style="fill:#fd9595; stroke:none;" d="M316 304L317 305L316 304M360 304L361 305L360 304M131 305L132 306L131 305z"/>
<path style="fill:#fb6565; stroke:none;" d="M145.333 305.667L145.667 306.333L145.333 305.667M240 305L241 306L240 305M301 305L302 306L301 305M413 305L414 306L413 305z"/>
<path style="fill:#fd9595; stroke:none;" d="M255 306L256 307L255 306M317 306L318 307L317 306z"/>
<path style="fill:#fb6565; stroke:none;" d="M414 306L415 307L414 306z"/>
<path style="fill:#fd9595; stroke:none;" d="M145 307L145 312L146 312L145 307z"/>
<path style="fill:#fb6565; stroke:none;" d="M239 307L240 308L239 307M358 307L359 308L358 307M254 308L255 309L254 308z"/>
<path style="fill:#fd9595; stroke:none;" d="M303 308L304 309L303 308M318 308L319 309L318 308z"/>
<path style="fill:#fb6565; stroke:none;" d="M342 308L343 309L342 308z"/>
<path style="fill:#fd9595; stroke:none;" d="M357 308L358 309L357 308M132 309L132 312L133 312L132 309M253 309L254 310L253 309M238 310L239 311L238 310z"/>
<path style="fill:#fb6565; stroke:none;" d="M304 310L305 311L304 310M319 310L320 311L319 310M356 310L357 311L356 310z"/>
<path style="fill:#fd9595; stroke:none;" d="M341 311L342 312L341 311z"/>
<path style="fill:#fb6565; stroke:none;" d="M145.333 312.667L145.667 313.333L145.333 312.667M237 312L238 313L237 312M252 312L253 313L252 312z"/>
<path style="fill:#fd9595; stroke:none;" d="M305 312L306 313L305 312M355 312L356 313L355 312z"/>
<path style="fill:#fb6565; stroke:none;" d="M320 313L321 314L320 313z"/>
<path style="fill:#fd9595; stroke:none;" d="M251 314L252 315L251 314M340 314L341 315L340 314z"/>
<path style="fill:#fb6565; stroke:none;" d="M131 315L132 316L131 315M306 315L307 316L306 315M354 315L355 316L354 315z"/>
<path style="fill:#fd9595; stroke:none;" d="M131 316L132 317L131 316M236 316L237 317L236 316z"/>
<path style="fill:#fb6565; stroke:none;" d="M321 316L322 317L321 316z"/>
<path style="fill:#fd9595; stroke:none;" d="M144 317L145 318L144 317z"/>
<path style="fill:#fb6565; stroke:none;" d="M250 317L251 318L250 317z"/>
<path style="fill:#fd9595; stroke:none;" d="M307 317L308 318L307 317M321 317L322 318L321 317z"/>
<path style="fill:#fb6565; stroke:none;" d="M339 317L340 318L339 317z"/>
<path style="fill:#fd9595; stroke:none;" d="M353.333 317.667L353.667 318.333L353.333 317.667M130 318L131 319L130 318z"/>
<path style="fill:#fb6565; stroke:none;" d="M307 318L308 319L307 318M129 319L130 320L129 319M128 320L129 321L128 320M143 320L144 321L143 320M235 320L236 321L235 320M127 321L128 322L127 321z"/>
<path style="fill:#fd9595; stroke:none;" d="M142 321L143 322L142 321M235 321L236 322L235 321M249 321L250 322L249 321z"/>
<path style="fill:#fb6565; stroke:none;" d="M322 321L323 322L322 321M125 322L126 323L125 322M249 322L250 323L249 322z"/>
<path style="fill:#fd9595; stroke:none;" d="M308 322L309 323L308 322M322 322L323 323L322 322z"/>
<path style="fill:#fb6565; stroke:none;" d="M338 322L339 323L338 322z"/>
<path style="fill:#fd9595; stroke:none;" d="M352 322L353 323L352 322M123 323L124 324L123 323z"/>
<path style="fill:#fb6565; stroke:none;" d="M141 323L142 324L141 323M308 323L309 324L308 323z"/>
<path style="fill:#fd9595; stroke:none;" d="M338 323L339 324L338 323z"/>
<path style="fill:#fb6565; stroke:none;" d="M352 323L353 324L352 323M117.667 324.333L118.333 324.667L117.667 324.333z"/>
<path style="fill:#fd9595; stroke:none;" d="M119 324L120 325L119 324z"/>
<path style="fill:#fb6565; stroke:none;" d="M140 324L141 325L140 324M139 325L140 326L139 325z"/>
<path style="fill:#fd9595; stroke:none;" d="M136 327L137 328L136 327z"/>
<path style="fill:#fb6565; stroke:none;" d="M234 327L234 330L235 330L234 327M134 328L135 329L134 328z"/>
<path style="fill:#fd9595; stroke:none;" d="M248 328L248 332L249 332L248 328M130 329L131 330L130 329z"/>
<path style="fill:#fb6565; stroke:none;" d="M131 329L132 330L131 329z"/>
<path style="fill:#fd9595; stroke:none;" d="M132 330L133 331L132 330z"/>
<path style="fill:#fb6565; stroke:none;" d="M133 330L134 331L133 330z"/>
<path style="fill:#fd9595; stroke:none;" d="M234 330L234 336L235 336L234 330z"/>
<path style="fill:#fb6565; stroke:none;" d="M135 331L136 332L135 331z"/>
<path style="fill:#fd9595; stroke:none;" d="M137 332L138 333L137 332z"/>
<path style="fill:#fb6565; stroke:none;" d="M248.333 332.667L248.667 333.333L248.333 332.667M323 332L323 335L324 335L323 332z"/>
<path style="fill:#fd9595; stroke:none;" d="M309 333L310 334L309 333M140 334L141 335L140 334M248 334L248 338L249 338L248 334M119 371L119 370L95 370L95 336L116 336C112.154 334.386 96.7989 332.856 94.6034 337.318C92.406 341.784 94 350.099 94 355C94 358.731 92.5766 366.302 95.0278 369.397C98.331 373.567 113.998 371 119 371z"/>
<path style="fill:#f90707; stroke:none;" d="M95 336L95 370C104.905 370 119.064 372.582 127.985 367.583C137.691 362.143 137.948 343.835 127.985 338.442C118.91 333.53 104.982 336 95 336z"/>
<path style="fill:#fb6565; stroke:none;" d="M122 336L123 337L122 336z"/>
<path style="fill:#fd9595; stroke:none;" d="M123 336L124 337L123 336M142 336L143 337L142 336z"/>
<path style="fill:#fb6565; stroke:none;" d="M234 336L234 340L235 340L234 336z"/>
<path style="fill:#fd9595; stroke:none;" d="M126 337L127 338L126 337M143 337L144 338L143 337M128 338L129 339L128 338M144 338L145 339L144 338M146 341L147 342L146 341M338.333 342.667L338.667 343.333L338.333 342.667z"/>
<path style="fill:#fb6565; stroke:none;" d="M352 342L353 343L352 342z"/>
<path style="fill:#fd9595; stroke:none;" d="M133 343L134 344L133 343z"/>
<path style="fill:#fb6565; stroke:none;" d="M147 343L148 344L147 343M308 343L309 344L308 343z"/>
<path style="fill:#fd9595; stroke:none;" d="M322.333 343.667L322.667 344.333L322.333 343.667M352 343L353 344L352 343z"/>
<path style="fill:#fb6565; stroke:none;" d="M249 344L250 345L249 344z"/>
<path style="fill:#fd9595; stroke:none;" d="M308 344L309 345L308 344z"/>
<path style="fill:#fb6565; stroke:none;" d="M338 344L339 345L338 344z"/>
<path style="fill:#fd9595; stroke:none;" d="M134 345L135 346L134 345z"/>
<path style="fill:#fb6565; stroke:none;" d="M148 345L149 346L148 345z"/>
<path style="fill:#fd9595; stroke:none;" d="M235 345L236 346L235 345M249 345L250 346L249 345z"/>
<path style="fill:#fb6565; stroke:none;" d="M322 345L323 346L322 345M134 346L135 347L134 346z"/>
<path style="fill:#fd9595; stroke:none;" d="M148 346L149 347L148 346z"/>
<path style="fill:#fb6565; stroke:none;" d="M235 346L236 347L235 346M353 347L354 348L353 347z"/>
<path style="fill:#fd9595; stroke:none;" d="M307.333 348.667L307.667 349.333L307.333 348.667M339 348L340 349L339 348M353 348L354 349L353 348M135 349L136 350L135 349z"/>
<path style="fill:#fb6565; stroke:none;" d="M250 349L251 350L250 349z"/>
<path style="fill:#fd9595; stroke:none;" d="M321 349L322 350L321 349z"/>
<path style="fill:#fb6565; stroke:none;" d="M339 349L340 350L339 349M135 350L135 356L136 356L135 350M149.333 350.667L149.667 351.333L149.333 350.667z"/>
<path style="fill:#fd9595; stroke:none;" d="M236 350L237 351L236 350z"/>
<path style="fill:#fb6565; stroke:none;" d="M306 351L307 352L306 351M354 351L355 352L354 351z"/>
<path style="fill:#fd9595; stroke:none;" d="M149 352L149 356L150 356L149 352M251 352L252 353L251 352M320 352L321 353L320 352M340 352L341 353L340 352M237 353L238 354L237 353z"/>
<path style="fill:#fb6565; stroke:none;" d="M320 353L321 354L320 353M237 354L238 355L237 354M252 354L253 355L252 354z"/>
<path style="fill:#fd9595; stroke:none;" d="M305 354L306 355L305 354M355 354L356 355L355 354M319 355L320 356L319 355M341 355L342 356L341 355M135 356L136 357L135 356z"/>
<path style="fill:#fb6565; stroke:none;" d="M149 356L149 359L150 359L149 356z"/>
<path style="fill:#fd9595; stroke:none;" d="M238 356L239 357L238 356z"/>
<path style="fill:#fb6565; stroke:none;" d="M304 356L305 357L304 356M356 356L357 357L356 356z"/>
<path style="fill:#fd9595; stroke:none;" d="M254 358L255 359L254 358z"/>
<path style="fill:#fb6565; stroke:none;" d="M318 358L319 359L318 358M342 358L343 359L342 358M302 359L303 360L302 359M358 359L359 360L358 359z"/>
<path style="fill:#fd9595; stroke:none;" d="M134 360L135 361L134 360z"/>
<path style="fill:#fb6565; stroke:none;" d="M317 360L318 361L317 360M343 360L344 361L343 360M414 360L415 361L414 360M256 361L257 362L256 361z"/>
<path style="fill:#fd9595; stroke:none;" d="M301 361L302 362L301 361M413 361L414 362L413 361z"/>
<path style="fill:#fb6565; stroke:none;" d="M133 362L134 363L133 362z"/>
<path style="fill:#fd9595; stroke:none;" d="M148 362L149 363L148 362M241 362L242 363L241 362z"/>
<path style="fill:#fb6565; stroke:none;" d="M257 362L258 363L257 362M300 362L301 363L300 362M316 362L317 363L316 362z"/>
<path style="fill:#fd9595; stroke:none;" d="M360 362L361 363L360 362z"/>
<path style="fill:#fb6565; stroke:none;" d="M299 363L300 364L299 363z"/>
<path style="fill:#fd9595; stroke:none;" d="M345 363L346 364L345 363M361 363L362 364L361 363z"/>
<path style="fill:#fb6565; stroke:none;" d="M410 363L411 364L410 363M242 364L243 365L242 364M298 364L299 365L298 364z"/>
<path style="fill:#fd9595; stroke:none;" d="M362 364L363 365L362 364M409 364L410 365L409 364M131 365L132 366L131 365M147 365L148 366L147 365z"/>
<path style="fill:#fb6565; stroke:none;" d="M297 365L298 366L297 365z"/>
<path style="fill:#fd9595; stroke:none;" d="M314 365L315 366L314 365z"/>
<path style="fill:#fb6565; stroke:none;" d="M346 365L347 366L346 365z"/>
<path style="fill:#fd9595; stroke:none;" d="M130 366L131 367L130 366z"/>
<path style="fill:#fb6565; stroke:none;" d="M296 366L297 367L296 366z"/>
<path style="fill:#fd9595; stroke:none;" d="M347 366L348 367L347 366M406 366L407 367L406 366z"/>
<path style="fill:#fb6565; stroke:none;" d="M128 367L129 368L128 367z"/>
<path style="fill:#fd9595; stroke:none;" d="M146 367L147 368L146 367z"/>
<path style="fill:#fb6565; stroke:none;" d="M244 367L245 368L244 367z"/>
<path style="fill:#fd9595; stroke:none;" d="M262 367L263 368L262 367M295 367L296 368L295 367M348 367L349 368L348 367M366 367L367 368L366 367z"/>
<path style="fill:#fb6565; stroke:none;" d="M404 367L405 368L404 367M126 368L127 369L126 368M245 368L246 369L245 368M264 368L265 369L264 368M293 368L294 369L293 368M312 368L313 369L312 368M368 368L369 369L368 368M402 368L403 369L402 368M123 369L124 370L123 369M145 369L146 370L145 369z"/>
<path style="fill:#fd9595; stroke:none;" d="M311 369L312 370L311 369z"/>
<path style="fill:#fb6565; stroke:none;" d="M370 369L371 370L370 369z"/>
<path style="fill:#fd9595; stroke:none;" d="M400 369L401 370L400 369M144 370L145 371L144 370z"/>
<path style="fill:#fb6565; stroke:none;" d="M231 370L231 381L232 381L231 370z"/>
<path style="fill:#fd9595; stroke:none;" d="M268 370L269 371L268 370M289 370L290 371L289 370M310 370L311 371L310 370z"/>
<path style="fill:#fb6565; stroke:none;" d="M373 370L374 371L373 370M396 370L397 371L396 370z"/>
<path style="fill:#fd9595; stroke:none;" d="M397 370L398 371L397 370M271 371L272 372L271 371z"/>
<path style="fill:#fb6565; stroke:none;" d="M272 371L273 372L272 371M284.667 371.333L285.333 371.667L284.667 371.333z"/>
<path style="fill:#fd9595; stroke:none;" d="M286 371L287 372L286 371M309 371L310 372L309 371M376 371L377 372L376 371z"/>
<path style="fill:#fb6565; stroke:none;" d="M393 371L394 372L393 371z"/>
<path style="fill:#fd9595; stroke:none;" d="M308 372L309 373L308 372M385 372L386 373L385 372M250 373L251 374L250 373z"/>
<path style="fill:#fb6565; stroke:none;" d="M307 373L308 374L307 373z"/>
<path style="fill:#fd9595; stroke:none;" d="M354 373L355 374L354 373M140 374L141 375L140 374z"/>
<path style="fill:#fb6565; stroke:none;" d="M251 374L252 375L251 374M306 374L307 375L306 374M355 374L356 375L355 374z"/>
<path style="fill:#fd9595; stroke:none;" d="M414 374L415 375L414 374z"/>
<path style="fill:#fb6565; stroke:none;" d="M139 375L140 376L139 375z"/>
<path style="fill:#fd9595; stroke:none;" d="M412 375L413 376L412 375M137 376L138 377L137 376M254 376L255 377L254 376M303 376L304 377L303 376M358 376L359 377L358 376M135 377L136 378L135 377M360 377L361 378L360 377z"/>
<path style="fill:#fb6565; stroke:none;" d="M409 377L410 378L409 377M133 378L134 379L133 378M257 378L258 379L257 378M300 378L301 379L300 378z"/>
<path style="fill:#fd9595; stroke:none;" d="M362 378L363 379L362 378z"/>
<path style="fill:#fb6565; stroke:none;" d="M407 378L408 379L407 378z"/>
<path style="fill:#fd9595; stroke:none;" d="M130 379L131 380L130 379z"/>
<path style="fill:#fb6565; stroke:none;" d="M259 379L260 380L259 379z"/>
<path style="fill:#fd9595; stroke:none;" d="M364 379L365 380L364 379M404 379L405 380L404 379M125 380L126 381L125 380z"/>
<path style="fill:#fb6565; stroke:none;" d="M126 380L127 381L126 380z"/>
<path style="fill:#fd9595; stroke:none;" d="M262 380L263 381L262 380M295 380L296 381L295 380z"/>
<path style="fill:#fb6565; stroke:none;" d="M366 380L367 381L366 380z"/>
<path style="fill:#fd9595; stroke:none;" d="M401 380L402 381L401 380z"/>
<path style="fill:#fb6565; stroke:none;" d="M172 381L172 382L231 382L212 381L172 381z"/>
<path style="fill:#fd9595; stroke:none;" d="M265 381L266 382L265 381M292 381L293 382L292 381z"/>
<path style="fill:#fb6565; stroke:none;" d="M369 381L370 382L369 381z"/>
<path style="fill:#fd9595; stroke:none;" d="M370 381L371 382L370 381M397 381L398 382L397 381z"/>
<path style="fill:#fb6565; stroke:none;" d="M398 381L399 382L398 381M269 382L270 383L269 382z"/>
<path style="fill:#fd9595; stroke:none;" d="M270 382L271 383L270 382M287 382L288 383L287 382z"/>
<path style="fill:#fb6565; stroke:none;" d="M288 382L289 383L288 382M374 382L375 383L374 382z"/>
<path style="fill:#fd9595; stroke:none;" d="M375.667 382.333L376.333 382.667L375.667 382.333M392.667 382.333L393.333 382.667L392.667 382.333z"/>
<path style="fill:#fb6565; stroke:none;" d="M394 382L395 383L394 382z"/>
</svg>
