<?xml version="1.0" encoding="UTF-8" standalone="no"?>
<!DOCTYPE svg PUBLIC "-//W3C//DTD SVG 1.1//EN" "http://www.w3.org/Graphics/SVG/1.1/DTD/svg11.dtd">
<!-- Created with Vectornator (http://vectornator.io/) -->
<svg height="100%" stroke-miterlimit="10" style="fill-rule:nonzero;clip-rule:evenodd;stroke-linecap:round;stroke-linejoin:round;" version="1.1" viewBox="0 0 40 40" width="100%" xml:space="preserve" xmlns="http://www.w3.org/2000/svg" xmlns:vectornator="http://vectornator.io" xmlns:xlink="http://www.w3.org/1999/xlink">
<defs/>
<clipPath id="ArtboardFrame">
<rect height="40" width="40" x="0" y="0"/>
</clipPath>
<g clip-path="url(#ArtboardFrame)" id="Layer-1" vectornator:layerName="Layer 1">
<g opacity="1">
<path d="M48.8963 30.8233C48.7302 30.3527 48.5641 29.882 48.398 29.4114" fill="#158eaf" fill-rule="nonzero" stroke="none"/>
<path d="M48.4062 29.4062C48.4062 29.4062 48.2943 30.3494 48.3125 30.25C48.2947 30.3453 48.2586 30.4349 48.25 30.5312C48.241 30.6319 48.2227 30.5318 48.2188 31.0625C48.3484 31.4297 48.7578 31.6296 49.125 31.5C49.4922 31.3704 49.6921 30.961 49.5625 30.5938C48.9809 30.0051 48.8994 29.9403 48.9688 30C48.9014 29.9431 48.8525 29.8642 48.7812 29.8125C48.7072 29.7588 48.4062 29.4063 48.4062 29.4062Z" fill="#007aff" stroke="none"/>
</g>
<g opacity="1">
<path d="M48.0104 34.0624C47.9273 33.7579 47.8443 33.4533 47.7612 33.1488" fill="#158eaf" fill-rule="nonzero" stroke="none"/>
<path d="" fill="#007aff" stroke="none"/>
</g>
<path d="M31.8758 22.3896C30.9693 23.2413 30.4736 24.5551 29.2591 25.2244C27.1934 26.3629 23.8934 26.6075 21.758 25.5211C20.9767 25.1237 20.2375 24.4755 19.4902 24.0048C18.3718 23.3004 16.9216 21.7234 15.5477 21.6644C13.547 21.5785 12.2856 22.9006 10.9773 24.1366C10.6481 24.4477 10.4235 24.7418 10.2097 25.1255C10.1007 25.3212 10.0904 25.8415 9.8957 25.7189C9.71564 25.6055 10.1206 24.3259 10.1617 24.224C10.5584 23.24 10.9652 22.614 11.5704 21.7303C13.1014 19.4948 11.8833 18.4408 13.3311 16.3287C14.7788 14.2166 15.375 14.1965 15.375 14.1965C15.375 14.1965 15.0192 15.6161 15.013 15.8861C15.013 15.8861 14.9442 16.397 14.9215 16.8502C14.9034 17.2112 15.6943 16.3689 15.6943 16.3689C15.6943 16.3689 16.2409 15.2959 16.3117 15.162C17.2232 13.4397 17.2409 11.6673 16.9433 9.69878C16.6418 7.70492 15.8116 5.90799 14.5011 4.32578C14.0548 3.7871 13.4525 3.21294 12.8613 2.80947C12.6461 2.66263 12.2155 2.69281 12.1635 2.44688C12.0968 2.13189 13.2898 2.20548 13.4195 2.21614C14.6649 2.31845 15.8819 2.49267 17.0131 3.00725C20.088 4.40603 22.7082 6.13221 23.3629 9.53396C23.5233 10.3678 23.9976 8.44112 23.9976 7.96077C23.9976 7.63597 23.7585 6.02649 22.933 5.14465C22.1076 4.2628 23.6342 5.3073 23.7118 5.3806C24.7362 6.34853 25.5434 6.76558 26.5737 7.79985C29.2536 10.49 30.9892 15.1345 31.7963 18.6931C32.5598 22.0597 32.6383 21.6732 31.8758 22.3896Z" fill="#158eaf" fill-rule="nonzero" opacity="1" stroke="#158eaf" stroke-linecap="butt" stroke-linejoin="round" stroke-width="0"/>
</g>
<g id="Layer-2" vectornator:layerName="Layer 2">
<path d="M14 21.5516C14.69 20.4632 14.882 20.0826 15.3396 19.6156C15.8402 19.1046 16.9085 17.6305 16.8392 18.0634C16.7037 18.9097 17.5826 19.9307 17.9436 21.0229C18.0568 21.3651 17.1855 20.8906 16.1556 20.953C15.0177 21.0219 13.9984 21.4047 14.0227 21.5354" fill="#0e6a82" fill-rule="nonzero" opacity="1" stroke="#0e6a82" stroke-linecap="butt" stroke-linejoin="round" stroke-width="0"/>
<path d="M17.9326 20.8025C18.2829 18.2581 20.3566 16.2623 21.0723 13.7721C21.2029 13.3178 21.1973 11.8243 20.7911 10.7439C20.385 9.66345 23.6095 13.7877 23.9621 14.5482C24.5618 15.8419 25.0562 15.4778 25.6124 18.6926C26.0206 21.0516 25.6466 21.5674 25.4617 22.9634C25.39 23.5047 24.9149 25.1394 24.6494 26.0677C24.5673 26.3547 22.6608 25.7406 22.4313 25.6112C21.529 25.1023 21.3831 24.9065 20.713 23.9525C20.3487 23.4337 19.8082 22.7039 19.3541 22.2482C17.792 20.6808 17.834 21.519 17.9326 20.8025Z" fill="#0e6a82" fill-rule="nonzero" opacity="1" stroke="#0e6a82" stroke-linecap="butt" stroke-linejoin="round" stroke-width="0"/>
<path d="M24.7107 25.7308C24.7453 25.3596 25.9571 23.4045 25.9571 23.4045C25.9571 23.4045 26.0893 23.5063 26.7954 20.5418C27.582 17.2396 27.2072 19.216 27.4821 17.6154C27.7581 16.0084 27.6282 15.3112 27.6282 15.3112C27.6282 15.3112 26.9368 13.3689 26.8943 13.2241C26.864 13.1208 27.4724 13.6046 27.5504 13.6806C28.1794 14.2934 28.6925 15.4282 28.925 16.2371C29.0921 16.8185 29.2665 17.5889 29.4404 18.1697C29.8884 19.6661 29.9723 21.2142 29.8934 22.7502C29.8739 23.1314 29.9247 24.3023 29.6591 24.4545C28.9815 24.8428 29.4176 24.8211 28.7346 25.1325C27.7392 25.5864 28.3337 25.4071 27.8917 25.5462C27.6444 25.6241 28.1624 25.6515 26.7014 25.7721C25.4519 25.8752 25.2234 25.9798 24.6472 25.7927" fill="#0e6a82" fill-rule="nonzero" opacity="1" stroke="#0e6a82" stroke-linecap="butt" stroke-linejoin="round" stroke-width="0"/>
<path d="M15.2429 21.0552C15.4259 20.7092 15.7465 20.4654 16.0054 20.1734" fill="#0e6a82" fill-rule="nonzero" opacity="1" stroke="#0e6a82" stroke-linecap="butt" stroke-linejoin="round" stroke-width="0"/>
<path d="M15.1781 21.0845C15.3389 20.883 15.4659 20.6627 15.6372 20.4696" fill="#0e6a82" fill-rule="nonzero" opacity="1" stroke="#0e6a82" stroke-linecap="butt" stroke-linejoin="round" stroke-width="0"/>
<path d="M15.2234 21.0522C15.6383 20.5667 16.0096 20.1275 16.3936 19.626C16.4325 19.5751 16.435 19.4563 16.4993 19.466C16.5564 19.4747 16.5229 19.9753 16.5318 20.0183C16.594 20.3186 16.7003 20.6889 16.8653 20.9484" fill="#0e6a82" fill-rule="nonzero" opacity="1" stroke="#0e6a82" stroke-linecap="butt" stroke-linejoin="round" stroke-width="0"/>
<path d="M15.3737 25.0238C15.1769 25.4909 14.8279 26.087 14.8998 26.6139C14.9625 27.0734 15.6039 27.0954 15.5664 27.5943C15.5515 27.7926 15.2488 28.5721 15.5077 28.7193C15.9979 28.9979 16.581 28.5775 17.0575 28.8166C17.7143 29.1462 16.3173 30.4217 16.9478 30.8918" fill="#0e6a82" fill-rule="nonzero" opacity="1" stroke="#0e6a82" stroke-linecap="butt" stroke-linejoin="round" stroke-width="0"/>
</g>
<g id="Layer-6" vectornator:layerName="Layer 6">
<path d="M10.0162 24.6086C10.0162 24.6086 11.1114 23.6123 11.8837 22.9837C13.1097 21.9859 14.5006 20.9555 15.454 20.8487C17.514 20.6179 18.2287 21.3103 19.3218 22.272C20.296 23.129 21.0551 25.2727 23.6621 25.6714C23.9803 25.7201 24.3261 25.7428 24.7031 25.7339C26.4532 25.6929 27.2256 25.6744 27.8635 25.4435C28.1998 25.3218 28.5302 25.1744 28.884 24.8668C28.9453 24.8135 28.9997 24.7671 29.0485 24.7264C29.4327 24.4056 29.4684 24.4355 29.7902 24.1953C31.3878 23.0028 31.9551 20.5822 32.2286 20.6179C32.3593 20.635 32.5342 22.1461 32.0563 24.4372C31.5783 26.7283 30.3168 29.7823 30.3168 29.7823C30.3168 29.7823 29.1271 32.3423 27.0019 34.2566C24.8768 36.1709 21.8164 37.4396 21.8164 37.4396C21.8164 37.4396 18.8385 38.4027 16.3368 38.0046C12.5827 37.4072 10.3217 33.0634 9.77831 30.0806C9.70133 29.658 9.55483 28.6288 9.57604 27.6485C9.59735 26.6642 10.0162 24.6086 10.0162 24.6086Z" fill="#a7a396" fill-rule="nonzero" opacity="1" stroke="#fdf6e3" stroke-linecap="butt" stroke-linejoin="round" stroke-width="0"/>
</g>
<g id="Layer-4" vectornator:layerName="Layer 4" visibility="hidden">
<path d="M21.3942 21.7061C21.126 22.0992 20.6302 22.8711 20.6302 22.8711C20.6302 22.8711 17.5393 28.4182 14.739 30.7904C13.9414 31.4661 12.5653 33.0029 11.3844 32.8197C11.2477 32.7985 11.1427 32.5976 11.02 32.5344C10.1216 32.0717 9.5885 31.1547 9.19941 30.2581C8.00867 27.5143 8.95423 23.9698 9.5138 21.1709C9.6505 20.4872 10.2662 17.9183 10.8112 17.5478C10.8524 17.5198 11.18 17.5116 11.4289 17.4638C11.6903 17.4137 12.0564 17.3375 12.0681 17.3935C12.1302 17.6917 12.204 18.1896 12.2652 18.3944C12.5406 19.3153 12.8912 20.5714 12.7893 21.5482C12.7416 22.0064 12.7884 22.4428 12.7435 22.8976C12.7387 22.9461 12.689 23.0362 12.7372 23.0437C12.8058 23.0544 12.9848 22.135 13.0098 22.0237C13.2233 21.0709 13.2262 20.233 13.4674 19.2836C13.4984 19.1619 13.5849 18.6317 13.7376 18.2795C13.8903 17.9273 14.5697 18.6047 15.0257 19.2474C15.4817 19.8902 15.3998 19.847 15.728 20.3043C16.1182 20.8481 16.0491 20.7627 16.6294 21.1305C17.2098 21.4984 17.6875 21.4744 17.6875 21.4744C17.6875 21.4744 17.3994 22.0671 16.8494 22.9787C16.2995 23.8904 15.4023 24.5796 15.4072 24.5855C15.5541 24.7634 16.0501 24.3425 16.1946 24.25C16.8428 23.8354 17.3888 23.4395 17.9693 22.9236C18.3567 22.5794 18.6446 22.0477 19.0451 21.783C19.1642 21.7043 19.822 21.6947 20.2217 21.5733C20.4886 21.4922 21.0282 21.4246 21.3229 21.2353C21.7917 20.9342 21.8498 21.0383 21.3942 21.7061Z" fill="#fdf6e3" fill-rule="nonzero" opacity="1" stroke="#000000" stroke-linecap="round" stroke-linejoin="round" stroke-width="0"/>
</g>
<g id="Layer-3" vectornator:layerName="Layer 3">
<path d="M29.8213 24.1713C29.8213 24.1713 29.512 25.6224 29.2882 26.3345C28.907 27.5473 28.3112 28.4829 27.6015 29.4674C25.8297 31.9255 24.2721 33.6484 22.0528 35.4131C20.3684 36.7525 18.0515 38.1206 15.6136 37.7087C13.794 37.4012 12.8006 35.7379 12.3105 34.3157C11.9676 33.3209 11.8079 32.4738 11.8011 30.8974C11.7914 28.6778 12.1837 26.9649 12.5648 24.7731C12.7836 23.5144 13.4033 21.9352 13.9835 21.4605C14.1776 21.3017 14.9171 20.8725 15.5974 20.7548C16.3217 20.6295 17.0449 20.8002 17.3234 20.8895C18.5018 21.2674 18.5197 21.4498 18.9532 21.6923C19.5933 22.0503 19.6047 22.2572 19.8809 22.585C20.5296 23.3551 20.0512 23.0761 21.4377 24.4075C22.4818 25.4101 25.3327 25.8909 27.8983 25.01C28.544 24.7882 29.8213 24.1713 29.8213 24.1713Z" fill="#c4c0b2" fill-rule="nonzero" opacity="1" stroke="#000000" stroke-linecap="round" stroke-linejoin="round" stroke-width="0"/>
</g>
<g id="Layer-5" vectornator:layerName="Layer 5">
<path d="M18.8901 21.7954C18.8901 21.7954 19.8453 19.5463 20.272 18.9609C20.4453 18.7232 21.0816 17.5032 21.5158 16.5683C21.7892 15.9798 22.0347 14.5407 22.1511 13.7124C22.2389 13.0875 23.9473 17.8963 24.012 18.1575C24.3965 19.71 24.2896 21.5814 24.2896 21.5814C24.2896 21.5814 24.3265 22.2321 24.0773 23.7975C23.8066 25.4975 23.7262 25.5389 23.7262 25.5389C23.7262 25.5389 22.6041 25.7805 22.3284 25.6076C22.0373 25.425 21.6694 25.1358 21.436 24.8841C21.1861 24.6146 20.6127 23.8811 20.2305 23.2565C19.8174 22.5812 18.8901 21.7954 18.8901 21.7954Z" fill="#0a4e5f" fill-rule="nonzero" opacity="1" stroke="#000000" stroke-linecap="round" stroke-linejoin="round" stroke-width="0"/>
</g>
<g id="Layer-7" vectornator:layerName="Layer 7">
<path d="M14.9416 20.9707C14.9416 20.9707 15.3738 20.1913 15.7179 19.7846C15.9946 19.4576 16.3535 19.1303 16.3568 19.1317C16.4007 19.1505 16.4062 19.6313 16.4081 19.6508C16.4325 19.9038 16.9882 20.8507 16.9882 20.8507C16.9882 20.8507 16.5018 20.7028 15.9627 20.7393C15.6209 20.7624 14.9416 20.9707 14.9416 20.9707Z" fill="#0a4e5f" fill-rule="nonzero" opacity="1" stroke="#000000" stroke-linecap="round" stroke-linejoin="round" stroke-width="0"/>
</g>
<g id="Layer-8" vectornator:layerName="Layer 8">
<path d="M25.4659 25.7064C25.8005 25.1568 26.1291 24.6115 26.4255 24.0459C26.9472 23.0502 27.4143 21.9351 27.7099 20.855C27.9295 20.0529 28.0417 19.2512 28.1776 18.4358C28.1961 18.3246 28.2409 17.6932 28.3785 17.6819C28.5529 17.6676 28.7241 18.667 28.7637 18.7904C29.0861 19.7961 29.2387 20.6331 29.2508 21.6748C29.2534 21.9002 29.2481 22.571 29.2378 23.1079C29.2234 23.8583 29.0262 24.6353 29.0262 24.6353C29.0262 24.6353 28.19 25.1729 27.3911 25.4137C26.4156 25.7078 25.4212 25.7799 25.4659 25.7064Z" fill="#0a4e5f" fill-rule="nonzero" opacity="1" stroke="#000000" stroke-linecap="butt" stroke-linejoin="round" stroke-width="0"/>
</g>
<g id="Layer-10" vectornator:layerName="Layer 10">
<path d="M14.9602 20.917C14.9602 20.917 14.6277 21.3641 14.4748 21.7016C14.2459 22.2069 14.1054 22.9438 13.9139 23.85C13.8272 24.26 13.7301 24.7047 13.6096 25.1782C12.9716 27.6863 12.0476 30.8406 12.4755 32.7839C12.835 34.4167 13.1843 37.2235 15.7159 37.2058C18.2474 37.1881 19.0565 36.7512 19.9486 36.1799C22.9058 34.2859 26.119 30.3884 27.9077 27.6191C28.4239 26.8198 28.4219 26.6651 28.738 25.7973C28.7586 25.7407 29.0661 24.5108 29.0661 24.5108C29.0661 24.5108 28.9703 24.6033 28.8595 24.683C28.6937 24.8023 27.8267 25.0898 26.9761 25.2667C26.3503 25.3968 25.5787 25.4612 25.5787 25.4612C25.5787 25.4612 23.5164 27.8697 23.2294 27.8844C22.9551 27.8985 23.3922 27.3445 23.6143 26.7245C23.8305 26.1209 23.8282 25.4511 23.8282 25.4511C23.8282 25.4511 22.9956 25.1306 22.8041 25.0721C21.9131 24.7997 20.7181 23.5687 19.9688 22.5959C19.422 21.8859 18.9157 21.6938 18.9157 21.6938C18.9157 21.6938 17.6993 23.6331 17.5993 23.9047C17.5901 23.9297 17.4303 24.4342 17.417 24.4354C17.0156 24.4704 17.4351 23.1281 17.4576 23.0204C17.5456 22.5973 17.6381 21.2303 16.9644 20.7981C16.3262 20.3887 14.9602 20.9236 14.9602 20.9236" fill="#ebe4cf" fill-rule="nonzero" opacity="1" stroke="#000000" stroke-linecap="round" stroke-linejoin="round" stroke-width="0"/>
</g>
<g id="Layer-11" vectornator:layerName="Layer 11">
<path d="M15.9004 22.973C15.7051 23.0254 15.2223 24.0833 14.9485 25.0449C14.6982 25.9243 13.9529 27.6751 13.7121 28.5513C13.2385 30.2742 13.2068 31.6298 13.2068 33.4216C13.2068 34.0366 13.3705 35.0677 13.4701 35.6802C13.6104 36.5426 14.5563 37.0839 15.4751 37.2453C17.1916 37.5468 18.6952 36.7295 19.3635 36.3561C20.0318 35.9826 21.5305 34.8977 22.7051 33.7061C23.8711 32.5233 24.8947 31.2818 25.9252 29.8113C26.7488 28.6359 27.8611 27.34 28.3757 26.0409L28.7417 25.0184L28.8416 24.7637C28.8195 24.7604 27.9543 25.0979 27.814 25.1303C27.5312 25.1956 26.7382 25.3629 26.7382 25.3629C26.7382 25.3629 25.979 26.3598 25.6214 26.7523C24.6983 27.7656 23.6983 28.8174 22.4418 29.5267C22.2466 29.6369 20.6032 30.5303 20.4976 30.4871C20.0664 30.3104 21.2684 28.0165 21.409 27.6771C21.5747 27.2768 22.6399 25.038 22.6399 25.038C22.6399 25.038 21.9082 24.5245 21.4832 24.1264C20.7466 23.4364 20.8084 23.555 20.3952 23.0924C19.9821 22.6297 19.7524 22.3302 19.7524 22.3302L18.9353 23.2673C18.9353 23.2673 18.4837 24.152 18.3151 24.4778C17.8642 25.349 17.8718 25.4801 17.5416 26.0223C17.1478 26.6689 17.132 26.4723 16.7859 27.1169C16.5168 27.618 16.1701 28.067 16.1701 28.067L16.1434 28.0683C15.8938 27.8804 16.2916 26.9989 16.4524 25.8252C16.4615 25.7589 16.4699 25.6916 16.4773 25.6235C16.6007 24.4906 16.0289 22.9385 15.9004 22.973Z" fill="#fdf6e3" fill-rule="nonzero" opacity="1" stroke="#000000" stroke-linecap="round" stroke-linejoin="round" stroke-width="0"/>
</g>
<g id="Layer-12" vectornator:layerName="Layer 12">
<path d="M26.4603 19.6744C25.9722 19.3141 25.0344 19.7667 24.7322 19.9586C23.3546 20.8335 23.9688 22.7928 25.3435 23.2875C26.935 23.8602 28.1851 21.8164 27.5344 20.6593C27.1695 20.0102 27.1984 20.2194 26.4603 19.6744Z" fill="#a7a396" fill-rule="nonzero" opacity="1" stroke="#fdf6e3" stroke-linecap="round" stroke-linejoin="round" stroke-width="0"/>
</g>
<g id="Layer-13" vectornator:layerName="Layer 13">
<path d="M26.9817 20.0311C26.7364 20.709 26.4897 21.3922 26.218 22.0593" fill="#a7a396" fill-rule="nonzero" opacity="1" stroke="#fdf6e3" stroke-linecap="round" stroke-linejoin="round" stroke-width="0"/>
<path d="M26.9822 20.1122C26.8656 20.5575 26.7093 20.9913 26.5448 21.4215" fill="#a7a396" fill-rule="nonzero" opacity="1" stroke="#fdf6e3" stroke-linecap="round" stroke-linejoin="round" stroke-width="0"/>
<path d="M26.9332 20.0169C26.9332 20.0169 26.6504 21.3118 26.4228 22.093C26.2812 22.5789 25.9745 23.3654 25.9745 23.3654C25.9745 23.3654 25.8226 23.4096 25.6709 23.3735C25.5191 23.3373 25.3854 23.3074 25.3854 23.3074C25.3854 23.3074 25.4577 22.945 25.463 22.8995C25.5363 22.2643 25.6307 21.9138 25.7113 21.2762C25.7985 20.5869 25.7505 19.5482 25.7505 19.5482C25.7505 19.5482 26.0353 19.4766 26.34 19.5973C26.6447 19.718 26.9332 20.0169 26.9332 20.0169Z" fill="#c4bfb2" fill-rule="nonzero" opacity="1" stroke="#000000" stroke-linecap="round" stroke-linejoin="round" stroke-width="0"/>
<path d="M24.2965 20.3632C24.2965 20.3632 24.2639 21.3711 24.2866 21.8623C24.2887 21.909 24.2419 22.3556 24.2419 22.3556C24.2419 22.3556 23.9756 22.1625 23.8656 21.4223C23.7886 20.9039 24.2965 20.3632 24.2965 20.3632Z" fill="#c4bfb2" fill-rule="nonzero" opacity="1" stroke="#000000" stroke-linecap="round" stroke-linejoin="round" stroke-width="0"/>
</g>
<g id="Layer-9" vectornator:layerName="Layer 9">
<path d="M19.7609 22.3194C19.7609 22.3194 20.6569 21.7143 21.3056 21.1696C21.6425 20.8867 21.8923 20.342 22.0939 19.9637C22.1681 19.8245 22.5452 18.543 22.6742 18.4555C22.7965 18.3725 22.9419 19.4875 22.9475 19.5145C23.0546 20.0346 23.0651 20.5496 23.1055 21.0757C23.1666 21.8702 22.6502 25.04 22.6502 25.04C22.6502 25.04 21.989 24.7902 21.4999 24.355C21.0108 23.9197 20.764 23.6777 20.5864 23.3814C20.1843 22.7109 19.7609 22.3194 19.7609 22.3194Z" fill="#052c36" fill-rule="nonzero" opacity="1" stroke="#000000" stroke-linecap="round" stroke-linejoin="round" stroke-width="0"/>
<path d="M26.7584 25.3075C26.7584 25.3075 27.3574 24.629 27.6189 24.1653C27.6844 24.0492 28.146 23.419 28.1909 23.2075C28.2911 22.7347 28.8439 24.6971 28.8439 24.6971C28.8439 24.6971 28.7448 24.7653 28.0697 25.0499C27.4041 25.3305 26.7584 25.3075 26.7584 25.3075Z" fill="#052c36" fill-rule="nonzero" opacity="1" stroke="#000000" stroke-linecap="butt" stroke-linejoin="round" stroke-width="0"/>
</g>
<g id="Layer-14" vectornator:layerName="Layer 14">
<path d="M14.2311 24.9407C12.4377 26.1375 14.2335 29.4538 16.7097 27.8351C18.1426 26.8984 17.448 25.0818 16.0663 24.4896C15.5919 24.2862 14.7555 24.5908 14.2311 24.9407Z" fill="#052c36" fill-rule="nonzero" opacity="1" stroke="#000000" stroke-linecap="round" stroke-linejoin="round" stroke-width="0"/>
</g>
<g id="Layer-15" vectornator:layerName="Layer 15">
<path d="M16.4643 24.6834C16.4643 24.6834 16.5204 25.1506 16.4513 25.809C16.3836 26.4547 16.3141 26.9358 16.2703 27.26C16.2249 27.5965 15.9294 28.2114 15.9294 28.2114L16.1823 28.119L16.5774 27.9343C16.5774 27.9343 16.9074 27.2611 17.0074 27.0566C17.1242 26.8176 17.447 26.2158 17.447 26.2158C17.447 26.2158 17.6368 26.2362 17.2101 25.4355C16.9291 24.9083 16.4643 24.6834 16.4643 24.6834Z" fill="#0e6a82" fill-rule="nonzero" opacity="1" stroke="#0e6a82" stroke-linecap="round" stroke-linejoin="round" stroke-width="0"/>
<path d="M15.0601 24.5622C15.0601 24.5622 14.7008 25.3602 14.5781 25.7786C14.4372 26.2589 14.2546 26.7231 14.1355 27.2106C14.1247 27.2548 14.0565 27.6725 14.0565 27.6725C14.0565 27.6725 13.2694 27.016 13.5665 25.8402C13.8194 24.8393 15.0601 24.5622 15.0601 24.5622Z" fill="#0e6a82" fill-rule="nonzero" opacity="1" stroke="#0e6a82" stroke-linecap="round" stroke-linejoin="round" stroke-width="0"/>
</g>
</svg>
