<?xml version="1.0" encoding="UTF-8"?>
<svg width="16px" height="16px" viewBox="0 0 66 74" version="1.1" xmlns="http://www.w3.org/2000/svg">
    <title>Group</title>
    <defs>
        <linearGradient x1="-101.692882%" y1="-63.0334445%" x2="-46.8115193%" y2="-18.3118912%" id="linearGradient-1">
            <stop stop-color="#50ADFF" offset="0%"></stop>
            <stop stop-color="#0E86F5" offset="100%"></stop>
        </linearGradient>
        <linearGradient x1="14.6460872%" y1="16.7055165%" x2="55.0219106%" y2="59.1980702%" id="linearGradient-2">
            <stop stop-color="#7EC2FF" offset="0%"></stop>
            <stop stop-color="#44A3FA" offset="42%"></stop>
            <stop stop-color="#379FFE" offset="53.1080126%"></stop>
            <stop stop-color="#1890FF" offset="100%"></stop>
        </linearGradient>
    </defs>
    <g id="-" stroke="none" stroke-width="1" fill="none" fill-rule="evenodd">
        <g id="1.1首页---默认" transform="translate(-511.000000, -176.000000)" fill-rule="nonzero">
            <g id="title.547e938f" transform="translate(-409.000000, -1785.000000)">
                <g transform="translate(920.510938, 1961.000000)" id="Group">
                    <path d="M64.7402596,56.4566087 L64.7402596,73.3091438 C64.7402596,73.6296748 64.4810517,73.8885652 64.1601276,73.8885652 C64.0490385,73.8885652 63.9379494,73.8577449 63.8453752,73.7961044 L49.4346501,64.8089076 L33.3267304,73.9255496 C33.0551793,74.079651 32.7157403,73.9871902 32.5614499,73.7159716 C32.512077,73.6296748 32.4873905,73.5310499 32.4873905,73.4324249 L32.5429351,57.4058737 C32.5491067,57.0668505 32.7280836,56.7524835 33.0243212,56.586054 L48.5644521,47.6728259 C48.8298317,47.5187244 49.1322409,47.4447557 49.4346501,47.4570838 C49.7247161,47.4632479 50.0024388,47.5372166 50.2554751,47.6789899 L64.2465303,55.636789 C64.5489395,55.8032186 64.734088,56.1175855 64.7402596,56.4566087 Z"
                          id="路径" fill="url(#linearGradient-1)"></path>
                    <path d="M15.410527,27.4916994 L32.5367635,17.6661907 L49.7370593,27.6273087 L49.7370593,36.984349 C49.7370593,37.2617316 49.8851781,37.514458 50.1258712,37.6500673 L64.2280154,45.6633429 C64.5983124,45.8729209 65.0673553,45.7373116 65.2771903,45.3674681 C65.3389064,45.2565151 65.3759361,45.1270698 65.3759361,44.9976246 L65.3759361,19.6263612 C65.3759361,19.07776 65.0858701,18.5723073 64.6106557,18.2949246 L33.2341561,0.203413919 C32.7589417,-0.0678046398 32.1726381,-0.0678046398 31.6974236,0.203413919 L0.771452093,18.0360342 C0.296237604,18.3134168 0,18.8250336 0,19.3736348 L0,55.2977658 C0,55.846367 0.290065987,56.3518198 0.765280476,56.6292024 L22.5819457,69.3826387 C22.9522427,69.5983808 23.4212855,69.4750996 23.6372921,69.1052561 C23.7051799,68.988139 23.7422096,68.8586938 23.7422096,68.7230845 L23.7422096,52.5794162 C23.7422096,52.3081976 23.6002624,52.0554712 23.3595694,51.9198619 L15.410527,47.2906543 L15.410527,27.4916994 Z"
                          id="路径" fill="url(#linearGradient-2)"></path>
                </g>
            </g>
        </g>
    </g>
</svg>