<?xml version="1.0" encoding="utf-8"?>
<svg version="1.1" id="Layer_1" width="300" height="300" viewBox="0 0 300 300" style="enable-background:new 0 0 300 300;" xmlns="http://www.w3.org/2000/svg">
  <style type="text/css">
	.st0{opacity:0.42;fill:#DFE1DF;enable-background:new    ;}
	.st1{fill:none;}
	.st2{fill:url(#SVGID_1_);}
	.st3{fill:url(#SVGID_2_);}
	.st4{fill:url(#SVGID_3_);}
	.st5{fill:url(#SVGID_4_);}
	.st6{opacity:0.5;fill:url(#SVGID_5_);enable-background:new    ;}
	.st7{fill:#1F1F20;}
	.st8{fill:url(#SVGID_6_);}
	.st9{fill:url(#SVGID_7_);}
	.st10{fill:url(#SVGID_8_);}
	.st11{fill:url(#SVGID_9_);}
	.st12{fill:url(#SVGID_10_);}
	.st13{opacity:0.5;fill:url(#SVGID_11_);enable-background:new    ;}
</style>
  <title>ELK Page Assets Outlined</title>
  <g id="_1_Elasticsearch" transform="matrix(0.998919, 0, 0, 0.999946, -0.118647, 1.401104)" style="">
    <circle class="st0" cx="150.311" cy="148.613" r="146.5"/>
    <rect class="st1" width="555" height="300"/>
    <g transform="matrix(1, 0, 0, 1, -121.00798, -8.920833)">
      <linearGradient id="SVGID_1_" gradientUnits="userSpaceOnUse" x1="254.3011" y1="97.2219" x2="228.2489" y2="82.9802" gradientTransform="matrix(1 0 0 1 0 102)">
        <stop offset="0" style="stop-color:#355539"/>
        <stop offset="0.283" style="stop-color:#4B762E"/>
        <stop offset="1" style="stop-color:#618D2E"/>
      </linearGradient>
      <path class="st2" d="M276.7,163.1l-14.1-6.6l-12.8-8.8c0,0-38.8,67.6-39.9,69.5c-1.1,2-0.4,3,0,3.7s4.9,5.6,10.6,8.9 c5.8,3.3,12.2,4.6,13,4.6s2.1,0.1,3.2-1.9C237.9,230.7,276.7,163.1,276.7,163.1z"/>
      <linearGradient id="SVGID_2_" gradientUnits="userSpaceOnUse" x1="214.8706" y1="113.4346" x2="229.4668" y2="134.9126" gradientTransform="matrix(1 0 0 1 0 102)">
        <stop offset="0" style="stop-color:#5B5C5E"/>
        <stop offset="0.849" style="stop-color:#1C1C1C"/>
        <stop offset="1" style="stop-color:#333434"/>
      </linearGradient>
      <path class="st3" d="M234.6,232.9c-0.9,0-7.4-1.4-13.4-4.8c-5.9-3.4-10.4-8.4-10.9-9.2c-0.3-0.5-0.7-1.1-0.6-2.1 c-0.4,0.7-0.6,1.1-0.7,1.3c-1.1,2-0.4,3.1,0,3.8s4.9,5.6,10.6,8.9c5.8,3.3,12.2,4.6,13,4.6s2.1,0.1,3.3-1.9 c0.1-0.1,0.3-0.6,0.7-1.2C235.9,232.9,235.1,232.9,234.6,232.9L234.6,232.9z"/>
      <linearGradient id="SVGID_3_" gradientUnits="userSpaceOnUse" x1="211.9383" y1="111.1522" x2="240.0874" y2="127.7505" gradientTransform="matrix(1 0 0 1 0 102)">
        <stop offset="0" style="stop-color:#C9CACC"/>
        <stop offset="0.189" style="stop-color:#D8D9DA"/>
        <stop offset="0.866" style="stop-color:#828487"/>
        <stop offset="0.896" style="stop-color:#86888B"/>
        <stop offset="0.929" style="stop-color:#949598"/>
        <stop offset="0.964" style="stop-color:#A9ABAD"/>
        <stop offset="0.999" style="stop-color:#C8C9CB"/>
        <stop offset="1" style="stop-color:#C9CACC"/>
      </linearGradient>
      <path class="st4" d="M241,222.1c-0.9,0-7.5-1.4-13.5-4.8c-6-3.4-10.5-8.5-11-9.2c-0.3-0.5-0.7-1.2-0.6-2.2 c-3.7,6.4-5.3,9.2-5.6,9.6c-1.1,2-0.4,3.1,0,3.8c0.5,0.7,4.9,5.7,10.7,9s12.3,4.6,13.1,4.7s2.1,0.1,3.3-1.9 c0.3-0.5,1.9-3.2,5.5-9.5C242.3,222.2,241.6,222.1,241,222.1L241,222.1z"/>
      <linearGradient id="SVGID_4_" gradientUnits="userSpaceOnUse" x1="246.0006" y1="52.3557" x2="273.9823" y2="68.8554" gradientTransform="matrix(1 0 0 1 0 102)">
        <stop offset="0" style="stop-color:#C9CACC"/>
        <stop offset="0.189" style="stop-color:#D8D9DA"/>
        <stop offset="0.866" style="stop-color:#828487"/>
        <stop offset="0.896" style="stop-color:#86888B"/>
        <stop offset="0.929" style="stop-color:#949598"/>
        <stop offset="0.964" style="stop-color:#A9ABAD"/>
        <stop offset="0.999" style="stop-color:#C8C9CB"/>
        <stop offset="1" style="stop-color:#C9CACC"/>
      </linearGradient>
      <path class="st5" d="M274.7,163.3c-0.9,0-7.4-1.4-13.3-4.7c-5.9-3.4-10.4-8.4-10.9-9.1c-0.3-0.5-0.7-1.1-0.6-2.2 c-3.6,6.3-6,10.5-6.3,10.9c-1.1,2-0.4,3,0,3.7s5.6,4.2,11.4,7.5c5.8,3.3,12,5.2,12.9,5.2c0.8,0,2.1,0.1,3.2-1.9 c0.3-0.5,2-3.7,5.6-10C275.9,163.3,275.2,163.3,274.7,163.3L274.7,163.3z"/>
      <linearGradient id="SVGID_5_" gradientUnits="userSpaceOnUse" x1="247.6096" y1="50.9504" x2="281.3" y2="50.9504" gradientTransform="matrix(1 0 0 1 0 102)">
        <stop offset="0" style="stop-color:#22ee21"/>
        <stop offset="0.866" style="stop-color:#828487"/>
      </linearGradient>
      <path class="st6" d="M279.3,155.3c-0.9,0-7.4-1.4-13.3-4.7c-5.9-3.4-10.4-8.4-10.9-9.1c-0.3-0.5-0.7-1.1-0.6-2.2 c-3.6,6.3-6,10.5-6.3,10.9c-1.1,2-0.4,3,0,3.7s5.6,4.2,11.4,7.5c5.8,3.3,12,5.2,12.9,5.2c0.8,0,2.1,0.1,3.2-1.9 c0.3-0.5,2-3.7,5.6-10C280.6,155.3,279.9,155.3,279.3,155.3L279.3,155.3z"/>
      <path class="st7" d="M214.7,71v16.5h-7.6c-3.5,0-6.2,4.3-6.2,6.7v-1.3v38.8c0,10.3-12.6,12-12.6,12s12.2,2.1,12.2,11v91 c0,4.7,2.2,9.8,8,9.8H230V272h-30.6c-10.7,0-14.7-10.2-14.7-16.2v-97c0,0-5.5-7.9-7.7-7.9h-2.9V136c0,0,0.5,0,1.9,0 c3.1,0,8.8-1.8,8.8-13.5c0,0-0.1-25.9-0.1-34S188.5,71,199,71H214.7z M316,171.1v16.5h7.6c3.5,0,6.2,4.3,6.2,6.7V193v16.9 c0,10.3,12.6,12,12.6,12s-12.2,2.1-12.2,11v12.8c0,4.7-2.2,9.8-8,9.8h-99.3V272h108.4c10.7,0,14.7-10.2,14.7-16.2v-15.3 c0-7.3,5.5-11.4,7.7-11.4h2.9v-14.9c0,0-0.5,0-1.9,0c-3.1,0-8.8-1.8-8.8-13.5c0,0,0.1-4.1,0.1-12.1s-3.7-17.4-14.2-17.4 C321.3,171.1,316,171.1,316,171.1L316,171.1z"/>
      <linearGradient id="SVGID_6_" gradientUnits="userSpaceOnUse" x1="294.7" y1="66.2" x2="294.7" y2="-78" gradientTransform="matrix(1 0 0 1 0 102)">
        <stop offset="0" style="stop-color:#48701F"/>
        <stop offset="1" style="stop-color:#618D2E"/>
      </linearGradient>
      <circle class="st8" cx="294.7" cy="96.1" r="72.1"/>
      <linearGradient id="SVGID_7_" gradientUnits="userSpaceOnUse" x1="294.7" y1="52.448" x2="294.7" y2="-77.715" gradientTransform="matrix(1 0 0 1 0 102)">
        <stop offset="0" style="stop-color:#22ee21"/>
        <stop offset="1" style="stop-color:#618D2E"/>
      </linearGradient>
      <circle class="st9" cx="294.7" cy="96.1" r="71"/>
      <linearGradient id="SVGID_8_" gradientUnits="userSpaceOnUse" x1="294.7" y1="-59.6" x2="294.7" y2="47.8" gradientTransform="matrix(1 0 0 1 0 102)">
        <stop offset="0" style="stop-color:#4A752E"/>
        <stop offset="1" style="stop-color:#618D2E"/>
      </linearGradient>
      <circle class="st10" cx="294.7" cy="96.1" r="53.7"/>
      <radialGradient id="SVGID_9_" cx="317.7046" cy="-8.9451" r="82.6175" gradientTransform="matrix(1 0 0 1 0 102)" gradientUnits="userSpaceOnUse">
        <stop offset="0.272" style="stop-color:#E5F1FA"/>
        <stop offset="0.405" style="stop-color:#E1EDF8"/>
        <stop offset="0.545" style="stop-color:#D4E3F4"/>
        <stop offset="0.645" style="stop-color:#D1DFEF"/>
        <stop offset="0.769" style="stop-color:#C9D5DF"/>
        <stop offset="0.842" style="stop-color:#C3CCD3"/>
        <stop offset="0.905" style="stop-color:#BCC5CD"/>
        <stop offset="0.998" style="stop-color:#A8B3BD"/>
        <stop offset="1" style="stop-color:#A7B2BD"/>
      </radialGradient>
      <circle class="st11" cx="294.7" cy="96.1" r="52.3"/>
      <linearGradient id="SVGID_10_" gradientUnits="userSpaceOnUse" x1="298.7066" y1="-53.5632" x2="342.5882" y2="10.9099" gradientTransform="matrix(1 0 0 1 0 102)">
        <stop offset="0" style="stop-color:#D9E7F6"/>
        <stop offset="0.189" style="stop-color:#E7F2FB"/>
        <stop offset="0.545" style="stop-color:#F0F7FD"/>
        <stop offset="0.866" style="stop-color:#E5F1FA"/>
        <stop offset="0.931" style="stop-color:#E1EDF8"/>
        <stop offset="1" style="stop-color:#D4E3F4"/>
      </linearGradient>
      <path class="st12" d="M295.2,70.7c0.9-0.1,1.9-0.2,2.8-0.2c12.9,0,23.3,10.5,23.3,23.3c0,4.4-1.2,8.5-3.3,12l19,4.7 c2.2-5.1,3.4-10.8,3.4-16.7c0-23.5-19-42.5-42.5-42.5c-1.4,0-2.8,0.1-4.2,0.2L295.2,70.7L295.2,70.7z"/>
      <linearGradient id="SVGID_11_" gradientUnits="userSpaceOnUse" x1="1467.3506" y1="280.8095" x2="1484.6344" y2="306.2423" gradientTransform="matrix(-1 0 0 -1 1739.199 415.333)">
        <stop offset="0" style="stop-color:#D9E7F6"/>
        <stop offset="0.189" style="stop-color:#E7F2FB"/>
        <stop offset="0.866" style="stop-color:#E5F1FA"/>
        <stop offset="0.931" style="stop-color:#E1EDF8"/>
        <stop offset="1" style="stop-color:#D4E3F4"/>
      </linearGradient>
      <path class="st13" d="M274.6,125.6c-0.4,0.1-0.9,0.1-1.3,0.1c-6.1,0-11-4.9-11-11c0-2.1,0.6-4,1.6-5.6l-9-2.2 c-1,2.4-1.6,5.1-1.6,7.9c0,11,8.9,20,20,20c0.7,0,1.3,0,2-0.1L274.6,125.6L274.6,125.6z"/>
    </g>
  </g>
</svg>