<svg width="43" height="50" viewBox="0 0 43 50" fill="none" xmlns="http://www.w3.org/2000/svg">
    <path fill-rule="evenodd" clip-rule="evenodd" d="M27.091 0.407703C26.7078 1.06432 26.2796 1.72398 25.7286 2.19516C24.6057 3.16184 23.0845 3.23176 21.6801 3.15576H21.6143C16.928 3.15576 13.0981 7.04074 13.0981 11.7982V15.6254L12.9125 15.7895C10.7894 17.6743 9.95398 20.3068 9.95398 23.1126C9.95398 26.2225 11.1248 29.5451 12.8166 32.2962H7.48958C5.84265 32.2962 4.65985 31.3629 4.21069 29.919H1.15039V30.3111C1.15039 34.0441 4.12085 35.6856 7.33686 35.6856H14.1611L12.7508 40.9598C12.3914 42.3065 12.3465 43.8021 12.9993 45.0667C13.4874 46.0091 14.3169 46.7052 15.3409 46.9636C16.0596 47.146 16.8112 47.0883 17.4999 46.8116L17.9341 46.6353L18.1707 47.0427C18.2755 47.222 18.3893 47.3953 18.518 47.5625C19.2816 48.5535 20.4075 49.1675 21.6562 49.1675C22.9048 49.1675 24.0337 48.5535 24.7943 47.5625C24.9201 47.3983 25.0339 47.2281 25.1387 47.0487L25.3752 46.6414L25.8064 46.8147C26.4802 47.0852 27.2108 47.143 27.9145 46.9667C28.9326 46.7144 29.7531 46.0152 30.2352 45.0789C30.888 43.8082 30.8371 42.3096 30.4747 40.9598L29.0644 35.6856H35.8946C39.1106 35.6856 42.0811 34.0411 42.0811 30.3111V29.919H39.0208C38.5716 31.3629 37.3918 32.2962 35.7419 32.2962H30.4119C32.1007 29.5481 33.2745 26.2225 33.2745 23.1126C33.2745 20.3038 32.4421 17.6743 30.316 15.7895L30.2472 15.7288L34.4184 12.9898C33.7446 11.1233 30.9509 8.62757 29.3878 7.80984C29.1572 7.32649 28.8817 6.87355 28.5733 6.48444L28.3786 6.23821L28.4894 5.94334C29.0584 4.40516 28.0403 1.98541 27.097 0.404663" fill="#361A8D"/>
    <path d="M27.091 0.407703C26.7078 1.06432 26.2796 1.72398 25.7286 2.19516C24.6057 3.16184 23.0845 3.23176 21.6801 3.15576H21.6143C16.928 3.15576 13.0981 7.04074 13.0981 11.7982V15.6254L12.9125 15.7895C10.7894 17.6743 9.95398 20.3068 9.95398 23.1126C9.95398 26.2225 11.1248 29.5451 12.8166 32.2962H7.48958C5.84265 32.2962 4.65985 31.3629 4.21069 29.919H1.15039V30.3111C1.15039 34.0441 4.12085 35.6856 7.33686 35.6856H14.1611L12.7508 40.9598C12.3914 42.3065 12.3465 43.8021 12.9993 45.0667C13.4874 46.0091 14.3169 46.7052 15.3409 46.9636C16.0596 47.146 16.8112 47.0883 17.4999 46.8116L17.9341 46.6353L18.1707 47.0427C18.2755 47.222 18.3893 47.3953 18.518 47.5625C19.2816 48.5535 20.4075 49.1675 21.6562 49.1675C22.9048 49.1675 24.0337 48.5535 24.7943 47.5625C24.9201 47.3983 25.0339 47.2281 25.1387 47.0487L25.3752 46.6414L25.8064 46.8147C26.4802 47.0852 27.2108 47.143 27.9145 46.9667C28.9326 46.7144 29.7531 46.0152 30.2352 45.0789C30.888 43.8082 30.8371 42.3096 30.4747 40.9598L29.0644 35.6856H35.8946C39.1106 35.6856 42.0811 34.0411 42.0811 30.3111V29.919H39.0208C38.5716 31.3629 37.3918 32.2962 35.7419 32.2962H30.4119C32.1007 29.5481 33.2745 26.2225 33.2745 23.1126C33.2745 20.3038 32.4421 17.6743 30.316 15.7895L30.2472 15.7288L34.4184 12.9898C33.7446 11.1233 30.9509 8.62757 29.3878 7.80984C29.1572 7.32649 28.8817 6.87355 28.5733 6.48444L28.3786 6.23821L28.4894 5.94334C29.0584 4.40516 28.0403 1.98541 27.097 0.404663" stroke="#F3F6FF"/>
    <path fill-rule="evenodd" clip-rule="evenodd" d="M27.6478 35.6948L29.154 41.3307C30.3608 45.8419 26.0847 47.3224 24.5336 43.5012C24.8181 49.2192 18.4849 49.2192 18.7694 43.5012C17.2213 47.3224 12.8614 45.8419 14.0681 41.3307L15.5743 35.6948H16.4068C18.2274 35.6948 19.6168 36.6918 20.054 38.531H23.1682C23.6054 36.6918 24.9948 35.6948 26.8154 35.6948H27.6448H27.6478ZM28.7648 16.3246C30.7021 17.6895 31.9089 19.8813 31.9089 23.1218C31.9089 25.5962 31.0645 28.32 29.7499 30.7154C29.4145 30.4814 28.9294 30.4844 28.2617 30.378C27.8694 30.3142 27.564 29.9554 26.8723 29.9463C26.1776 29.9372 25.8482 30.3415 25.4799 30.3902C24.6923 30.4874 24.2342 30.4206 23.8868 30.758C23.6503 30.986 23.5066 31.4055 23.4736 31.7338C23.4557 31.9253 23.4407 32.132 23.4317 32.3448C23.4227 32.5394 23.4197 32.737 23.4197 32.9345C22.8448 33.2811 22.3477 33.8131 21.9225 34.6217L21.6171 35.2023L21.3116 34.6217C20.8834 33.807 20.3864 33.275 19.8114 32.9285C19.8114 32.7309 19.8084 32.5363 19.7995 32.3448C19.7905 32.129 19.7755 31.9253 19.7575 31.7338C19.7276 31.4055 19.5809 30.9829 19.3443 30.758C18.997 30.4236 18.5358 30.4905 17.7513 30.3902C17.383 30.3446 17.0536 29.9372 16.3589 29.9463C15.6672 29.9554 15.3617 30.3172 14.9695 30.378C14.3017 30.4844 13.8166 30.4844 13.4812 30.7154C12.1667 28.3169 11.3223 25.5962 11.3223 23.1218C11.3223 19.8813 12.529 17.6925 14.4664 16.3246C15.0743 15.9385 15.6821 15.5555 16.29 15.1694C16.7392 14.8654 16.7931 14.5736 16.0774 14.6344L14.4664 14.7742V11.8043C14.4664 7.81288 17.6824 4.54804 21.6141 4.54804C21.6141 4.54804 26.0728 4.77603 26.9352 2.78186C27.7616 4.393 27.3274 5.73663 26.492 6.51181C27.1238 6.8006 27.7107 7.50889 28.1299 8.36614C26.471 10.6065 26.4591 14.3091 28.7648 16.3276V16.3246Z" fill="#793FEA"/>
    <path fill-rule="evenodd" clip-rule="evenodd" d="M13.4812 30.7124C12.1667 28.3139 11.3223 25.5932 11.3223 23.1187C11.3223 19.8782 12.529 17.6895 14.4664 16.3215C15.0743 15.9354 15.6821 15.5524 16.29 15.1664C16.7392 14.8624 16.7931 14.5705 16.0774 14.6313L14.4664 14.7712V11.8012C14.4664 9.26288 15.769 7.0164 17.7273 5.71837C15.1012 8.81602 16.6523 13.996 19.2425 15.2879C12.8464 19.2793 14.8138 24.9335 17.6914 30.3719C17.347 30.2928 17.0147 29.9311 16.3619 29.9402C15.6702 29.9493 15.3647 30.3111 14.9725 30.3719C14.3047 30.4783 13.8196 30.4783 13.4842 30.7093L13.4812 30.7124ZM26.9352 2.77576C27.7616 4.3869 27.3274 5.73053 26.492 6.5057C26.0818 6.32939 25.8272 6.25339 25.4619 6.1622C25.3691 6.13788 25.2793 6.00412 25.4469 5.89164C26.4022 5.25935 26.9951 4.32914 26.9352 2.77576ZM21.8626 47.7783C20.2846 47.9151 18.6227 46.4894 18.7724 43.5012C17.2243 47.3223 12.8644 45.8419 14.0711 41.3307L15.5773 35.6947H16.4098C18.2304 35.6947 19.6198 36.6918 20.057 38.531H23.1113V38.5583C21.647 41.6164 21.8596 44.5226 21.8596 47.7783H21.8626Z" fill="#9857FF"/>
    <path fill-rule="evenodd" clip-rule="evenodd" d="M21.6134 18.416C25.2306 18.416 28.1652 21.1914 28.1652 25.8911C28.1652 27.2895 27.8208 28.7 27.2698 29.9919C27.1501 29.9646 27.0183 29.9433 26.8686 29.9433C26.1739 29.9342 25.8445 30.3385 25.4762 30.3871C24.6886 30.4844 24.2305 30.4175 23.8831 30.7549C23.6466 30.9829 23.5029 31.4024 23.4699 31.7307C23.452 31.9223 23.437 32.129 23.428 32.3418C23.419 32.5363 23.416 32.7339 23.416 32.9315C22.8411 33.278 22.344 33.81 21.9188 34.6186L21.6134 35.1993L21.3079 34.6186C20.8797 33.8039 20.3827 33.272 19.8077 32.9254C19.8077 32.7278 19.8047 32.5333 19.7958 32.3418C19.7868 32.1259 19.7718 31.9223 19.7538 31.7307C19.7239 31.4024 19.5772 30.9799 19.3406 30.7549C18.9933 30.4205 18.5321 30.4874 17.7476 30.3871C17.3793 30.3415 17.0499 29.9342 16.3552 29.9433C16.2055 29.9433 16.0737 29.9646 15.9539 29.9919C15.4 28.7 15.0586 27.2895 15.0586 25.8911C15.0586 21.1914 17.9901 18.416 21.6104 18.416" fill="white"/>
    <path d="M31.1158 10.5852C30.3972 9.92854 29.6096 9.35704 28.8101 8.91626C28.1783 10.0836 27.9537 11.1871 27.9807 12.1537C28.0136 13.3393 28.4268 14.3121 28.9269 14.9261L32.8795 12.5945C32.3795 11.871 31.7746 11.1901 31.1128 10.5852" fill="#F4A721"/>
    <path d="M28.1172 13.2178C28.2849 13.923 28.5843 14.5067 28.9257 14.9262L32.8783 12.5946C31.3362 13.0445 29.7072 13.2512 28.1172 13.2178" fill="#E57C35"/>
    <path d="M32.0048 12.0413C31.2862 11.1202 30.4417 10.4332 29.2709 9.69751C29.0703 9.97414 28.9595 10.3085 28.8906 10.6703C29.9267 11.1263 30.9658 11.5853 32.0048 12.0413" fill="#FFCD91"/>
    <path fill-rule="evenodd" clip-rule="evenodd" d="M23.1349 8.88281C23.5901 8.88281 23.9554 9.25672 23.9554 9.71574C23.9554 10.1748 23.5871 10.5487 23.1349 10.5487C22.6828 10.5487 22.3145 10.1748 22.3145 9.71574C22.3145 9.25672 22.6828 8.88281 23.1349 8.88281Z" fill="white"/>
    <path d="M16.7719 31.2564C16.6611 31.1561 16.5144 31.0923 16.3617 31.0892C16.209 31.0892 16.0682 31.1531 15.9604 31.2503C15.8496 31.3507 15.7808 31.4905 15.7748 31.6364C15.7688 31.8674 15.7628 32.0924 15.7598 32.3174C15.7568 32.5453 15.7538 32.7733 15.7508 32.9983C15.7508 33.2232 15.7508 33.4512 15.7508 33.6792C15.7508 33.9042 15.7568 34.1291 15.7658 34.3571C15.7688 34.5061 15.8436 34.6429 15.9544 34.7432C16.0652 34.8435 16.209 34.9073 16.3617 34.9104C16.5144 34.9104 16.6581 34.8465 16.7689 34.7462C16.8797 34.6459 16.9516 34.5061 16.9576 34.3571C16.9665 34.1261 16.9725 33.9011 16.9755 33.6792C16.9815 33.4512 16.9845 33.2263 16.9845 33.0013C16.9845 32.7764 16.9845 32.5484 16.9785 32.3234C16.9755 32.1015 16.9695 31.8766 16.9606 31.6455C16.9546 31.4966 16.8827 31.3598 16.7719 31.2564V31.2564ZM14.6309 31.302C14.6309 31.302 14.6099 31.302 14.595 31.302C14.4333 31.3142 14.2716 31.3963 14.1458 31.5148C14.017 31.6364 13.9272 31.7975 13.9122 31.9617C13.8973 32.1319 13.8853 32.2961 13.8763 32.4481C13.8673 32.6153 13.8613 32.7764 13.8613 32.9344C13.8613 33.0956 13.8613 33.2597 13.8613 33.4208C13.8643 33.5759 13.8733 33.737 13.8883 33.9042C13.9003 34.0683 13.9901 34.2264 14.1188 34.345C14.2476 34.4666 14.4123 34.5486 14.577 34.5577C14.592 34.5577 14.6069 34.5577 14.6159 34.5577C14.7417 34.5577 14.8525 34.503 14.9363 34.4179C15.0292 34.3267 15.089 34.196 15.098 34.047C15.098 34.0227 15.098 33.9984 15.098 33.9802C15.095 33.8069 15.092 33.6306 15.089 33.4512C15.089 33.2749 15.089 33.0986 15.089 32.9253C15.089 32.749 15.092 32.5727 15.095 32.3994C15.098 32.2201 15.104 32.0438 15.107 31.8705C15.107 31.8492 15.107 31.8279 15.107 31.8036C15.098 31.6547 15.0381 31.5239 14.9453 31.4327C14.8615 31.3476 14.7507 31.2959 14.6279 31.2929L14.6309 31.302ZM18.5775 31.5331C18.4488 31.4084 18.2841 31.3233 18.1224 31.3111C18.1224 31.3111 18.0954 31.3111 18.0865 31.3111C17.9667 31.3142 17.8589 31.3689 17.778 31.454C17.6852 31.5513 17.6253 31.6911 17.6163 31.8522C17.6163 31.8796 17.6163 31.907 17.6163 31.9313C17.6223 32.1137 17.6283 32.2991 17.6283 32.4876C17.6283 32.673 17.6313 32.8585 17.6283 33.0439C17.6283 33.2324 17.6253 33.4178 17.6223 33.6002C17.6193 33.7887 17.6133 33.9741 17.6073 34.1565C17.6073 34.1838 17.6073 34.2142 17.6073 34.2477C17.6193 34.4058 17.6792 34.5395 17.769 34.6368C17.8469 34.7189 17.9517 34.7705 18.0685 34.7766C18.0805 34.7766 18.0924 34.7766 18.1104 34.7766C18.2721 34.7614 18.4338 34.6733 18.5626 34.5456C18.6973 34.4118 18.7901 34.2416 18.8081 34.0592C18.8261 33.892 18.8381 33.7218 18.847 33.5485C18.856 33.3722 18.859 33.202 18.859 33.0348C18.859 32.8645 18.859 32.6943 18.85 32.521C18.844 32.3599 18.8321 32.1897 18.8141 32.0103C18.7961 31.831 18.7063 31.6638 18.5745 31.5331H18.5775Z" fill="#F4A721"/>
    <path d="M16.9845 33.1381C16.8258 33.4147 16.6102 33.585 16.3766 33.585C16.1431 33.585 15.9155 33.4056 15.7538 33.1107V32.9952C15.7538 32.7703 15.7568 32.5423 15.7628 32.3143C15.7658 32.0893 15.7718 31.8614 15.7778 31.6334C15.7808 31.4844 15.8526 31.3476 15.9634 31.2473C16.0682 31.15 16.2119 31.0892 16.3647 31.0862C16.5204 31.0862 16.6671 31.1531 16.7749 31.2534C16.8857 31.3567 16.9576 31.4935 16.9635 31.6425C16.9725 31.8735 16.9785 32.0985 16.9815 32.3204C16.9845 32.5484 16.9875 32.7733 16.9875 32.9983V33.1351L16.9845 33.1381ZM15.092 32.9071C14.9363 33.1594 14.7297 33.3114 14.5081 33.3114C14.2536 33.3114 14.026 33.1138 13.8613 32.7946C13.8613 32.6821 13.8673 32.5636 13.8733 32.445C13.8823 32.293 13.8943 32.1319 13.9092 31.9586C13.9242 31.7914 14.014 31.6334 14.1428 31.5118C14.2686 31.3902 14.4303 31.3111 14.592 31.299C14.592 31.299 14.6189 31.299 14.6279 31.299C14.7507 31.299 14.8645 31.3537 14.9453 31.4388C15.0381 31.53 15.095 31.6607 15.107 31.8097C15.107 31.834 15.107 31.8553 15.107 31.8766C15.101 32.0498 15.098 32.2261 15.095 32.4055C15.092 32.5696 15.089 32.7368 15.089 32.9071H15.092ZM18.5745 31.53C18.4458 31.4054 18.2811 31.3203 18.1194 31.3081C18.1194 31.3081 18.0924 31.3081 18.0835 31.3081C17.9637 31.3111 17.8559 31.3659 17.775 31.451C17.6822 31.5482 17.6223 31.6881 17.6133 31.8492C17.6133 31.8766 17.6133 31.9039 17.6133 31.9282C17.6193 32.1106 17.6253 32.2961 17.6253 32.4845C17.6253 32.6031 17.6253 32.7186 17.6253 32.8372C17.787 33.129 18.0056 33.3083 18.2482 33.3083C18.4907 33.3083 18.6973 33.1381 18.859 32.8584C18.859 32.746 18.856 32.6304 18.85 32.5149C18.844 32.3538 18.8321 32.1836 18.8141 32.0042C18.7961 31.8249 18.7063 31.6577 18.5745 31.527V31.53Z" fill="#F2C122"/>
    <path d="M26.4552 31.2564C26.566 31.1561 26.7127 31.0923 26.8684 31.0892C27.0212 31.0892 27.1619 31.1531 27.2697 31.2503C27.3805 31.3507 27.4494 31.4905 27.4553 31.6364C27.4613 31.8674 27.4673 32.0924 27.4703 32.3174C27.4733 32.5453 27.4763 32.7733 27.4793 32.9983C27.4793 33.2232 27.4793 33.4512 27.4793 33.6792C27.4793 33.9042 27.4733 34.1291 27.4643 34.3571C27.4583 34.5061 27.3865 34.6429 27.2757 34.7432C27.1649 34.8435 27.0212 34.9073 26.8684 34.9104C26.7157 34.9104 26.569 34.8465 26.4612 34.7462C26.3504 34.6459 26.2785 34.5061 26.2725 34.3571C26.2636 34.1261 26.2576 33.9011 26.2546 33.6792C26.2486 33.4512 26.2456 33.2263 26.2456 33.0013C26.2456 32.7764 26.2456 32.5484 26.2516 32.3234C26.2546 32.1015 26.2606 31.8766 26.2696 31.6455C26.2755 31.4966 26.3474 31.3598 26.4582 31.2564H26.4552ZM28.5992 31.302C28.5992 31.302 28.6202 31.302 28.6351 31.302C28.7968 31.3142 28.9585 31.3963 29.0873 31.5148C29.2161 31.6364 29.3059 31.7975 29.3209 31.9617C29.3358 32.1319 29.3478 32.2961 29.3568 32.4481C29.3658 32.6153 29.3718 32.7764 29.3718 32.9344C29.3718 33.0956 29.3718 33.2597 29.3718 33.4208C29.3688 33.5759 29.3598 33.737 29.3448 33.9042C29.3299 34.0683 29.243 34.2264 29.1143 34.345C28.9855 34.4666 28.8208 34.5486 28.6531 34.5577C28.6381 34.5577 28.6232 34.5577 28.6142 34.5577C28.4884 34.5577 28.3776 34.503 28.2938 34.4179C28.201 34.3267 28.1441 34.196 28.1321 34.047C28.1321 34.0227 28.1321 33.9984 28.1321 33.9802C28.1381 33.8069 28.1381 33.6306 28.1411 33.4512C28.1411 33.2749 28.1411 33.0986 28.1411 32.9253C28.1411 32.749 28.1381 32.5727 28.1351 32.3994C28.1321 32.2201 28.1261 32.0438 28.1231 31.8705C28.1231 31.8492 28.1231 31.8279 28.1231 31.8036C28.1321 31.6547 28.192 31.5239 28.2848 31.4327C28.3686 31.3476 28.4794 31.2959 28.6052 31.2929L28.5992 31.302ZM24.6526 31.5331C24.7813 31.4084 24.946 31.3233 25.1077 31.3111C25.1077 31.3111 25.1347 31.3111 25.1437 31.3111C25.2634 31.3142 25.3712 31.3689 25.4521 31.454C25.5449 31.5513 25.6048 31.6911 25.6138 31.8522C25.6138 31.8796 25.6138 31.907 25.6138 31.9313C25.6078 32.1137 25.6018 32.2991 25.6018 32.4876C25.6018 32.673 25.5988 32.8585 25.6018 33.0439C25.6018 33.2324 25.6048 33.4178 25.6078 33.6002C25.6108 33.7887 25.6168 33.9741 25.6228 34.1565C25.6228 34.1838 25.6228 34.2142 25.6228 34.2477C25.6108 34.4058 25.5509 34.5395 25.4611 34.6368C25.3832 34.7189 25.2784 34.7705 25.1616 34.7766C25.1496 34.7766 25.1377 34.7766 25.1197 34.7766C24.961 34.7614 24.7963 34.6733 24.6675 34.5456C24.5328 34.4118 24.44 34.2416 24.422 34.0592C24.404 33.892 24.3921 33.7218 24.3831 33.5485C24.3741 33.3722 24.3711 33.202 24.3711 33.0348C24.3711 32.8645 24.3711 32.6943 24.3801 32.521C24.3861 32.3599 24.398 32.1897 24.416 32.0103C24.434 31.831 24.5238 31.6638 24.6556 31.5331H24.6526Z" fill="#EC9040"/>
    <path d="M26.2456 33.1381C26.4043 33.4147 26.6199 33.585 26.8535 33.585C27.087 33.585 27.3146 33.4056 27.4763 33.1107V32.9952C27.4763 32.7703 27.4733 32.5423 27.4673 32.3143C27.4643 32.0893 27.4583 31.8614 27.4524 31.6334C27.4494 31.4844 27.3775 31.3476 27.2667 31.2473C27.1619 31.15 27.0182 31.0892 26.8654 31.0862C26.7097 31.0862 26.563 31.1531 26.4522 31.2534C26.3414 31.3567 26.2696 31.4935 26.2636 31.6425C26.2546 31.8735 26.2486 32.0985 26.2456 32.3204C26.2426 32.5484 26.2396 32.7733 26.2396 32.9983V33.1351L26.2456 33.1381ZM28.1381 32.9071C28.2938 33.1594 28.5004 33.3114 28.722 33.3114C28.9765 33.3114 29.2041 33.1138 29.3688 32.7946C29.3688 32.6821 29.3628 32.5636 29.3568 32.445C29.3478 32.293 29.3358 32.1319 29.3209 31.9586C29.3059 31.7914 29.2161 31.6334 29.0873 31.5118C28.9615 31.3902 28.7998 31.3111 28.6351 31.299C28.6351 31.299 28.6082 31.299 28.5992 31.299C28.4764 31.299 28.3627 31.3537 28.2788 31.4388C28.186 31.53 28.1291 31.6607 28.1171 31.8097C28.1171 31.834 28.1171 31.8553 28.1171 31.8766C28.1231 32.0498 28.1261 32.2261 28.1291 32.4055C28.1321 32.5696 28.1351 32.7368 28.1351 32.9071H28.1381ZM24.6556 31.53C24.7843 31.4054 24.949 31.3203 25.1107 31.3081C25.1107 31.3081 25.1377 31.3081 25.1466 31.3081C25.2664 31.3111 25.3742 31.3659 25.4551 31.451C25.5479 31.5482 25.6078 31.6881 25.6168 31.8492C25.6168 31.8766 25.6168 31.9039 25.6168 31.9282C25.6108 32.1106 25.6048 32.2961 25.6048 32.4845C25.6048 32.6031 25.6048 32.7186 25.6048 32.8372C25.4431 33.129 25.2245 33.3083 24.982 33.3083C24.7394 33.3083 24.5298 33.1381 24.3711 32.8584C24.3711 32.746 24.3741 32.6304 24.3801 32.5149C24.3861 32.3538 24.398 32.1836 24.416 32.0042C24.434 31.8249 24.5238 31.6577 24.6556 31.527V31.53Z" fill="#F2C122"/>
    <path d="M22.4075 12.6493C23.5883 12.6493 24.5456 11.6776 24.5456 10.4788C24.5456 9.28011 23.5883 8.30835 22.4075 8.30835C21.2268 8.30835 20.2695 9.28011 20.2695 10.4788C20.2695 11.6776 21.2268 12.6493 22.4075 12.6493Z" fill="#13171E"/>
    <path d="M23.095 10.3572C23.4753 10.3572 23.7837 10.0442 23.7837 9.65804C23.7837 9.27189 23.4753 8.95886 23.095 8.95886C22.7146 8.95886 22.4062 9.27189 22.4062 9.65804C22.4062 10.0442 22.7146 10.3572 23.095 10.3572Z" fill="white"/>
</svg>
