<svg width="200" height="200" viewBox="0 0 200 200" fill="none" xmlns="http://www.w3.org/2000/svg">
<g clip-path="url(#clip0_364_2)">
<path d="M200 0H0V200H200V0Z" fill="black"/>
<path d="M137.45 53.166H62.45C59.6886 53.166 57.45 55.4046 57.45 58.166V143.166C57.45 145.927 59.6886 148.166 62.45 148.166H137.45C140.211 148.166 142.45 145.927 142.45 143.166V58.166C142.45 55.4046 140.211 53.166 137.45 53.166Z" fill="url(#paint0_radial_364_2)"/>
<path d="M137.45 53.166H62.45C59.6886 53.166 57.45 55.4046 57.45 58.166V143.166C57.45 145.927 59.6886 148.166 62.45 148.166H137.45C140.211 148.166 142.45 145.927 142.45 143.166V58.166C142.45 55.4046 140.211 53.166 137.45 53.166Z" fill="url(#paint1_linear_364_2)"/>
<path fill-rule="evenodd" clip-rule="evenodd" d="M136.717 50C137.91 49.9996 139.091 50.2342 140.193 50.6903C141.295 51.1464 142.296 51.8152 143.139 52.6584C143.983 53.5016 144.652 54.5027 145.109 55.6045C145.565 56.7064 145.8 57.8873 145.8 59.08V141.806C145.8 144.214 144.843 146.524 143.141 148.227C141.438 149.929 139.128 150.886 136.72 150.886H64.08C61.6718 150.886 59.3623 149.929 57.6595 148.227C55.9566 146.524 55 144.214 55 141.806V141.806V59.08C55 56.6718 55.9566 54.3623 57.6595 52.6595C59.3623 50.9566 61.6718 50 64.08 50H136.717ZM136.717 55.044H64.08C63.0099 55.0451 61.984 55.4706 61.2273 56.2273C60.4706 56.984 60.0451 58.0099 60.044 59.08V59.08V141.806C60.0456 142.876 60.4713 143.901 61.2279 144.658C61.9845 145.414 63.0102 145.84 64.08 145.841H136.717C137.787 145.84 138.812 145.414 139.569 144.658C140.325 143.901 140.751 142.876 140.752 141.806V141.806V59.08C140.751 58.0102 140.325 56.9845 139.569 56.228C138.813 55.4715 137.787 55.0461 136.717 55.045V55.044ZM78.96 115.576L90.31 125.664L78.96 135.753V115.576ZM89.049 65.133V93.773C95.1457 91.6852 101.523 90.5325 107.965 90.354C114.201 90.354 117.934 92.806 119.965 94.862C122.691 97.697 124.258 101.449 124.358 105.38V135.753H114.27V105.626C114.221 103.272 113.087 100.443 107.965 100.443C98.165 100.443 87.229 105.15 86.165 105.617L86.082 105.654L78.96 108.882V65.133H89.049ZM124.359 65.133C123.609 71.2531 120.963 76.9854 116.793 81.527H106.7C110.464 76.7255 113.056 71.1121 114.27 65.133H124.359V65.133Z" fill="white"/>
</g>
<defs>
<radialGradient id="paint0_radial_364_2" cx="0" cy="0" r="1" gradientUnits="userSpaceOnUse" gradientTransform="translate(99.95 95.7315) scale(63.155 63.1736)">
<stop stop-color="#844DB8"/>
<stop offset="1" stop-color="#5B16A3"/>
</radialGradient>
<linearGradient id="paint1_linear_364_2" x1="66.375" y1="142.846" x2="147.493" y2="61.1946" gradientUnits="userSpaceOnUse">
<stop stop-color="#7673C0" stop-opacity="0.502"/>
<stop offset="1" stop-color="#7673C0" stop-opacity="0"/>
</linearGradient>
<clipPath id="clip0_364_2">
<rect width="200" height="200" fill="white"/>
</clipPath>
</defs>
</svg>
