<svg width="40" height="40" viewBox="0 0 40 40" fill="none" xmlns="http://www.w3.org/2000/svg">
<rect x="4.75" y="4.75" width="27.55" height="26.6" fill="white"/>
<path fill-rule="evenodd" clip-rule="evenodd" d="M10.3419 1.01007C7.01718 1.03175 6.58843 1.04273 6.24169 1.11534C5.33686 1.3048 4.50808 1.65364 3.77159 2.15505C3.26375 2.5008 2.53674 3.21653 2.17196 3.73001C1.90567 4.10482 1.45182 4.94692 1.37128 5.21564C1.34763 5.29445 1.28563 5.50245 1.23347 5.67783C0.987544 6.50434 1.00039 5.72065 1.00003 19.9459C0.999799 28.9399 1.01492 33.2087 1.04782 33.4407C1.24235 34.812 1.81132 35.9878 2.77601 37.0119C3.0438 37.2962 3.64867 37.801 3.94102 37.9843C4.51263 38.3427 5.33295 38.6897 5.92279 38.8227C6.72647 39.004 6.42688 39.0003 20.0312 38.9999C32.8674 38.9996 33.0772 38.9982 33.6028 38.9084C36.3869 38.4324 38.4852 36.3202 38.9327 33.5432C38.9921 33.1745 39.0007 31.4426 39 20.0822C38.9994 11.236 38.9836 6.91993 38.9511 6.65722C38.9247 6.44426 38.8502 6.07528 38.7855 5.83726C38.7207 5.59925 38.6549 5.34301 38.6392 5.26785C38.589 5.02814 38.0478 4.04697 37.7333 3.62533C36.7747 2.3405 35.4805 1.50883 33.8588 1.13561L33.417 1.03389L23.7359 1.00989C18.4113 0.996629 12.384 0.99672 10.3419 1.01007ZM38.565 2.42076C38.5495 2.44582 38.5586 2.46632 38.5851 2.46632C38.6116 2.46632 38.6334 2.44582 38.6334 2.42076C38.6334 2.39571 38.6243 2.37521 38.6133 2.37521C38.6022 2.37521 38.5805 2.39571 38.565 2.42076ZM21.7157 6.92275C21.6504 6.99486 21.6403 7.1384 21.6403 7.99066C21.6403 8.95648 21.6422 8.97661 21.7415 9.04617C21.8294 9.10772 22.1049 9.1171 23.827 9.1171C25.5492 9.1171 25.8247 9.10772 25.9125 9.04617C26.0119 8.97661 26.0138 8.95675 26.0138 7.98273C26.0138 7.07905 26.0063 6.98347 25.9305 6.91483C25.8556 6.84704 25.6423 6.83943 23.8191 6.83943C21.9122 6.83943 21.7865 6.8444 21.7157 6.92275ZM12.7337 9.18575C11.1337 9.48882 9.84696 10.6108 9.31876 12.1636C9.10459 12.7932 9.10582 12.7438 9.12063 20.1866L9.13466 27.2245L9.23739 27.589C9.45871 28.3741 9.93334 29.1691 10.4936 29.6931C11.2471 30.3979 12.1924 30.815 13.1781 30.8773C13.8347 30.9188 13.8043 30.9722 13.8043 29.7772C13.8043 29.0311 13.7901 28.7942 13.7416 28.7278C13.6941 28.6628 13.5925 28.6338 13.3222 28.608C12.4256 28.5224 11.6192 27.8111 11.4346 26.9431C11.4035 26.797 11.392 24.4258 11.4002 19.8642L11.4125 13.005L11.606 12.6145C11.9326 11.9555 12.4962 11.5423 13.212 11.437C13.4 11.4094 13.605 11.3622 13.6676 11.3321L13.7815 11.2775L13.7938 10.2816C13.8085 9.08863 13.8185 9.11482 13.353 9.1212C13.1878 9.12348 12.9091 9.15249 12.7337 9.18575ZM26.2705 9.20142C26.2032 9.27576 26.1957 9.40304 26.2065 10.2816L26.2188 11.2775L26.3327 11.3321C26.3954 11.3622 26.6004 11.4094 26.7883 11.437C27.633 11.5612 28.2861 12.1397 28.5372 12.986C28.6033 13.2087 28.6106 13.9128 28.6106 20.0368C28.6106 26.8039 28.6101 26.8417 28.5159 27.1235C28.4639 27.2793 28.3605 27.5021 28.2863 27.6187C27.9521 28.1432 27.2842 28.5591 26.7081 28.6015C26.173 28.6409 26.196 28.5894 26.196 29.7467C26.196 30.9768 26.164 30.919 26.8223 30.8772C28.0185 30.8013 29.2492 30.1363 29.9802 29.1708C30.2727 28.7845 30.5826 28.1737 30.7382 27.6773L30.8657 27.2701V20.0499V12.8297L30.7587 12.4425C30.3523 10.9731 29.2628 9.80905 27.8614 9.34714C27.139 9.10908 26.4142 9.04267 26.2705 9.20142ZM19.4369 13.8563C17.9698 13.9909 16.6795 14.6051 15.6261 15.6703C14.877 16.4278 14.4134 17.1691 14.1265 18.0683C13.8912 18.806 13.8316 19.1896 13.8329 19.9588C13.8347 21.0359 14.0094 21.8071 14.4574 22.7162C15.8169 25.475 18.9656 26.8144 21.8908 25.8783C23.4197 25.389 24.7382 24.2697 25.4832 22.8287C25.9676 21.8917 26.1636 21.0896 26.1622 20.0499C26.1604 18.7286 25.8332 17.6358 25.1136 16.5476C24.7916 16.0608 24.1226 15.3631 23.6551 15.0264C22.4328 14.1465 20.9023 13.7219 19.4369 13.8563ZM19.5569 16.1352C18.6007 16.2596 17.6465 16.7565 17.0647 17.433C16.2215 18.4136 15.9171 19.6298 16.2017 20.881C16.6324 22.7745 18.4165 24.0577 20.3665 23.8765C21.2537 23.7941 22.0156 23.4427 22.6819 22.8085C24.0698 21.4877 24.2935 19.422 23.2225 17.8178C23.0242 17.5207 22.5245 17.0182 22.2184 16.8081C21.6673 16.4296 21.1067 16.2223 20.3921 16.1327C19.9879 16.0821 19.9651 16.0821 19.5569 16.1352ZM38.565 35.1736C38.5805 35.1987 38.6022 35.2192 38.6133 35.2192C38.6243 35.2192 38.6334 35.1987 38.6334 35.1736C38.6334 35.1485 38.6116 35.128 38.5851 35.128C38.5586 35.128 38.5495 35.1485 38.565 35.1736Z" fill="#409EFF"/>
</svg>
