<svg id="JetBrains2020" xmlns="http://www.w3.org/2000/svg" xmlns:xlink="http://www.w3.org/1999/xlink" width="105" height="105" viewBox="0 0 105 105">
  <defs>
    <linearGradient id="linear-gradient" x1="25.45928" y1="25.45928" x2="78.33832" y2="78.33832" gradientUnits="userSpaceOnUse">
      <stop offset="0.22466" stop-color="#ff0056"/>
      <stop offset="0.29265" stop-color="#f7045b"/>
      <stop offset="0.39792" stop-color="#e10f6a"/>
      <stop offset="0.5273" stop-color="#be2181"/>
      <stop offset="0.67581" stop-color="#8c3aa2"/>
      <stop offset="0.83814" stop-color="#4e59cc"/>
      <stop offset="1" stop-color="#087cfa"/>
    </linearGradient>
  </defs>
  <path d="M43.14833,54.22794a75.28958,75.28958,0,0,0,1.14485,10.79679,11.473,11.473,0,0,1-5.3984,1.74453c-1.74495,0-2.50818-.9272-2.50818-2.61763C36.3866,61.0987,39.11285,56.95376,43.14833,54.22794Zm6.0526-2.72667a62.97718,62.97718,0,0,0,.59968,8.94239A30.84912,30.84912,0,0,0,56.61687,50.192a26.38743,26.38743,0,0,0-7.41594,1.20021ZM82.5,22.5v60h-60v-60ZM74.99358,59.02623c0-6.3256-4.14453-11.17883-10.41519-13.25045.3271-1.03624.70871-2.18151.9813-2.78161l-6.65228-1.52646a31.36312,31.36312,0,0,1-.49108,3.21689h-.92678a36.29976,36.29976,0,0,0-8.07055.98214c.05452-1.63634.21807-3.27183.38161-4.85323a156.76117,156.76117,0,0,0,19.19446-1.96344l-.05452-6.21656A90.01824,90.01824,0,0,1,50.61878,34.924c.16355-1.03623.3271-2.01753.54517-2.88979a20.9484,20.9484,0,0,1,.76365-2.89064l-7.08925-.16313a21.562,21.562,0,0,1-.16355,3.21689L44.3477,35.088H42.27565a88.57827,88.57827,0,0,1-9.97906-.70913l.21807,6.27066c2.5086.109,6.70722.3271,9.54292.3271h1.74495c-.21806,2.1815-.38161,4.472-.54516,6.76173C35.732,51.28321,30.00648,58.5901,30.00648,65.46087c0,5.50743,3.32635,7.907,7.3069,7.907a19.01092,19.01092,0,0,0,8.34314-2.1815c.21806.76323.49064,1.52646.70871,2.1815l6.21657-1.8544c-.43613-1.30839-.87269-2.61764-1.2543-4.03506A41.98464,41.98464,0,0,0,62.72441,51.11923c3.65345,1.41828,5.562,4.30807,5.562,7.5799,0,5.28937-4.25356,10.52379-14.66832,11.66906l3.59893,5.6714C70.46744,74.07616,74.99358,66.60613,74.99358,59.02623Z" fill="url(#linear-gradient)"/>
</svg>
