<?xml version="1.0" encoding="utf-8"?>
<!-- Generator: Adobe Illustrator 17.0.0, SVG Export Plug-In . SVG Version: 6.00 Build 0)  -->
<!DOCTYPE svg PUBLIC "-//W3C//DTD SVG 1.1//EN" "http://www.w3.org/Graphics/SVG/1.1/DTD/svg11.dtd">
<svg version="1.1" id="Layer_1" xmlns="http://www.w3.org/2000/svg" xmlns:xlink="http://www.w3.org/1999/xlink" x="0px" y="0px"
	 width="336px" height="204px" viewBox="0 0 336 204" enable-background="new 0 0 336 204" xml:space="preserve">
<polygon fill-rule="evenodd" clip-rule="evenodd" fill="#CD47E1" points="168.887,12.826 104.18,79.084 101.853,81.466 
	99.51,79.122 86.963,66.576 86.963,120.101 140.487,120.101 127.942,107.555 125.591,105.204 127.981,102.885 182.855,49.583 
	185.138,48.647 284.249,48.647 287.534,48.647 287.535,151.041 287.535,152.401 286.571,153.364 249.044,190.89 299.768,190.89 
	323.409,167.247 323.41,12.826 168.887,12.826 "/>
<linearGradient id="SVGID_1_" gradientUnits="userSpaceOnUse" x1="286.3159" y1="190.8904" x2="286.3159" y2="48.6317">
	<stop  offset="0" style="stop-color:#CD47E1"/>
	<stop  offset="1" style="stop-color:#760CA3"/>
</linearGradient>
<path fill-rule="evenodd" clip-rule="evenodd" fill="url(#SVGID_1_)" d="M287.534,48.632l0.001,102.409v1.36l-0.963,0.963
	l-37.528,37.527l50.724-0.001l23.642-23.643l0.001-81.299C325.638,62.027,306.597,48.632,287.534,48.632L287.534,48.632z"/>
<polygon fill-rule="evenodd" clip-rule="evenodd" fill="#15E1E3" points="168.938,190.878 233.644,124.62 235.971,122.237 
	238.316,124.581 250.862,137.128 250.862,83.602 197.338,83.602 209.883,96.148 212.232,98.5 209.844,100.819 154.971,154.12 
	152.686,155.057 53.576,155.057 50.291,155.057 50.291,151.771 50.291,52.663 50.291,51.303 51.253,50.34 88.78,12.813 
	38.058,12.814 14.416,36.457 14.415,190.878 168.938,190.878 "/>
<linearGradient id="SVGID_2_" gradientUnits="userSpaceOnUse" x1="51.6879" y1="155.0723" x2="51.6879" y2="12.813">
	<stop  offset="0" style="stop-color:#0D87D0"/>
	<stop  offset="1" style="stop-color:#15E1E3"/>
</linearGradient>
<path fill-rule="evenodd" clip-rule="evenodd" fill="url(#SVGID_2_)" d="M50.47,155.072l-0.001-102.41v-1.36l0.963-0.963
	L88.96,12.813l-50.724,0.001L14.594,36.457l-0.001,81.298C12.366,141.677,31.406,155.072,50.47,155.072L50.47,155.072z"/>
</svg>
