<svg id="Layer_1" enable-background="new 0 0 512 512" height="512" viewBox="0 0 512 512" width="512"
     xmlns="http://www.w3.org/2000/svg">
    <path d="m430.618 32.492-398.126 398.126s135.544 165.38 325.521 24.63c9.766-7.235 22.179-10.07 34.094-7.674 15.28 3.074 32.284 2.153 44.953-10.515 12.669-12.669 13.589-29.672 10.515-44.953-2.397-11.915.439-24.329 7.674-34.094 140.749-189.976-24.631-325.52-24.631-325.52z"
          fill="#29ce69"/>
    <path d="m449.627 312.804c-4.843-2.656-6.614-8.735-3.958-13.577 6.019-10.971 11.073-22.049 15.024-32.925 1.89-5.192 7.623-7.871 12.814-5.985s7.871 7.622 5.984 12.813c-4.299 11.834-8.732 24.489-16.287 35.716-3.948 5.867-9.588 6.147-13.577 3.958z"
          fill="#b9ecc2"/>
    <path d="m132.004 498.834c42.232-.964 107.998-14.345 186.801-75.16 8.954-6.91 9.718-20.198 1.785-28.131s-17.135-7.359-24.608-1.693c-12.543 9.509-32.574 23.297-51.831 30.614.131-.313-58.796-59.127-102.66-102.844l-108.999 108.998s37.028 45.184 99.512 68.216z"
          fill="#00a62c"/>
    <ellipse cx="231.529" cy="231.529" fill="#73da8c" rx="281.518" ry="167.111"
             transform="matrix(.707 -.707 .707 .707 -95.903 231.529)"/>
    <ellipse cx="231.555" cy="231.555" fill="#f8ffb0" rx="252.433" ry="138.12"
             transform="matrix(.707 -.707 .707 .707 -95.913 231.555)"/>
    <g fill="#c3e870">
        <path d="m106.787 246.571 75.112-16.874c10.571-2.375 14.369-15.474 6.708-23.135l-36.41-36.41c-6.104-6.104-16.088-5.68-21.722.861-15.471 17.958-28.545 36.549-39.006 55.038-5.972 10.552 3.488 23.178 15.318 20.52z"/>
        <path d="m274.503 256.548 36.411 36.411c6.104 6.104 16.088 5.679 21.722-.861 16.083-18.667 29.575-38.02 40.234-57.229 5.413-9.754-3.215-21.325-14.099-18.88l-77.56 17.424c-10.571 2.375-14.369 15.474-6.708 23.135z"/>
        <path d="m292.958 310.914-37.918-37.918c-7.007-7.007-18.988-3.533-21.16 6.135l-17.891 79.639c-2.445 10.884 9.126 19.512 18.88 14.099 19.209-10.659 38.561-24.151 57.228-40.233 6.541-5.634 6.966-15.617.861-21.722z"/>
        <path d="m277.123 168.032 80.301-80.301c7.139-7.139 4.014-19.236-5.645-22.176-15.221-4.633-33.014-5.126-52.272-1.804-10.913 1.882-19.552 10.289-21.979 21.094l-16.676 74.232c-2.123 9.448 9.422 15.803 16.271 8.955z"/>
        <path d="m170.151 152.196 37.919 37.919c7.007 7.007 18.988 3.533 21.16-6.135l17.341-77.193c2.658-11.83-9.968-21.29-20.52-15.319-18.489 10.461-37.081 23.535-55.039 39.007-6.54 5.634-6.965 15.617-.861 21.721z"/>
        <path d="m304.352 202.188 69.533-15.621c13.936-3.131 24.465-14.61 26.367-28.766 2.288-17.032 1.468-32.791-2.696-46.471-2.94-9.659-15.037-12.784-22.176-5.645l-80.072 80.072c-6.916 6.916-.498 18.575 9.044 16.431z"/>
        <path d="m185.758 295.307-80.073 80.073c-7.139 7.139-4.014 19.236 5.645 22.176 13.68 4.164 29.439 4.984 46.471 2.696 14.157-1.902 25.636-12.431 28.766-26.367l15.621-69.533c2.144-9.543-9.515-15.96-16.43-9.045z"/>
        <path d="m159.075 260.851-74.232 16.676c-10.805 2.427-19.211 11.067-21.094 21.98-3.321 19.258-2.828 37.051 1.804 52.272 2.94 9.659 15.037 12.784 22.176 5.645l80.301-80.301c6.85-6.849.495-18.395-8.955-16.272z"/>
    </g>
    <circle cx="476.746" cy="233.199" fill="#b9ecc2" r="10"/>
</svg>