<svg xmlns="http://www.w3.org/2000/svg" xmlns:xlink="http://www.w3.org/1999/xlink" width="13" height="13" viewBox="0 0 13 13" fill="none"><defs><rect id="path_0" x="0" y="0" width="13" height="13" /></defs><g opacity="1" transform="translate(0 0)  rotate(0 6.5 6.5)"><mask id="bg-mask-0" fill="white"><use xlink:href="#path_0"></use></mask><g mask="url(#bg-mask-0)" ><g opacity="1" transform="translate(0.32352941176469585 0.2384555109654798)  rotate(0 6.176470588235272 6.261544489034503)"><path id="路径 11" fill-rule="evenodd" style="fill:#0EAD58" transform="translate(5.2067696176965 8.659042586986601)  rotate(0 1.6683768984297735 1.9320231955412028)" opacity="1" d="M0.93 0.58C0.89 0.39 0.78 0.23 0.62 0.12C0.461478 0.0209236 0.273507 -0.019256 0.0852646 0.0189121C0.323217 -0.0312103 0.580793 0.0407926 0.75 0.21L3.13 2.64C3.41 2.93 3.4 3.38 3.12 3.66C2.84 3.94 2.38 3.93 2.11 3.65L0 1.5L0.37 1.42C0.56 1.39 0.72 1.28 0.83 1.12C0.93 0.96 0.97 0.76 0.93 0.58ZM0.0786321 0.020342L0.08 0.02C0.0817549 0.0196305 0.0835098 0.0192679 0.0852646 0.0189121C0.0830521 0.0193782 0.0808412 0.0198548 0.0786321 0.020342ZM0.0786321 0.020342L0.04 0.03C0.0528045 0.0264147 0.0656877 0.0231967 0.0786321 0.020342Z" /><path id="路径 12" fill-rule="evenodd" style="fill:#20A149" transform="translate(2.874151163684962 8.687070591312036)  rotate(0 1.1853348039239755 0.8957845622235063)" opacity="1" d="M2.33 1.47L0.86 1.78C0.68 1.82 0.48 1.78 0.32 1.67C0.16 1.57 0.05 1.41 0.01 1.22C-0.06 0.83 0.18 0.45 0.57 0.37L2.37 0C2.26 0.03 2.15 0.09 2.07 0.18C1.78 0.45 1.78 0.91 2.06 1.19L2.33 1.47Z" /><path id="路径 13" fill-rule="evenodd" style="fill:#20A149" transform="translate(4.726148087233744 8.663406370361784)  rotate(0 0.7133426342847801 0.7486028034393574)" opacity="1" d="M1.1 0.12C1.26 0.22 1.37 0.39 1.41 0.57C1.45 0.76 1.41 0.95 1.31 1.11C1.2 1.27 1.04 1.38 0.85 1.42L0.48 1.5L0.21 1.22C-0.07 0.93 -0.07 0.48 0.22 0.2Q0.34 0.08 0.52 0.02L0.56 0.01C0.75 -0.02 0.94 0.01 1.1 0.12Z" /><path id="路径 14" fill-rule="evenodd" style="fill:#007C00" transform="translate(4.726148087233744 8.663406370361784)  rotate(0 0.7133426342847801 0.7486028034393574)" opacity="1" d="M0.56 0.01C0.75 -0.02 0.94 0.01 1.1 0.12C1.26 0.22 1.37 0.39 1.41 0.57C1.45 0.76 1.41 0.95 1.31 1.11C1.2 1.27 1.04 1.38 0.85 1.42L0.48 1.5L0.21 1.22C-0.07 0.93 -0.07 0.48 0.22 0.2Q0.34 0.08 0.52 0.02L0.56 0.01Z" /><path id="路径 15" fill-rule="evenodd" style="fill:#FFCA17" transform="translate(0.36445411212957257 6.5737680474748)  rotate(0 1.5039342864693 2.0683168729119004)" opacity="1" d="M1.47 0.42L1.66 0.75C1.86 1.09 2.29 1.21 2.64 1.02C2.94631 0.839818 3.07406 0.47296 2.95744 0.146101C3.03221 0.33583 3.0247 0.548486 2.93 0.73L1.35 3.75C1.17 4.1 0.74 4.24 0.39 4.06C0.03 3.87 -0.1 3.44 0.08 3.09L1.47 0.42ZM2.95744 0.146101C2.94461 0.110149 2.92883 0.074682 2.91 0.04L2.88 0C2.91162 0.0463774 2.93746 0.0954212 2.95744 0.146101Z" /><path id="路径 16" fill-rule="evenodd" style="fill:#FF9F23" transform="translate(1.0002101555041936 4.615918077903586)  rotate(0 1.1248214895886064 1.1886244754334616)" opacity="1" d="M1.02 2.03L0.84 2.38L0.09 1.07C0 0.91 -0.02 0.71 0.03 0.53C0.08 0.34 0.2 0.19 0.36 0.09C0.71 -0.1 1.14 0.02 1.34 0.36L2.25 1.96C2.18 1.86 2.09 1.78 1.99 1.72C1.82 1.64 1.62 1.62 1.44 1.68C1.26 1.73 1.11 1.86 1.02 2.03Z" /><path id="路径 17" fill-rule="evenodd" style="fill:#FF9F23" transform="translate(1.8352701299719971 6.254827146781224)  rotate(0 0.7648640937665436 0.7149306681260092)" opacity="1" d="M0.19 1.07L0 0.73L0.18 0.39C0.3 0.16 0.53 0.02 0.78 0C1.03 -0.01 1.27 0.11 1.41 0.32L1.44 0.36C1.53 0.52 1.55 0.72 1.5 0.9C1.45 1.09 1.33 1.24 1.17 1.34C1 1.43 0.81 1.45 0.62 1.4C0.44 1.35 0.28 1.23 0.19 1.07Z" /><path id="路径 18" fill-rule="evenodd" style="fill:#FF8400" transform="translate(1.8352701299719971 6.254827146781224)  rotate(0 0.7648640937665436 0.7149306681260092)" opacity="1" d="M0.19 1.07L0 0.73L0.18 0.39C0.3 0.16 0.53 0.02 0.78 0C1.03 -0.01 1.27 0.11 1.41 0.32L1.44 0.36C1.53 0.52 1.55 0.72 1.5 0.9C1.45 1.09 1.33 1.24 1.17 1.34C1 1.43 0.81 1.45 0.62 1.4C0.44 1.35 0.28 1.23 0.19 1.07Z" /><path id="路径 19" fill-rule="evenodd" style="fill:#FF8400" transform="translate(0 2.2982528488600735)  rotate(0 2.3205100223611312 0.9997501762359416)" opacity="1" d="M0.6 1.43C0.21 1.36 -0.06 0.99 0.01 0.6C0.04 0.41 0.15 0.24 0.3 0.13C0.46 0.02 0.65 -0.02 0.84 0.01L3.81 0.51L3.55 0.79C3.29 1.08 3.31 1.53 3.6 1.8C3.87816 2.04938 4.30352 2.04117 4.57605 1.79299C4.41552 1.95265 4.18776 2.02504 3.96 1.99L0.6 1.43ZM4.57605 1.79299C4.58765 1.78243 4.59898 1.77143 4.61 1.76L4.64 1.72C4.62016 1.74604 4.59878 1.77039 4.57605 1.79299Z" /><path id="路径 20" fill-rule="evenodd" style="fill:#FF6400" transform="translate(3.805567238511932 1.4694643821288835)  rotate(0 1.1267587721293093 1.2759746732366288)" opacity="1" d="M0.84,2.55L2.07,1.19C2.33,0.9 2.31,0.45 2.02,0.19C1.73,-0.08 1.28,-0.06 1.01,0.23L0,1.34L0.39,1.4C0.58,1.43 0.74,1.54 0.85,1.69C0.96,1.85 1.01,2.04 0.98,2.23C0.96,2.35 0.91,2.46 0.84,2.55Z " /><path id="路径 21" fill-rule="evenodd" style="fill:#FF6400" transform="translate(3.361767956415177 2.8075401067660337)  rotate(0 0.7152094072001924 0.741235169233175)" opacity="1" d="M1.25,1.25L1.28,1.21C1.43,1.01 1.47,0.75 1.38,0.51C1.29,0.28 1.08,0.11 0.83,0.07L0.44,0L0.19,0.28C-0.08,0.57 -0.06,1.03 0.23,1.3C0.53,1.56 0.98,1.54 1.25,1.25Z " /><path id="路径 22" fill-rule="evenodd" style="fill:#FF2000" transform="translate(3.361767956415177 2.8075401067660337)  rotate(0 0.7152094072001924 0.741235169233175)" opacity="1" d="M1.25,1.25L1.28,1.21C1.43,1.01 1.47,0.75 1.38,0.51C1.29,0.28 1.08,0.11 0.83,0.07L0.44,0L0.19,0.28C-0.08,0.57 -0.06,1.03 0.23,1.3C0.53,1.56 0.98,1.54 1.25,1.25Z " /><path id="路径 23"  style="fill:#6360E6" transform="translate(7.166613112545155 4.309515321934896)  rotate(0 0.0027179395597434737 0.003763300928875257)" opacity="1" d="" /><path id="路径 24" fill-rule="evenodd" style="fill:#6360E6" transform="translate(7.40537364925496 4.515242439380046)  rotate(0 0.05080456253981621 0.022370733299424517)" opacity="1" d="M0.07 0.03L0.1 0.04C0.09 0.04 0.07 0.03 0.06 0.03L0.07 0.03Z" /><path id="路径 25"  style="fill:#6360E6" transform="translate(7.251914600266366 4.405270423347375)  rotate(0 0.010662685965146147 0.009617324596014505)" opacity="1" d="" /><path id="路径 26" fill-rule="evenodd" style="fill:#6360E6" transform="translate(7.207173133667444 4.358020089462599)  rotate(0 0.00606309594096599 0.006690312762444616)" opacity="1" d="M0,0C0,0.01 0.01,0.01 0.01,0.01C0.01,0.01 0,0 0,0Z " /><path id="路径 27" fill-rule="evenodd" style="fill:#6360E6" transform="translate(7.301673801437053 4.445830444469664)  rotate(0 0.01735299872759076 0.01296248097723681)" opacity="1" d="M0,0C0.01,0.01 0.02,0.02 0.03,0.03C0.02,0.02 0.01,0.01 0,0Z " /><path id="路径 28" fill-rule="evenodd" style="fill:#6360E6" transform="translate(7.350596713512365 4.482627164663157)  rotate(0 0.026552178775952257 0.015889492810806108)" opacity="1" d="M0,0C0.02,0.01 0.03,0.02 0.05,0.03C0.04,0.02 0.02,0.01 0,0Z " /><path id="路径 29" fill-rule="evenodd" style="fill:#8B5DFC" transform="translate(6.555246712031524 0)  rotate(0 0.9184740348419986 1.9699377709048862)" opacity="1" d="M0.52 3.61C0.48 3.72 0.46 3.83 0.47 3.94L0.01 0.8C-0.04 0.42 0.23 0.06 0.61 0.01C1 -0.05 1.36 0.21 1.42 0.59L1.84 3.37L1.45 3.22C1.28 3.14 1.08 3.15 0.91 3.22C0.73 3.29 0.59 3.43 0.52 3.61Z" /><path id="路径 30" fill-rule="evenodd" style="fill:#8B5DFC" transform="translate(7.220135614644752 4.373073293178116)  rotate(0 0.01630763735845853 0.016098565084632914)" opacity="1" d="M0,0C0.01,0.01 0.02,0.02 0.03,0.03C0.02,0.02 0.01,0.01 0,0Z " /><path id="路径 31"  style="fill:#8B5DFC" transform="translate(7.273239972196626 4.424505072539432)  rotate(0 0.013171553251063022 0.010662685965146147)" opacity="1" d="" /><path id="路径 32" fill-rule="evenodd" style="fill:#6360E6" transform="translate(7.506982774334494 3.3720352460973047)  rotate(0 1.2910129566993542 0.9440891989999761)" opacity="1" d="M0.34 1.22C0.73 1.16 1 0.8 0.95 0.41L0.89 0L2.13 0.51C2.31 0.58 2.45 0.72 2.53 0.89C2.6 1.07 2.6 1.26 2.53 1.44C2.46 1.62 2.32 1.76 2.14 1.83C1.97 1.91 1.77 1.91 1.6 1.84L0 1.19C0.11 1.23 0.23 1.24 0.34 1.22Z" /><path id="路径 33" fill-rule="evenodd" style="fill:#8B5DFC" transform="translate(7.026116544533783 3.939875541809812)  rotate(0 0.05184992390894725 0.15805863901275746)" opacity="1" d="M0.1,0.32C0.05,0.23 0.02,0.14 0.01,0.05L0,0C0.01,0.11 0.05,0.22 0.1,0.32Z " /><path id="路径 34" fill-rule="evenodd" style="fill:#8B5DFC" transform="translate(7.130652681447023 4.256829108930589)  rotate(0 0.017980215549070575 0.026343106502126647)" opacity="1" d="M0,0C0.01,0.02 0.02,0.04 0.04,0.05C0.02,0.04 0.01,0.02 0,0Z " /><path id="路径 35"  style="fill:#8B5DFC" transform="translate(7.334289076153928 4.471755406424137)  rotate(0 0.008153818679229586 0.005435879119486111)" opacity="1" d="" /><path id="路径 36" fill-rule="evenodd" style="fill:#8B5DFC" transform="translate(7.172048991664658 4.317878212887948)  rotate(0 0.017562071001416966 0.02090722738263987)" opacity="1" d="M0,0C0.01,0.01 0.02,0.03 0.04,0.04C0.02,0.03 0.01,0.01 0,0Z " /><path id="路径 37" fill-rule="evenodd" style="fill:#6360E6" transform="translate(7.023505348169712 3.1631253514709456)  rotate(0 0.7183797034600663 0.7173572515861883)" opacity="1" d="M0.99 0.05L1.37 0.21L1.43 0.61C1.49 1.01 1.21 1.37 0.82 1.43C0.71 1.44 0.59 1.43 0.48 1.39L0.45 1.38C0.42 1.37 0.4 1.36 0.38 1.35C0.36 1.34 0.34 1.33 0.33 1.32L0.31 1.31C0.3 1.3 0.28 1.29 0.28 1.28C0.27 1.27 0.26 1.27 0.25 1.26L0.23 1.24C0.22 1.23 0.21 1.22 0.19 1.21C0.19 1.2 0.19 1.2 0.18 1.19C0.17 1.18 0.16 1.17 0.15 1.15L0.14 1.15L0.11 1.09C0.06 1.01 0.02 0.92 0.01 0.83L0 0.78C-0.01 0.66 0.01 0.55 0.05 0.45C0.12 0.27 0.26 0.13 0.44 0.06C0.61 -0.02 0.81 -0.02 0.99 0.05Z" /><path id="路径 38" fill-rule="evenodd" style="fill:#4D04F1" transform="translate(7.023505348169712 3.1631253514709456)  rotate(0 0.7183797034600663 0.7173572515861883)" opacity="1" d="M0.05 0.45C0.12 0.27 0.26 0.13 0.44 0.06C0.61 -0.02 0.81 -0.02 0.99 0.05L1.37 0.21L1.43 0.61C1.49 1.01 1.21 1.37 0.82 1.43C0.71 1.44 0.59 1.43 0.48 1.39L0.45 1.38C0.42 1.37 0.4 1.36 0.38 1.35C0.36 1.34 0.34 1.33 0.33 1.32L0.31 1.31C0.3 1.3 0.28 1.29 0.28 1.28C0.27 1.27 0.26 1.27 0.25 1.26L0.23 1.24C0.22 1.23 0.21 1.22 0.19 1.21C0.19 1.2 0.19 1.2 0.18 1.19C0.17 1.18 0.16 1.17 0.15 1.15L0.14 1.15L0.11 1.09C0.06 1.01 0.02 0.92 0.01 0.83L0 0.78C-0.01 0.66 0.01 0.55 0.05 0.45Z" /><path id="路径 39" fill-rule="evenodd" style="fill:#359DFF" transform="translate(7.872441108983031 5.231973295710986)  rotate(0 2.2402500337437568 1.3501731935438623)" opacity="1" d="M3.44 0.08C3.8 -0.1 4.23 0.04 4.41 0.4C4.58 0.75 4.44 1.18 4.08 1.36L1.39 2.7L1.43 2.32C1.47 1.93 1.19 1.57 0.8 1.53C0.61 1.51 0.42 1.56 0.27 1.68C0.12 1.8 0.03 1.97 0.01 2.16L0 2.21C0.01 1.95 0.16 1.71 0.4 1.59L3.44 0.08Z" /><path id="路径 40" fill-rule="evenodd" style="fill:#2F72ED" transform="translate(7.666472558028877 7.44099983930667)  rotate(0 0.798149585949886 1.3107995806451032)" opacity="1" d="M1.24 0.67L1.6 0.49L1.43 1.98C1.41 2.17 1.31 2.35 1.16 2.46C1.02 2.58 0.83 2.64 0.64 2.62C0.24 2.57 -0.04 2.22 0 1.82L0.21 0C0.2 0.12 0.23 0.24 0.28 0.34C0.37 0.51 0.51 0.64 0.7 0.71C0.88 0.77 1.07 0.75 1.24 0.67Z" /><path id="路径 41" fill-rule="evenodd" style="fill:#2F72ED" transform="translate(7.871572158284286 6.75666213135824)  rotate(0 0.7178675878169074 0.7129986991529675)" opacity="1" d="M0.01 0.64C0.03 0.45 0.12 0.28 0.27 0.16C0.42 0.04 0.61 -0.02 0.8 0C0.99 0.03 1.16 0.12 1.28 0.27C1.4 0.42 1.45 0.61 1.43 0.8L1.39 1.18L1.04 1.35C0.87 1.44 0.67 1.45 0.49 1.39C0.31 1.33 0.16 1.2 0.08 1.03C0.02 0.92 0 0.8 0 0.68L0.01 0.64Z" /><path id="路径 42" fill-rule="evenodd" style="fill:#1C48FA" transform="translate(7.871572158284286 6.75666213135824)  rotate(0 0.7178675878169074 0.7129986991529675)" opacity="1" d="M0.01 0.64C0.03 0.45 0.12 0.28 0.27 0.16C0.42 0.04 0.61 -0.02 0.8 0C0.99 0.03 1.16 0.12 1.28 0.27C1.4 0.42 1.45 0.61 1.43 0.8L1.39 1.18L1.04 1.35C0.87 1.44 0.67 1.45 0.49 1.39C0.31 1.33 0.16 1.2 0.08 1.03C0.02 0.92 0 0.8 0 0.68L0.01 0.64Z" /></g></g></g></svg>