<?xml version="1.0" standalone="no"?>
<!DOCTYPE svg PUBLIC "-//W3C//DTD SVG 1.0//EN" "http://www.w3.org/TR/2001/REC-SVG-20010904/DTD/svg10.dtd">
<svg xmlns="http://www.w3.org/2000/svg" xmlns:xlink="http://www.w3.org/1999/xlink" id="body_1" width="40" height="37">

<g transform="matrix(0.07736944 0 0 0.07644628 0 0)">
	<g transform="matrix(0.1332474 0 -0 -0.13333334 4.0663883E-05 484)">
	</g>
    <path transform="matrix(0.1332474 0 -0 -0.13333334 4.0663883E-05 484)"  d="M1585 3400L1355 3170L2010 3170L2665 3170L2945 2890L3225 2610L2945 2330L2665 2050L2010 2050L1355 2050L1235 1930L1115 1810L1230 1695L1345 1580L2005 1580L2665 1580L2945 1300L3225 1020L2945 740L2665 460L2013 460C 1654 460 1360 457 1360 453C 1360 449 1460 345 1582 223L1582 223L1805 0L2335 0L2865 0L3375 510L3885 1020L3487 1418L3090 1815L3487 2213L3885 2610L3375 3120L2865 3630L2340 3630L1815 3630L1585 3400z" stroke="none" fill="#FFFFFF" fill-rule="nonzero" />
	<g transform="matrix(0.1332474 0 -0 -0.13333334 4.0663883E-05 484)">
	</g>
    <path transform="matrix(0.1332474 0 -0 -0.13333334 4.0663883E-05 484)"  d="M510 2325L-5 1810L505 1300L1015 790L1775 790L2535 790L2650 905L2765 1020L2650 1135L2535 1250L1875 1250L1215 1250L935 1530L655 1810L935 2090L1215 2370L1870 2370L2525 2370L2645 2490L2765 2610L2650 2725L2535 2840L1780 2840L1025 2840L510 2325z" stroke="none" fill="#FFFFFF" fill-rule="nonzero" />
</g>
</svg>