<?xml version="1.0" standalone="no"?><!DOCTYPE svg PUBLIC "-//W3C//DTD SVG 1.1//EN" "http://www.w3.org/Graphics/SVG/1.1/DTD/svg11.dtd">
<svg t="1546481576615" class="icon" style="" viewBox="0 0 1433 1024" version="1.1" xmlns="http://www.w3.org/2000/svg"
     p-id="2406" data-spm-anchor-id="a313x.7781069.0.i9"
     width="55.9765625" height="40"><defs><style type="text/css"></style></defs><path d="M257.024 757.658a66.97 66.97 0 0 1-51.917-65.536V331.776c2.253-32.768 22.528-58.368 51.815-65.536l322.355-72.5L613.069 51.2h-374.17C105.984 51.2 0 161.178 0 296.858v425.676c0 135.578 108.237 247.91 238.9 247.91h374.169l-33.792-142.642-322.355-70.144zM1194.598 51.2H818.176l33.792 142.643 322.355 72.602c29.287 6.963 51.815 32.768 51.815 65.536v360.14c-2.253 32.769-22.528 58.369-51.815 65.537l-322.355 72.499L818.176 972.8h376.422c130.765 0 239.002-109.978 239.002-247.91V296.858C1431.347 161.075 1325.363 51.2 1194.7 51.2zM579.174 493.26h275.047v35.124H579.277v-35.123z" fill="#1296db" p-id="2407" data-spm-anchor-id="a313x.7781069.0.i10" class="selected"></path></svg>