<?xml version="1.0" encoding="UTF-8" standalone="no"?>
<svg
        width="40px"
        height="40px"
        viewBox="0 0 40 40"
        version="1.1"
        id="svg94"
        sodipodi:docname="time-management-hourglass-svgrepo-com.svg"
        inkscape:version="1.2.2 (732a01da63, 2022-12-09)"
        xmlns:inkscape="http://www.inkscape.org/namespaces/inkscape"
        xmlns:sodipodi="http://sodipodi.sourceforge.net/DTD/sodipodi-0.dtd"
        xmlns="http://www.w3.org/2000/svg"
>
  <defs
     id="defs98" />
  <sodipodi:namedview
     id="namedview96"
     pagecolor="#ffffff"
     bordercolor="#000000"
     borderopacity="0.25"
     inkscape:showpageshadow="2"
     inkscape:pageopacity="0.0"
     inkscape:pagecheckerboard="0"
     inkscape:deskcolor="#d1d1d1"
     showgrid="false"
     inkscape:zoom="20.925"
     inkscape:cx="20.023895"
     inkscape:cy="20.023895"
     inkscape:window-width="1920"
     inkscape:window-height="1017"
     inkscape:window-x="-8"
     inkscape:window-y="-8"
     inkscape:window-maximized="1"
     inkscape:current-layer="svg94" />
  <g
     id="surface1"
     transform="matrix(0.9,0,0,0.93279352,2,1.3441296)">
    <path
       style="fill:#ffcf6e;fill-opacity:1;fill-rule:nonzero;stroke:none"
       d="m 12.875,2.648438 h 26.25 v 31.371093 h -26.25 z m 0,0"
       id="path51" />
    <path
       style="fill:#ebf0f0;fill-opacity:1;fill-rule:nonzero;stroke:none"
       d="M 20.296875,6.15625 H 35.617188 V 30.511719 H 20.296875 Z m 0,0"
       id="path53" />
    <path
       style="fill:#0abad9;fill-opacity:1;fill-rule:nonzero;stroke:none"
       d="M 21.820312,1.597656 H 34.09375 V 6.15625 H 21.820312 Z m 0,0"
       id="path55" />
    <path
       style="fill:#0abad9;fill-opacity:1;fill-rule:nonzero;stroke:none"
       d="M 0.875,1.578125 H 24.988281 V 5.964844 H 0.875 Z m 0,0"
       id="path57" />
    <path
       style="fill:#0abad9;fill-opacity:1;fill-rule:nonzero;stroke:none"
       d="m 0.875,34.035156 h 24.113281 v 4.386719 H 0.875 Z m 0,0"
       id="path59" />
    <path
       style="fill:#ffb8a6;fill-opacity:1;fill-rule:nonzero;stroke:none"
       d="m 14.886719,20 c 0.0078,0.0039 0.01172,0.01172 0.01563,0.01563 l -1.96875,2.753906 -1.972656,-2.753906 C 10.968743,20.01173 10.972663,20.00391 10.976563,20 8.632812,17.457031 5.613281,14.289062 3.792969,11.390625 5.769531,11.585938 5.910156,13.125 8.152344,13.125 c 2.390625,0 2.390625,-1.753906 4.78125,-1.753906 2.390625,0 2.390625,1.753906 4.78125,1.753906 2.242187,0 2.382812,-1.539062 4.359375,-1.734375 -1.816407,2.898437 -4.839844,6.066406 -7.1875,8.609375 z m 0,0"
       id="path61" />
    <path
       style="fill:#ebf0f0;fill-opacity:1;fill-rule:nonzero;stroke:none"
       d="m 14.902344,20.015625 c 4.007812,4.34375 9.972656,10.511719 8.550781,14.019531 H 2.410156 C 0.988281,30.527344 6.957031,24.359375 10.960938,20.015625 l 1.972656,2.753906 z m 0,0"
       id="path63" />
    <path
       style="fill:#ebf0f0;fill-opacity:1;fill-rule:nonzero;stroke:none"
       d="M 3.792969,11.390625 C 2.503906,9.335938 1.820312,7.421875 2.410156,5.964844 h 21.042969 c 0.59375,1.457031 -0.08984,3.371094 -1.378906,5.425781 -1.976563,0.195313 -2.117188,1.734375 -4.359375,1.734375 -2.390625,0 -2.390625,-1.753906 -4.78125,-1.753906 -2.390625,0 -2.390625,1.753906 -4.78125,1.753906 -2.242188,0 -2.382813,-1.539062 -4.359375,-1.734375 z m 0,0"
       id="path65" />
    <path
       style="fill:#ffb8a6;fill-opacity:1;fill-rule:nonzero;stroke:none"
       d="m 7.496094,34.035156 5.4375,-6.574218 5.4375,6.574218 z m 0,0"
       id="path67" />
    <path
       style="fill:#211e1e;fill-opacity:1;fill-rule:nonzero;stroke:none"
       d="m 25.605469,11.925781 h 4.679687 c 0.4375,0 0.832032,-0.3125 0.894532,-0.75 0.07812,-0.539062 -0.339844,-1.003906 -0.867188,-1.003906 h -4.679688 c -0.441406,0 -0.835937,0.308594 -0.898437,0.746094 -0.07813,0.542969 0.34375,1.007812 0.871094,1.007812 z m 0,0"
       id="path69" />
    <path
       style="fill:#211e1e;fill-opacity:1;fill-rule:nonzero;stroke:none"
       d="M 23.734375,15.429688 H 24.625 c 0.441406,0 0.832031,-0.308594 0.894531,-0.746094 0.07813,-0.539063 -0.339843,-1.003906 -0.867187,-1.003906 h -0.890625 c -0.441407,0 -0.832031,0.308593 -0.894531,0.746093 -0.07813,0.539063 0.339843,1.003907 0.867187,1.003907 z m 0,0"
       id="path71" />
    <path
       style="fill:#211e1e;fill-opacity:1;fill-rule:nonzero;stroke:none"
       d="m 28.53125,13.679688 h -1.121094 c -0.4375,0 -0.832031,0.308593 -0.894531,0.746093 -0.07813,0.539063 0.339844,1.003907 0.867187,1.003907 h 1.121094 c 0.4375,0 0.832032,-0.308594 0.894532,-0.746094 0.07812,-0.539063 -0.339844,-1.003906 -0.867188,-1.003906 z m 0,0"
       id="path73" />
    <path
       style="fill:#211e1e;fill-opacity:1;fill-rule:nonzero;stroke:none"
       d="m 32.179688,13.679688 h -0.890626 c -0.441406,0 -0.832031,0.308593 -0.894531,0.746093 -0.07813,0.539063 0.339844,1.003907 0.867188,1.003907 h 0.890625 c 0.441406,0 0.835937,-0.308594 0.898437,-0.746094 0.07813,-0.539063 -0.34375,-1.003906 -0.871093,-1.003906 z m 0,0"
       id="path75" />
    <path
       style="fill:#211e1e;fill-opacity:1;fill-rule:nonzero;stroke:none"
       d="M 23.734375,18.9375 H 24.625 c 0.441406,0 0.832031,-0.308594 0.894531,-0.746094 0.07813,-0.542968 -0.339843,-1.007812 -0.867187,-1.007812 h -0.890625 c -0.441407,0 -0.832031,0.3125 -0.894531,0.75 -0.07813,0.539062 0.339843,1.003906 0.867187,1.003906 z m 0,0"
       id="path77" />
    <path
       style="fill:#211e1e;fill-opacity:1;fill-rule:nonzero;stroke:none"
       d="m 28.53125,17.183594 h -1.121094 c -0.4375,0 -0.832031,0.3125 -0.894531,0.75 -0.07813,0.539062 0.339844,1.003906 0.867187,1.003906 h 1.121094 c 0.4375,0 0.832032,-0.308594 0.894532,-0.746094 0.07812,-0.542968 -0.339844,-1.007812 -0.867188,-1.007812 z m 0,0"
       id="path79" />
    <path
       style="fill:#211e1e;fill-opacity:1;fill-rule:nonzero;stroke:none"
       d="m 32.179688,17.183594 h -0.890626 c -0.441406,0 -0.832031,0.3125 -0.894531,0.75 -0.07813,0.539062 0.339844,1.003906 0.867188,1.003906 h 0.890625 c 0.441406,0 0.835937,-0.308594 0.898437,-0.746094 0.07813,-0.542968 -0.34375,-1.007812 -0.871093,-1.007812 z m 0,0"
       id="path81" />
    <path
       style="fill:#211e1e;fill-opacity:1;fill-rule:nonzero;stroke:none"
       d="m 25.53125,21.570312 c 0,-0.484374 -0.394531,-0.878906 -0.878906,-0.878906 h -0.917969 c -0.484375,0 -0.878906,0.394532 -0.878906,0.878906 0,0.484376 0.394531,0.875 0.878906,0.875 h 0.917969 c 0.484375,0 0.878906,-0.390624 0.878906,-0.875 z m 0,0"
       id="path83" />
    <path
       style="fill:#211e1e;fill-opacity:1;fill-rule:nonzero;stroke:none"
       d="m 28.53125,20.691406 h -1.148438 c -0.484374,0 -0.875,0.394532 -0.875,0.878906 0,0.484376 0.390626,0.875 0.875,0.875 h 1.148438 c 0.484375,0 0.875,-0.390624 0.875,-0.875 0,-0.484374 -0.390625,-0.878906 -0.875,-0.878906 z m 0,0"
       id="path85" />
    <path
       style="fill:#211e1e;fill-opacity:1;fill-rule:nonzero;stroke:none"
       d="m 32.179688,20.691406 h -0.917969 c -0.484375,0 -0.878907,0.394532 -0.878907,0.878906 0,0.484376 0.394532,0.875 0.878907,0.875 h 0.921875 c 0.480468,0 0.875,-0.390624 0.875,-0.875 0,-0.484374 -0.394532,-0.878906 -0.878906,-0.878906 z m 0,0"
       id="path87" />
    <path
       style="fill:#211e1e;fill-opacity:1;fill-rule:nonzero;stroke:none"
       d="m 30.3125,24.199219 h -4.707031 c -0.484375,0 -0.878907,0.394531 -0.878907,0.878906 0,0.484375 0.394532,0.875 0.878907,0.875 H 30.3125 c 0.484375,0 0.875,-0.390625 0.875,-0.875 0,-0.484375 -0.390625,-0.878906 -0.875,-0.878906 z m 0,0"
       id="path89" />
    <path
       style="fill:#211e1e;fill-opacity:1;fill-rule:nonzero;stroke:none"
       d="M 39.125,1.773438 H 34.972656 V 1.597656 c 0,-0.484375 -0.394531,-0.878906 -0.878906,-0.878906 L 0.875,0.703125 C 0.390625,0.703125 0,1.09375 0,1.578125 v 4.386719 c 0,0.484375 0.390625,0.875 0.875,0.875 H 1.328125 C 1.242188,8.222656 1.808594,9.878906 3.050781,11.855469 4.75,14.5625 7.488281,17.519531 9.6875,19.894531 c 0,0.07813 0,0.132813 0,0.210938 -0.00391,0 -0.00391,0 -0.00391,0 -3.867188,4.179687 -8.585938,9.273437 -8.351563,13.054687 H 0.875 c -0.484375,0 -0.875,0.390625 -0.875,0.875 v 4.386719 c 0,0.484375 0.390625,0.875 0.875,0.875 h 24.113281 c 0.484375,0 0.878907,-0.390625 0.878907,-0.875 V 34.894531 H 39.125 c 0.484375,0 0.875,-0.390625 0.875,-0.875 V 2.648438 c 0,-0.484376 -0.390625,-0.875 -0.875,-0.875 z M 22.777344,33.160156 H 18.78125 l -5.007812,-6.058594 v -4.003906 l 1.214843,-1.695312 c 1.972657,2.128906 4.1875,4.53125 5.78125,6.824218 1.464844,2.113282 2.140625,3.769532 2.007813,4.933594 z M 16.175781,20.101562 c 0,-0.07812 0,-0.125 0,-0.203124 1.019531,-1.097657 2.152344,-2.324219 3.246094,-3.589844 V 23.6875 c -1.066406,-1.234375 -2.1875,-2.445312 -3.246094,-3.585938 z m -3.242187,8.734376 3.574218,4.324218 H 9.359375 Z m 8.242187,-3.015626 V 14.175781 c 0.605469,-0.78125 1.164063,-1.558593 1.640625,-2.320312 C 24,9.96875 24.574219,8.378906 24.546875,7.03125 H 34.738281 V 29.636719 H 23.648438 C 23.046875,28.402344 22.175781,27.113281 21.175781,25.820312 Z M 33.21875,5.277344 H 25.867188 V 2.472656 H 33.21875 Z M 1.753906,2.457031 H 24.113281 V 5.085938 H 1.753906 Z m 2.574219,8.128907 C 3.398438,9.03125 2.984375,7.773438 3.089844,6.839844 h 19.6875 c 0.105468,0.9375 -0.308594,2.191406 -1.238282,3.746094 -0.898437,0.179687 -1.476562,0.605468 -1.953124,0.953124 -0.558594,0.410157 -0.960938,0.707032 -1.871094,0.707032 -0.90625,0 -1.3125,-0.296875 -1.871094,-0.707032 -0.636719,-0.464843 -1.429688,-1.046874 -2.910156,-1.046874 -1.484375,0 -2.273438,0.582031 -2.910156,1.046874 -0.558594,0.410157 -0.964844,0.707032 -1.871094,0.707032 -0.910156,0 -1.316406,-0.296875 -1.875,-0.707032 C 5.800781,11.191406 5.222656,10.769531 4.328125,10.585938 Z m 2.25,3.148437 C 7.003906,13.894531 7.511719,14 8.152344,14 c 1.480468,0 2.273437,-0.578125 2.910156,-1.046875 0.558594,-0.410156 0.960938,-0.707031 1.871094,-0.707031 0.90625,0 1.3125,0.296875 1.871094,0.707031 C 15.441406,13.421875 16.234375,14 17.714844,14 c 0.640625,0 1.148437,-0.105469 1.574218,-0.265625 -1.398437,1.730469 -3.003906,3.46875 -4.394531,4.964844 -0.222656,0.242187 -1.960937,2.5625 -1.960937,2.5625 0,0 -1.742188,-2.324219 -1.964844,-2.5625 -1.386719,-1.5 -2.992188,-3.234375 -4.390625,-4.964844 z M 5.097656,28.226562 C 6.6875,25.933594 8.902344,23.53125 10.875,21.402344 L 12.019531,23 v 4.175781 c 0,0.0039 0.0039,0.0078 0.0039,0.01172 l -4.9375,5.972656 H 3.089844 C 2.957031,31.996094 3.628906,30.34375 5.097656,28.226562 Z m 19.015625,9.316407 H 1.753906 V 34.914062 H 24.113281 Z M 38.246094,33.140625 H 24.535156 c 0.03125,-0.554687 -0.04297,-1.144531 -0.207031,-1.75 h 11.289063 c 0.484374,0 0.875,-0.394531 0.875,-0.878906 V 6.15625 c 0,-0.484375 -0.390626,-0.878906 -0.875,-0.878906 h -0.644532 v -1.75 h 3.273438 z m 0,0"
       id="path91" />
  </g>
</svg>
