<svg width="40" height="40" viewBox="0 0 40 40" fill="none" xmlns="http://www.w3.org/2000/svg">
<path fill-rule="evenodd" clip-rule="evenodd" d="M32.8571 6H38V22H2V6H7.14286V2H17.4286V6H22.5714V2H32.8571V6Z" fill="#9AA7B0" fill-opacity="0.8"/>
<path d="M11.1658 13V8.702H9.82884V7.89H13.3848V8.702H12.0478V13H11.1658ZM14.2431 13V7.89H15.1181V9.941H16.4901V7.89H17.3651V13H16.4901V10.753H15.1181V13H14.2431ZM18.5174 13V7.89H21.5834V8.653H19.3784V9.983H21.3384V10.739H19.3784V12.237H21.5834V13H18.5174ZM22.4906 13V7.89H23.5266L24.0236 9.514C24.075 9.67733 24.117 9.82667 24.1496 9.962C24.1823 10.0973 24.2033 10.1953 24.2126 10.256C24.222 10.1953 24.243 10.0973 24.2756 9.962C24.3083 9.82667 24.348 9.67733 24.3946 9.514L24.8706 7.89H25.9066V13H25.0876V11.411C25.0876 11.1777 25.0946 10.9233 25.1086 10.648C25.1226 10.3727 25.139 10.0973 25.1576 9.822C25.1763 9.54667 25.1973 9.28533 25.2206 9.038C25.2486 8.79067 25.272 8.57367 25.2906 8.387L24.6046 10.802H23.8066L23.0996 8.387C23.123 8.56433 23.1463 8.77433 23.1696 9.017C23.193 9.255 23.214 9.51167 23.2326 9.787C23.256 10.0577 23.2746 10.333 23.2886 10.613C23.3026 10.893 23.3096 11.159 23.3096 11.411V13H22.4906ZM26.9119 13V7.89H29.9779V8.653H27.7729V9.983H29.7329V10.739H27.7729V12.237H29.9779V13H26.9119Z" fill="#505050" fill-opacity="0.8"/>
<path d="M5.32494 36.07C4.97494 36.07 4.6716 36.0117 4.41494 35.895C4.15827 35.7783 3.95994 35.6127 3.81994 35.398C3.6846 35.1787 3.6146 34.922 3.60994 34.628H4.48494C4.48494 34.838 4.5596 35.0037 4.70894 35.125C4.86294 35.2417 5.0706 35.3 5.33194 35.3C5.58394 35.3 5.77994 35.2417 5.91994 35.125C6.0646 35.0083 6.13694 34.8473 6.13694 34.642C6.13694 34.4693 6.0856 34.32 5.98294 34.194C5.88494 34.0633 5.7426 33.9747 5.55594 33.928L4.96794 33.767C4.5666 33.6643 4.25627 33.48 4.03694 33.214C3.82227 32.948 3.71494 32.626 3.71494 32.248C3.71494 31.9587 3.78027 31.7067 3.91094 31.492C4.0416 31.2773 4.22594 31.1117 4.46394 30.995C4.7066 30.8783 4.99127 30.82 5.31794 30.82C5.8126 30.82 6.2046 30.9483 6.49394 31.205C6.78327 31.457 6.93027 31.7977 6.93494 32.227H6.05994C6.05994 32.0263 5.9946 31.87 5.86394 31.758C5.73327 31.6413 5.54894 31.583 5.31094 31.583C5.08227 31.583 4.90494 31.6367 4.77894 31.744C4.65294 31.8513 4.58994 32.003 4.58994 32.199C4.58994 32.3763 4.6366 32.528 4.72994 32.654C4.82794 32.7753 4.96794 32.8617 5.14994 32.913L5.75894 33.081C6.16494 33.1837 6.47527 33.368 6.68994 33.634C6.9046 33.8953 7.01194 34.2197 7.01194 34.607C7.01194 34.8963 6.94194 35.153 6.80194 35.377C6.66194 35.5963 6.46594 35.7667 6.21394 35.888C5.96194 36.0093 5.6656 36.07 5.32494 36.07ZM8.0452 36L7.5202 30.89H8.2762L8.5842 34.46C8.59354 34.5393 8.60054 34.6373 8.6052 34.754C8.61454 34.866 8.62154 34.9803 8.6262 35.097C8.63554 35.2137 8.6402 35.3163 8.6402 35.405C8.64954 35.3163 8.65887 35.2137 8.6682 35.097C8.67754 34.9803 8.68687 34.866 8.6962 34.754C8.7102 34.6373 8.72187 34.5393 8.7312 34.46L9.1512 30.89H9.8862L10.2782 34.46C10.2922 34.5393 10.3039 34.6373 10.3132 34.754C10.3272 34.866 10.3412 34.9803 10.3552 35.097C10.3692 35.2137 10.3809 35.3163 10.3902 35.405C10.3949 35.3163 10.3995 35.2137 10.4042 35.097C10.4089 34.9803 10.4135 34.866 10.4182 34.754C10.4275 34.6373 10.4369 34.5393 10.4462 34.46L10.7472 30.89H11.4962L10.9432 36H9.9772L9.5992 32.416C9.58987 32.3273 9.5782 32.2247 9.5642 32.108C9.55487 31.9867 9.54554 31.8677 9.5362 31.751C9.52687 31.6297 9.51987 31.527 9.5152 31.443C9.51054 31.527 9.5012 31.6297 9.4872 31.751C9.47787 31.8677 9.46854 31.9867 9.4592 32.108C9.44987 32.2247 9.44054 32.3273 9.4312 32.416L9.0182 36H8.0452ZM12.2355 36V35.23H13.2645V31.66H12.2355V30.89H15.1755V31.66H14.1465V35.23H15.1755V36H12.2355ZM17.4617 36V31.702H16.1247V30.89H19.6807V31.702H18.3437V36H17.4617ZM22.128 36.07C21.8013 36.07 21.5143 36.0093 21.267 35.888C21.0243 35.762 20.8353 35.587 20.7 35.363C20.5693 35.1343 20.504 34.866 20.504 34.558V32.332C20.504 32.0193 20.5693 31.751 20.7 31.527C20.8353 31.303 21.0243 31.1303 21.267 31.009C21.5143 30.883 21.8013 30.82 22.128 30.82C22.4593 30.82 22.744 30.883 22.982 31.009C23.2247 31.1303 23.4137 31.303 23.549 31.527C23.6843 31.751 23.752 32.0193 23.752 32.332H22.87C22.87 32.0893 22.8047 31.905 22.674 31.779C22.548 31.653 22.366 31.59 22.128 31.59C21.89 31.59 21.7057 31.653 21.575 31.779C21.4443 31.905 21.379 32.087 21.379 32.325V34.558C21.379 34.796 21.4443 34.9803 21.575 35.111C21.7057 35.237 21.89 35.3 22.128 35.3C22.366 35.3 22.548 35.237 22.674 35.111C22.8047 34.9803 22.87 34.796 22.87 34.558H23.752C23.752 34.8613 23.6843 35.1273 23.549 35.356C23.4137 35.5847 23.2247 35.762 22.982 35.888C22.744 36.0093 22.4593 36.07 22.128 36.07ZM24.7363 36V30.89H25.6113V32.941H26.9833V30.89H27.8583V36H26.9833V33.753H25.6113V36H24.7363ZM29.0105 36V30.89H32.0765V31.653H29.8715V32.983H31.8315V33.739H29.8715V35.237H32.0765V36H29.0105ZM33.1238 36V30.89H34.7408C35.0815 30.89 35.3755 30.953 35.6228 31.079C35.8748 31.205 36.0708 31.3823 36.2108 31.611C36.3508 31.835 36.4208 32.101 36.4208 32.409C36.4208 32.745 36.3345 33.0413 36.1618 33.298C35.9938 33.5547 35.7651 33.7367 35.4758 33.844L36.4908 36H35.5108L34.6218 33.97H33.9988V36H33.1238ZM33.9988 33.2H34.7408C34.9881 33.2 35.1818 33.1323 35.3218 32.997C35.4618 32.8617 35.5318 32.675 35.5318 32.437C35.5318 32.1943 35.4618 32.0053 35.3218 31.87C35.1818 31.73 34.9881 31.66 34.7408 31.66H33.9988V33.2Z" fill="#646464"/>
<path d="M27.5 19.5L23 24L27.5 28.5M32.5 19.5L28 24L32.5 28.5" stroke="#6C707E" stroke-linecap="round"/>
<path d="M12.5 24.5L17 20L12.5 15.5M7.5 24.5L12 20L7.5 15.5" stroke="#6C707E" stroke-linecap="round"/>
</svg>
