<svg xmlns="http://www.w3.org/2000/svg" viewBox="0 0 170.771 206.913">
  <!-- fill color is politie-geel -->
  <g fill="#FFD200" data-name="RAPP logo">
    <path d="M33.159 199.875c-.968-2.616-2-5.209-3.022-7.8-.739-1.88-1.426-3.8-3.288-4.977 6.668-3.417 7.7-7.453 7.562-12.226-.152-5.253-2.73-8.716-7.727-10.349a19.424 19.424 0 00-5.981-.824c-6.325-.039-12.655-.016-18.975-.016H.119a28.154 28.154 0 01-.021 3.156c-.163 1.338.367 1.764 1.661 1.878 5.994.517 11.981 1.136 17.967 1.743 3.432.349 5.165 2.283 5.194 5.713.031 3.9-1.9 6.1-5.736 6.65-1.162.165-2.324.052-3.474.168-1.291.127-1.743-.258-1.681-1.622.116-2.567.034-5.142.034-7.774H4.786v2.353c0 8.006-.013 16.012.015 24.018 0 1.08-.258 1.622-1.475 1.743-1.033.1-2.415-.258-3.027.581s-.077 2.089-.191 3.153c-.121 1.105.22 1.485 1.4 1.472 5.462-.067 10.927-.026 16.392-.036.411 0 .865.15 1.222-.2v-4.641c-1.327-.157-2.557-.356-3.791-.434-.927-.057-1.291-.444-1.291-1.366.036-1.676 0-3.357 0-5.034v-5.682a2.618 2.618 0 011.55-.225c3.616-.016 3.765.09 5.013 3.51 1.55 4.272 3.143 8.538 4.62 12.838a1.587 1.587 0 001.852 1.265c2.107-.08 4.217-.026 6.325-.026h5.256v-4.861c-1.291-.212-2.472-.416-3.657-.6a2.167 2.167 0 01-1.84-1.548z"
          data-name="letter R"/>
    <path d="M88.388 201.923c-.517-.085-1-.258-1.508-.325a2.3 2.3 0 01-2.082-1.808c-.757-2.324-1.614-4.62-2.433-6.927q-4.99-14.08-9.969-28.169a1.311 1.311 0 00-1.475-1.049q-4.192.085-8.391 0a1.375 1.375 0 00-1.55 1.126c-3.946 11.126-7.991 22.211-11.859 33.368-.757 2.18-1.7 3.67-4.145 3.789a.746.746 0 00-.814.806v3.874a2.467 2.467 0 001.531.238h11.62c3.688 0 3.654 0 3.587-3.665-.018-.93-.413-1.185-1.224-1.24a10.578 10.578 0 01-3.4-.516c.628-1.839 1.247-3.654 1.87-5.467a.718.718 0 01.775-.516q6.715.015 13.43 0c.372 0 .661.049.8.462.63 1.852 1.291 3.7 1.927 5.558a10.056 10.056 0 01-3.1.431c-1.224 0-1.976.346-1.741 1.79a8.615 8.615 0 010 2.066c-.065.839.245 1.121 1.1 1.111 3.528-.041 7.058-.018 10.589-.018h7.3v-4.034c.022-.567-.298-.795-.838-.885zM60.237 188.86l5.374-15.9.3-.034 5.256 15.935z"
          data-name="letter A"/>
    <path d="M121.717 164.565a20.6 20.6 0 00-6.1-.868c-5.682-.047-11.364-.018-17.045-.018-3.616 0-3.567 0-3.6 3.641 0 1.056.408 1.325 1.322 1.4 2.74.214 5.48.465 8.221.723 3.507.328 7.02.635 10.522 1.033a5.247 5.247 0 014.992 4.749 11.935 11.935 0 01-.183 4.483 5.751 5.751 0 01-4.375 4.421 25.067 25.067 0 01-5.38.447c-.948.049-1.162-.354-1.149-1.214.039-2.794.021-5.591 0-8.388 0-.455.147-.95-.232-1.379h-8.8a2.8 2.8 0 00-.191 1.575v17.82c0 2.28-.065 4.563.023 6.839.052 1.307-.4 1.929-1.712 1.96-.728.018-1.457.121-2.185.178-.48.039-.832.194-.829.775v4.037h23.479c0-1.266-.047-2.425.015-3.577.049-.922-.351-1.18-1.209-1.211-2.363-.085-4.718-.258-7.079-.356-.86-.031-1.265-.338-1.26-1.219.015-3.053 0-6.1 0-9.192a3.259 3.259 0 011.668-.194 43.944 43.944 0 007.208-.344c5.333-.883 9.507-3.264 11.147-8.781a18.853 18.853 0 00.517-8.171 10.512 10.512 0 00-7.785-9.169z"
          data-name="linker P"/>
    <path d="M170.371 172.762a10.281 10.281 0 00-7.286-8.1 20.537 20.537 0 00-6.477-.963c-5.635-.044-11.271-.016-16.909-.016-3.794 0-3.766 0-3.711 3.789 0 .837.294 1.183 1.092 1.206.385 0 .775.072 1.154.108 5.682.532 11.384 1.012 17.066 1.617 4.132.439 5.656 2.12 5.94 6.211.258 3.533-1.348 6.441-4.2 7.371a20.565 20.565 0 01-7.063.54v-10.9h-9.251v1.485c0 8.218-.034 16.436.034 24.654 0 1.356-.393 1.914-1.725 2.066-.981.114-2.345-.372-2.856.578-.434.811-.08 2.02-.186 3.04-.116 1.134.258 1.464 1.426 1.457 6.883-.054 13.768-.026 20.661-.034a2.2 2.2 0 001.5-.258c0-1.033-.057-2.141.018-3.249.07-1.033-.331-1.353-1.322-1.377-2.149-.052-4.292-.2-6.436-.318-1.79-.093-1.808-.1-1.808-1.847v-8.787a85.427 85.427 0 008.781-.346c6-.839 10.013-4.042 11.376-9.359a19.063 19.063 0 00.186-8.572z"
          data-name="rechter P"/>
    <path d="M56.541 94.026c.116-8.156 3.75-12.4 5.992-14.636l24.814-24.814a8.711 8.711 0 002.211-6.2V18.869L70.689 0h-.232v29.336a8.734 8.734 0 01-2.2 6.154L43.447 60.3c-4.52 4.5-6.007 7.657-6.007 15.708v14.358l19.111 19.111z"
          data-name="logo boven"/>
    <path d="M65.785 101.923v16.787l14.383 14.383v-17.629c.165-2.952 1.2-7.435 6.105-12.342l34.158-34.166c.062-.059.121-.111.183-.173a8.666 8.666 0 002.216-6.134v-10.5l-19.352-19.35v19.705c-.09 1.927-.573 5.287-2.717 7.389L71.895 88.749c-6.216 6.276-6.11 11.015-6.11 13.174z"
          data-name="logo midden"/>
    <path d="M122.828 109.049v-24.21l-28.151 28.35c-3.128 3.128-5.106 7.211-5.106 13.807v15.258l17.118-17.045z"
          data-name="logo onder"/>
  </g>
</svg>
