<svg xmlns="http://www.w3.org/2000/svg" xmlns:xlink="http://www.w3.org/1999/xlink" width="40" height="40" viewBox="0 0 40 40">
  <defs>
    <polygon id="apache-a" points=".446 0 11 0 11 16.015 .446 16.015"/>
    <polygon id="apache-c" points="0 .789 6.27 .789 6.27 7 0 7"/>
  </defs>
  <g fill="none" fill-rule="evenodd" transform="translate(2 2)">
    <path fill="#B02051" d="M11.9941 25.9521C11.8481 26.0861 11.7031 26.2191 11.5571 26.3511 11.7031 26.2191 11.8481 26.0851 11.9941 25.9521M8.8018 23.5371C8.7968 23.5371 8.7928 23.5371 8.7868 23.5381 8.7918 23.5371 8.7968 23.5371 8.8018 23.5371M9 23.5244L8.998 23.5244 9 23.5244zM8.873 23.5313C8.869 23.5313 8.865 23.5323 8.86 23.5323 8.865 23.5323 8.869 23.5313 8.873 23.5313M8.6406 23.5518C8.6376 23.5528 8.6346 23.5528 8.6306 23.5528 8.6346 23.5528 8.6376 23.5528 8.6406 23.5518M8.9395 23.5273C8.9365 23.5273 8.9335 23.5273 8.9305 23.5283 8.9335 23.5273 8.9365 23.5273 8.9395 23.5273M7.9707 23.666C7.9607 23.668 7.9507 23.67 7.9417 23.673 7.9507 23.67 7.9607 23.668 7.9707 23.666M8.2686 23.6045C8.2626 23.6055 8.2566 23.6065 8.2516 23.6075 8.2566 23.6065 8.2626 23.6055 8.2686 23.6045M12.6562 25.3408C12.7522 25.2508 12.8482 25.1608 12.9442 25.0708 12.8482 25.1608 12.7522 25.2508 12.6562 25.3408M7.8652 23.6914C7.8552 23.6934 7.8452 23.6964 7.8362 23.6994 7.8452 23.6964 7.8552 23.6934 7.8652 23.6914M8.0732 23.6426C8.0632 23.6446 8.0542 23.6466 8.0452 23.6486 8.0542 23.6466 8.0632 23.6446 8.0732 23.6426M8.1719 23.623C8.1639 23.624 8.1559 23.626 8.1489 23.628 8.1559 23.626 8.1639 23.624 8.1719 23.623M8.7246 23.5439C8.7206 23.5439 8.7156 23.5439 8.7106 23.5449 8.7156 23.5439 8.7206 23.5439 8.7246 23.5439M7.25 23.8896C7.264 23.8846 7.276 23.8786 7.29 23.8736 7.276 23.8786 7.264 23.8846 7.25 23.8896M7.1357 23.9365C7.1507 23.9305 7.1647 23.9245 7.1787 23.9175 7.1647 23.9245 7.1507 23.9305 7.1357 23.9365M7.0225 23.9873C7.0375 23.9803 7.0525 23.9733 7.0675 23.9663 7.0525 23.9733 7.0375 23.9803 7.0225 23.9873M6.6865 24.1602C6.6985 24.1532 6.7105 24.1462 6.7225 24.1392 6.7105 24.1462 6.6985 24.1532 6.6865 24.1602M6.7979 24.0986C6.8119 24.0906 6.8259 24.0836 6.8409 24.0766 6.8259 24.0836 6.8119 24.0906 6.7979 24.0986M7.6221 23.7588C7.6231 23.7588 7.6251 23.7578 7.6271 23.7578 7.6251 23.7578 7.6231 23.7588 7.6221 23.7588M9.1992 23.5186L9.1952 23.5186 9.1992 23.5186zM7.7295 23.7275C7.7375 23.7255 7.7465 23.7225 7.7535 23.7205 7.7465 23.7225 7.7375 23.7255 7.7295 23.7275M7.3682 23.8447L7.4002 23.8327 7.3682 23.8447zM9.1582 23.5195L9.1552 23.5195 9.1582 23.5195zM7.5 23.7979C7.503 23.7969 7.506 23.7959 7.51 23.7949 7.506 23.7959 7.503 23.7969 7.5 23.7979M1.9951 28.4248C1.9971 28.4208 2.0001 28.4178 2.0021 28.4138 2.0001 28.4178 1.9971 28.4208 1.9951 28.4248M6.1318 31.1543C6.1358 31.1513 6.1398 31.1483 6.1438 31.1463 6.1398 31.1483 6.1358 31.1513 6.1318 31.1543M6.2148 31.0977C6.2358 31.0827 6.2518 31.0717 6.2638 31.0637 6.2518 31.0717 6.2358 31.0827 6.2148 31.0977M6.1543 31.1387C6.1573 31.1367 6.1593 31.1357 6.1613 31.1337 6.1593 31.1357 6.1573 31.1367 6.1543 31.1387M6.1797 31.1211C6.1917 31.1131 6.2027 31.1051 6.2127 31.0991 6.2027 31.1051 6.1917 31.1131 6.1797 31.1211M6.4141 30.6836C6.4241 30.6756 6.4331 30.6696 6.4411 30.6626 6.4331 30.6696 6.4241 30.6756 6.4141 30.6836M6.3379 30.7412C6.3649 30.7202 6.3899 30.7022 6.4109 30.6852 6.3899 30.7022 6.3649 30.7202 6.3379 30.7412M5.9873 31.252L5.9893 31.252 5.9873 31.252zM13.6738 28.9531C13.5288 29.0721 13.3858 29.1921 13.2428 29.3121 13.3858 29.1921 13.5298 29.0721 13.6738 28.9531M13.0176 25.5352C12.8626 25.6772 12.7066 25.8182 12.5516 25.9592 12.7066 25.8182 12.8626 25.6772 13.0176 25.5352M6.4463 30.6592C6.4553 30.6522 6.4643 30.6452 6.4713 30.6392 6.4643 30.6452 6.4553 30.6522 6.4463 30.6592M13.459 25.127L13.465 25.121 13.918 28.753 13.917 28.753C15.126 27.761 16.356 26.797 17.536 25.768 19.315 24.216 20.985 22.535 22.525 20.72 23.799 19.257 24.978 17.488 25.874 16.015L25.446 12.429C23.903 14.229 22.329 15.999 20.726 17.741 18.381 20.288 15.985 22.779 13.459 25.127M6.4385 34.0146C6.4225 34.0236 6.4065 34.0336 6.3895 34.0426 6.4065 34.0336 6.4225 34.0236 6.4385 34.0146M10.7861 27.0449C10.7271 27.0979 10.6691 27.1489 10.6111 27.2009 10.6691 27.1489 10.7271 27.0979 10.7861 27.0449"/>
    <path fill="#B02051" d="M9.2881 23.5166C9.2781 23.5176 9.2541 23.5176 9.2171 23.5186L13.4031 24.6366C13.3051 24.7306 13.2061 24.8236 13.1071 24.9156 13.5321 24.5156 13.9531 24.1106 14.3681 23.6996 16.1231 21.9576 17.8431 20.1766 19.5261 18.3596 21.4891 16.2416 23.3941 14.0676 25.2571 11.8526L23.9281 11.3826C23.3631 11.3076 20.1841 10.8076 17.4521 12.8006 15.9281 13.9126 14.5301 15.1276 13.2961 16.5646 12.9421 16.9756 12.6011 17.3986 12.2531 17.8176 12.8091 17.8706 13.3311 17.9196 13.8531 17.9696 13.8531 17.9996 13.8541 18.0296 13.8541 18.0596 13.1571 18.0936 12.4851 18.2396 11.8521 18.5436 11.2171 18.8496 10.6411 19.2476 10.0801 19.7866 10.8331 19.6586 11.5241 19.6156 12.2141 19.8186 12.1251 19.8516 10.4541 19.8696 9.4271 20.7766 7.9761 21.7306 7.1651 23.1746 7.0351 23.3596 7.9091 23.2466 8.9931 23.3246 9.2881 23.5166M6.4717 30.6396C6.4797 30.6336 6.4867 30.6286 6.4927 30.6226 6.4867 30.6286 6.4797 30.6336 6.4717 30.6396M.5977 30.7422C.6167 30.7002.6357 30.6582.6557 30.6162.6357 30.6582.6167 30.7002.5977 30.7422M11.2998 26.583C11.2288 26.648 11.1558 26.713 11.0838 26.778 11.1558 26.713 11.2288 26.648 11.2998 26.583M12.1982 25.7656C12.2932 25.6776 12.3862 25.5906 12.4812 25.5026 12.3862 25.5906 12.2932 25.6776 12.1982 25.7656M6.4971 30.6201C6.5011 30.6161 6.5061 30.6131 6.5101 30.6101 6.5061 30.6131 6.5011 30.6161 6.4971 30.6201M6.5137 30.6064C6.5187 30.6034 6.5227 30.5994 6.5257 30.5964 6.5227 30.5994 6.5187 30.6034 6.5137 30.6064M1.9678 28.4639L1.9768 28.4519 1.9678 28.4639zM6.9102 24.041C6.9252 24.033 6.9392 24.026 6.9552 24.02 6.9392 24.026 6.9252 24.033 6.9102 24.041M1.918 28.5352C1.926 28.5242 1.934 28.5142 1.94 28.5032 1.934 28.5142 1.926 28.5242 1.918 28.5352"/>
    <path fill="#D9482F" d="M4.1738 32.4551L4.1508 32.4701 4.1738 32.4551zM4.2578 32.4014C4.2468 32.4074 4.2368 32.4144 4.2278 32.4204 4.2368 32.4144 4.2468 32.4074 4.2578 32.4014M3.9053 32.625C3.8973 32.631 3.8883 32.636 3.8813 32.641 3.8883 32.636 3.8973 32.631 3.9053 32.625M3.9971 32.5674C3.9901 32.5724 3.9821 32.5764 3.9761 32.5814 3.9821 32.5764 3.9901 32.5724 3.9971 32.5674M4.0801 32.5146C4.0701 32.5206 4.0611 32.5266 4.0531 32.5326 4.0611 32.5266 4.0701 32.5206 4.0801 32.5146M4.7676 32.0693C4.7746 32.0653 4.7816 32.0603 4.7886 32.0553 4.7816 32.0603 4.7746 32.0653 4.7676 32.0693M4.7041 32.1104L4.6861 32.1224 4.7041 32.1104zM4.6123 32.1709C4.6033 32.1769 4.5943 32.1829 4.5873 32.1879 4.5943 32.1829 4.6033 32.1769 4.6123 32.1709M4.5303 32.2246C4.5223 32.2296 4.5143 32.2346 4.5073 32.2406 4.5143 32.2346 4.5223 32.2296 4.5303 32.2246M4.4346 32.2871C4.4256 32.2931 4.4166 32.2981 4.4086 32.3041 4.4166 32.2981 4.4256 32.2931 4.4346 32.2871M4.3506 32.3418C4.3426 32.3468 4.3346 32.3508 4.3286 32.3558 4.3356 32.3508 4.3426 32.3468 4.3506 32.3418M3.3662 32.8447C3.3462 32.8587 3.3262 32.8707 3.3062 32.8837 3.3262 32.8707 3.3462 32.8587 3.3662 32.8447M3.4482 32.792C3.4692 32.777 3.4922 32.763 3.5142 32.748 3.4922 32.763 3.4692 32.777 3.4482 32.792M3.8203 32.6787C3.8153 32.6817 3.8103 32.6847 3.8063 32.6877 3.8103 32.6847 3.8153 32.6817 3.8203 32.6787M3.4336 32.8008C3.4166 32.8128 3.4006 32.8228 3.3836 32.8338 3.4006 32.8228 3.4166 32.8128 3.4336 32.8008M5.8906 31.0713C5.5066 31.3523 4.9986 31.7183 4.5026 32.0683 5.4376 31.4113 6.4116 30.6923 6.5256 30.5963 7.7286 29.6003 8.9656 28.6623 10.1366 27.6243 11.2396 26.6453 12.3346 25.6563 13.4036 24.6363L9.2166 23.5183C8.9076 23.5213 7.6826 23.5453 6.5756 24.2253 4.7496 25.3483 2.6056 27.4393 2.0216 28.3833 1.9246 28.5413 1.5156 29.0603 1.0906 29.7893L5.8906 31.0713zM3.7129 32.7451C3.7209 32.7401 3.7299 32.7351 3.7369 32.7301 3.7299 32.7351 3.7209 32.7401 3.7129 32.7451M3.4834 32.8857C3.4864 32.8847 3.4884 32.8827 3.4914 32.8807 3.4884 32.8827 3.4864 32.8847 3.4834 32.8857M3.5732 32.8311C3.5662 32.8351 3.5592 32.8401 3.5522 32.8441 3.5592 32.8401 3.5662 32.8351 3.5732 32.8311M3.4004 32.9355C3.4064 32.9315 3.4124 32.9285 3.4174 32.9255 3.4124 32.9285 3.4064 32.9315 3.4004 32.9355M3.6533 32.7822C3.6493 32.7852 3.6453 32.7872 3.6403 32.7902 3.6453 32.7872 3.6493 32.7852 3.6533 32.7822M.8779 30.1709C.9469 30.0389 1.0189 29.9119 1.0889 29.7909 1.0189 29.9119.9469 30.0389.8779 30.1709M4.2393 32.2539C4.1833 32.2929 4.1283 32.3309 4.0733 32.3679 4.1283 32.3309 4.1833 32.2929 4.2393 32.2539M.8096 30.3008C.8286 30.2668.8456 30.2318.8636 30.1968.8456 30.2318.8286 30.2668.8096 30.3008M4.502 32.0693C4.416 32.1303 4.33 32.1903 4.246 32.2493 4.33 32.1903 4.416 32.1303 4.502 32.0693M.4531 31.082C.4461 31.099.4391 31.116.4321 31.133L.4331 31.134C.4401 31.116.4461 31.099.4531 31.082M.7412 30.4365C.7592 30.4025.7752 30.3695.7922 30.3345.7752 30.3695.7592 30.4025.7412 30.4365M.4727 31.0342L.5167 30.9292.4727 31.0342zM9.0469 29.0088C8.1559 29.7488 7.2689 30.3718 6.2739 31.0568 6.2419 31.0778 6.1119 31.1678 5.9189 31.2988L6.2699 34.1128C6.3349 34.0738 6.3919 34.0418 6.4389 34.0148 7.2269 33.5638 11.8949 30.4458 13.2429 29.3128 13.4669 29.1238 13.6919 28.9378 13.9179 28.7528L13.4649 25.1208C13.1619 25.4028 12.8589 25.6828 12.5519 25.9588 11.4009 26.9978 10.2359 28.0208 9.0469 29.0088M.5322 30.8916C.5732 30.7946.6152 30.7006.6592 30.6076.6152 30.7006.5732 30.7946.5322 30.8916M.6699 30.585C.6889 30.547.7059 30.509.7249 30.471.7059 30.509.6889 30.547.6699 30.585M4.9443 31.9521C4.9503 31.9491 4.9563 31.9451 4.9613 31.9411 4.9563 31.9451 4.9503 31.9491 4.9443 31.9521M3.5811 32.7031C3.5601 32.7181 3.5381 32.7311 3.5181 32.7461 3.5381 32.7311 3.5601 32.7181 3.5811 32.7031M3.6592 32.6514C3.6382 32.6654 3.6182 32.6784 3.5982 32.6924 3.6182 32.6784 3.6382 32.6654 3.6592 32.6514M4.8643 32.0059C4.8693 32.0029 4.8743 31.9989 4.8793 31.9959 4.8743 31.9989 4.8693 32.0029 4.8643 32.0059M5.0391 31.8896C5.0411 31.8886 5.0431 31.8876 5.0451 31.8856 5.0431 31.8876 5.0411 31.8886 5.0391 31.8896M4.0664 32.373C4.0424 32.391 4.0164 32.408 3.9914 32.425 4.0164 32.408 4.0424 32.391 4.0664 32.373M3.9043 32.4854C3.8793 32.5024 3.8533 32.5194 3.8293 32.5364 3.8533 32.5194 3.8793 32.5024 3.9043 32.4854M3.9844 32.4297C3.9584 32.4487 3.9304 32.4667 3.9044 32.4857 3.9304 32.4667 3.9584 32.4487 3.9844 32.4297M3.8154 32.5449C3.7934 32.5609 3.7704 32.5759 3.7484 32.5909 3.7704 32.5759 3.7934 32.5609 3.8154 32.5449M3.7412 32.5957L3.6682 32.6457 3.7412 32.5957z"/>
    <g transform="translate(25)">
      <mask id="apache-b" fill="#fff">
        <use xlink:href="#apache-a"/>
      </mask>
      <path fill="#7F287B" d="M3.9639,9.0068 C6.3059,6.0098 8.6329,3.0318 10.9999,0.0028 C10.5249,-0.0282 10.2649,0.1898 10.0329,0.4848 C8.1349,2.9148 6.2579,5.3648 4.3249,7.7648 C3.0549,9.3408 1.7619,10.8958 0.4459,12.4288 L0.8739,16.0148 C1.8869,14.3528 2.5399,13.0678 2.5629,13.0328 C2.7599,13.8338 3.0939,14.2978 3.2289,14.5248 C3.3619,14.7498 3.5159,14.9618 3.6599,15.1788 C3.3749,13.5948 3.1259,12.0288 3.5609,10.4188 C4.2469,10.5668 4.7449,11.0148 5.2639,11.4248 C5.2849,11.4028 5.4539,11.5588 5.4769,11.5368 C4.9539,10.6178 4.5959,10.3508 4.2489,9.8748 C5.2089,9.9468 6.3599,9.7898 6.6989,9.5568 C5.7809,9.5138 4.7669,9.5198 3.9639,9.0068" mask="url(#apache-b)"/>
    </g>
    <path fill="#7F287B" d="M24.0049,11.3911 C23.9919,11.3911 23.9659,11.3881 23.9279,11.3821 L25.2569,11.8521 C26.1999,10.7301 27.1329,9.5971 28.0559,8.4541 C28.1509,8.3381 28.1699,8.2591 28.0829,8.1141 C27.9539,7.8971 27.8529,7.6571 27.7769,7.4131 C27.6909,7.1341 27.5739,6.7221 27.4999,6.3871 C27.1889,7.5691 27.4739,7.8301 27.7349,8.4971 C27.6049,8.4451 26.5789,8.0471 26.1349,7.9221 C25.0699,7.6221 24.0119,7.4461 22.9519,7.8401 C22.0189,8.1861 21.3389,8.7881 21.2619,8.8731 C21.9909,8.5781 22.9569,8.6591 23.6149,9.0021 C22.7729,9.0861 21.9309,9.1411 21.1379,9.4671 C20.3459,9.7921 19.5169,10.3861 18.8869,10.9841 C20.6149,10.2641 22.4319,10.3501 24.0049,11.3911"/>
    <g transform="translate(0 29)">
      <mask id="apache-d" fill="#fff">
        <use xlink:href="#apache-c"/>
      </mask>
      <path fill="#F39124" d="M5.9189,2.2988 C5.3179,2.7068 4.1079,3.5198 3.3349,3.9748 C3.2669,3.9838 3.2569,3.9158 3.3069,3.8838 C4.0069,3.4338 5.1679,2.6008 5.8909,2.0708 L1.0909,0.7888 C0.3159,2.1168 -0.5121,4.1398 0.3979,5.9338 C0.9059,6.6908 1.2789,7.2078 2.3899,6.9178 C3.8819,6.5278 5.5799,5.5188 6.2699,5.1128 L5.9189,2.2988 Z" mask="url(#apache-d)"/>
    </g>
  </g>
</svg>
