<?xml version="1.0" standalone="no"?><!DOCTYPE svg PUBLIC "-//W3C//DTD SVG 1.1//EN" "http://www.w3.org/Graphics/SVG/1.1/DTD/svg11.dtd"><svg t="1610194932518" class="icon" viewBox="0 0 1024 1024" version="1.1" xmlns="http://www.w3.org/2000/svg" p-id="2770" xmlns:xlink="http://www.w3.org/1999/xlink" width="16" height="16"><defs><style type="text/css"></style></defs><path d="M1023.787 611.84c-0.427 9.77-13.355 20.693-39.894 34.56C929.28 674.859 646.144 791.296 585.9 822.699c-60.288 31.402-93.739 31.104-141.355 8.32-47.616-22.742-348.843-144.47-403.115-170.368C14.336 647.68 0.512 636.757 0.043 626.432v103.51c0 10.325 14.25 21.29 41.386 34.26 54.272 25.942 355.542 147.627 403.115 170.369 47.616 22.784 81.067 23.082 141.355-8.363 60.245-31.403 343.338-147.797 397.994-176.299 27.776-14.464 40.107-25.728 40.107-35.925V611.925l-0.213-0.085z" fill="#D81E06" p-id="2771"></path><path d="M1023.744 443.093c-0.427 9.771-13.355 20.651-39.85 34.518-54.614 28.458-337.75 144.896-397.995 176.298-60.288 31.403-93.739 31.104-141.355 8.363-47.616-22.741-348.843-144.47-403.115-170.41C14.336 478.932 0.512 467.967 0.043 457.684v103.51c0 10.325 14.25 21.248 41.386 34.218 54.272 25.942 355.499 147.627 403.115 170.368 47.616 22.784 81.067 23.083 141.355-8.32 60.245-31.402 343.338-147.84 397.994-176.298 27.776-14.507 40.107-25.771 40.107-35.968V443.136l-0.256-0.043z" fill="#D81E06" p-id="2772"></path><path d="M1023.744 268.075c0.512-10.411-13.099-19.542-40.49-29.611-53.249-19.499-334.635-131.499-388.523-151.253-53.888-19.712-75.819-18.902-139.094 3.84C392.235 113.707 92.63 231.253 39.34 252.075 12.672 262.57-0.341 272.256 0.085 282.58v103.552c0 10.326 14.251 21.248 41.387 34.219 54.272 25.941 355.499 147.67 403.115 170.41 47.616 22.742 81.066 23.04 141.354-8.362 60.246-31.403 343.339-147.84 397.995-176.299 27.776-14.506 40.107-25.77 40.107-35.968V268.075h-0.342zM366.72 366.08l237.27-36.437-71.68 105.088-165.547-68.651z m524.8-94.635l-140.33 55.467-15.233 5.973-140.245-55.466 155.392-61.44 140.373 55.466zM479.53 169.771l-22.954-42.326 71.595 27.99 67.498-22.102-18.261 43.734 68.779 25.77-88.704 9.216L537.6 259.84l-32.085-53.29-102.4-9.217 76.416-27.562z m-176.767 59.733c70.058 0 126.805 21.973 126.805 49.11s-56.747 49.151-126.805 49.151-126.848-22.058-126.848-49.152c0-27.136 56.789-49.152 126.848-49.152z" fill="#D81E06" p-id="2773"></path></svg>