<?xml version="1.0" encoding="utf-8"?>
<!-- Generator: Adobe Illustrator 25.2.0, SVG Export Plug-In . SVG Version: 6.00 Build 0)  -->
<svg version="1.1" id="图层_1" xmlns="http://www.w3.org/2000/svg" xmlns:xlink="http://www.w3.org/1999/xlink" x="0px" y="0px"
	 viewBox="0 0 40 40" style="enable-background:new 0 0 40 40;" xml:space="preserve">
<style type="text/css">
	.st0{fill:#2D2E80;}
</style>
<g>
	<g>
		<path class="st0" d="M29.17,18.7c0.02-0.06,0.05-0.13,0.07-0.19c0.04-0.11,0.1-0.18,0.23-0.21c0.2-0.03,0.39-0.08,0.59-0.14
			c0.09-0.03,0.19-0.04,0.26-0.1c0.01-0.01,0.02-0.01,0.03-0.02l0.02,0l0.01-0.01h0.09c0-0.01,0-0.02-0.01-0.04
			c-0.03,0.01-0.06,0.02-0.08,0.03c-0.01,0-0.02,0-0.02,0c0,0,0,0,0,0l0,0l0,0c0,0.01-0.01,0-0.01,0.01
			c-0.18,0.02-0.36,0.04-0.54,0.06c-0.13,0.01-0.26,0.06-0.41-0.02c0.31-1,0.55-2,0.71-3.02c0.16-1.01,0.26-2.03,0.27-3.06
			c0.02-1.03,0.01-2.07-0.11-3.1C30.25,9,30.23,9.11,30.23,9.22c-0.04,0.63-0.06,1.27-0.12,1.9c-0.08,0.86-0.21,1.72-0.38,2.57
			c-0.29,1.45-0.7,2.88-1.23,4.26c-0.03,0.08-0.08,0.16-0.11,0.22c-0.04,0.01-0.06,0.02-0.09,0.02c-0.92,0.03-1.83-0.04-2.73-0.23
			c-0.05-0.01-0.09-0.05-0.15-0.08c0.06-0.08,0.1-0.14,0.15-0.2c1.19-1.47,2.18-3.07,3.01-4.77c0.05-0.1,0.08-0.21,0.12-0.32
			c0.01,0,0.01-0.01,0.01-0.01c0-0.01,0-0.01,0-0.02c0.05-0.04,0.05-0.09,0.02-0.15c0,0,0-0.01,0-0.01
			c0.02-0.01,0.04-0.01,0.03-0.01c0.01,0-0.01,0-0.04,0c0,0.01,0,0.01,0.01,0.02c0,0.05-0.01,0.1-0.02,0.15c0,0.01,0,0.01-0.01,0.02
			c0,0.01,0,0.01-0.01,0.02c-0.13,0.04-0.15,0.16-0.21,0.26c-1.04,1.63-2.23,3.14-3.58,4.54c-0.11,0.11-0.2,0.24-0.36,0.31
			c-0.1-0.03-0.21-0.06-0.32-0.1c-0.11-0.04-0.21-0.08-0.31-0.12c-0.09-0.04-0.19-0.08-0.28-0.12c-0.1-0.05-0.2-0.1-0.3-0.15
			c-0.1-0.04-0.18-0.13-0.34-0.11c0.22,0.19,0.44,0.33,0.65,0.47c0.21,0.14,0.46,0.22,0.67,0.39c-0.09,0.09-0.16,0.17-0.24,0.25
			c-1.14,1.09-2.36,2.08-3.67,2.96c-0.61,0.41-1.25,0.79-1.89,1.15c-0.18,0.1-0.33,0.11-0.5,0.02c-0.38-0.19-0.76-0.37-1.14-0.56
			c-0.08-0.04-0.15-0.08-0.23-0.12c0.1,0.16,0.23,0.26,0.37,0.37c0.13,0.1,0.27,0.19,0.41,0.29c0.14,0.1,0.31,0.17,0.44,0.32
			c-0.2,0.14-0.41,0.22-0.61,0.31c-0.2,0.1-0.41,0.18-0.61,0.27c-0.21,0.09-0.41,0.17-0.62,0.25c-0.22,0.08-0.44,0.16-0.66,0.24
			c-0.21,0.07-0.43,0.13-0.64,0.21c-0.21,0.07-0.43,0.1-0.62,0.22c0.21,0.01,0.42,0.01,0.63-0.02c0.93-0.12,1.85-0.32,2.74-0.63
			c0.35-0.12,0.69-0.25,1.04-0.38c0.14-0.05,0.25-0.07,0.38,0c0.06,0.03,0.12,0.05,0.18,0.08c1.15,0.49,2.36,0.77,3.6,0.86
			c0.75,0.06,1.5,0.04,2.25-0.01c0.06,0,0.13-0.04,0.18,0.06c-0.06,0.08-0.12,0.17-0.18,0.26c-0.52,0.67-1.07,1.32-1.65,1.94
			c-0.03,0.03-0.11,0.06-0.05,0.14c0.15-0.1,0.3-0.19,0.45-0.29c0.85-0.58,1.61-1.28,2.3-2.04c0.21-0.24,0.22-0.23,0.53-0.3
			c0.5-0.11,1-0.22,1.5-0.36c0.37-0.1,0.73-0.22,1.09-0.34c0.07-0.02,0.16-0.04,0.16-0.15c0.04,0.01,0.09,0.02,0.13,0.03
			c0-0.01,0-0.02,0-0.03h-0.14l0,0c0,0,0,0,0,0c-0.03,0.01-0.06,0.04-0.09,0.04c-0.81,0.17-1.62,0.31-2.45,0.38
			c-0.02,0-0.03-0.02-0.05-0.03c0-0.01-0.01-0.02,0-0.03c0.05-0.07,0.09-0.15,0.14-0.22C27.83,21.75,28.6,20.28,29.17,18.7z
			 M25.55,23.47c-2.08,0.11-4.15-0.05-6.22-0.68c0.08-0.06,0.12-0.11,0.18-0.14c0.3-0.17,0.61-0.32,0.91-0.49
			c1.69-0.97,3.16-2.21,4.46-3.66c0.07-0.07,0.13-0.15,0.2-0.22c0.01-0.02,0.04-0.02,0.07-0.04c0.32,0.07,0.66,0.15,1,0.2
			c0.34,0.05,0.69,0.06,1.03,0.09c0.34,0.02,0.69-0.03,1.03,0C28.1,19.27,26.29,22.63,25.55,23.47z M2.6,22.62
			c0.89-0.04,1.79-0.07,2.68-0.16c0.88-0.1,1.76-0.17,2.63-0.3c1.34-0.19,2.67-0.45,3.98-0.78c2.27-0.57,4.47-1.36,6.56-2.42
			c2.89-1.46,5.45-3.36,7.61-5.79c1.57-1.77,2.86-3.73,3.8-5.91c0.04-0.1,0.08-0.2,0.12-0.3c-0.08-0.13-0.2-0.17-0.3-0.23
			c-0.87-0.53-1.78-0.98-2.73-1.35C25.2,4.7,23.4,4.3,21.54,4.17c-0.95-0.06-1.9-0.05-2.85,0.03c-0.9,0.08-1.8,0.22-2.68,0.44
			C12.7,5.47,9.82,7.07,7.43,9.51C4.01,13,2.28,17.2,2.24,22.09c0,0.16,0.01,0.33,0.02,0.53C2.4,22.62,2.5,22.63,2.6,22.62z
			 M30.34,5.98c0.04-0.11,0.06-0.23,0.11-0.34c0.05-0.1,0.02-0.24,0.17-0.33c0.06,0.25,0.11,0.47,0.16,0.71
			c1.17,0.12,2.85-0.8,3.07-2.63c0.22-1.85-1.15-3.21-2.67-3.37c-1.82-0.2-3.26,1.13-3.4,2.8C27.67,4.31,28.91,5.87,30.34,5.98z
			 M37.68,25.52c-3.24,0.91-6.39,2.07-9.44,3.5c-2.1,0.98-4.12,2.1-6.02,3.41c-1.52,1.05-2.95,2.21-4.22,3.55
			c-0.89,0.94-1.69,1.96-2.34,3.08c-0.05,0.08-0.13,0.16-0.11,0.28c0.05,0.02,0.1,0.05,0.15,0.06c1.05,0.27,2.12,0.46,3.2,0.54
			c1.08,0.08,2.17,0.07,3.25-0.04c0.86-0.09,1.71-0.22,2.54-0.44c4.29-1.11,7.74-3.45,10.34-7.01c1.46-2.01,2.44-4.24,2.96-6.67
			c0.02-0.11,0.06-0.21,0.02-0.35C37.89,25.47,37.79,25.49,37.68,25.52z M38.21,19.63c-0.29-2.13-0.95-4.14-1.98-6.03
			c-1.05-1.94-2.42-3.63-4.09-5.08c-0.64-0.56-0.83-0.69-1.05-0.77c0.02,0.16,0.04,0.31,0.06,0.46c0.19,1.12,0.32,2.25,0.44,3.38
			c0.1,0.97,0.15,1.95,0.19,2.93c0.04,1.14,0,2.27-0.09,3.4c-0.08,1.07-0.24,2.12-0.49,3.16c-0.32,1.35-0.8,2.64-1.54,3.83
			c-0.03,0.06-0.06,0.12-0.09,0.18c0.11,0.06,0.21,0.01,0.3-0.01c0.64-0.13,1.28-0.23,1.92-0.29c0.56-0.05,1.12-0.08,1.67-0.11
			c0.83-0.05,1.66,0,2.48,0.06c0.67,0.05,1.33,0.15,2,0.23c0.06,0.01,0.13-0.01,0.2-0.01C38.44,23.18,38.46,21.4,38.21,19.63z
			 M18.53,32.31c0.75-0.99,1.58-1.9,2.5-2.74c0.06-0.05,0.16-0.09,0.14-0.22c-0.08,0-0.16,0-0.23,0c-0.74,0.01-1.47-0.04-2.21-0.11
			c-0.94-0.09-1.86-0.25-2.78-0.45c-1.88-0.41-3.71-0.99-5.51-1.67c-2.69-1.02-5.28-2.26-7.78-3.67c-0.11-0.06-0.21-0.11-0.38-0.2
			c0.16,2.31,0.72,4.45,1.69,6.48c1.34,2.79,3.28,5.09,5.8,6.9c1.63,1.17,4.4,2.5,5.49,2.63c0.2-1.07,0.28-1.39,0.6-2.21
			C16.52,35.33,17.43,33.77,18.53,32.31z"/>
	</g>
</g>
</svg>
