<?xml version="1.0" encoding="UTF-8" standalone="no"?>
<svg
   xmlns:dc="http://purl.org/dc/elements/1.1/"
   xmlns:cc="http://creativecommons.org/ns#"
   xmlns:rdf="http://www.w3.org/1999/02/22-rdf-syntax-ns#"
   xmlns:svg="http://www.w3.org/2000/svg"
   xmlns="http://www.w3.org/2000/svg"
   viewBox="0 0 40 40"
   height="40"
   width="40"
   id="svg3753"
   version="1.1">
  <metadata
     id="metadata3759">
    <rdf:RDF>
      <cc:Work
         rdf:about="">
        <dc:format>image/svg+xml</dc:format>
        <dc:type
           rdf:resource="http://purl.org/dc/dcmitype/StillImage" />
        <dc:title></dc:title>
      </cc:Work>
    </rdf:RDF>
  </metadata>
  <defs
     id="defs3757" />
  <g
     transform="matrix(0.1009933,0,0,0.10120339,0.01426597,-0.01092)"
     id="g3763">
    <path
       id="path3787"
       d="M 181.5,394.90043 C 165.95757,393.80057 151.53711,390.9026 136.07572,385.77185 121.21024,380.83885 99.717406,370.35706 88,362.32592 L 79.5,356.5 l -0.333384,-5 c -1.142076,-17.12856 7.051933,-59.41115 17.315059,-89.3489 7.846335,-22.88792 19.920455,-49.4255 22.267645,-48.94185 0.9043,0.18633 2.61131,4.95943 4.75321,13.29075 14.56462,56.65194 43.16782,108.31381 85.44044,154.31882 6.22566,6.77535 10.92286,12.68238 10.43821,13.12673 -1.40882,1.29168 -24.79232,1.88111 -37.88118,0.95488 z M 233.38944,377.25 c -25.60255,-25.22698 -43.48711,-48.74946 -60.63534,-79.75 -7.21369,-13.04089 -14.22814,-28.3593 -13.37614,-29.21129 0.29343,-0.29343 7.41593,2.43286 15.82777,6.05843 35.75842,15.41213 73.65191,25.24621 110.29427,28.62345 15.74166,1.45087 48.77771,1.43289 65.38606,-0.0356 7.26766,-0.64259 13.48954,-0.89275 13.82638,-0.5559 1.04897,1.04896 -1.23425,4.90045 -9.07729,15.31217 C 337.2054,342.15697 312.33846,362.54908 284.5,376.0256 271.21733,382.45571 252.96781,389 248.3194,389 c -2.49296,0 -5.03712,-2.00228 -14.92996,-11.75 z m -180.14437,-44 C 36.408242,315.22486 21.173582,290.63828 12.504192,267.5 5.6983023,249.33534 2.940955,236.10877 0.48248533,209.83372 l -0.62374189,-6.66628 5.32062826,-3.89988 C 21.227905,187.50443 50.759013,171.60288 74,162.20989 c 13.997195,-5.65705 31.4844,-11.16284 46.48435,-14.63545 14.43057,-3.34079 16.36645,-3.62486 17.05961,-2.50331 0.34183,0.55309 -2.47601,5.15085 -6.26186,10.21724 -11.27546,15.08932 -13.65836,18.6047 -21.78715,32.14158 C 95.449144,210.82043 83.72252,236.82189 75.638456,262.5 67.596875,288.04316 64.88848,300.7477 60.449147,333.75 60.134716,336.0875 59.38346,338 58.779689,338 c -0.60377,0 -3.094349,-2.1375 -5.534619,-4.75 z M 290,284.36517 c -15.85821,-1.46071 -45.18503,-6.63905 -57.5,-10.15299 -5.51284,-1.57302 -4.05359,-3.44815 7.06485,-9.07828 29.42752,-14.90145 59.00943,-35.84465 84.20855,-59.6174 17.8768,-16.86489 40.43622,-44.35161 53.51347,-65.20155 2.86722,-4.5714 5.78677,-8.31239 6.48788,-8.3133 1.60316,-0.002 2.66277,2.75426 6.34242,16.49835 2.16944,8.10324 3.38773,16.18037 4.62627,30.67165 1.57724,18.45421 1.57651,20.83691 -0.0118,38.5 -1.18991,13.23231 -2.56199,22.0977 -4.6165,29.82835 -3.43362,12.91997 -9.41142,29.22487 -11.46892,31.28237 -3.09613,3.09613 -24.47282,5.28712 -55.1462,5.65216 -15.95,0.18982 -31.025,0.15861 -33.5,-0.0694 z m -15.5816,-64.71723 c -0.30357,-0.79107 -0.0986,-3.17298 0.45556,-5.29313 1.07729,-4.12189 4.37658,-23.02612 6.17035,-35.35481 1.69473,-11.64798 2.37016,-58.58075 1.05058,-73 C 279.53431,78.020224 274.61622,53.22661 266.89568,29.37612 264.20306,21.057986 262,13.464236 262,12.50112 c 0,-2.5084432 3.70975,-1.56297 16.8184,4.28637 36.70454,16.378295 68.92382,45.124709 90.02222,80.318854 2.83766,4.733486 5.15938,9.379976 5.15938,10.325526 0,3.35562 -15.92112,28.87567 -27.49266,44.06813 -16.44224,21.58729 -36.85669,42.62504 -57.3134,59.06331 -12.79154,10.27882 -14.02603,11.03784 -14.77554,9.08463 z M 1.443355,174.29539 C 1.7081841,172.20793 2.1924249,168.025 2.5194458,165 3.3749749,157.08621 7.5946871,141.00905 11.705769,130 22.692335,100.57911 43.242028,69.934752 63.917949,52.139533 l 7.00891,-6.032384 7.286571,2.015005 c 29.3712,8.122218 70.05912,28.039707 97.95423,47.950405 C 187.74029,104.33275 203,116.78386 203,117.9663 c 0,0.46588 -4.3875,1.10397 -9.75,1.41799 -30.00755,1.75718 -41.17289,2.78914 -54.31457,5.02007 -24.21752,4.11116 -48.360675,10.79179 -71.728169,19.84785 -13.105852,5.07916 -40.988944,18.79833 -52.762516,25.96046 -14.49369378,8.81684 -13.56499126,8.52521 -13.00139,4.08272 z M 255,143.8065 C 237.04625,121.45002 210.27557,96.920835 183,77.835041 159.74425,61.562075 121.50594,42.375481 95.75,34.056167 93.6875,33.389968 92,32.237376 92,31.494852 c 0,-3.314058 25.88938,-16.135713 45,-22.2861445 16.18862,-5.2100362 24.87906,-6.8284622 44.86191,-8.35466657 13.96015,-1.06621615 19.14828,-1.01809542 35.34395,0.32782077 13.06133,1.0854412 19.38274,2.0048954 20.2667,2.9478057 3.61465,3.8557414 16.24644,43.1560696 20.3683,63.3703326 4.89241,23.993216 7.48992,50.63336 6.97029,71.48782 -0.2536,10.17809 -0.58859,12.52712 -1.81115,12.70024 -0.82547,0.11689 -4.42296,-3.42734 -8,-7.88156 z"
       style="fill:#eedda5" />
    <path
       id="path3785"
       d="M 181.5,394.90043 C 165.95757,393.80057 151.53711,390.9026 136.07572,385.77185 121.21024,380.83885 99.717406,370.35706 88,362.32592 L 79.5,356.5 l -0.333384,-5 c -1.142076,-17.12856 7.051933,-59.41115 17.315059,-89.3489 7.846335,-22.88792 19.920455,-49.4255 22.267645,-48.94185 0.9043,0.18633 2.61131,4.95943 4.75321,13.29075 14.56462,56.65194 43.16782,108.31381 85.44044,154.31882 6.22566,6.77535 10.92286,12.68238 10.43821,13.12673 -1.40882,1.29168 -24.79232,1.88111 -37.88118,0.95488 z M 233.38944,377.25 c -25.60255,-25.22698 -43.48711,-48.74946 -60.63534,-79.75 -7.21369,-13.04089 -14.22814,-28.3593 -13.37614,-29.21129 0.29343,-0.29343 7.41593,2.43286 15.82777,6.05843 35.75842,15.41213 73.65191,25.24621 110.29427,28.62345 15.74166,1.45087 48.77771,1.43289 65.38606,-0.0356 7.26766,-0.64259 13.48954,-0.89275 13.82638,-0.5559 1.04897,1.04896 -1.23425,4.90045 -9.07729,15.31217 C 337.2054,342.15697 312.33846,362.54908 284.5,376.0256 271.21733,382.45571 252.96781,389 248.3194,389 c -2.49296,0 -5.03712,-2.00228 -14.92996,-11.75 z m -180.14437,-44 C 36.408242,315.22486 21.173582,290.63828 12.504192,267.5 5.6983023,249.33534 2.940955,236.10877 0.48248533,209.83372 l -0.62374189,-6.66628 5.32062826,-3.89988 C 21.227905,187.50443 50.759013,171.60288 74,162.20989 c 13.997195,-5.65705 31.4844,-11.16284 46.48435,-14.63545 14.43057,-3.34079 16.36645,-3.62486 17.05961,-2.50331 0.34183,0.55309 -2.47601,5.15085 -6.26186,10.21724 -11.27546,15.08932 -13.65836,18.6047 -21.78715,32.14158 C 95.449144,210.82043 83.72252,236.82189 75.638456,262.5 67.596875,288.04316 64.88848,300.7477 60.449147,333.75 60.134716,336.0875 59.38346,338 58.779689,338 c -0.60377,0 -3.094349,-2.1375 -5.534619,-4.75 z M 292.5,282.97285 c -22.6404,-2.02217 -60.5,-9.14971 -60.5,-11.38988 0,-0.62238 4.33245,-3.28374 9.62766,-5.91413 52.33783,-25.99877 101.73507,-70.56126 135.42487,-122.1702 3.44225,-5.27312 6.59652,-9.23 7.0095,-8.79306 1.95495,2.06833 6.55834,21.21719 9.92717,41.29442 4.14471,24.70118 -0.42749,60.76793 -11.47274,90.5 -2.04321,5.5 -4.23717,10.55083 -4.87547,11.22407 -3.5801,3.77603 -61.5903,7.35225 -85.14099,5.24878 z M 276.4119,214.75 c 6.06225,-29.76609 7.96057,-48.91111 7.90762,-79.75 -0.0711,-41.406046 -5.6618,-76.137912 -18.22957,-113.25 -2.40565,-7.10378 -2.6822,-8.75 -1.46994,-8.75 3.84658,0 28.43186,11.843107 40.37999,19.451656 25.08053,15.971249 53.14279,46.16257 65.41208,70.374844 l 2.47951,4.89307 -2.59188,4.89021 c -12.74377,24.04431 -35.84829,54.00221 -58.94537,76.43006 C 299.94067,200.12279 278.61658,218 276.8104,218 c -0.66546,0 -0.81387,-1.21046 -0.3985,-3.25 z M 1.443355,174.29539 C 1.7081841,172.20793 2.1924249,168.025 2.5194458,165 3.3749749,157.08621 7.5946871,141.00905 11.705769,130 22.692335,100.57911 43.242028,69.934752 63.917949,52.139533 l 7.00891,-6.032384 7.286571,2.015005 c 29.3712,8.122218 70.05912,28.039707 97.95423,47.950405 C 187.74029,104.33275 203,116.78386 203,117.9663 c 0,0.46588 -4.3875,1.10397 -9.75,1.41799 -30.00755,1.75718 -41.17289,2.78914 -54.31457,5.02007 -24.21752,4.11116 -48.360675,10.79179 -71.728169,19.84785 -13.105852,5.07916 -40.988944,18.79833 -52.762516,25.96046 -14.49369378,8.81684 -13.56499126,8.52521 -13.00139,4.08272 z M 253.48033,139.90218 C 230.38282,113.18088 209.73148,94.658664 181.84326,75.650794 158.47629,59.72449 132.38425,46.233447 106,36.435592 99.395003,33.98281 94.5,31.60992 94.5,30.860879 94.5,28.762838 121.39079,15.736292 135,11.241706 158.19499,3.5813137 174.7616,0.80262587 197.5,0.75869364 c 17.47157,-0.0337563 37.55822,2.33286776 39.36151,4.63760436 1.13968,1.4565875 8.39945,20.992886 11.55826,31.103702 6.33963,20.292033 11.38049,45.16525 13.47703,66.5 1.5173,15.44023 2.27902,39.99267 1.36183,43.89572 l -0.79797,3.39572 z"
       style="fill:#e8adcf" />
    <path
       id="path3783"
       d="M 172.4278,392.99432 C 158.65328,390.90819 143.91465,387.35278 133,383.48311 115.49073,377.27539 82.004986,358.78253 80.319261,354.3896 79.382896,351.94947 81.860311,328.17283 84.631864,313 c 4.776355,-26.14808 11.615592,-49.13049 21.533596,-72.36098 7.71332,-18.06655 11.80593,-26.09335 12.75303,-25.01236 0.42084,0.48034 2.02367,5.82334 3.56183,11.87334 14.37079,56.52405 45.1764,112.01498 85.26968,153.59844 5.6375,5.84703 10.25,11.08068 10.25,11.63034 0,2.79364 -27.80945,2.95567 -45.5722,0.26554 z m 57.54189,-19.7404 c -27.88037,-28.28181 -46.04303,-53.54663 -63.03558,-87.68447 -6.71541,-13.49118 -8.32204,-18.36873 -5.68411,-17.25629 0.6875,0.28992 6.2,2.75859 12.25,5.48593 50.33529,22.69117 109.27556,33.6449 163.11116,30.31334 9.83886,-0.60887 20.25134,-1.39593 23.13884,-1.74902 4.1267,-0.50463 5.24569,-0.34474 5.22987,0.7473 -0.0331,2.28224 -12.19802,18.54546 -21.05952,28.15431 -17.52382,19.00174 -37.32832,33.75435 -59.92035,44.6354 -12.82565,6.17725 -31.90224,13.09652 -36.12665,13.1035 -1.74265,0.003 -6.50044,-4.18259 -17.90366,-15.75 z M 51.846255,329.66751 C 30.449921,305.26657 14.875101,275.84372 6.9739303,244.8979 4.6916473,235.95908 0.99540796,212.55511 1.0092967,207.13084 c 0.00905,-3.53312 0.3252992,-3.83583 11.7500003,-11.24707 35.856812,-23.26042 73.439675,-39.30606 112.125083,-47.87072 9.47223,-2.09708 11.34084,-2.01617 9.58025,0.41482 -0.53055,0.73257 -4.83831,6.61481 -9.57282,13.07165 C 89.751715,209.42297 67.537068,266.73268 59.479985,330.25 c -0.339553,2.67684 -1.121356,4.74449 -1.791258,4.73738 -0.6538,-0.007 -3.282912,-2.40088 -5.842472,-5.31987 z M 292.5,282.97285 c -22.6404,-2.02217 -60.5,-9.14971 -60.5,-11.38988 0,-0.62238 4.33245,-3.28374 9.62766,-5.91413 52.33783,-25.99877 101.73507,-70.56126 135.42487,-122.1702 3.44225,-5.27312 6.59652,-9.23 7.0095,-8.79306 1.95495,2.06833 6.55834,21.21719 9.92717,41.29442 4.14471,24.70118 -0.42749,60.76793 -11.47274,90.5 -2.04321,5.5 -4.23717,10.55083 -4.87547,11.22407 -3.5801,3.77603 -61.5903,7.35225 -85.14099,5.24878 z M 276.4119,214.75 c 6.06225,-29.76609 7.96057,-48.91111 7.90762,-79.75 -0.0711,-41.406046 -5.6618,-76.137912 -18.22957,-113.25 -2.40565,-7.10378 -2.6822,-8.75 -1.46994,-8.75 3.84658,0 28.43186,11.843107 40.37999,19.451656 25.08053,15.971249 53.14279,46.16257 65.41208,70.374844 l 2.47951,4.89307 -2.59188,4.89021 c -12.74377,24.04431 -35.84829,54.00221 -58.94537,76.43006 C 299.94067,200.12279 278.61658,218 276.8104,218 c -0.66546,0 -0.81387,-1.21046 -0.3985,-3.25 z M 2,173.01592 C 2,167.57303 7.0106298,146.19328 11.082999,134.25986 21.507236,103.71333 42.76041,71.243673 64.450097,52.727967 72.236431,46.081053 69.935197,46.034392 91,53.266315 c 33.04578,11.345207 64.09777,27.8161 91.33587,48.447245 15.80566,11.97178 19.30542,14.97848 18.441,15.84291 -0.3907,0.39069 -8.64572,1.09138 -18.34449,1.55709 -38.64459,1.85563 -74.64422,9.1026 -109.362006,22.01532 C 56.98379,147.11203 25.106457,162.56257 12.642111,170.41769 7.7702715,173.48796 3.3827715,176 2.8921106,176 2.4014498,176 2,174.65716 2,173.01592 Z M 253.48033,139.90218 C 230.38282,113.18088 209.73148,94.658664 181.84326,75.650794 158.47629,59.72449 132.38425,46.233447 106,36.435592 99.395003,33.98281 94.5,31.60992 94.5,30.860879 94.5,28.762838 121.39079,15.736292 135,11.241706 158.19499,3.5813137 174.7616,0.80262587 197.5,0.75869364 c 17.47157,-0.0337563 37.55822,2.33286776 39.36151,4.63760436 1.13968,1.4565875 8.39945,20.992886 11.55826,31.103702 6.33963,20.292033 11.38049,45.16525 13.47703,66.5 1.5173,15.44023 2.27902,39.99267 1.36183,43.89572 l -0.79797,3.39572 z"
       style="fill:#f59da3" />
    <path
       id="path3781"
       d="M 172.4278,392.99432 C 158.65328,390.90819 143.91465,387.35278 133,383.48311 115.49073,377.27539 82.004986,358.78253 80.319261,354.3896 79.382896,351.94947 81.860311,328.17283 84.631864,313 c 4.776355,-26.14808 11.615592,-49.13049 21.533596,-72.36098 7.71332,-18.06655 11.80593,-26.09335 12.75303,-25.01236 0.42084,0.48034 2.02367,5.82334 3.56183,11.87334 14.37079,56.52405 45.1764,112.01498 85.26968,153.59844 5.6375,5.84703 10.25,11.08068 10.25,11.63034 0,2.79364 -27.80945,2.95567 -45.5722,0.26554 z m 57.54189,-19.7404 c -27.88037,-28.28181 -46.04303,-53.54663 -63.03558,-87.68447 -6.71541,-13.49118 -8.32204,-18.36873 -5.68411,-17.25629 0.6875,0.28992 6.2,2.75859 12.25,5.48593 50.33529,22.69117 109.27556,33.6449 163.11116,30.31334 9.83886,-0.60887 20.25134,-1.39593 23.13884,-1.74902 4.1267,-0.50463 5.24569,-0.34474 5.22987,0.7473 -0.0331,2.28224 -12.19802,18.54546 -21.05952,28.15431 -17.52382,19.00174 -37.32832,33.75435 -59.92035,44.6354 -12.82565,6.17725 -31.90224,13.09652 -36.12665,13.1035 -1.74265,0.003 -6.50044,-4.18259 -17.90366,-15.75 z M 51.003745,327.77884 C 32.649891,306.70239 19.289228,283.19885 11.03802,257.47275 7.125468,245.27396 4.2117279,231.91385 3.3489176,222.21658 2.9924961,218.2107 2.3181808,214.69665 1.8504392,214.40757 1.3826977,214.11849 1,211.35852 1,208.27432 c 0,-3.08421 0.2658479,-5.34181 0.590773,-5.01688 0.3249252,0.32492 2.5684116,-0.91879 4.9855254,-2.76382 C 17.816961,191.91343 46.16748,176.11501 64.918411,167.98229 80.298803,161.31145 98.605928,155.06278 114.81423,150.95164 123.38293,148.77824 131.41968,147 132.67368,147 c 2.02435,0 1.39217,1.20761 -5.6378,10.76964 -35.600388,48.42296 -58.83656,105.31755 -66.645472,163.1838 -0.931221,6.90061 -1.997994,12.89704 -2.370607,13.3254 -0.372612,0.42836 -3.529838,-2.49664 -7.016056,-6.5 z M 292.5,282.97285 c -22.6404,-2.02217 -60.5,-9.14971 -60.5,-11.38988 0,-0.62238 4.33245,-3.28374 9.62766,-5.91413 52.33783,-25.99877 101.73507,-70.56126 135.42487,-122.1702 3.44225,-5.27312 6.59652,-9.23 7.0095,-8.79306 1.95495,2.06833 6.55834,21.21719 9.92717,41.29442 4.14471,24.70118 -0.42749,60.76793 -11.47274,90.5 -2.04321,5.5 -4.23717,10.55083 -4.87547,11.22407 -3.5801,3.77603 -61.5903,7.35225 -85.14099,5.24878 z M 276.4119,214.75 c 6.06225,-29.76609 7.96057,-48.91111 7.90762,-79.75 -0.0711,-41.406046 -5.6618,-76.137912 -18.22957,-113.25 -2.40565,-7.10378 -2.6822,-8.75 -1.46994,-8.75 3.84658,0 28.43186,11.843107 40.37999,19.451656 25.08053,15.971249 53.14279,46.16257 65.41208,70.374844 l 2.47951,4.89307 -2.59188,4.89021 c -12.74377,24.04431 -35.84829,54.00221 -58.94537,76.43006 C 299.94067,200.12279 278.61658,218 276.8104,218 c -0.66546,0 -0.81387,-1.21046 -0.3985,-3.25 z M 3.4989324,169.75 C 9.0610723,134.71501 23.476069,101.86653 45.048125,75.068899 55.407571,62.200002 69.228336,49 72.34298,49 c 3.572185,0 29.36308,9.028439 44.15702,15.457742 14.28554,6.208356 31.82834,15.591643 45.29241,24.225989 9.29275,5.959324 34.17296,24.364699 36.14015,26.735009 1.41921,1.71004 -2.26813,2.20115 -22.93256,3.05434 -51.45787,2.1246 -110.40013,20.02581 -157.723275,47.90175 C 10.157112,170.56867 3.992726,174 3.5780893,174 3.1634526,174 3.127832,172.0875 3.4989324,169.75 Z M 253.48033,139.90218 C 230.38282,113.18088 209.73148,94.658664 181.84326,75.650794 158.47629,59.72449 132.38425,46.233447 106,36.435592 99.395003,33.98281 94.5,31.60992 94.5,30.860879 94.5,28.762838 121.39079,15.736292 135,11.241706 158.19499,3.5813137 174.7616,0.80262587 197.5,0.75869364 c 17.47157,-0.0337563 37.55822,2.33286776 39.36151,4.63760436 1.13968,1.4565875 8.39945,20.992886 11.55826,31.103702 6.33963,20.292033 11.38049,45.16525 13.47703,66.5 1.5173,15.44023 2.27902,39.99267 1.36183,43.89572 l -0.79797,3.39572 z"
       style="fill:#f4d159" />
    <path
       id="path3779"
       d="M 172.4278,392.99432 C 158.65328,390.90819 143.91465,387.35278 133,383.48311 115.49073,377.27539 82.004986,358.78253 80.319261,354.3896 79.382896,351.94947 81.860311,328.17283 84.631864,313 c 4.776355,-26.14808 11.615592,-49.13049 21.533596,-72.36098 7.71332,-18.06655 11.80593,-26.09335 12.75303,-25.01236 0.42084,0.48034 2.02367,5.82334 3.56183,11.87334 14.37079,56.52405 45.1764,112.01498 85.26968,153.59844 5.6375,5.84703 10.25,11.08068 10.25,11.63034 0,2.79364 -27.80945,2.95567 -45.5722,0.26554 z m 57.54189,-19.7404 c -27.88037,-28.28181 -46.04303,-53.54663 -63.03558,-87.68447 -6.71541,-13.49118 -8.32204,-18.36873 -5.68411,-17.25629 0.6875,0.28992 6.2,2.75859 12.25,5.48593 50.33529,22.69117 109.27556,33.6449 163.11116,30.31334 9.83886,-0.60887 20.25134,-1.39593 23.13884,-1.74902 4.1267,-0.50463 5.24569,-0.34474 5.22987,0.7473 -0.0331,2.28224 -12.19802,18.54546 -21.05952,28.15431 -17.52382,19.00174 -37.32832,33.75435 -59.92035,44.6354 -12.82565,6.17725 -31.90224,13.09652 -36.12665,13.1035 -1.74265,0.003 -6.50044,-4.18259 -17.90366,-15.75 z M 51.003745,327.77884 C 32.649891,306.70239 19.289228,283.19885 11.03802,257.47275 7.125468,245.27396 4.2117279,231.91385 3.3489176,222.21658 2.9924961,218.2107 2.3181808,214.69665 1.8504392,214.40757 1.3826977,214.11849 1,211.35852 1,208.27432 c 0,-3.08421 0.2658479,-5.34181 0.590773,-5.01688 0.3249252,0.32492 2.5684116,-0.91879 4.9855254,-2.76382 C 17.816961,191.91343 46.16748,176.11501 64.918411,167.98229 80.298803,161.31145 98.605928,155.06278 114.81423,150.95164 123.38293,148.77824 131.41968,147 132.67368,147 c 2.02435,0 1.39217,1.20761 -5.6378,10.76964 -35.600388,48.42296 -58.83656,105.31755 -66.645472,163.1838 -0.931221,6.90061 -1.997994,12.89704 -2.370607,13.3254 -0.372612,0.42836 -3.529838,-2.49664 -7.016056,-6.5 z M 292.5,282.97285 c -22.6404,-2.02217 -60.5,-9.14971 -60.5,-11.38988 0,-0.62238 4.33245,-3.28374 9.62766,-5.91413 52.33783,-25.99877 101.73507,-70.56126 135.42487,-122.1702 3.44225,-5.27312 6.59652,-9.23 7.0095,-8.79306 1.95495,2.06833 6.55834,21.21719 9.92717,41.29442 4.14471,24.70118 -0.42749,60.76793 -11.47274,90.5 -2.04321,5.5 -4.23717,10.55083 -4.87547,11.22407 -3.5801,3.77603 -61.5903,7.35225 -85.14099,5.24878 z M 278,214.14941 c 0,-1.11026 0.66499,-5.17992 1.47776,-9.04368 5.384,-25.59463 7.88968,-68.2354 5.61805,-95.60573 C 282.52916,78.575048 276.69786,49.224907 268.02169,23.562412 266.35976,18.646739 265,14.5042 265,14.356771 c 0,-0.583889 8.50941,2.785742 16.54897,6.553206 33.81109,15.844414 64.62656,43.769609 84.37109,76.457684 C 368.71403,101.99321 371,106.53675 371,107.4644 c 0,3.86328 -19.03553,33.14989 -32.75593,50.39576 -13.38962,16.8301 -38.32325,41.32815 -55.99407,55.01587 -3.84255,2.97642 -4.25,3.0985 -4.25,1.27338 z M 3.4989324,169.75 C 9.0610723,134.71501 23.476069,101.86653 45.048125,75.068899 55.407571,62.200002 69.228336,49 72.34298,49 c 3.572185,0 29.36308,9.028439 44.15702,15.457742 14.28554,6.208356 31.82834,15.591643 45.29241,24.225989 9.29275,5.959324 34.17296,24.364699 36.14015,26.735009 1.41921,1.71004 -2.26813,2.20115 -22.93256,3.05434 -51.45787,2.1246 -110.40013,20.02581 -157.723275,47.90175 C 10.157112,170.56867 3.992726,174 3.5780893,174 3.1634526,174 3.127832,172.0875 3.4989324,169.75 Z M 251.02934,136.98987 C 211.19891,91.153041 159.27623,55.406289 103.54019,35.449309 98.612294,33.684815 94.440767,31.8223 94.270129,31.310386 93.900997,30.20299 105.38852,23.515282 116.28193,18.49574 142.27089,6.5203722 179.76209,-0.96842017 206,0.57473205 218.00905,1.2810303 235.81575,4.0577291 236.83455,5.3829371 238.20933,7.1711927 245.53673,27.483632 249.32212,40 c 4.52476,14.961099 8.3604,32.235626 10.76196,48.468503 2.46314,16.649207 4.46746,51.570437 3.29309,57.375707 l -0.87881,4.34421 z"
       style="fill:#f26da9" />
    <path
       id="path3777"
       d="M 172.4278,392.99432 C 158.65328,390.90819 143.91465,387.35278 133,383.48311 115.49073,377.27539 82.004986,358.78253 80.319261,354.3896 79.382896,351.94947 81.860311,328.17283 84.631864,313 c 4.776355,-26.14808 11.615592,-49.13049 21.533596,-72.36098 7.71332,-18.06655 11.80593,-26.09335 12.75303,-25.01236 0.42084,0.48034 2.02367,5.82334 3.56183,11.87334 14.37079,56.52405 45.1764,112.01498 85.26968,153.59844 5.6375,5.84703 10.25,11.08068 10.25,11.63034 0,2.79364 -27.80945,2.95567 -45.5722,0.26554 z m 57.54189,-19.7404 c -27.88037,-28.28181 -46.04303,-53.54663 -63.03558,-87.68447 -6.71541,-13.49118 -8.32204,-18.36873 -5.68411,-17.25629 0.6875,0.28992 6.2,2.75859 12.25,5.48593 50.33529,22.69117 109.27556,33.6449 163.11116,30.31334 9.83886,-0.60887 20.25134,-1.39593 23.13884,-1.74902 4.1267,-0.50463 5.24569,-0.34474 5.22987,0.7473 -0.0331,2.28224 -12.19802,18.54546 -21.05952,28.15431 -17.52382,19.00174 -37.32832,33.75435 -59.92035,44.6354 -12.82565,6.17725 -31.90224,13.09652 -36.12665,13.1035 -1.74265,0.003 -6.50044,-4.18259 -17.90366,-15.75 z M 292.5,282.97285 c -22.6404,-2.02217 -60.5,-9.14971 -60.5,-11.38988 0,-0.62238 4.33245,-3.28374 9.62766,-5.91413 52.33783,-25.99877 101.73507,-70.56126 135.42487,-122.1702 3.44225,-5.27312 6.59652,-9.23 7.0095,-8.79306 1.95495,2.06833 6.55834,21.21719 9.92717,41.29442 4.14471,24.70118 -0.42749,60.76793 -11.47274,90.5 -2.04321,5.5 -4.23717,10.55083 -4.87547,11.22407 -3.5801,3.77603 -61.5903,7.35225 -85.14099,5.24878 z M 278,214.14941 c 0,-1.11026 0.66499,-5.17992 1.47776,-9.04368 5.384,-25.59463 7.88968,-68.2354 5.61805,-95.60573 C 282.52916,78.575048 276.69786,49.224907 268.02169,23.562412 266.35976,18.646739 265,14.5042 265,14.356771 c 0,-0.583889 8.50941,2.785742 16.54897,6.553206 33.81109,15.844414 64.62656,43.769609 84.37109,76.457684 C 368.71403,101.99321 371,106.53675 371,107.4644 c 0,3.86328 -19.03553,33.14989 -32.75593,50.39576 -13.38962,16.8301 -38.32325,41.32815 -55.99407,55.01587 -3.84255,2.97642 -4.25,3.0985 -4.25,1.27338 z M 3.4989324,169.75 C 9.0610723,134.71501 23.476069,101.86653 45.048125,75.068899 55.407571,62.200002 69.228336,49 72.34298,49 c 3.572185,0 29.36308,9.028439 44.15702,15.457742 14.28554,6.208356 31.82834,15.591643 45.29241,24.225989 9.29275,5.959324 34.17296,24.364699 36.14015,26.735009 1.41921,1.71004 -2.26813,2.20115 -22.93256,3.05434 -51.45787,2.1246 -110.40013,20.02581 -157.723275,47.90175 C 10.157112,170.56867 3.992726,174 3.5780893,174 3.1634526,174 3.127832,172.0875 3.4989324,169.75 Z M 251.02934,136.98987 C 211.19891,91.153041 159.27623,55.406289 103.54019,35.449309 98.612294,33.684815 94.440767,31.8223 94.270129,31.310386 93.900997,30.20299 105.38852,23.515282 116.28193,18.49574 142.27089,6.5203722 179.76209,-0.96842017 206,0.57473205 218.00905,1.2810303 235.81575,4.0577291 236.83455,5.3829371 238.20933,7.1711927 245.53673,27.483632 249.32212,40 c 4.52476,14.961099 8.3604,32.235626 10.76196,48.468503 2.46314,16.649207 4.46746,51.570437 3.29309,57.375707 l -0.87881,4.34421 z"
       style="fill:#f6a25f" />
    <path
       id="path3775"
       d="M 172.4278,392.99432 C 158.65328,390.90819 143.91465,387.35278 133,383.48311 115.49073,377.27539 82.004986,358.78253 80.319261,354.3896 79.382896,351.94947 81.860311,328.17283 84.631864,313 c 4.776355,-26.14808 11.615592,-49.13049 21.533596,-72.36098 7.71332,-18.06655 11.80593,-26.09335 12.75303,-25.01236 0.42084,0.48034 2.02367,5.82334 3.56183,11.87334 14.37079,56.52405 45.1764,112.01498 85.26968,153.59844 5.6375,5.84703 10.25,11.08068 10.25,11.63034 0,2.79364 -27.80945,2.95567 -45.5722,0.26554 z m 57.54189,-19.7404 c -27.88037,-28.28181 -46.04303,-53.54663 -63.03558,-87.68447 -6.71541,-13.49118 -8.32204,-18.36873 -5.68411,-17.25629 0.6875,0.28992 6.2,2.75859 12.25,5.48593 50.33529,22.69117 109.27556,33.6449 163.11116,30.31334 9.83886,-0.60887 20.25134,-1.39593 23.13884,-1.74902 4.1267,-0.50463 5.24569,-0.34474 5.22987,0.7473 -0.0331,2.28224 -12.19802,18.54546 -21.05952,28.15431 -17.52382,19.00174 -37.32832,33.75435 -59.92035,44.6354 -12.82565,6.17725 -31.90224,13.09652 -36.12665,13.1035 -1.74265,0.003 -6.50044,-4.18259 -17.90366,-15.75 z M 292.5,282.97285 c -22.6404,-2.02217 -60.5,-9.14971 -60.5,-11.38988 0,-0.62238 4.33245,-3.28374 9.62766,-5.91413 52.33783,-25.99877 101.73507,-70.56126 135.42487,-122.1702 3.44225,-5.27312 6.59652,-9.23 7.0095,-8.79306 1.95495,2.06833 6.55834,21.21719 9.92717,41.29442 4.14471,24.70118 -0.42749,60.76793 -11.47274,90.5 -2.04321,5.5 -4.23717,10.55083 -4.87547,11.22407 -3.5801,3.77603 -61.5903,7.35225 -85.14099,5.24878 z M 278,214.14941 c 0,-1.11026 0.66499,-5.17992 1.47776,-9.04368 5.384,-25.59463 7.88968,-68.2354 5.61805,-95.60573 C 282.52916,78.575048 276.69786,49.224907 268.02169,23.562412 266.35976,18.646739 265,14.5042 265,14.356771 c 0,-0.583889 8.50941,2.785742 16.54897,6.553206 33.81109,15.844414 64.62656,43.769609 84.37109,76.457684 C 368.71403,101.99321 371,106.53675 371,107.4644 c 0,3.86328 -19.03553,33.14989 -32.75593,50.39576 -13.38962,16.8301 -38.32325,41.32815 -55.99407,55.01587 -3.84255,2.97642 -4.25,3.0985 -4.25,1.27338 z M 3,173.05105 C 3,169.18355 8.6319064,145.8318 11.979189,135.82037 21.784877,106.4924 37.122813,81.790313 59.212541,59.75 66.849647,52.129978 70.677601,49 72.35976,49 c 3.709776,0 29.86322,9.229425 45.22589,15.959999 23.62866,10.352008 51.09413,27.110961 72.64592,44.327281 l 9.02905,7.21272 -12.38031,0.7572 C 139.46176,120.15741 104.02592,127.55118 66,142.47918 52.982219,147.58963 26.637212,160.54924 14.298202,167.91229 3.5754371,174.31088 3,174.5726 3,173.05105 Z M 253.36377,137.94326 C 241.90896,124.6483 217.50363,101.04826 204.5,90.691815 175.39616,67.512728 140.29697,47.662472 106.76693,35.419131 100.86375,33.263609 96.026245,31.194136 96.016933,30.820303 95.978342,29.271234 125.08698,15.752127 136.34388,12.09101 c 13.49465,-4.3889098 29.58955,-7.938799 39.97158,-8.8161248 4.21411,-0.3561099 6.31337,-0.8943223 5.5,-1.4100976 C 181.08392,1.400903 188.2681,1.0306255 198,1.0306255 c 11.66301,0 16.99969,0.3233276 16,0.9693745 -1.11355,0.7196285 -0.51908,0.9733196 2.30737,0.9846872 5.91281,0.023781 18.06646,2.1633414 19.32219,3.4015288 0.62126,0.6125812 2.59886,4.938784 4.39466,9.613784 14.34501,37.344353 22.60011,81.833131 21.79214,117.44326 L 261.5,147.38653 Z"
       style="fill:#f3ca3a" />
    <path
       id="path3773"
       d="M 172.4278,392.99432 C 158.65328,390.90819 143.91465,387.35278 133,383.48311 115.49073,377.27539 82.004986,358.78253 80.319261,354.3896 79.382896,351.94947 81.860311,328.17283 84.631864,313 c 4.776355,-26.14808 11.615592,-49.13049 21.533596,-72.36098 7.71332,-18.06655 11.80593,-26.09335 12.75303,-25.01236 0.42084,0.48034 2.02367,5.82334 3.56183,11.87334 14.37079,56.52405 45.1764,112.01498 85.26968,153.59844 5.6375,5.84703 10.25,11.08068 10.25,11.63034 0,2.79364 -27.80945,2.95567 -45.5722,0.26554 z m 57.54189,-19.7404 c -27.88037,-28.28181 -46.04303,-53.54663 -63.03558,-87.68447 -6.71541,-13.49118 -8.32204,-18.36873 -5.68411,-17.25629 0.6875,0.28992 6.2,2.75859 12.25,5.48593 50.33529,22.69117 109.27556,33.6449 163.11116,30.31334 9.83886,-0.60887 20.25134,-1.39593 23.13884,-1.74902 4.1267,-0.50463 5.24569,-0.34474 5.22987,0.7473 -0.0331,2.28224 -12.19802,18.54546 -21.05952,28.15431 -17.52382,19.00174 -37.32832,33.75435 -59.92035,44.6354 -12.82565,6.17725 -31.90224,13.09652 -36.12665,13.1035 -1.74265,0.003 -6.50044,-4.18259 -17.90366,-15.75 z M 292.5,282.97285 c -22.6404,-2.02217 -60.5,-9.14971 -60.5,-11.38988 0,-0.62238 4.33245,-3.28374 9.62766,-5.91413 52.33783,-25.99877 101.73507,-70.56126 135.42487,-122.1702 3.44225,-5.27312 6.59652,-9.23 7.0095,-8.79306 1.95495,2.06833 6.55834,21.21719 9.92717,41.29442 4.14471,24.70118 -0.42749,60.76793 -11.47274,90.5 -2.04321,5.5 -4.23717,10.55083 -4.87547,11.22407 -3.5801,3.77603 -61.5903,7.35225 -85.14099,5.24878 z M 3,173.05105 C 3,169.18355 8.6319064,145.8318 11.979189,135.82037 21.784877,106.4924 37.122813,81.790313 59.212541,59.75 66.849647,52.129978 70.677601,49 72.35976,49 c 3.709776,0 29.86322,9.229425 45.22589,15.959999 23.62866,10.352008 51.09413,27.110961 72.64592,44.327281 l 9.02905,7.21272 -12.38031,0.7572 C 139.46176,120.15741 104.02592,127.55118 66,142.47918 52.982219,147.58963 26.637212,160.54924 14.298202,167.91229 3.5754371,174.31088 3,174.5726 3,173.05105 Z M 253.36377,137.94326 C 241.90896,124.6483 217.50363,101.04826 204.5,90.691815 175.39616,67.512728 140.29697,47.662472 106.76693,35.419131 100.86375,33.263609 96.026245,31.194136 96.016933,30.820303 95.978342,29.271234 125.08698,15.752127 136.34388,12.09101 c 13.49465,-4.3889098 29.58955,-7.938799 39.97158,-8.8161248 4.21411,-0.3561099 6.31337,-0.8943223 5.5,-1.4100976 C 181.08392,1.400903 188.2681,1.0306255 198,1.0306255 c 11.66301,0 16.99969,0.3233276 16,0.9693745 -1.11355,0.7196285 -0.51908,0.9733196 2.30737,0.9846872 5.91281,0.023781 18.06646,2.1633414 19.32219,3.4015288 0.62126,0.6125812 2.59886,4.938784 4.39466,9.613784 14.34501,37.344353 22.60011,81.833131 21.79214,117.44326 L 261.5,147.38653 Z"
       style="fill:#a286c0" />
    <path
       id="path3771"
       d="m 239.54103,382.43895 c -19.0981,-16.65636 -42.72458,-45.8314 -59.04104,-72.90653 -7.14317,-11.85321 -20.49745,-37.84554 -20.49924,-39.89905 -0.001,-1.20606 1.72992,-0.59025 16.27362,5.78954 30.78909,13.50604 64.74636,22.73535 100.22563,27.2405 16.80574,2.13399 64.84905,2.46359 78.45265,0.53822 4.64895,-0.65798 8.82756,-0.82142 9.2858,-0.36318 1.93636,1.93636 -20.23756,29.47048 -32.54966,40.41803 C 315.10751,358.00007 302.7786,366.28481 283.5,375.63824 272.56379,380.94417 251.14548,389 247.97461,389 c -0.50089,0 -4.296,-2.95247 -8.43358,-6.56105 z M 292.5,282.97285 c -22.6404,-2.02217 -60.5,-9.14971 -60.5,-11.38988 0,-0.62238 4.33245,-3.28374 9.62766,-5.91413 52.33783,-25.99877 101.73507,-70.56126 135.42487,-122.1702 3.44225,-5.27312 6.59652,-9.23 7.0095,-8.79306 1.95495,2.06833 6.55834,21.21719 9.92717,41.29442 4.14471,24.70118 -0.42749,60.76793 -11.47274,90.5 -2.04321,5.5 -4.23717,10.55083 -4.87547,11.22407 -3.5801,3.77603 -61.5903,7.35225 -85.14099,5.24878 z M 3,173.05105 C 3,169.18355 8.6319064,145.8318 11.979189,135.82037 21.784877,106.4924 37.122813,81.790313 59.212541,59.75 66.849647,52.129978 70.677601,49 72.35976,49 c 3.709776,0 29.86322,9.229425 45.22589,15.959999 23.62866,10.352008 51.09413,27.110961 72.64592,44.327281 l 9.02905,7.21272 -12.38031,0.7572 C 139.46176,120.15741 104.02592,127.55118 66,142.47918 52.982219,147.58963 26.637212,160.54924 14.298202,167.91229 3.5754371,174.31088 3,174.5726 3,173.05105 Z M 253.36377,137.94326 C 241.90896,124.6483 217.50363,101.04826 204.5,90.691815 175.39616,67.512728 140.29697,47.662472 106.76693,35.419131 100.86375,33.263609 96.026245,31.194136 96.016933,30.820303 95.978342,29.271234 125.08698,15.752127 136.34388,12.09101 c 13.49465,-4.3889098 29.58955,-7.938799 39.97158,-8.8161248 4.21411,-0.3561099 6.31337,-0.8943223 5.5,-1.4100976 C 181.08392,1.400903 188.2681,1.0306255 198,1.0306255 c 11.66301,0 16.99969,0.3233276 16,0.9693745 -1.11355,0.7196285 -0.51908,0.9733196 2.30737,0.9846872 5.91281,0.023781 18.06646,2.1633414 19.32219,3.4015288 0.62126,0.6125812 2.59886,4.938784 4.39466,9.613784 14.34501,37.344353 22.60011,81.833131 21.79214,117.44326 L 261.5,147.38653 Z"
       style="fill:#f79835" />
    <path
       id="path3769"
       d="m 239.54103,382.43895 c -19.0981,-16.65636 -42.72458,-45.8314 -59.04104,-72.90653 -7.14317,-11.85321 -20.49745,-37.84554 -20.49924,-39.89905 -0.001,-1.20606 1.72992,-0.59025 16.27362,5.78954 30.78909,13.50604 64.74636,22.73535 100.22563,27.2405 16.80574,2.13399 64.84905,2.46359 78.45265,0.53822 4.64895,-0.65798 8.82756,-0.82142 9.2858,-0.36318 1.93636,1.93636 -20.23756,29.47048 -32.54966,40.41803 C 315.10751,358.00007 302.7786,366.28481 283.5,375.63824 272.56379,380.94417 251.14548,389 247.97461,389 c -0.50089,0 -4.296,-2.95247 -8.43358,-6.56105 z M 292.5,282.97285 c -22.6404,-2.02217 -60.5,-9.14971 -60.5,-11.38988 0,-0.62238 4.33245,-3.28374 9.62766,-5.91413 52.33783,-25.99877 101.73507,-70.56126 135.42487,-122.1702 3.44225,-5.27312 6.59652,-9.23 7.0095,-8.79306 1.95495,2.06833 6.55834,21.21719 9.92717,41.29442 4.14471,24.70118 -0.42749,60.76793 -11.47274,90.5 -2.04321,5.5 -4.23717,10.55083 -4.87547,11.22407 -3.5801,3.77603 -61.5903,7.35225 -85.14099,5.24878 z M 3,173.05105 C 3,169.18355 8.6319064,145.8318 11.979189,135.82037 21.784877,106.4924 37.122813,81.790313 59.212541,59.75 66.849647,52.129978 70.677601,49 72.35976,49 c 3.709776,0 29.86322,9.229425 45.22589,15.959999 23.62866,10.352008 51.09413,27.110961 72.64592,44.327281 l 9.02905,7.21272 -12.38031,0.7572 C 139.46176,120.15741 104.02592,127.55118 66,142.47918 52.982219,147.58963 26.637212,160.54924 14.298202,167.91229 3.5754371,174.31088 3,174.5726 3,173.05105 Z"
       style="fill:#f16b5e" />
    <path
       id="path3767"
       d="m 239.54103,382.43895 c -19.0981,-16.65636 -42.72458,-45.8314 -59.04104,-72.90653 -7.14317,-11.85321 -20.49745,-37.84554 -20.49924,-39.89905 -0.001,-1.20606 1.72992,-0.59025 16.27362,5.78954 30.78909,13.50604 64.74636,22.73535 100.22563,27.2405 16.80574,2.13399 64.84905,2.46359 78.45265,0.53822 4.64895,-0.65798 8.82756,-0.82142 9.2858,-0.36318 1.93636,1.93636 -20.23756,29.47048 -32.54966,40.41803 C 315.10751,358.00007 302.7786,366.28481 283.5,375.63824 272.56379,380.94417 251.14548,389 247.97461,389 c -0.50089,0 -4.296,-2.95247 -8.43358,-6.56105 z M 292.5,282.97285 c -22.6404,-2.02217 -60.5,-9.14971 -60.5,-11.38988 0,-0.62238 4.33245,-3.28374 9.62766,-5.91413 52.33783,-25.99877 101.73507,-70.56126 135.42487,-122.1702 3.44225,-5.27312 6.59652,-9.23 7.0095,-8.79306 1.95495,2.06833 6.55834,21.21719 9.92717,41.29442 4.14471,24.70118 -0.42749,60.76793 -11.47274,90.5 -2.04321,5.5 -4.23717,10.55083 -4.87547,11.22407 -3.5801,3.77603 -61.5903,7.35225 -85.14099,5.24878 z"
       style="fill:#25b0e4" />
    <path
       id="path3765"
       d="m 292.5,282.97285 c -22.6404,-2.02217 -60.5,-9.14971 -60.5,-11.38988 0,-0.62238 4.33245,-3.28374 9.62766,-5.91413 52.33783,-25.99877 101.73507,-70.56126 135.42487,-122.1702 3.44225,-5.27312 6.59652,-9.23 7.0095,-8.79306 1.95495,2.06833 6.55834,21.21719 9.92717,41.29442 4.14471,24.70118 -0.42749,60.76793 -11.47274,90.5 -2.04321,5.5 -4.23717,10.55083 -4.87547,11.22407 -3.5801,3.77603 -61.5903,7.35225 -85.14099,5.24878 z"
       style="fill:#93cb4f" />
  </g>
</svg>
