<?xml version="1.0" encoding="UTF-8"?>
<svg width="13px" height="13px" viewBox="0 0 60 60" version="1.1" xmlns="http://www.w3.org/2000/svg" xmlns:xlink="http://www.w3.org/1999/xlink">
    <!-- Generator: Sketch 51.1 (57501) - http://www.bohemiancoding.com/sketch -->
    <title>Model Arts logo 60</title>
    <desc>Created with Sketch.</desc>
    <defs></defs>
    <g id="Model-Arts-logo-16" stroke="none" stroke-width="1" fill="none" fill-rule="evenodd">
        <g id="Group" transform="translate(2.000000, 10.000000)" fill-rule="nonzero">
            <path d="M20.0498186,22.9937795 L4.49509806,36.0224549 C4.09142246,35.6680963 3.67991986,35.4095438 3.26059028,35.2467974 C2.6315959,35.0026779 1.48337361,35.1719523 1.5684752,34.8866008 C3.65044222,27.9056219 6.72613087,17.5926258 10.7955412,3.94761259 C10.9245699,3.51497044 11.4762536,3.64558491 12.4505923,4.339456 C12.4559583,4.32146337 13.0733305,3.94513196 14.3027089,3.21046176 L27.8357569,14.8446839 L40.7043781,4.06589249 C40.8785002,3.66823808 41.0090918,3.36999728 41.0961528,3.17117007 C41.2220874,2.88356468 41.9745483,4.69488785 42.7985059,4.78608973 C43.7414605,4.89046311 44.7677846,3.32190135 44.8798487,3.71432479 C48.7930255,17.4173963 51.7534705,27.7842138 53.7611837,34.8147772 C53.9184613,35.3655281 53.5184881,35.4686533 52.5612643,35.1241527 L51.0066576,36.40978 L35.2080134,22.8278482 C32.6906511,28.5769182 30.8026294,32.8887207 29.5439483,35.7632557 C29.196888,36.5558607 29.2301038,34.9533033 28.0407445,35.0283634 C26.8513853,35.1034235 25.7974642,36.4412532 25.6136928,36.0112929 C24.3772763,33.1185121 22.5226516,28.779341 20.0498186,22.9937795 Z M33.2326288,21.1296303 L27.8253059,16.4810106 L22.0443403,21.3231628 L27.5290108,34.1553673 L33.2326288,21.1296303 Z M42.7985059,5.49292855 L35.7314216,21.6325055 L51.2066606,34.9364092 L42.7985059,5.49292855 Z M39.5789372,6.63613761 L28.79468,15.6690602 L33.756037,19.9342877 L39.5789372,6.63613761 Z M26.8663828,15.6566342 L15.4144362,5.81151357 L21.5320822,20.1246587 L26.8663828,15.6566342 Z M12.783594,5.99336357 L4.2527493,34.597874 L19.5375605,21.7952753 L12.783594,5.99336357 Z" id="Combined-Shape" fill="#AFB1B3"></path>
            <ellipse id="Oval-2-Copy-5" stroke="#AFB1B3" stroke-width="1.25" cx="42.973262" cy="2.30815468" rx="2.2459893" ry="2.30815468"></ellipse>
            <path d="M12.4278075,4.61630936 C13.6682331,4.61630936 14.6737968,3.58291331 14.6737968,2.30815468 C14.6737968,1.03339605 13.6682331,0 12.4278075,0 C11.1873818,0 10.1818182,1.03339605 10.1818182,2.30815468 C10.1818182,3.58291331 11.1873818,4.61630936 12.4278075,4.61630936 Z" id="Oval-2-Copy-6" stroke="#AFB1B3" stroke-width="1.25"></path>
            <ellipse id="Oval-2-Copy-11" stroke="#AFB1B3" stroke-width="1.25" cx="27.7005348" cy="37.1468644" rx="2.2459893" ry="2.30815468"></ellipse>
            <ellipse id="Oval-2-Copy-13" stroke="#AFB1B3" stroke-width="1.25" cx="2.2459893" cy="37.1468644" rx="2.2459893" ry="2.30815468"></ellipse>
            <ellipse id="Oval-2-Copy-12" stroke="#AFB1B3" stroke-width="1.25" cx="53.1550802" cy="37.1468644" rx="2.2459893" ry="2.30815468"></ellipse>
        </g>
    </g>
</svg>