<svg version="1.1"
	 height="40" width="40"
	 xmlns="http://www.w3.org/2000/svg"
	 xmlns:xlink="http://www.w3.org/1999/xlink">
	<defs>
		<clipPath id="leaf-clip">
			<circle cx="24%" cy="32.50%" r="40.62%"/>
		</clipPath>
		<circle id="leaf" cx="76%" cy="32.50%" r="40.62%" clip-path="url(#leaf-clip)"/>

		<clipPath id="double-clip">
			<use xlink:href="#leaf" transform="rotate(45, 20, 20)" />
			<use xlink:href="#leaf" transform="rotate(-45, 20, 20)" />
		</clipPath>

		<use id="leaf-tip" xlink:href="#leaf" clip-path="url(#double-clip)"/>

	</defs>

	<use xlink:href="#leaf" fill="#8ECCEB" transform="rotate(22.5, 20, 20)" />
	<use xlink:href="#leaf" fill="#8ECCEB" transform="rotate(112.5, 20, 20)" />
	<use xlink:href="#leaf" fill="#8ECCEB" transform="rotate(157.5, 20, 20)" />
	<use xlink:href="#leaf" fill="#8ECCEB" transform="rotate(202.5, 20, 20)" />
	<use xlink:href="#leaf" fill="#8ECCEB" transform="rotate(247.5, 20, 20)" />
	<use xlink:href="#leaf" fill="#8ECCEB" transform="rotate(337.5, 20, 20)" />

	<use xlink:href="#leaf-tip" fill="#54B2E0" transform="rotate(22.5, 20, 20)" />
	<use xlink:href="#leaf-tip" fill="#54B2E0" transform="rotate(112.5, 20, 20)" />
	<use xlink:href="#leaf-tip" fill="#54B2E0" transform="rotate(157.5, 20, 20)" />
	<use xlink:href="#leaf-tip" fill="#54B2E0" transform="rotate(202.5, 20, 20)" />
	<use xlink:href="#leaf-tip" fill="#54B2E0" transform="rotate(247.5, 20, 20)" />
	<use xlink:href="#leaf-tip" fill="#54B2E0" transform="rotate(337.5, 20, 20)" />

	<use xlink:href="#leaf" fill="#1498D6" transform="rotate(67.5, 20, 20)" />
	<use xlink:href="#leaf" fill="#1498D6" transform="rotate(292.5, 20, 20)" />

	<path d="M432,32H80A64.07,64.07,0,0,0,16,96V416a64.07,64.07,0,0,0,64,64H432a64.07,64.07,0,0,0,64-64V96A64.07,64.07,0,0,0,432,32Z"
		  transform="translate(18, 18) scale(0.5, 0.5) scale(0.0741, 0.0781) translate(10, 0)"/>

	<path d="M96,256a16,16,0,0,1-10-28.49L150.39,176,86,124.49a16,16,0,1,1,20-25l80,64a16,16,0,0,1,0,25l-80,64A16,16,0,0,1,96,256Zm160,0H192a16,16,0,0,1,0-32h64a16,16,0,0,1,0,32Z"
		  fill="white"
		  transform="translate(18, 18) scale(0.5, 0.5) scale(0.0741, 0.0781) translate(10, 0)"/>

</svg>

