<svg viewBox="0 0 36 36" xmlns="http://www.w3.org/2000/svg"><ellipse cx="17.7" cy="16.99" fill="#fff" rx="11.95" ry="15.99"/><g fill="#002147"><path d="m18.77 15.22c-.22.21-.29.47-.17.6s1.17.85 1.38.64-.48-1.26-.6-1.38-.38-.08-.61.14z"/><path d="m12.76 18.15a.08.08 0 0 0 .09 0 11.85 11.85 0 0 1 .54-1.24 3.41 3.41 0 0 1 .72-1 2.72 2.72 0 0 1 1-.6 8.1 8.1 0 0 1 1.36-.31.07.07 0 0 0 .05 0 .07.07 0 0 0 0-.09 3 3 0 0 0 -1.52-.3 2.63 2.63 0 0 0 -2.28 2 2.73 2.73 0 0 0 0 1.5.08.08 0 0 0 .04.04z"/><path d="m21.74 12.55a2.68 2.68 0 0 0 .72-2.74 1.48 1.48 0 0 1 -.46 1.09 1.51 1.51 0 0 1 -2.12 0 1.46 1.46 0 0 1 0-2.09 1.51 1.51 0 0 1 1.56-.32 2.76 2.76 0 0 0 -3.44.18 2.66 2.66 0 0 0 -.07 3.8 2.75 2.75 0 0 0 3.81.08z"/><path d="m18 1a17 17 0 1 0 17 17 17 17 0 0 0 -17-17zm-9.45 14.31c-1.87-.9-1.78-1.71-1.78-1.71a3.64 3.64 0 0 1 2.43-.73 22.86 22.86 0 0 0 1.8-1.87 2.52 2.52 0 0 1 3.47-.49 2.42 2.42 0 0 1 .64-3.39c1.09-.86 1.89-1.63 1.89-1.63a3.49 3.49 0 0 1 .84-2.36s.83-.06 1.66 1.83a7.23 7.23 0 0 1 3.1 1.88c3 3.08 2.69 8.18-.7 11.38a9 9 0 0 1 -4.38 2.3 5.69 5.69 0 0 0 -.83-1.08l-.27-.25h-.36a6.56 6.56 0 0 0 -3.43.85 7.24 7.24 0 0 1 -2.28-1.58 7.1 7.1 0 0 1 -1.8-3.15zm3.27 14.57a7.11 7.11 0 0 0 -.63-7.37 5.83 5.83 0 0 1 4.81-2.4 5.52 5.52 0 0 1 1 6.11 5.82 5.82 0 0 1 -5.18 3.66zm15-7.86a13.25 13.25 0 0 1 -9 11 9.58 9.58 0 0 1 -3.29-2.86 6.76 6.76 0 0 0 3.31-3.56 6.45 6.45 0 0 0 .07-5.26 9.14 9.14 0 0 0 7.37-7.61 13.38 13.38 0 0 1 1.55 8.27z"/></g></svg>