<svg width="13" height="13" viewBox="0 0 13 13" fill="none" xmlns="http://www.w3.org/2000/svg">
<path d="M8.91479 7.6167C8.91865 6.63467 8.12568 5.83545 7.14365 5.83159C6.16162 5.82774 5.3624 6.62071 5.35854 7.60274C5.35469 8.58477 6.14766 9.38399 7.12969 9.38784C8.11172 9.3917 8.91093 8.59873 8.91479 7.6167Z" fill="#40407D"/>
<path d="M11.2435 5.23947C10.4954 3.94111 9.22385 3.13256 7.84832 2.9212L7.44237 2.22002L8.01271 1.23366C7.86845 1.10618 7.71076 0.992107 7.53966 0.894814C7.36185 0.79081 7.18068 0.710291 6.9928 0.649902L6.08697 2.22337L6.48621 2.91785C6.08026 2.97488 5.68102 3.08224 5.29185 3.24999L4.3793 1.66981C4.19813 1.7302 4.02032 1.81071 3.84922 1.91136C3.67141 2.01537 3.51037 2.13279 3.36275 2.26363L4.27194 3.8371C3.9398 4.08872 3.64792 4.37725 3.40301 4.69261L3.00377 4.0015H1.18539C1.14513 4.19273 1.125 4.39402 1.125 4.59868C1.125 4.79662 1.14513 4.99121 1.18203 5.17908H2.31936L2.72196 5.88027C2.21871 7.17192 2.28246 8.67829 3.03061 9.98001C4.23839 12.0701 6.79822 12.8921 8.96887 11.9829L8.06974 10.4229C6.76467 10.8557 5.28849 10.3289 4.57389 9.09095C3.75528 7.67516 4.24175 5.86014 5.65754 5.04488C7.07332 4.22628 8.88835 4.71274 9.7036 6.12853C10.4216 7.37322 10.1364 8.91985 9.09636 9.83239L9.99548 11.3891C11.881 9.96995 12.4547 7.33296 11.2435 5.23947Z" fill="#40407D"/>
</svg>
