<?xml version="1.0" encoding="iso-8859-1"?>
<svg version="1.1" id="Layer_1" xmlns="http://www.w3.org/2000/svg" x="0px" y="0px" width="40px" height="40px"
     viewBox="-35 0 582 512" style="enable-background:new 0 0 512 512;" xml:space="preserve">
<g>
	<g fill="#2684ff">
		<path d="M495.66,239.66h-8.69c-7.861-49.447-50.791-87.367-102.416-87.367c-34.264,0-64.695,16.708-83.589,42.398
			c-28.282-13.648-61.585-13.678-89.93,0.001c-18.894-25.692-49.325-42.399-83.59-42.399c-51.625,0-94.555,37.92-102.416,87.367
			H16.34C7.316,239.66,0,246.976,0,256c0,9.024,7.316,16.34,16.34,16.34h8.69c7.861,49.447,50.792,87.367,102.416,87.367
			c57.184,0,103.707-46.523,103.707-103.707c0-11.253-1.808-22.09-5.139-32.244c18.532-8.653,40.651-9.021,59.97,0
			c-3.33,10.154-5.139,20.991-5.139,32.244c0,57.184,46.523,103.707,103.707,103.707c51.625,0,94.556-37.92,102.416-87.367h8.689
			c9.024,0,16.34-7.316,16.34-16.34C512,246.976,504.684,239.66,495.66,239.66z M127.445,327.026
			c-39.164,0-71.026-31.863-71.026-71.026c0-39.164,31.863-71.026,71.026-71.026s71.026,31.863,71.026,71.026
			C198.472,295.164,166.609,327.026,127.445,327.026z M384.555,327.026c-39.164,0-71.026-31.863-71.026-71.026
			c0-39.164,31.863-71.026,71.026-71.026c39.164,0,71.026,31.863,71.026,71.026C455.581,295.164,423.718,327.026,384.555,327.026z"
    />
	</g>
</g>
</svg>
