<svg width="40" height="40" viewBox="0 0 40 40" fill="none" xmlns="http://www.w3.org/2000/svg">
<path d="M40 6.66667C40 2.98477 37.0153 0 33.3333 0H6.66667C2.98477 0 0 2.98477 0 6.66667V33.3333C0 37.0153 2.98477 40 6.66667 40H33.3333C37.0153 40 40 37.0153 40 33.3333V6.66667Z" fill="#64AB75"/>
<path d="M6.74193 17.495C7.43193 17.625 7.99193 17.88 8.42193 18.26C8.86193 18.64 9.08193 19.21 9.08193 19.97C9.08193 21.08 8.68193 21.865 7.88193 22.325C7.09193 22.775 5.98193 23 4.55193 23H1.20693V12.605H4.14693C5.60693 12.605 6.72193 12.815 7.49193 13.235C8.26193 13.645 8.64693 14.32 8.64693 15.26C8.64693 15.87 8.46193 16.365 8.09193 16.745C7.73193 17.115 7.28193 17.365 6.74193 17.495ZM3.66693 14.345V16.76H4.58193C5.62193 16.76 6.14193 16.34 6.14193 15.5C6.14193 15.08 6.00193 14.785 5.72193 14.615C5.44193 14.435 4.99693 14.345 4.38693 14.345H3.66693ZM4.56693 21.215C5.21693 21.215 5.70693 21.12 6.03693 20.93C6.37693 20.73 6.54693 20.365 6.54693 19.835C6.54693 18.875 5.94693 18.395 4.74693 18.395H3.66693V21.215H4.56693ZM13.8247 12.605C15.1947 12.605 16.2597 12.89 17.0197 13.46C17.7797 14.03 18.1597 14.875 18.1597 15.995C18.1597 17.165 17.7847 18.05 17.0347 18.65C16.2947 19.24 15.2997 19.535 14.0497 19.535H12.9247V23H10.4647V12.605H13.8247ZM13.8397 17.765C14.4197 17.765 14.8597 17.63 15.1597 17.36C15.4697 17.08 15.6247 16.625 15.6247 15.995C15.6247 14.905 15.0147 14.36 13.7947 14.36H12.9247V17.765H13.8397ZM29.3248 23H26.9098L26.7298 18.935C26.6798 17.965 26.6548 17.1 26.6548 16.34C26.6548 15.76 26.6698 15.21 26.6998 14.69L25.0948 21.905H22.7698L21.0598 14.69C21.1198 15.56 21.1498 16.38 21.1498 17.15C21.1498 17.73 21.1348 18.335 21.1048 18.965L20.9248 23H18.5248L19.3048 12.605H22.4098L23.9698 19.655L25.4248 12.605H28.5448L29.3248 23ZM38.8068 23H35.6718L32.6718 14.945C32.7718 15.735 32.8468 16.435 32.8968 17.045C32.9568 17.645 32.9868 18.36 32.9868 19.19V23H30.7968V12.605H33.8568L36.9318 20.675C36.7118 19.305 36.6018 18.015 36.6018 16.805V12.605H38.8068V23Z" fill="white"/>
<rect x="1" y="27" width="38" height="3" fill="white"/>
</svg>
