<?xml version="1.0" encoding="utf-8"?>
<svg version="1.1" id="Capa_1" x="0px" y="0px" viewBox="0 0 40 40" style="enable-background:new 0 0 58.415 58.415;" width="40px" height="40px" xmlns="http://www.w3.org/2000/svg">
  <g transform="matrix(0.9, 0, 0, 0.9, 0.2, 0.2)">
    <path d="M 33.099 23.754 C 28.19 23.754 24.196 27.847 24.196 32.877 C 24.196 37.907 28.19 42 33.099 42 C 38.007 42 42 37.907 42 32.877 C 42 27.847 38.007 23.754 33.099 23.754 Z M 33.099 40.596 C 28.945 40.596 25.566 37.134 25.566 32.877 C 25.566 28.62 28.945 25.158 33.099 25.158 C 37.252 25.158 40.63 28.62 40.63 32.877 C 40.63 37.134 37.252 40.596 33.099 40.596 Z" style="fill: rgb(240, 81, 51);"/>
    <path d="M 37.207 32.176 L 33.783 32.176 L 33.783 28.666 C 33.783 28.279 33.476 27.965 33.099 27.965 C 32.72 27.965 32.414 28.279 32.414 28.666 L 32.414 32.176 L 28.989 32.176 C 28.612 32.176 28.304 32.489 28.304 32.877 C 28.304 33.265 28.612 33.58 28.989 33.58 L 32.414 33.58 L 32.414 37.088 C 32.414 37.476 32.72 37.789 33.099 37.789 C 33.476 37.789 33.783 37.476 33.783 37.088 L 33.783 33.58 L 37.207 33.58 C 37.584 33.58 37.892 33.265 37.892 32.877 C 37.892 32.489 37.584 32.176 37.207 32.176 Z" style="fill: rgb(240, 81, 51);"/>
    <polygon points="2 23.903 19.22 41.588 23.425 37.291 6.187 19.624" style="fill: rgb(240, 81, 51);"/>
    <path d="M 22.141 32.877 C 22.141 26.687 27.058 21.649 33.099 21.649 C 34.743 21.649 36.299 22.033 37.7 22.7 L 40.63 19.704 L 40.63 9.781 L 33.02 2 L 23.429 2 L 7.157 18.633 L 22.203 34.053 C 22.164 33.666 22.141 33.274 22.141 32.877 Z M 31.055 8.316 C 32.54 8.316 33.748 9.555 33.748 11.078 C 33.748 12.601 32.54 13.839 31.055 13.839 C 29.569 13.839 28.36 12.601 28.36 11.078 C 28.36 9.555 29.569 8.316 31.055 8.316 Z" style="fill: rgb(240, 81, 51);"/>
  </g>
  <g/>
  <g/>
  <g/>
  <g/>
  <g/>
  <g/>
  <g/>
  <g/>
  <g/>
  <g/>
  <g/>
  <g/>
  <g/>
  <g/>
  <g/>
</svg>