<?xml version="1.0" encoding="utf-8"?>
<svg viewBox="0 0 40 40" xmlns="http://www.w3.org/2000/svg">
  <rect width="36" height="36" style="fill: rgb(114, 203, 189);" x="2" y="2"/>
  <ellipse style="stroke: rgb(0, 0, 0); fill: rgb(255, 255, 255);" cx="19.733" cy="20.319" rx="16.96" ry="17.248"/>
  <g transform="matrix(0.03125, 0, 0, -0.03125, -0.062289, 40.564892)" fill="#000000" stroke="none" style="">
    <path d="M797 1263 c-9 -3 -24 -17 -32 -33 l-14 -28 -88 5 c-56 3 -113 0 -156 -10 l-69 -14 -24 39 c-13 21 -28 38 -33 38 -40 0 -71 -48 -64 -97 5 -29 -2 -39 -70 -105 -249 -243 -234 -646 33 -857 27 -22 55 -41 62 -44 11 -4 10 -7 0 -15 -9 -6 -11 -18 -6 -35 7 -32 41 -36 84 -10 26 15 30 15 69 -5 23 -12 49 -22 59 -22 9 0 26 -7 36 -15 11 -8 28 -15 38 -15 9 0 22 -9 28 -20 14 -27 67 -27 96 1 18 17 26 19 43 10 47 -26 85 7 90 77 0 10 29 36 65 60 238 156 324 471 199 731 -44 92 -151 204 -231 240 -45 21 -54 30 -64 65 -13 49 -27 64 -51 59z m-62 -94 c10 -15 -14 -67 -34 -74 -9 -3 -61 -6 -116 -6 -92 -2 -100 0 -117 21 -25 31 -19 42 33 56 56 15 226 18 234 3z m194 -75 c113 -76 194 -189 226 -314 23 -87 17 -232 -13 -315 -38 -103 -139 -232 -214 -271 -27 -14 -27 -14 -22 19 2 17 6 43 8 57 2 14 -3 45 -10 70 -12 36 -12 58 -3 111 7 41 9 88 4 125 -5 32 -7 64 -6 69 2 6 0 7 -4 3 -4 -4 -19 7 -32 23 l-25 30 17 56 c19 60 22 152 7 193 -7 19 -5 31 10 51 19 25 19 30 5 78 -8 28 -12 51 -8 51 3 0 30 -16 60 -36z m-611 -26 c1 -7 4 -29 6 -48 2 -19 7 -43 11 -53 4 -10 3 -29 -4 -43 -24 -53 -6 -144 39 -201 14 -18 17 -35 13 -87 -5 -57 -3 -66 15 -77 l20 -13 -20 -27 c-12 -15 -20 -40 -20 -56 5 -103 2 -255 -6 -268 -7 -14 -16 -10 -61 23 -146 110 -217 264 -209 452 7 149 59 264 165 366 26 24 47 44 48 44 1 0 2 -6 3 -12z m351 -22 c9 -10 7 -30 -6 -82 l-18 -69 -62 -3 -63 -3 1 73 c1 40 5 79 11 86 15 17 122 16 137 -2z m54 -241 c65 -48 114 -159 82 -185 -8 -7 -25 -10 -37 -6 -23 5 -188 152 -188 167 0 4 10 9 22 11 13 2 32 17 43 34 15 23 23 28 30 19 6 -7 27 -25 48 -40z m-189 -18 c16 -11 14 -17 -19 -77 -20 -36 -41 -77 -48 -92 -12 -29 -32 -42 -49 -32 -16 10 -1 101 23 142 44 73 60 83 93 59z m270 -208 l39 2 -6 -88 c-3 -48 -12 -103 -20 -122 -14 -34 -28 -31 -23 5 5 32 -22 74 -47 74 -25 0 -28 -5 -72 -153 -14 -48 -28 -87 -30 -87 -2 0 -9 17 -15 38 -17 50 -38 72 -69 72 -36 0 -68 24 -91 70 -48 93 1 149 130 150 20 0 56 11 80 24 25 13 54 21 65 19 11 -3 38 -5 59 -4z" style=""/>
  </g>
  <path stroke-width="0" d="M 13.417 10.109 C 13.725 10.101 14.008 10.108 14.248 10.163 C 14.473 10.214 14.679 10.313 14.824 10.417 C 14.962 10.515 15.058 10.643 15.108 10.764 C 15.157 10.884 15.184 11.003 15.126 11.139 C 15.055 11.305 14.873 11.548 14.627 11.687 C 14.37 11.833 13.965 11.927 13.596 11.982 C 13.213 12.038 12.709 12.054 12.364 12.009 C 12.064 11.969 11.798 11.903 11.611 11.768 C 11.398 11.613 11.206 11.307 11.219 11.086 C 11.23 10.871 11.463 10.599 11.657 10.457 C 11.814 10.341 11.979 10.298 12.221 10.243 C 12.531 10.172 13.06 10.119 13.417 10.109 Z" style="stroke-width: 2px; paint-order: fill; fill: rgb(114, 203, 189);" transform="matrix(0.994024, -0.109161, 0.109161, 0.994024, -1.12967, 1.505839)"/>
  <path stroke-width="0" d="M 23.754 9.418 C 24.062 9.41 24.346 9.417 24.588 9.471 C 24.818 9.523 25.03 9.621 25.182 9.725 C 25.327 9.822 25.43 9.95 25.49 10.071 C 25.546 10.189 25.583 10.309 25.534 10.444 C 25.474 10.609 25.309 10.851 25.073 10.99 C 24.825 11.135 24.427 11.229 24.061 11.283 C 23.682 11.339 23.179 11.355 22.831 11.31 C 22.529 11.27 22.258 11.205 22.062 11.07 C 21.838 10.916 21.625 10.611 21.623 10.391 C 21.62 10.177 21.834 9.906 22.018 9.765 C 22.167 9.649 22.329 9.606 22.567 9.551 C 22.873 9.481 23.398 9.428 23.754 9.418 Z" style="stroke-width: 2px; paint-order: fill; fill: rgb(114, 203, 189);" transform="matrix(-0.940769, 0.339047, -0.339047, -0.940769, 49.300385, 12.138662)"/>
</svg>