<?xml version="1.0" standalone="no"?><!DOCTYPE svg PUBLIC "-//W3C//DTD SVG 1.1//EN" "http://www.w3.org/Graphics/SVG/1.1/DTD/svg11.dtd"><svg t="1667050270400" class="icon" viewBox="0 0 1024 1024" version="1.1" xmlns="http://www.w3.org/2000/svg" p-id="3720" width="40" height="40" xmlns:xlink="http://www.w3.org/1999/xlink"><path d="M93.328 887.904a381.336 81.488 0 1 0 762.672 0 381.336 81.488 0 1 0-762.672 0Z" fill="#B8CBCD" p-id="3721"></path><path d="M614.528 837.8C553.608 898.72 522.88 757.472 490.08 724.664c-32.808-32.8-32.64-63.528 28.288-124.448 60.92-60.92 136.904-83.712 169.704-50.912 32.8 32.8-12.616 227.576-73.544 288.496z" fill="#B2EDA6" p-id="3722"></path><path d="M585.32 868.872c-37.016 0-59.744-46.12-79.8-86.808-9.24-18.744-18.792-38.128-26.752-46.088-13.608-13.608-31.048-35.232-25.432-65.88 4.264-23.272 20.832-48.312 53.712-81.192 43.544-43.544 97.104-70.6 139.776-70.6 21.504 0 39.68 6.808 52.552 19.688 28.424 28.416 11.288 113.552 2.6 148.84-13.6 55.24-40.744 126.88-76.144 162.28-13.096 13.112-26.736 19.76-40.512 19.76z m61.512-318.568c-33.976 0-79.96 24.032-117.152 61.224-27.248 27.248-41.92 48.296-44.864 64.344-1.68 9.168-0.84 20.064 16.576 37.48 11.696 11.696 21.488 31.56 32.832 54.568 13.536 27.464 33.992 68.96 51.096 68.96 6.208 0 13.16-5.648 17.896-10.384 25.328-25.328 51.904-83.152 67.696-147.304 16.952-68.864 13.624-110.792 5.848-118.568-6.848-6.848-16.92-10.32-29.928-10.32z" fill="#3C663E" p-id="3723"></path><path d="M111.072 332.936c-60.92 60.92 80.336 91.648 113.136 124.448 32.808 32.808 63.528 32.64 124.448-28.288 60.92-60.92 83.712-136.904 50.912-169.704-30.92-30.92-229.448 14.496-288.496 73.544z" fill="#B2EDA6" p-id="3724"></path><path d="M267.096 495.208c-0.008 0-0.008 0 0 0-24.816 0-42.816-15.136-54.192-26.512-7.96-7.96-27.344-17.512-46.088-26.752-39.712-19.576-80.784-39.816-86.232-72.824-2.664-16.128 3.792-32.112 19.184-47.504 48.864-48.872 180.84-88.224 257.536-88.224 26.176 0 43.712 4.808 53.584 14.68 20.224 20.216 25.088 52.264 13.704 90.216-10.36 34.544-33.312 70.816-64.616 102.112-37.896 37.912-66.544 54.808-92.88 54.808z m90.2-229.808c-68.792 0-193.184 37.128-234.912 78.848-7.68 7.68-11.128 14.304-10.24 19.664 2.776 16.784 40.944 35.6 68.816 49.336 23 11.336 42.872 21.128 54.568 32.832 11.856 11.848 21.592 17.144 31.568 17.144 16.704 0 39.688-14.856 70.256-45.424 27.624-27.624 47.72-59.12 56.592-88.68 7.728-25.768 5.664-47.056-5.68-58.392-0.064-0.072-5.608-5.328-30.968-5.328z" fill="#3C663E" p-id="3725"></path><path d="M295.376 754.312c-27.456 27.464-119.84 66.064-149.528 36.384-29.68-29.68 14.592-116.408 42.04-143.864 27.464-27.456 73.784-25.656 103.464 4.016 29.688 29.68 31.488 76 4.024 103.464z" fill="#F6E89A" p-id="3726"></path><path d="M178.704 825.4c-21.296 0-38.056-5.968-49.824-17.728-44.088-44.088 10.136-145.904 42.04-177.808 17.096-17.096 40.192-26.504 65.024-26.504 26.608 0 52.984 11.128 72.384 30.52 18.648 18.64 29.456 43.008 30.448 68.608 1.024 26.304-8.368 50.736-26.432 68.8-25.536 25.536-88.12 54.112-133.64 54.112z m57.24-174.04c-12.016 0-23.048 4.424-31.08 12.448-28.4 28.408-54.728 97.24-42.04 109.928 1.776 1.776 6.88 3.672 15.888 3.672 34.032 0 83.944-24.304 99.696-40.056 8.504-8.504 12.912-20.216 12.416-33-0.528-13.48-6.36-26.456-16.424-36.52-10.472-10.472-24.488-16.472-38.456-16.472z" fill="#8D4520" p-id="3727"></path><path d="M884.144 74.704C841.12 31.68 549.192 98.52 380.68 267.04 298.224 349.496 249.848 424.336 211.664 505.4c-14.064 23 6.688 101.136 73.664 168.112s132.44 82.184 150.728 63.888l3.664 0.264c81.056-38.184 169.624-77.04 252.08-159.496 184.52-184.512 229.112-466.696 192.344-503.464z" fill="#B2EDA6" p-id="3728"></path><path d="M413.592 760.552c-30.864 0-83.736-19.896-139.576-75.736-69.176-69.176-95.6-153.488-76.512-186.904 43.472-92.112 96.504-166.832 171.856-242.192C506.2 118.88 726.248 46 832.488 46c30.672 0 51.272 5.688 62.968 17.384 29.104 29.096 16.36 127.576-9.176 212.264-21.072 69.872-72.888 203.56-183.152 313.824-79.656 79.664-166.144 120.224-242.44 156.016l-14.136 6.64c-1.68 0.792-3.48 1.28-5.312 1.456-7.28 4.584-16.688 6.968-27.648 6.968zM832.488 78c-100.68 0-309.776 69.624-440.496 200.344-72.808 72.816-123.96 144.944-165.848 233.864a15.592 15.592 0 0 1-0.824 1.528c-7.52 12.296 5.328 82.44 71.328 148.448 45.84 45.84 91.768 66.36 116.952 66.36 6.856 0 10.24-1.552 11.16-2.472a16.16 16.16 0 0 1 11.936-4.672l10.408-4.888c77.528-36.368 157.704-73.976 233.4-149.672C785.824 461.52 835.44 333.4 855.648 266.4c30.48-101.08 27.448-170.136 17.192-180.4-1.352-1.32-9.584-8-40.352-8z" fill="#3C663E" p-id="3729"></path><path d="M225.408 584.4a24 24 0 0 1-21.696-34.232c27.848-59.128 89.072-172.824 186.152-269.904 76.24-76.24 188.616-142.336 308.328-181.344C785.72 70.4 868.608 52.064 904 87.456a24 24 0 0 1-33.904 33.976c-27.288-23.848-276.984 23.464-446.28 192.768C331.88 406.144 273.664 514.32 247.136 570.624a23.992 23.992 0 0 1-21.728 13.776z" fill="#FFFFFF" p-id="3730"></path><path d="M378.68 748.736a24 24 0 0 1-10.488-45.6l46.856-22.504c76.904-36.08 156.432-73.376 231.144-148.088 77.352-77.352 135.168-168.504 162.808-256.672 25.536-81.448 15.328-124.896 8.712-131.504a23.984 23.984 0 0 1 0-33.936 23.984 23.984 0 0 1 33.936 0c27.952 27.952 29.16 96.848 3.152 179.808-29.92 95.408-91.952 193.52-174.672 276.24-80.656 80.656-167.808 121.528-244.696 157.6l-14.128 6.632-32.16 15.608a23.88 23.88 0 0 1-10.464 2.416z" fill="#3C663E" p-id="3731"></path><path d="M583.296 877.968h-0.008c-41.024-0.008-64.792-44.576-85.76-83.896-7.584-14.216-15.392-28.856-21.88-36.864a180.456 180.456 0 0 1-38.184 9.32 127.92 127.92 0 0 1-16.512 1.04c-29.712 0-89.568-10.016-156.64-77.088-70.52-70.512-97.288-157.4-81.664-197.464 0.2-0.504 0.416-1.008 0.648-1.504 2.568-5.448 4.376-10.408 6.296-15.656 0.808-2.232 1.664-4.544 2.592-6.968-8.624-5.912-21.656-12.664-34.36-19.248-37.592-19.488-80.208-41.568-85.888-78.28-2.952-19.08 4.512-37.72 22.184-55.392 57.592-57.6 209.992-100.152 275.328-88.536C514.336 98.264 726.464 38.008 826.928 38.008c33.912 0 56.848 6.456 70.12 19.728 53.064 53.056 9.368 335.384-159.8 519.136 5.392 73.968-49.56 221.712-105.752 277.896-15.384 15.392-31.608 23.2-48.2 23.2zM482.08 704.496a24 24 0 0 1 18.632 8.856c2.152 2.648 4.224 4.96 6.336 7.072 11.984 11.984 22.104 30.96 32.824 51.056 10.896 20.44 31.192 58.48 43.416 58.488 1.2 0 5.792-0.664 14.272-9.136 47.28-47.288 101.672-195.192 90.936-247.288a24 24 0 0 1 6.176-21.448c173.6-181.208 189.176-433.544 168.176-460.704-1.552-1.224-11.8-5.384-35.92-5.384-98.88 0-304.904 64.448-434.552 185.456a24.04 24.04 0 0 1-24.864 4.904c-2.88-1.096-9.784-2.92-23.6-2.92-61.448 0-175.4 36-215.864 76.464-6.936 6.944-9.032 11.84-8.68 14.112 1.96 12.648 40.064 32.4 60.544 43.008 21 10.888 40.848 21.168 53.064 33.392 1.464 1.456 2.92 2.8 4.368 4.096a24 24 0 0 1 5.192 29.256c-3.424 6.384-5.48 12.024-7.856 18.544-2 5.48-4.264 11.672-7.504 18.672-5.32 15.896 8.096 82.568 71.072 145.552 54.84 54.84 100.416 63.024 122.696 63.024 3.616 0 7.072-0.216 10.28-0.632a134.056 134.056 0 0 0 40.504-12.08 23.88 23.88 0 0 1 10.352-2.36z" fill="#3C663E" p-id="3732"></path><path d="M577.44 377.344m-92 0a92 92 0 1 0 184 0 92 92 0 1 0-184 0Z" fill="#FFFFFF" p-id="3733"></path><path d="M577.44 485.344a107.264 107.264 0 0 1-76.368-31.64c-42.112-42.112-42.112-110.624 0-152.736a107.288 107.288 0 0 1 76.368-31.632c28.848 0 55.968 11.232 76.368 31.632 42.104 42.112 42.104 110.624 0 152.736a107.264 107.264 0 0 1-76.368 31.64z m0-184a75.52 75.52 0 0 0-53.744 22.256c-29.632 29.632-29.632 77.848 0 107.488a75.52 75.52 0 0 0 53.744 22.264 75.496 75.496 0 0 0 53.744-22.264c29.632-29.632 29.632-77.848 0-107.488a75.536 75.536 0 0 0-53.744-22.256z" fill="#3C663E" p-id="3734"></path><path d="M615.056 113.84C637.96 164.144 664 217.4 702.424 252.584c45.088 41.28 90.872 63.264 141.552 83.512 50.68-126.376 58.416-239.08 36.104-261.392-25.76-25.76-140.736-12.096-265.024 39.136z" fill="#FFFFFF" p-id="3735"></path><path d="M843.976 352.096c-1.976 0-3.984-0.368-5.936-1.144-55.232-22.064-101.272-45.232-146.416-86.568-40.528-37.112-67.24-91.44-91.128-143.912a15.992 15.992 0 0 1 8.472-21.424C689.52 65.84 771.584 46.016 828.48 46.016c30.648 0 51.224 5.68 62.92 17.376 31.168 31.16 16.56 156.168-32.56 278.664a16.04 16.04 0 0 1-14.864 10.04zM636.624 122.44c20.752 44.504 44.208 88.672 76.608 118.344 37.744 34.56 75.32 54.96 121.736 74.352 47.624-125.92 45.76-217.152 33.8-229.12-1.336-1.336-9.56-8-40.296-8-48.6 0-120.912 16.848-191.848 44.424z" fill="#3C663E" p-id="3736"></path></svg>