<?xml version="1.0" encoding="UTF-8"?>
<!DOCTYPE svg PUBLIC "-//W3C//DTD SVG 1.1//EN" "http://www.w3.org/Graphics/SVG/1.1/DTD/svg11.dtd">
<svg version="1.1" xmlns="http://www.w3.org/2000/svg" x="0" y="0" width="40" height="40" viewBox="0, 0, 40, 40">
  <g id="Layer_1">
    <path d="M6.667,0 L33.333,0 C37.015,0 40,2.985 40,6.667 L40,33.333 C40,37.015 37.015,40 33.333,40 L6.667,40 C2.985,40 0,37.015 0,33.333 L0,6.667 C0,2.985 2.985,0 6.667,0 z" fill="#FFFFFF"/>
    <path d="M12.707,34.984 C8.963,34.984 6.525,33.291 6.525,29.905 C6.525,19.153 24.114,5.947 32.735,5.947 C34.346,5.947 35.303,6.878 35.303,7.767 C35.303,11.111 29.556,14.878 26.596,15.386 C26.465,15.429 26.335,15.471 26.335,15.64 C26.335,15.894 27.38,16.571 28.424,16.571 C29.774,16.571 36,11.45 36,8.402 C36,6.709 34.65,4 31.516,4 C22.286,4 4,17.418 4,28.296 C4,32.529 8.746,36 12.882,36 C19.282,36 27.031,30.243 30.122,27.111 C30.122,27.111 30.558,26.688 30.558,26.603 C30.558,26.561 30.514,26.434 30.384,26.434 C30.297,26.434 30.122,26.603 30.122,26.603 C25.769,30.794 19.891,34.984 12.707,34.984 z" fill="#000000"/>
  </g>
</svg>
