<?xml version="1.0" encoding="UTF-8" standalone="no"?>
<svg xmlns="http://www.w3.org/2000/svg" width="40" height="40" viewBox="0 0 10.583333 10.583334" version="1.1" id="svg166">
  <g id="layer1">
    <path
       d="M 5.2493878,7.8250499 C 5.429214,7.9023564 5.6868303,7.541704 5.6868303,7.541704 c 0.1545729,-0.219257 0.3349056,0 0.3349056,0 0.2060954,0.258077 0.2571163,0.9784375 0.2571163,0.9784375 0.2060953,0.4298505 0.618285,0 0.618285,0 C 7.8498055,7.3366087 7.5916731,5.7141062 7.5916731,5.7141062 7.6634261,5.4817427 7.8235368,5.3276739 7.8235368,5.3276739 9.5233347,2.6757184 9.0080693,1.2077957 9.0080693,1.2077957 c 0,0 -0.016162,-0.85974153 -0.8955773,-0.61323556 0,0 -1.5553143,0.003022 -3.4899805,2.48829466 0,0 -0.132848,0.2495354 -0.2864115,0.3470293 0,0 -1.6154214,0.2975242 -2.4150489,1.5901636 0,0 -0.3278321,0.5142266 0.2050857,0.5824196 0,0 0.6975895,-0.1909383 1.0087536,-0.082843 0,0 0.2485248,0.1045643 0.1111272,0.3157123 0,0 -0.1909382,0.3344005 -0.057587,0.4783505"
       fill="#2687ff"
       id="path142"
       style="stroke-width:0.555361" />
    <path
       d="M 6.9734272,1.8856822 C 6.4076739,1.9715578 6.0177097,2.5004351 6.1040851,3.0666882 6.18895,3.6324413 6.7173218,4.0219003 7.2835806,3.9360247 7.849861,3.8511652 8.2397811,3.3217826 8.1534221,2.7570404 8.0685628,2.1902817 7.5396912,1.8008229 6.9734272,1.8856822 Z"
       fill="#ffffff"
       id="path144"
       style="stroke-width:0.555361" />
    <path
       d="m 7.163872,3.4627169 c -0.3093867,0 -0.5601939,-0.2508072 -0.5601939,-0.5601939 0,-0.3093868 0.2508072,-0.560194 0.5601939,-0.560194 0.3093977,0 0.5601996,0.2508072 0.5601996,0.560194 0,0.3093867 -0.2508019,0.5601939 -0.5601996,0.5601939 z"
       fill="#1a2c35"
       id="path146"
       style="stroke-width:0.555361" />
    <path
       d="m 6.992115,2.8848403 c -0.1648748,0 -0.2985348,-0.1336579 -0.2985348,-0.2985349 0,-0.1648771 0.1336592,-0.2985352 0.2985348,-0.2985352 0.1648771,0 0.2985351,0.1336579 0.2985351,0.2985352 0,0.1648748 -0.1336578,0.2985349 -0.2985351,0.2985349 z"
       fill="#fefefe"
       id="path148"
       style="stroke-width:0.555361" />
    <path
       d="m 4.2926539,7.5921864 c 0,0 0.5596944,0.9229013 -0.8824706,1.7245668 L 2.0660212,10.020397 2.2882806,8.7045218 c 0,0 0.092439,-1.7609433 1.2355631,-1.6214916 0,0 -0.4425016,0.4854423 -0.3748141,1.4103428 0,-4.997e-4 0.6940587,-0.2651854 1.1436243,-0.9011866 z"
       fill="#ed5a59"
       id="path150"
       style="stroke-width:0.555361" />
  </g>
</svg>
