<?xml version="1.0" encoding="utf-8"?>
<!-- Generator: Adobe Illustrator 24.0.1, SVG Export Plug-In . SVG Version: 6.00 Build 0)  -->
<svg version="1.1" id="Capa_1" xmlns="http://www.w3.org/2000/svg" xmlns:xlink="http://www.w3.org/1999/xlink" x="0px" y="0px"
	 viewBox="0 0 40 40" style="enable-background:new 0 0 40 40;" xml:space="preserve">
<style type="text/css">
	.st0{fill:#DBC600;}
	.st1{fill:#868686;}
</style>
<g>
	<g>
		<circle class="st0" cx="20" cy="20" r="18.12"/>
		<path class="st1" d="M20,39C9.52,39,1,30.48,1,20S9.52,1,20,1c10.48,0,19,8.52,19,19S30.48,39,20,39z M20,2.77
			C10.5,2.77,2.77,10.5,2.77,20c0,9.5,7.73,17.23,17.23,17.23c9.5,0,17.23-7.73,17.23-17.23C37.23,10.5,29.5,2.77,20,2.77z"/>
	</g>
	<g>
		<path class="st1" d="M13.47,26.93c-0.32,0-0.64-0.14-0.86-0.4l-4.87-5.81c-0.35-0.42-0.35-1.03,0.01-1.45l4.94-5.78
			c0.4-0.47,1.11-0.53,1.58-0.12c0.47,0.4,0.53,1.11,0.12,1.58l-4.32,5.06l4.26,5.08c0.4,0.47,0.34,1.18-0.14,1.58
			C13.98,26.84,13.72,26.93,13.47,26.93z"/>
	</g>
	<g>
		<path class="st1" d="M26.55,26.93c-0.25,0-0.51-0.09-0.72-0.26c-0.47-0.4-0.54-1.1-0.14-1.58l4.26-5.08l-4.32-5.06
			c-0.4-0.47-0.35-1.18,0.12-1.58c0.47-0.4,1.18-0.35,1.58,0.12l4.94,5.78c0.36,0.42,0.36,1.03,0.01,1.45l-4.87,5.81
			C27.19,26.79,26.87,26.93,26.55,26.93z"/>
	</g>
	<g>
		<path class="st1" d="M17.57,26.78c-0.15,0-0.3-0.03-0.44-0.09c-0.57-0.25-0.83-0.9-0.58-1.47l4.94-11.44
			c0.24-0.57,0.9-0.83,1.47-0.58c0.57,0.25,0.83,0.9,0.58,1.47L18.6,26.11C18.42,26.53,18.01,26.78,17.57,26.78z"/>
	</g>
</g>
</svg>
