<svg width="1024" height="1024" xmlns="http://www.w3.org/2000/svg" t="1680614749027" class="icon" version="1.1" p-id="32770">
 <defs>
  <linearGradient id="svg_2" x1="0.02734" y1="0.04376" x2="0.96484" y2="0.96173">
   <stop stop-color="#2afadf" stop-opacity="0.98828" offset="0"/>
   <stop stop-color="#4c83ff" stop-opacity="0.98828" offset="0.96484"/>
  </linearGradient>
 </defs>
 <g>
  <title>Layer 1</title>
  <path d="m562.6336,467.0752l21.9968,132.928l228.5344,-0.44l-0.8624,-131.244l-91.3344,-1.122l4.4582,334.23475l-49.5418,-16.76525l-3.0836,-318.5305l-110.1672,0.939zm26.5504,154.768l38.8352,214.488l-135.9872,0l-18.1248,83.3536l426.8032,0c19.968,0 36.352,-16.2816 36.352,-36.352l0,-617.1648c0,-19.968 -16.2816,-36.352 -36.352,-36.352l-381.2352,0l39.1168,217.7024l113.408,0l-1,-75.352l48.5472,0l1,74.352l91.7808,0.5l-0.1096,-18.75l46.9452,0.125l0.4316,213.477l-46.6028,-0.0068l-0.6028,-20.0068l-223.2056,-0.0136zm-134.4256,214.0784l-330.9568,0c-40.0384,0 -72.6016,-32.5632 -72.6016,-72.6016l0,-616.7552c0,-40.448 32.5632,-72.6016 72.6016,-72.6016l363.008,0l22.3232,119.6032l390.9632,0c40.0384,0 72.6016,32.5632 72.6016,72.6016l0,617.1648c0,40.0384 -32.5632,72.6016 -72.6016,72.6016l-471.4496,0l26.112,-120.0128zm-171.3152,-279.2448l0,-38.1952l-71.68,0l0,-56.32l66.56,0l0,-37.6832l-66.56,0l0,-47.9232l71.68,0l0,-37.6832l-113.5616,0l0,217.8048l113.5616,0zm175.0016,0l0,-108.9536c0,-19.5584 -4.608,-34.9184 -13.5168,-45.568s-22.3232,-15.872 -40.0384,-15.872c-10.24,0 -19.5584,1.8432 -27.4432,6.0416c-7.8848,4.1984 -14.4384,10.752 -18.6368,18.6368l-2.3552,0l-5.632,-21.4016l-31.6416,0l0,167.1168l40.96,0l0,-78.6432c0,-19.5584 2.7648,-33.4848 7.8848,-42.3936c5.12,-8.3968 13.5168,-12.5952 25.088,-12.5952c8.3968,0 14.4384,2.7648 18.6368,8.8064c3.6864,6.0416 6.0416,14.848 6.0416,27.0336l0,97.792l40.6528,0z" fill="url(#svg_2)" p-id="32771" id="svg_1"/>
 </g>
</svg>
