<?xml version="1.0" standalone="no"?>
<!DOCTYPE svg PUBLIC "-//W3C//DTD SVG 20010904//EN"
 "http://www.w3.org/TR/2001/REC-SVG-20010904/DTD/svg10.dtd">
<svg version="1.0" xmlns="http://www.w3.org/2000/svg"
 width="32.000000pt" height="32.000000pt" viewBox="0 0 32.000000 32.000000"
 preserveAspectRatio="xMidYMid meet">

<g transform="translate(0.000000,32.000000) scale(0.100000,-0.100000)"
fill="#000000" stroke="none">
<path d="M10 160 l0 -150 150 0 c143 0 150 1 150 20 0 19 -7 20 -125 20 l-125
0 0 45 0 45 90 0 c89 0 90 0 90 25 0 25 -1 25 -90 25 l-90 0 0 40 0 40 125 0
c118 0 125 1 125 20 0 19 -7 20 -150 20 l-150 0 0 -150z"/>
</g>
</svg>
