<?xml version="1.0" standalone="no"?><!DOCTYPE svg PUBLIC "-//W3C//DTD SVG 1.1//EN" "http://www.w3.org/Graphics/SVG/1.1/DTD/svg11.dtd"><svg height="1024" node-id="1" sillyvg="true" template-height="1024" template-width="1024" version="1.1" viewBox="0 0 1024 1024" width="1024" xmlns="http://www.w3.org/2000/svg" xmlns:xlink="http://www.w3.org/1999/xlink"><defs node-id="45"><radialGradient cx="0.50000006" cy="0.175" fx="0.50000006" fy="0.175" gradientUnits="objectBoundingBox" id="radialGradient-1" node-id="5" r="0.82500005" spreadMethod="pad"><stop offset="0" stop-color="#ffdd70"></stop><stop offset="1" stop-color="#f1823a"></stop></radialGradient><radialGradient cx="0.5" cy="0.17499998" fx="0.5" fy="0.17499998" gradientTransform="matrix(0 1 -0.74167669 0 0.62979342 -0.325)" gradientUnits="objectBoundingBox" id="radialGradient-4" node-id="9" r="0.825" spreadMethod="pad"><stop offset="0" stop-color="#ff6827"></stop><stop offset="1" stop-color="#d62137"></stop></radialGradient><radialGradient cx="0.5" cy="0.17499998" fx="0.5" fy="0.17499998" gradientTransform="matrix(0 1 -0.99998631 0 0.6749976 -0.325)" gradientUnits="objectBoundingBox" id="radialGradient-7" node-id="18" r="0.825" spreadMethod="pad"><stop offset="0" stop-color="#ff6827"></stop><stop offset="1" stop-color="#d62137"></stop></radialGradient><filter height="1.399" id="filter-6" node-id="13" width="1.232" x="-0.116" y="-0.199"><feGaussianBlur color-interpolation-filters="linearRGB" in="SourceAlpha" result="shadowBlurInner1" stdDeviation="34 34"></feGaussianBlur><feOffset color-interpolation-filters="linearRGB" dx="0" dy="0" in="shadowBlurInner1" result="shadowOffsetInner1"></feOffset><feComposite color-interpolation-filters="linearRGB" in="shadowOffsetInner1" in2="SourceAlpha" k1="0" k2="-1" k3="1" k4="0" operator="arithmetic" result="shadowInnerInner1"></feComposite><feColorMatrix color-interpolation-filters="linearRGB" in="shadowInnerInner1" result="result4" type="matrix" values="0 0 0 0 0.984313725 0 0 0 0 1 0 0 0 0 0.207843137 0 0 0 0.5 0"></feColorMatrix></filter><filter height="1.478" id="filter-9" node-id="22" width="1.374" x="-0.187" y="-0.239"><feGaussianBlur color-interpolation-filters="linearRGB" in="SourceAlpha" result="shadowBlurInner1" stdDeviation="34 34"></feGaussianBlur><feOffset color-interpolation-filters="linearRGB" dx="0" dy="0" in="shadowBlurInner1" result="shadowOffsetInner1"></feOffset><feComposite color-interpolation-filters="linearRGB" in="shadowOffsetInner1" in2="SourceAlpha" k1="0" k2="-1" k3="1" k4="0" operator="arithmetic" result="shadowInnerInner1"></feComposite><feColorMatrix color-interpolation-filters="linearRGB" in="shadowInnerInner1" result="result4" type="matrix" values="0 0 0 0 0.984313725 0 0 0 0 1 0 0 0 0 0.207843137 0 0 0 0.5 0"></feColorMatrix></filter></defs><path d="M 0.00 0.00 L 1024.00 0.00 L 1024.00 1024.00 L 0.00 1024.00 Z" fill="#ffffff" fill-rule="evenodd" node-id="87" stroke="none" target-height="1024" target-width="1024" target-x="0" target-y="0"></path><g node-id="128"><g node-id="131"><g node-id="136"><path d="M 512.01 168.00 L 497.10 168.25 L 482.57 168.96 L 468.40 170.13 L 454.59 171.73 L 441.11 173.76 L 427.96 176.22 L 414.66 179.20 L 401.73 182.59 L 389.17 186.37 L 376.96 190.55 L 365.09 195.13 L 353.54 200.09 L 342.05 205.56 L 330.94 211.40 L 320.18 217.60 L 309.77 224.17 L 299.70 231.10 L 289.95 238.40 L 280.47 246.13 L 271.36 254.19 L 262.60 262.60 L 254.19 271.36 L 246.13 280.47 L 238.40 289.95 L 231.10 299.70 L 224.17 309.77 L 217.60 320.18 L 211.40 330.94 L 205.56 342.05 L 200.09 353.54 L 195.13 365.09 L 190.55 376.96 L 186.37 389.17 L 182.59 401.73 L 179.20 414.66 L 176.22 427.96 L 173.76 441.11 L 171.73 454.59 L 170.13 468.40 L 168.96 482.57 L 168.25 497.10 L 168.00 512.01 L 168.30 529.45 L 169.16 546.37 L 170.56 562.77 L 172.51 578.69 L 174.98 594.15 L 177.95 609.15 L 181.05 622.23 L 184.53 634.92 L 188.38 647.22 L 192.61 659.16 L 197.21 670.75 L 202.17 682.00 L 207.50 692.92 L 213.34 703.78 L 219.55 714.27 L 226.12 724.38 L 233.06 734.14 L 240.38 743.56 L 248.07 752.65 L 256.15 761.40 L 264.58 769.79 L 273.39 777.81 L 282.58 785.48 L 292.17 792.80 L 302.17 799.77 L 312.59 806.40 L 323.44 812.68 L 334.32 818.39 L 345.62 823.74 L 357.34 828.72 L 369.51 833.32 L 382.15 837.55 L 395.27 841.40 L 408.89 844.85 L 422.14 847.71 L 435.85 850.16 L 450.05 852.21 L 464.74 853.83 L 479.95 855.01 L 495.70 855.74 L 512.01 856.00 L 526.92 855.75 L 541.45 855.04 L 555.61 853.87 L 569.43 852.27 L 582.90 850.24 L 596.05 847.78 L 609.35 844.80 L 622.28 841.41 L 634.84 837.63 L 647.05 833.45 L 658.92 828.87 L 670.47 823.91 L 681.95 818.44 L 693.07 812.60 L 703.82 806.40 L 714.23 799.84 L 724.30 792.90 L 734.05 785.60 L 743.53 777.87 L 752.65 769.81 L 761.40 761.40 L 769.81 752.65 L 777.87 743.53 L 785.60 734.05 L 792.90 724.30 L 799.84 714.23 L 806.40 703.82 L 812.60 693.07 L 818.44 681.95 L 823.91 670.47 L 828.87 658.92 L 833.45 647.05 L 837.63 634.84 L 841.41 622.28 L 844.80 609.35 L 847.78 596.05 L 850.24 582.90 L 852.27 569.43 L 853.87 555.61 L 855.04 541.45 L 855.75 526.92 L 856.00 512.01 L 855.75 497.10 L 855.04 482.57 L 853.87 468.40 L 852.27 454.59 L 850.24 441.11 L 847.78 427.96 L 844.80 414.66 L 841.41 401.73 L 837.63 389.17 L 833.45 376.96 L 828.87 365.09 L 823.91 353.54 L 818.44 342.05 L 812.60 330.94 L 806.40 320.18 L 799.84 309.77 L 792.90 299.70 L 785.60 289.95 L 777.87 280.47 L 769.81 271.36 L 761.40 262.60 L 752.65 254.19 L 743.53 246.13 L 734.05 238.40 L 724.30 231.10 L 714.23 224.17 L 703.82 217.60 L 693.07 211.40 L 681.95 205.56 L 670.47 200.09 L 658.92 195.13 L 647.05 190.55 L 634.84 186.37 L 622.28 182.59 L 609.35 179.20 L 596.05 176.22 L 582.90 173.76 L 569.43 171.73 L 555.61 170.13 L 541.45 168.96 L 526.92 168.25 L 512.01 168.00 Z" fill="#fecc4a" fill-rule="evenodd" group-id="1,4,9" node-id="93" stroke="none" target-height="688" target-width="688" target-x="168" target-y="168"></path></g><path d="M 512.01 168.00 L 497.10 168.25 L 482.57 168.96 L 468.40 170.13 L 454.59 171.73 L 441.11 173.76 L 427.96 176.22 L 414.66 179.20 L 401.73 182.59 L 389.17 186.37 L 376.96 190.55 L 365.09 195.13 L 353.54 200.09 L 342.05 205.56 L 330.94 211.40 L 320.18 217.60 L 309.77 224.17 L 299.70 231.10 L 289.95 238.40 L 280.47 246.13 L 271.36 254.19 L 262.60 262.60 L 254.19 271.36 L 246.13 280.47 L 238.40 289.95 L 231.10 299.70 L 224.17 309.77 L 217.60 320.18 L 211.40 330.94 L 205.56 342.05 L 200.09 353.54 L 195.13 365.09 L 190.55 376.96 L 186.37 389.17 L 182.59 401.73 L 179.20 414.66 L 176.22 427.96 L 173.76 441.11 L 171.73 454.59 L 170.13 468.40 L 168.96 482.57 L 168.25 497.10 L 168.00 512.01 L 168.30 529.45 L 169.16 546.37 L 170.56 562.77 L 172.51 578.69 L 174.98 594.15 L 177.95 609.15 L 181.05 622.23 L 184.53 634.92 L 188.38 647.22 L 192.61 659.16 L 197.21 670.75 L 202.17 682.00 L 207.50 692.92 L 213.34 703.78 L 219.55 714.27 L 226.12 724.38 L 233.06 734.14 L 240.38 743.56 L 248.07 752.65 L 256.15 761.40 L 264.58 769.79 L 273.39 777.81 L 282.58 785.48 L 292.17 792.80 L 302.17 799.77 L 312.59 806.40 L 323.44 812.68 L 334.32 818.39 L 345.62 823.74 L 357.34 828.72 L 369.51 833.32 L 382.15 837.55 L 395.27 841.40 L 408.89 844.85 L 422.14 847.71 L 435.85 850.16 L 450.05 852.21 L 464.74 853.83 L 479.95 855.01 L 495.70 855.74 L 512.01 856.00 L 526.92 855.75 L 541.45 855.04 L 555.61 853.87 L 569.43 852.27 L 582.90 850.24 L 596.05 847.78 L 609.35 844.80 L 622.28 841.41 L 634.84 837.63 L 647.05 833.45 L 658.92 828.87 L 670.47 823.91 L 681.95 818.44 L 693.07 812.60 L 703.82 806.40 L 714.23 799.84 L 724.30 792.90 L 734.05 785.60 L 743.53 777.87 L 752.65 769.81 L 761.40 761.40 L 769.81 752.65 L 777.87 743.53 L 785.60 734.05 L 792.90 724.30 L 799.84 714.23 L 806.40 703.82 L 812.60 693.07 L 818.44 681.95 L 823.91 670.47 L 828.87 658.92 L 833.45 647.05 L 837.63 634.84 L 841.41 622.28 L 844.80 609.35 L 847.78 596.05 L 850.24 582.90 L 852.27 569.43 L 853.87 555.61 L 855.04 541.45 L 855.75 526.92 L 856.00 512.01 L 855.75 497.10 L 855.04 482.57 L 853.87 468.40 L 852.27 454.59 L 850.24 441.11 L 847.78 427.96 L 844.80 414.66 L 841.41 401.73 L 837.63 389.17 L 833.45 376.96 L 828.87 365.09 L 823.91 353.54 L 818.44 342.05 L 812.60 330.94 L 806.40 320.18 L 799.84 309.77 L 792.90 299.70 L 785.60 289.95 L 777.87 280.47 L 769.81 271.36 L 761.40 262.60 L 752.65 254.19 L 743.53 246.13 L 734.05 238.40 L 724.30 231.10 L 714.23 224.17 L 703.82 217.60 L 693.07 211.40 L 681.95 205.56 L 670.47 200.09 L 658.92 195.13 L 647.05 190.55 L 634.84 186.37 L 622.28 182.59 L 609.35 179.20 L 596.05 176.22 L 582.90 173.76 L 569.43 171.73 L 555.61 170.13 L 541.45 168.96 L 526.92 168.25 L 512.01 168.00 Z" fill="url(#radialGradient-1)" fill-rule="evenodd" group-id="1,4,10" node-id="98" stroke="none" target-height="688" target-width="688" target-x="168" target-y="168"></path></g></g><path d="M 358.40 388.80 C 358.40 410.01 375.59 427.20 396.80 427.20 C 418.01 427.20 435.20 410.01 435.20 388.80" fill="none" id="路径" node-id="35" stroke="#000000" stroke-linecap="round" stroke-width="32" target-height="38.400024" target-width="76.80002" target-x="358.4" target-y="388.8"></path><path d="M 588.80 369.60 C 588.80 390.81 605.99 408.00 627.20 408.00 C 648.41 408.00 665.60 390.81 665.60 369.60" fill="none" id="路径备份" node-id="36" stroke="#000000" stroke-linecap="round" stroke-width="32" target-height="38.399994" target-width="76.79999" target-x="588.8" target-y="369.6"></path><path d="M 486.40 489.34 C 513.33 461.91 557.26 466.36 572.56 489.34 C 587.47 511.75 576.29 536.86 546.05 538.03 C 555.79 540.60 561.41 542.02 569.98 547.99 C 578.18 553.68 594.43 566.58 586.40 585.37 C 572.56 617.76 511.66 620.20 486.40 599.34" fill="none" id="路径" node-id="37" stroke="#000000" stroke-linecap="butt" stroke-width="32" target-height="158.29001" target-width="108.03" target-x="486.4" target-y="461.91"></path><path d="M 765.56 228.88 C 770.25 222.90 775.37 217.68 780.92 213.20 C 785.61 209.36 790.84 205.84 796.60 202.64 C 802.36 199.44 808.33 198.05 814.52 198.48 C 823.48 199.12 830.94 201.25 836.92 204.88 C 842.89 208.50 847.64 212.98 851.16 218.32 C 854.68 223.65 857.08 229.73 858.36 236.56 C 859.64 243.38 860.06 250.32 859.64 257.36 C 859.21 264.40 857.82 271.12 855.48 277.52 C 853.13 283.92 850.30 289.94 847.00 295.60 C 843.69 301.25 840.12 306.42 836.28 311.12 C 832.44 315.81 828.60 320.08 824.76 323.92 C 819.00 329.89 812.92 335.60 806.52 341.04 C 800.12 346.48 794.04 351.28 788.28 355.44 C 782.52 359.60 777.34 362.90 772.76 365.36 C 768.17 367.81 764.81 369.04 762.68 369.04 C 760.12 369.04 756.76 367.76 752.60 365.20 C 748.44 362.64 743.80 359.28 738.68 355.12 C 733.56 350.96 728.12 346.16 722.36 340.72 C 716.60 335.28 710.84 329.78 705.08 324.24 C 701.45 320.61 697.40 316.50 692.92 311.92 C 688.44 307.33 684.22 302.32 680.28 296.88 C 676.33 291.44 672.97 285.46 670.20 278.96 C 667.42 272.45 665.93 265.46 665.72 258.00 C 665.29 250.74 666.04 243.86 667.96 237.36 C 669.88 230.85 672.70 225.04 676.44 219.92 C 680.17 214.80 684.76 210.48 690.20 206.96 C 695.64 203.44 701.77 200.93 708.60 199.44 C 715.42 197.94 722.20 198.64 728.92 201.52 C 735.64 204.40 741.77 207.86 747.32 211.92 C 753.72 216.61 759.80 222.26 765.56 228.88 Z M 851.96 198.48 C 854.73 198.48 857.40 198.58 859.96 198.80 C 862.30 199.01 864.76 199.33 867.32 199.76 C 869.88 200.18 872.12 200.82 874.04 201.68 C 875.96 202.53 877.98 203.65 880.12 205.04 C 882.25 206.42 884.28 207.76 886.20 209.04 L 892.60 214.16 C 893.88 212.88 895.26 211.70 896.76 210.64 C 899.53 208.50 903.26 206.05 907.96 203.28 C 910.52 201.78 913.50 200.66 916.92 199.92 C 920.33 199.17 923.80 198.90 927.32 199.12 C 930.84 199.33 934.30 200.02 937.72 201.20 C 941.13 202.37 944.01 204.24 946.36 206.80 C 952.97 213.84 956.92 220.72 958.20 227.44 C 959.48 234.16 959.32 240.45 957.72 246.32 C 956.12 252.18 953.72 257.36 950.52 261.84 C 947.32 266.32 944.44 269.84 941.88 272.40 C 936.97 277.30 932.33 281.57 927.96 285.20 C 923.58 288.82 918.20 292.98 911.80 297.68 C 908.38 300.02 904.81 302.05 901.08 303.76 C 897.34 305.46 894.52 306.32 892.60 306.32 C 890.68 306.53 888.60 305.73 886.36 303.92 C 884.12 302.10 881.40 300.02 878.20 297.68 C 876.70 296.61 875.32 295.33 874.04 293.84 L 870.20 290.32 L 866.36 286.48 C 868.70 282.21 870.62 277.41 872.12 272.08 C 873.40 267.60 874.36 262.32 875.00 256.24 C 875.64 250.16 875.32 243.60 874.04 236.56 C 872.54 229.94 870.57 224.18 868.12 219.28 C 865.66 214.37 863.26 210.42 860.92 207.44 C 858.14 203.81 855.16 200.82 851.96 198.48 L 851.96 198.48 Z" fill="url(#radialGradient-4)" fill-rule="evenodd" group-id="2,5" node-id="109" stroke="none" target-height="171.1" target-width="294.19" target-x="665.29" target-y="197.94"></path><path d="M 765.56 228.88 C 770.25 222.90 775.37 217.68 780.92 213.20 C 785.61 209.36 790.84 205.84 796.60 202.64 C 802.36 199.44 808.33 198.05 814.52 198.48 C 823.48 199.12 830.94 201.25 836.92 204.88 C 842.89 208.50 847.64 212.98 851.16 218.32 C 854.68 223.65 857.08 229.73 858.36 236.56 C 859.64 243.38 860.06 250.32 859.64 257.36 C 859.21 264.40 857.82 271.12 855.48 277.52 C 853.13 283.92 850.30 289.94 847.00 295.60 C 843.69 301.25 840.12 306.42 836.28 311.12 C 832.44 315.81 828.60 320.08 824.76 323.92 C 819.00 329.89 812.92 335.60 806.52 341.04 C 800.12 346.48 794.04 351.28 788.28 355.44 C 782.52 359.60 777.34 362.90 772.76 365.36 C 768.17 367.81 764.81 369.04 762.68 369.04 C 760.12 369.04 756.76 367.76 752.60 365.20 C 748.44 362.64 743.80 359.28 738.68 355.12 C 733.56 350.96 728.12 346.16 722.36 340.72 C 716.60 335.28 710.84 329.78 705.08 324.24 C 701.45 320.61 697.40 316.50 692.92 311.92 C 688.44 307.33 684.22 302.32 680.28 296.88 C 676.33 291.44 672.97 285.46 670.20 278.96 C 667.42 272.45 665.93 265.46 665.72 258.00 C 665.29 250.74 666.04 243.86 667.96 237.36 C 669.88 230.85 672.70 225.04 676.44 219.92 C 680.17 214.80 684.76 210.48 690.20 206.96 C 695.64 203.44 701.77 200.93 708.60 199.44 C 715.42 197.94 722.20 198.64 728.92 201.52 C 735.64 204.40 741.77 207.86 747.32 211.92 C 753.72 216.61 759.80 222.26 765.56 228.88 Z M 851.96 198.48 C 854.73 198.48 857.40 198.58 859.96 198.80 C 862.30 199.01 864.76 199.33 867.32 199.76 C 869.88 200.18 872.12 200.82 874.04 201.68 C 875.96 202.53 877.98 203.65 880.12 205.04 C 882.25 206.42 884.28 207.76 886.20 209.04 L 892.60 214.16 C 893.88 212.88 895.26 211.70 896.76 210.64 C 899.53 208.50 903.26 206.05 907.96 203.28 C 910.52 201.78 913.50 200.66 916.92 199.92 C 920.33 199.17 923.80 198.90 927.32 199.12 C 930.84 199.33 934.30 200.02 937.72 201.20 C 941.13 202.37 944.01 204.24 946.36 206.80 C 952.97 213.84 956.92 220.72 958.20 227.44 C 959.48 234.16 959.32 240.45 957.72 246.32 C 956.12 252.18 953.72 257.36 950.52 261.84 C 947.32 266.32 944.44 269.84 941.88 272.40 C 936.97 277.30 932.33 281.57 927.96 285.20 C 923.58 288.82 918.20 292.98 911.80 297.68 C 908.38 300.02 904.81 302.05 901.08 303.76 C 897.34 305.46 894.52 306.32 892.60 306.32 C 890.68 306.53 888.60 305.73 886.36 303.92 C 884.12 302.10 881.40 300.02 878.20 297.68 C 876.70 296.61 875.32 295.33 874.04 293.84 L 870.20 290.32 L 866.36 286.48 C 868.70 282.21 870.62 277.41 872.12 272.08 C 873.40 267.60 874.36 262.32 875.00 256.24 C 875.64 250.16 875.32 243.60 874.04 236.56 C 872.54 229.94 870.57 224.18 868.12 219.28 C 865.66 214.37 863.26 210.42 860.92 207.44 C 858.14 203.81 855.16 200.82 851.96 198.48 L 851.96 198.48 Z" fill="#000000" fill-rule="evenodd" filter="url(#filter-6)" group-id="2,6" node-id="114" stroke="none" target-height="171.1" target-width="294.19" target-x="665.29" target-y="197.94"></path><path d="M 276.16 815.05 L 272.85 813.07 L 269.43 811.36 L 265.88 809.92 L 262.23 808.75 L 258.50 807.86 L 254.70 807.25 L 250.85 806.93 L 247.03 806.91 L 243.20 807.18 L 239.41 807.74 L 235.68 808.59 L 232.00 809.73 L 230.56 804.22 L 228.52 798.94 L 225.90 793.92 L 222.71 789.21 L 219.02 784.89 L 214.88 781.02 L 211.89 778.72 L 208.73 776.64 L 205.41 774.80 L 201.95 773.21 L 198.42 771.89 L 194.79 770.85 L 189.22 769.79 L 183.55 769.37 L 177.87 769.60 L 172.27 770.46 L 166.80 771.94 L 161.51 774.03 L 156.62 776.61 L 152.04 779.54 L 147.73 782.82 L 143.69 786.47 L 139.97 790.44 L 136.60 794.69 L 133.59 799.22 L 130.93 804.06 L 128.69 809.12 L 126.90 814.26 L 125.55 819.50 L 124.65 824.87 L 124.19 830.30 L 124.18 835.71 L 124.63 841.14 L 125.54 846.59 L 127.14 853.42 L 129.20 860.07 L 131.74 866.56 L 134.72 872.85 L 138.15 878.92 L 142.02 884.76 L 148.55 894.04 L 152.11 898.96 L 155.88 903.87 L 159.86 908.59 L 163.97 912.88 L 166.87 915.51 L 169.80 917.78 L 172.74 919.69 L 175.84 921.26 L 178.96 922.47 L 182.10 923.35 L 186.94 924.22 L 191.89 924.66 L 202.03 924.92 L 207.18 925.05 L 212.41 925.40 L 219.40 925.83 L 226.36 925.76 L 233.31 925.20 L 240.20 924.15 L 246.99 922.61 L 253.70 920.59 L 258.89 918.67 L 263.82 916.36 L 268.52 913.67 L 273.00 910.58 L 277.21 907.13 L 281.10 903.35 L 284.68 899.25 L 287.95 894.80 L 290.83 890.08 L 293.28 885.21 L 295.29 880.18 L 296.89 874.98 L 298.06 869.66 L 298.77 864.29 L 299.03 858.85 L 298.84 853.32 L 298.40 849.49 L 297.67 845.73 L 296.65 842.04 L 295.36 838.43 L 293.80 834.93 L 291.96 831.54 L 289.87 828.30 L 287.55 825.26 L 285.01 822.39 L 282.25 819.73 L 279.31 817.28 L 276.16 815.05 Z" fill="url(#radialGradient-7)" fill-rule="evenodd" group-id="3,7" node-id="121" stroke="none" target-height="156.46002" target-width="174.85" target-x="124.18" target-y="769.37"></path><path d="M 276.16 815.05 L 272.85 813.07 L 269.43 811.36 L 265.88 809.92 L 262.23 808.75 L 258.50 807.86 L 254.70 807.25 L 250.85 806.93 L 247.03 806.91 L 243.20 807.18 L 239.41 807.74 L 235.68 808.59 L 232.00 809.73 L 230.56 804.22 L 228.52 798.94 L 225.90 793.92 L 222.71 789.21 L 219.02 784.89 L 214.88 781.02 L 211.89 778.72 L 208.73 776.64 L 205.41 774.80 L 201.95 773.21 L 198.42 771.89 L 194.79 770.85 L 189.22 769.79 L 183.55 769.37 L 177.87 769.60 L 172.27 770.46 L 166.80 771.94 L 161.51 774.03 L 156.62 776.61 L 152.04 779.54 L 147.73 782.82 L 143.69 786.47 L 139.97 790.44 L 136.60 794.69 L 133.59 799.22 L 130.93 804.06 L 128.69 809.12 L 126.90 814.26 L 125.55 819.50 L 124.65 824.87 L 124.19 830.30 L 124.18 835.71 L 124.63 841.14 L 125.54 846.59 L 127.14 853.42 L 129.20 860.07 L 131.74 866.56 L 134.72 872.85 L 138.15 878.92 L 142.02 884.76 L 148.55 894.04 L 152.11 898.96 L 155.88 903.87 L 159.86 908.59 L 163.97 912.88 L 166.87 915.51 L 169.80 917.78 L 172.74 919.69 L 175.84 921.26 L 178.96 922.47 L 182.10 923.35 L 186.94 924.22 L 191.89 924.66 L 202.03 924.92 L 207.18 925.05 L 212.41 925.40 L 219.40 925.83 L 226.36 925.76 L 233.31 925.20 L 240.20 924.15 L 246.99 922.61 L 253.70 920.59 L 258.89 918.67 L 263.82 916.36 L 268.52 913.67 L 273.00 910.58 L 277.21 907.13 L 281.10 903.35 L 284.68 899.25 L 287.95 894.80 L 290.83 890.08 L 293.28 885.21 L 295.29 880.18 L 296.89 874.98 L 298.06 869.66 L 298.77 864.29 L 299.03 858.85 L 298.84 853.32 L 298.40 849.49 L 297.67 845.73 L 296.65 842.04 L 295.36 838.43 L 293.80 834.93 L 291.96 831.54 L 289.87 828.30 L 287.55 825.26 L 285.01 822.39 L 282.25 819.73 L 279.31 817.28 L 276.16 815.05 Z" fill="#000000" fill-rule="evenodd" filter="url(#filter-9)" group-id="3,8" node-id="126" stroke="none" target-height="156.46002" target-width="174.85" target-x="124.18" target-y="769.37"></path></svg>