<svg width="32" height="32" xmlns="http://www.w3.org/2000/svg" xmlns:xlink="http://www.w3.org/1999/xlink">
    <defs>
        <linearGradient x1="50%" y1="100%" x2="50%" y2="0%" id="bizLogo_svg__b">
            <stop stop-color="#C231EE" offset="0%"/>
            <stop stop-color="#1658D9" offset="100%"/>
        </linearGradient>
        <linearGradient x1="54.119%" y1="23.322%" x2="36.597%" y2="102.132%" id="bizLogo_svg__d">
            <stop stop-color="#73DCFA" offset="0%"/>
            <stop stop-color="#3FB7F4" offset="100%"/>
            <stop stop-color="#3FB7F4" stop-opacity="0" offset="100%"/>
        </linearGradient>
        <path d="M16 28c6.627 0 12-5.373 12-12a11.95 11.95 0 00-2.674-7.552A11.977 11.977 0 0016 4C9.373 4 4 9.373 4 16s5.373 12 12 12z"
              id="bizLogo_svg__a"/>
    </defs>
    <g fill="none" fill-rule="evenodd">
        <path d="M16 0C7.163 0 0 7.163 0 16s7.163 16 16 16 16-7.163 16-16c0-3.714-1.275-7.244-3.567-10.071A15.974 15.974 0 0016 0zm0 4c3.766 0 7.126 1.734 9.326 4.448A11.95 11.95 0 0128 16c0 6.627-5.373 12-12 12S4 22.627 4 16 9.373 4 16 4z"
              fill-opacity="0.396" fill="#FFF" fill-rule="nonzero"/>
        <mask id="bizLogo_svg__c" fill="#fff">
            <use xlink:href="#bizLogo_svg__a"/>
        </mask>
        <use fill="#1658D9" xlink:href="#bizLogo_svg__a"/>
        <path d="M15.25 28.75c7.18 0 13-5.82 13-13 0-3.1-1.085-5.947-2.897-8.181A12.975 12.975 0 0015.25 2.75c-7.18 0-13 5.82-13 13s5.82 13 13 13z"
              fill="url(#bizLogo_svg__b)" mask="url(#bizLogo_svg__c)" style="mix-blend-mode: lighten;"/>
        <path d="M4.823 11.627c4.055 1.32 7.892 3.441 11.512 6.364 2.82 2.276 5.314 4.647 7.485 7.111A11.95 11.95 0 0116 28C9.373 28 4 22.627 4 16c0-1.5.275-2.934.777-4.257l.046-.116z"
              fill="#4197F9" mask="url(#bizLogo_svg__c)" style="mix-blend-mode: lighten;"/>
        <path d="M24.904 7.955A11.95 11.95 0 0128 16c0 6.627-5.373 12-12 12-2.032 0-3.947-.505-5.624-1.397 2.014-3.962 3.997-7.252 5.95-9.871 2.21-2.964 4.88-5.736 8.008-8.313l.57-.464z"
              fill="#2B88F1" opacity="0.898" mask="url(#bizLogo_svg__c)"/>
        <path d="M27.34 12.065c.428 1.233.66 2.557.66 3.935 0 6.627-5.373 12-12 12-1.94 0-3.774-.46-5.397-1.279 2.869-3.572 5.56-6.46 8.073-8.668 2.354-2.067 5-3.93 7.94-5.588l.724-.4z"
              fill="url(#bizLogo_svg__d)" opacity="0.775" mask="url(#bizLogo_svg__c)"/>
    </g>
</svg>