<?xml version="1.0" encoding="utf-8"?>
<!-- Generator: Adobe Illustrator 26.0.3, SVG Export Plug-In . SVG Version: 6.00 Build 0)  -->
<svg version="1.1" id="レイヤー_1" xmlns="http://www.w3.org/2000/svg" xmlns:xlink="http://www.w3.org/1999/xlink" x="0px"
	 y="0px" viewBox="0 0 40 40" style="enable-background:new 0 0 40 40;" xml:space="preserve">
<style type="text/css">
	.st0{fill:#2EA7E0;}
	.st1{fill:#FFFFFF;}
</style>
<path class="st0" d="M34,6h-2.47C30.69,6,30,5.31,30,4.47V3.53C30,2.69,29.31,2,28.47,2H7.53C6.69,2,6,2.69,6,3.53V6v2.47
	C6,9.31,5.31,10,4.47,10H3.53C2.69,10,2,10.69,2,11.53v20.94C2,33.31,2.69,34,3.53,34H6h2.47C9.31,34,10,34.69,10,35.53v0.94
	c0,0.85,0.69,1.53,1.53,1.53h20.94c0.85,0,1.53-0.69,1.53-1.53V34v-2.47c0-0.85,0.69-1.53,1.53-1.53h0.94
	c0.85,0,1.53-0.69,1.53-1.53V7.53C38,6.69,37.31,6,36.47,6H34z"/>
<path class="st1" d="M30,11.47v9.06c0,0.81-0.66,1.47-1.47,1.47h-1.06C26.66,22,26,21.34,26,20.53V18V7.47C26,6.66,25.34,6,24.53,6
	H22H11.47C10.66,6,10,6.66,10,7.47v1.06C10,9.34,10.66,10,11.47,10h9.06c0.81,0,1.47,0.66,1.47,1.47v1.06
	c0,0.81-0.66,1.47-1.47,1.47H18H7.47C6.66,14,6,14.66,6,15.47V18v10.53C6,29.34,6.66,30,7.47,30h1.06C9.34,30,10,29.34,10,28.53
	v-9.06c0-0.81,0.66-1.47,1.47-1.47h1.06c0.81,0,1.47,0.66,1.47,1.47V22v10.53c0,0.81,0.66,1.47,1.47,1.47H18h10.53
	c0.81,0,1.47-0.66,1.47-1.47v-1.06c0-0.81-0.66-1.47-1.47-1.47h-9.06C18.66,30,18,29.34,18,28.53v-1.06c0-0.81,0.66-1.47,1.47-1.47
	H22h10.53c0.81,0,1.47-0.66,1.47-1.47V22V11.47c0-0.81-0.66-1.47-1.47-1.47h-1.06C30.66,10,30,10.66,30,11.47z M18,20.53v-1.06
	c0-0.81,0.66-1.47,1.47-1.47h1.06c0.81,0,1.47,0.66,1.47,1.47v1.06c0,0.81-0.66,1.47-1.47,1.47h-1.06C18.66,22,18,21.34,18,20.53z"
	/>
</svg>
