<?xml version="1.0" standalone="no"?><!DOCTYPE svg PUBLIC "-//W3C//DTD SVG 1.1//EN" "http://www.w3.org/Graphics/SVG/1.1/DTD/svg11.dtd"><svg t="1686023659579" class="icon" viewBox="0 0 1024 1024" version="1.1" xmlns="http://www.w3.org/2000/svg" p-id="4211" xmlns:xlink="http://www.w3.org/1999/xlink" width="200" height="200"><path d="M286.208 325.632c-6.144 0-12.8-2.56-17.408-7.168-9.728-9.728-9.728-25.6 0-35.328L389.12 162.816c9.728-9.728 25.6-9.728 35.328 0 9.728 9.728 9.728 25.6 0 35.328L303.616 318.464c-5.12 4.608-11.264 7.168-17.408 7.168z m451.584 0c-6.144 0-12.8-2.048-17.408-7.168l-120.32-120.32c-9.728-9.728-9.728-25.6 0-35.328 9.728-9.728 25.6-9.728 35.328 0l120.32 120.32c9.728 9.728 9.728 25.6 0 35.328-5.12 4.608-11.776 7.168-17.92 7.168z" fill="#1296db" p-id="4212"></path><path d="M770.048 283.136H253.952c-31.744 0-98.304 0-98.304 91.136 0 34.304 7.168 57.344 22.528 72.192 19.456 19.456 46.08 19.456 69.12 18.944h537.6c21.504 0 45.056-1.536 61.952-18.944 15.36-14.848 22.528-37.888 22.528-72.192-1.024-91.136-67.584-91.136-99.328-91.136z m40.96 128.512c-4.608 4.608-18.432 4.608-33.28 4.096H245.76c-14.336 0-28.672 0-33.28-4.096-2.048-2.56-7.168-10.24-7.168-37.376 0-37.376 9.216-41.472 48.64-41.472h515.584c39.424 0 48.64 4.096 48.64 41.472 0.512 27.136-4.608 34.816-7.168 37.376z" fill="#1296db" p-id="4213"></path><path d="M437.76 720.896c-13.824 0-25.088-11.264-25.088-25.088v-117.76c0-13.824 11.264-25.088 25.088-25.088s25.088 11.264 25.088 25.088v117.76c0 14.336-11.776 25.088-25.088 25.088zM590.336 720.896c-13.824 0-25.088-11.264-25.088-25.088v-117.76c0-13.824 11.264-25.088 25.088-25.088s25.088 11.264 25.088 25.088v117.76c-0.512 14.336-11.776 25.088-25.088 25.088z" fill="#1296db" p-id="4214"></path><path d="M607.744 868.352h-199.68c-118.784 0-145.408-70.656-155.648-132.096l-46.592-286.72c-2.048-13.824 6.656-26.112 20.48-28.672 13.824-2.048 26.112 6.656 28.672 20.48l46.592 286.72c9.728 58.88 29.696 90.624 106.496 90.624h200.192c84.992 0 94.72-29.696 105.984-87.552l55.808-290.304c2.56-13.824 15.36-22.528 29.184-19.456 13.824 2.56 22.528 15.36 19.456 29.184L762.88 740.864c-13.312 67.072-34.816 127.488-155.136 127.488z" fill="#1296db" p-id="4215"></path></svg>