<?xml version="1.0" encoding="UTF-8" standalone="no"?>
<!-- Created with Inkscape (http://www.inkscape.org/) -->

<svg
   width="294.55011mm"
   height="187.46767mm"
   viewBox="0 0 294.55011 187.46767"
   version="1.1"
   id="svg5"
   xml:space="preserve"
   inkscape:version="1.2.2 (732a01da63, 2022-12-09)"
   sodipodi:docname="pluginIcon.svg"
   xmlns:inkscape="http://www.inkscape.org/namespaces/inkscape"
   xmlns:sodipodi="http://sodipodi.sourceforge.net/DTD/sodipodi-0.dtd"
   xmlns:xlink="http://www.w3.org/1999/xlink"
   xmlns="http://www.w3.org/2000/svg"
   xmlns:svg="http://www.w3.org/2000/svg"><sodipodi:namedview
     id="namedview7"
     pagecolor="#ffffff"
     bordercolor="#000000"
     borderopacity="0.25"
     inkscape:showpageshadow="2"
     inkscape:pageopacity="0.0"
     inkscape:pagecheckerboard="false"
     inkscape:deskcolor="#d1d1d1"
     inkscape:document-units="mm"
     showgrid="false"
     inkscape:zoom="0.80354938"
     inkscape:cx="819.48915"
     inkscape:cy="347.83176"
     inkscape:window-width="3200"
     inkscape:window-height="1772"
     inkscape:window-x="-8"
     inkscape:window-y="-8"
     inkscape:window-maximized="1"
     inkscape:current-layer="layer1" /><defs
     id="defs2"><rect
       x="443.03439"
       y="471.65738"
       width="316.09756"
       height="192.89418"
       id="rect8661" /><linearGradient
       inkscape:collect="always"
       id="linearGradient8185"><stop
         style="stop-color:#000000;stop-opacity:0.58152175;"
         offset="0"
         id="stop8181" /><stop
         style="stop-color:#000000;stop-opacity:0;"
         offset="0.58035713"
         id="stop8183" /></linearGradient><linearGradient
       inkscape:collect="always"
       xlink:href="#linearGradient8185"
       id="linearGradient8187"
       x1="10.284615"
       y1="150.63702"
       x2="287.05423"
       y2="150.63702"
       gradientUnits="userSpaceOnUse" /></defs><g
     inkscape:label="All"
     inkscape:groupmode="layer"
     id="layer1"
     transform="matrix(1.0642429,0,0,1.0642429,-10.945328,-66.580562)"
     style="stroke:none;stroke-opacity:0.763636"
     sodipodi:insensitive="true"><path
       style="fill:#186c1f;fill-opacity:1;stroke:none;stroke-width:0.246589;stroke-opacity:0.763636"
       d="m 46.041979,238.08283 -1.397968,-0.57499 -1.191214,-0.88215 -1.191216,-0.88213 -15.070554,-15.12011 -15.070554,-15.12011 -0.832259,-1.71654 -0.832259,-1.71654 -0.08567,-1.7357 -0.08567,-1.7357 0.514747,-1.35624 0.514747,-1.35624 1.04829,-1.37043 1.04829,-1.37044 55.359178,-54.95432 55.359173,-54.954324 9.49367,-9.417168 9.49367,-9.417168 1.71654,-0.834878 1.71654,-0.834878 1.7357,-0.08567 1.7357,-0.08567 1.37887,0.518154 1.37886,0.518152 1.18218,0.840498 1.18218,0.840496 64.59158,64.070876 64.59159,64.07087 0.94666,1.41475 0.94665,1.41475 0.4174,1.25669 0.4174,1.25669 -0.0938,1.66023 -0.0938,1.66022 -0.82647,1.70976 -0.82646,1.70976 -15.68949,15.68949 -15.68948,15.68948 -1.72077,0.83197 -1.72077,0.83196 -1.85476,0.0832 -1.85477,0.0832 -1.35624,-0.51447 -1.35624,-0.51446 -1.38512,-1.0483 -1.38512,-1.04829 -36.46626,-36.11421 -36.46625,-36.11422 -7.02778,-6.93764 -7.02778,-6.93765 -1.72093,-0.84094 -1.72094,-0.84094 h -2.10638 -2.10637 l -1.72094,0.84094 -1.72093,0.84094 -7.02778,6.93765 -7.02778,6.93764 -36.466251,36.11422 -36.466255,36.11421 -1.385121,1.04829 -1.385123,1.0483 -1.303841,0.49288 -1.303843,0.49289 -1.655222,-0.006 -1.655225,-0.006 -1.397966,-0.575 z"
       id="Au__en"
       inkscape:label="AußenB"><title
         id="title1257">AußenT</title></path><path
       style="display:inline;fill:#60cc2e;fill-opacity:1;stroke:none;stroke-width:0.246314;stroke-opacity:0.763636"
       d="m 36.127832,212.61209 -12.806765,-12.80854 7.511894,-7.49225 7.511895,-7.49224 55.035199,-54.57879 55.035195,-54.578792 h 0.15482 0.15482 l 55.03567,54.578272 55.03568,54.57828 7.5119,7.49276 7.51189,7.49276 -12.80677,12.80854 -12.80677,12.80854 h -0.13855 -0.13858 l -46.90837,-46.45665 -46.90837,-46.45664 -1.43291,-0.94493 -1.43292,-0.94492 -1.33812,-0.29946 -1.33812,-0.29946 -1.33813,0.29946 -1.33812,0.29946 -1.43291,0.94492 -1.43292,0.94493 -46.908372,46.45664 -46.908376,46.45665 H 49.07316 48.934599 Z"
       id="Innen"
       inkscape:label="InnenB"><title
         id="title2730">InnenT</title></path><text
       xml:space="preserve"
       style="font-style:normal;font-variant:normal;font-weight:normal;font-stretch:normal;font-size:32.9402px;line-height:0;font-family:sans-serif;-inkscape-font-specification:sans-serif;display:inline;fill:#265111;fill-opacity:1;stroke:none;stroke-width:0.171833;stroke-linecap:round;stroke-linejoin:bevel;stroke-dasharray:none;stroke-opacity:0.763636;paint-order:fill markers stroke;image-rendering:auto"
       x="-120.0419"
       y="187.75084"
       id="text-neo"
       inkscape:label="NEO"
       transform="rotate(-45)"><tspan
         sodipodi:role="line"
         id="tspan13195"
         style="font-style:normal;font-variant:normal;font-weight:normal;font-stretch:normal;font-family:sans-serif;-inkscape-font-specification:sans-serif;fill:#265111;fill-opacity:1;stroke:none;stroke-width:0.171834;stroke-opacity:0.763636"
         x="-120.0419"
         y="187.75084">NEO</tspan></text><text
       xml:space="preserve"
       style="font-style:normal;font-variant:normal;font-weight:normal;font-stretch:normal;font-size:17.3332px;line-height:0;font-family:sans-serif;-inkscape-font-specification:sans-serif;display:inline;fill:#36731a;fill-opacity:1;stroke:none;stroke-width:0.0904187;stroke-linecap:round;stroke-linejoin:bevel;stroke-dasharray:none;stroke-opacity:0.763636;paint-order:fill markers stroke;image-rendering:auto"
       x="16.478292"
       y="332.74167"
       id="text-mjs"
       inkscape:label="MJS"
       transform="rotate(-45)"><tspan
         sodipodi:role="line"
         id="tspan16998"
         style="font-style:normal;font-variant:normal;font-weight:normal;font-stretch:normal;font-family:sans-serif;-inkscape-font-specification:sans-serif;fill:#36731a;fill-opacity:1;stroke:none;stroke-width:0.0904192;stroke-opacity:0.763636"
         x="16.478292"
         y="332.74167">MJS</tspan></text><path
       style="stroke:none;stroke-opacity:0.763636;fill:url(#linearGradient8187);fill-opacity:1;stroke-width:0.246589"
       d="m 46.041979,238.08283 -1.397968,-0.57499 -1.191214,-0.88215 -1.191216,-0.88213 -15.070554,-15.12011 -15.070554,-15.12011 -0.832259,-1.71654 -0.832259,-1.71654 -0.08567,-1.7357 -0.08567,-1.7357 0.514747,-1.35624 0.514747,-1.35624 1.04829,-1.37043 1.04829,-1.37044 55.359178,-54.95432 55.359173,-54.954324 9.49367,-9.417168 9.49367,-9.417168 1.71654,-0.834878 1.71654,-0.834878 1.7357,-0.08567 1.7357,-0.08567 1.37887,0.518154 1.37886,0.518152 1.18218,0.840498 1.18218,0.840496 64.59158,64.070876 64.59159,64.07087 0.94666,1.41475 0.94665,1.41475 0.4174,1.25669 0.4174,1.25669 -0.0938,1.66023 -0.0938,1.66022 -0.82647,1.70976 -0.82646,1.70976 -15.68949,15.68949 -15.68948,15.68948 -1.72077,0.83197 -1.72077,0.83196 -1.85476,0.0832 -1.85477,0.0832 -1.35624,-0.51447 -1.35624,-0.51446 -1.38512,-1.0483 -1.38512,-1.04829 -36.46626,-36.11421 -36.46625,-36.11422 -7.02778,-6.93764 -7.02778,-6.93765 -1.72093,-0.84094 -1.72094,-0.84094 h -2.10638 -2.10637 l -1.72094,0.84094 -1.72093,0.84094 -7.02778,6.93765 -7.02778,6.93764 -36.466251,36.11422 -36.466255,36.11421 -1.385121,1.04829 -1.385123,1.0483 -1.303841,0.49288 -1.303843,0.49289 -1.655222,-0.006 -1.655225,-0.006 -1.397966,-0.575 z"
       id="Dark-Overlay"
       inkscape:label="Dark-Overlay"><title
         id="title7790"
         style="fill:url(#linearGradient8187);fill-opacity:1">Overlay</title></path></g></svg>
