<?xml version="1.0" encoding="utf-8"?>
<!-- Generator: Adobe Illustrator 24.0.1, SVG Export Plug-In . SVG Version: 6.00 Build 0)  -->
<svg version="1.1" id="图层_1" xmlns="http://www.w3.org/2000/svg" xmlns:xlink="http://www.w3.org/1999/xlink" x="0px" y="0px"
	 viewBox="0 0 610 910" style="enable-background:new 0 0 610 910;" xml:space="preserve">
<style type="text/css">
	.st0{fill:#4569EE;}
	.st1{fill:#F7B5B5;}
	.st2{fill:url(#SVGID_1_);}
	.st3{fill:url(#SVGID_2_);}
	.st4{fill:#1038A9;}
	.st5{fill:#40B8FF;}
</style>
<g>
	<circle class="st0" cx="110.6" cy="455" r="86.4"/>
	<path class="st0" d="M576.3,391.5c0.8,0.7,1.5,1.4,2.3,2.2l0,0c4.8,4.8,8.9,10,12.3,15.5c20.9,33.4,16.8,77.9-12.2,106.9l0,0
		c-1.6,1.6-3.3,3.1-5,4.6l-56.2,56.2l-122-122l122-122l-0.2-0.2l0.2-0.2L576.3,391.5z"/>
	
		<rect x="395.2" y="454.8" transform="matrix(0.7071 -0.7071 0.7071 0.7071 -205.8653 412.7191)" class="st1" width="0.2" height="0.2"/>
	<g>
		
			<linearGradient id="SVGID_1_" gradientUnits="userSpaceOnUse" x1="19653.1191" y1="9031.2363" x2="19653.1191" y2="8685.3867" gradientTransform="matrix(-0.7071 0.7071 -0.7071 -0.7071 20372.5137 -7483.5732)">
			<stop  offset="0" style="stop-color:#2AD8FF"/>
			<stop  offset="1" style="stop-color:#4C84FF"/>
		</linearGradient>
		<path class="st2" d="M91.4,25.6l0.2,0.2C125.4-6.4,179-5.9,212.2,27.3l183.3,183.3l-0.2,0.2l0,0l-122,122L151.2,210.7l-0.1,0.1
			l-0.3-0.3L110.3,170L28.7,88.3L91.4,25.6z"/>
	</g>
	<path class="st0" d="M29.1,87.9l122.2,122.2c-33.8,33.5-88.3,33.4-121.9-0.3S-4.4,121.7,29.1,87.9z"/>
	<g>
		
			<linearGradient id="SVGID_2_" gradientUnits="userSpaceOnUse" x1="20257.7012" y1="8426.4424" x2="19912.207" y2="8426.4424" gradientTransform="matrix(-0.7071 0.7071 -0.7071 -0.7071 20372.5137 -7483.5732)">
			<stop  offset="0" style="stop-color:#2AD8FF"/>
			<stop  offset="1" style="stop-color:#4C84FF"/>
		</linearGradient>
		<path class="st3" d="M87,879.3l-58.1-58.1l122.2-122.3l0.1,0.1l122-122l122.2,122.2L212.2,882.4c-33.7,33.7-88.4,33.7-122.2,0l0,0
			C89,881.4,88,880.4,87,879.3z"/>
	</g>
	<path class="st0" d="M151.5,699.3L29.3,821.5c-33.5-33.8-33.4-88.3,0.3-121.9C63.2,666,117.7,665.9,151.5,699.3z"/>
	<path class="st4" d="M29.1,87.9l94.5,140.6c0,0,8.9-4,13.6-7.1s11.5-8.8,14.1-11.3L29.1,87.9z"/>
	<path class="st4" d="M151.5,699.3L10.9,793.9c0,0,4,8.9,7.1,13.6c3.1,4.7,8.8,11.5,11.3,14.1L151.5,699.3z"/>
	<polygon class="st5" points="517.6,332.9 395.4,455 395.2,454.8 232.5,292.2 354.7,170 	"/>
	<polygon class="st5" points="395.6,454.8 395.8,454.9 396,454.7 518,576.7 355.1,739.6 232.9,617.4 	"/>
</g>
</svg>
