<?xml version="1.0" standalone="no"?>
<!DOCTYPE svg PUBLIC "-//W3C//DTD SVG 20010904//EN"
 "http://www.w3.org/TR/2001/REC-SVG-20010904/DTD/svg10.dtd">
<svg version="1.0" xmlns="http://www.w3.org/2000/svg"
 width="173.000000pt" height="182.000000pt" viewBox="0 0 173.000000 182.000000"
 preserveAspectRatio="xMidYMid meet">

<g transform="translate(0.000000,182.000000) scale(0.100000,-0.100000)"
fill="#000000" stroke="none">
<path d="M1685 1784 c-5 -2 -188 -181 -407 -398 -297 -296 -404 -396 -427
-401 -17 -4 -35 -14 -41 -23 -9 -15 -11 -15 -22 -2 -29 34 -132 100 -158 100
-30 0 10 -130 45 -143 8 -4 15 -15 15 -26 0 -20 -14 -27 -69 -33 -19 -2 -25
-10 -27 -36 -6 -48 -32 -93 -62 -105 -15 -5 -44 -32 -65 -59 -21 -27 -59 -64
-84 -81 -25 -18 -67 -52 -92 -76 -25 -24 -36 -36 -23 -26 19 16 26 16 46 5 16
-8 40 -10 70 -6 31 5 46 4 46 -4 0 -6 -58 -73 -128 -148 -207 -220 -242 -259
-242 -267 0 -14 57 8 190 72 128 62 140 72 232 163 53 54 108 115 121 137 14
22 42 55 62 74 20 19 45 51 56 71 19 36 62 68 93 68 10 0 16 13 18 43 3 37 6
42 30 45 19 2 30 -3 38 -18 17 -32 70 -60 113 -60 20 0 37 2 37 4 0 15 -45
105 -71 141 -27 38 -30 48 -24 84 4 23 15 51 26 64 10 12 40 49 66 82 73 92
151 180 226 256 26 27 47 50 47 52 0 3 19 24 43 48 49 51 187 203 237 262 19
23 49 57 67 75 45 47 55 82 18 66z"/>
</g>
</svg>
