<svg version="1.0" xmlns="http://www.w3.org/2000/svg"
     width="240" height="222" viewBox="0 0 240 222"
     preserveAspectRatio="xMidYMid meet">
    <rect height="280" width="560" fill="#000000"/>
    <g transform="translate(0,333) scale(0.100000,-0.100000)"
       fill="#F58231" stroke="red">
        <path d="M1714 2365 c-6 -15 -10 -31 -10 -36 0 -5 -56 -9 -130 -9 -116 0 -130
2 -139 19 -18 33 -60 42 -186 39 l-118 -3 -18 -50 c-10 -30 -18 -41 -18 -28
-3 74 -30 83 -260 83 -109 0 -202 -4 -218 -11 -38 -14 -92 -67 -109 -106 -9
-20 -14 -68 -14 -122 0 -87 1 -90 31 -115 l31 -26 197 0 c191 0 200 1 244 24
l46 25 3 -22 3 -22 450 0 450 0 3 65 c3 53 8 70 28 91 22 23 25 33 22 90 l-3
64 -42 3 c-39 3 -42 5 -45 35 l-3 32 -93 3 c-91 3 -92 2 -102 -23z m109 -102
c-26 -76 -25 -80 16 -44 25 21 46 31 68 31 l32 -1 -44 -37 -44 -38 16 -52 15
-52 -33 0 c-27 0 -33 5 -41 31 -5 17 -13 31 -19 31 -5 0 -14 -14 -19 -31 -7
-26 -14 -31 -38 -31 -16 0 -28 4 -26 8 2 5 21 61 43 125 38 111 41 117 67 117
l27 0 -20 -57z m-1035 34 c14 -10 15 -17 7 -40 -10 -27 -12 -27 -33 -13 -29
20 -58 20 -87 0 -27 -20 -53 -76 -45 -99 10 -24 52 -30 91 -11 34 16 34 16 28
-6 -11 -37 -28 -48 -81 -54 -41 -5 -54 -2 -76 16 -59 46 -14 165 77 206 38 17
96 18 119 1z m201 1 c29 -13 40 -44 32 -94 -13 -81 -90 -134 -195 -134 l-61 0
42 120 42 120 57 0 c31 0 69 -5 83 -12z m350 0 c29 -13 40 -44 32 -94 -13 -81
-90 -134 -195 -134 l-61 0 42 120 42 120 57 0 c31 0 69 -5 83 -12z m210 -62
c19 -14 19 -15 -4 -89 l-24 -75 -68 0 c-76 0 -94 11 -83 53 8 33 37 52 92 61
57 9 55 28 -3 22 -33 -4 -45 -2 -45 8 0 32 98 47 135 20z m125 4 c0 -7 6 -7
19 0 34 18 51 13 42 -12 -6 -16 -19 -25 -41 -28 -30 -5 -35 -11 -55 -65 -19
-50 -27 -61 -49 -63 -14 -2 -26 -2 -26 1 0 3 43 133 55 165 5 15 55 16 55 2z"/>
    </g>
</svg>
