<svg width="40" height="40" viewBox="0 0 40 40" fill="none" xmlns="http://www.w3.org/2000/svg">
    <rect width="40" height="40" fill="black"/>
    <g clip-path="url(#clip0_1_2)">
        <path d="M29.0053 37.0031L32.3173 26.5618H25.6932L29.0052 37.0031H29.0053Z" fill="#E24329"/>
        <path d="M29.0053 37.003L25.6932 26.5617H21.0516L29.0053 37.003Z" fill="#FC6D26"/>
        <path d="M21.0516 26.5617L20.0451 29.7348C20.0004 29.8758 20.0004 30.0278 20.0451 30.1689C20.0899 30.3099 20.177 30.4329 20.2942 30.5201L29.0053 37.0031L21.0515 26.5617L21.0516 26.5617Z" fill="#FCA326"/>
        <path d="M21.0516 26.5618H25.6932L23.6985 20.273C23.5959 19.9494 23.149 19.9494 23.0464 20.273L21.0516 26.5618Z" fill="#E24329"/>
        <path d="M29.0053 37.003L32.3173 26.5617H36.959L29.0052 37.003H29.0053Z" fill="#FC6D26"/>
        <path d="M36.959 26.5617L37.9654 29.7348C38.0102 29.8758 38.0102 30.0278 37.9654 30.1689C37.9206 30.3099 37.8334 30.4329 37.7163 30.5201L29.0053 37.0031L36.959 26.5617V26.5617Z" fill="#FCA326"/>
        <path d="M36.959 26.5618H32.3173L34.312 20.273C34.4147 19.9494 34.8616 19.9494 34.9642 20.273L36.959 26.5618Z" fill="#E24329"/>
    </g>
    <path d="M14.2784 8.4375H11.7898C11.7443 8.11553 11.6515 7.82955 11.5114 7.57955C11.3712 7.32576 11.1913 7.10985 10.9716 6.93182C10.7519 6.75379 10.4981 6.61742 10.2102 6.52273C9.92614 6.42803 9.61742 6.38068 9.28409 6.38068C8.68182 6.38068 8.1572 6.5303 7.71023 6.82955C7.26326 7.125 6.91667 7.55682 6.67045 8.125C6.42424 8.68939 6.30114 9.375 6.30114 10.1818C6.30114 11.0114 6.42424 11.7083 6.67045 12.2727C6.92045 12.8371 7.26894 13.2633 7.71591 13.5511C8.16288 13.839 8.67992 13.983 9.26705 13.983C9.59659 13.983 9.90152 13.9394 10.1818 13.8523C10.4659 13.7652 10.7178 13.6383 10.9375 13.4716C11.1572 13.3011 11.339 13.0947 11.483 12.8523C11.6307 12.6098 11.733 12.3333 11.7898 12.0227L14.2784 12.0341C14.214 12.5682 14.053 13.0833 13.7955 13.5795C13.5417 14.072 13.1989 14.5133 12.767 14.9034C12.339 15.2898 11.8277 15.5966 11.233 15.8239C10.642 16.0473 9.97348 16.1591 9.22727 16.1591C8.18939 16.1591 7.26136 15.9242 6.44318 15.4545C5.62879 14.9848 4.98485 14.3049 4.51136 13.4148C4.04167 12.5246 3.80682 11.447 3.80682 10.1818C3.80682 8.91288 4.04545 7.83333 4.52273 6.94318C5 6.05303 5.64773 5.375 6.46591 4.90909C7.28409 4.43939 8.20455 4.20455 9.22727 4.20455C9.90152 4.20455 10.5265 4.29924 11.1023 4.48864C11.6818 4.67803 12.1951 4.95455 12.642 5.31818C13.089 5.67803 13.4527 6.11932 13.733 6.64205C14.017 7.16477 14.1989 7.76326 14.2784 8.4375ZM18.5028 4.36364V16H16.0426V4.36364H18.5028Z" fill="white"/>
    <defs>
        <clipPath id="clip0_1_2">
            <rect width="18" height="17" fill="white" transform="translate(20 20)"/>
        </clipPath>
    </defs>
</svg>
