<?xml version="1.0" encoding="UTF-8" standalone="no"?>
<!-- Created with Inkscape (http://www.inkscape.org/) -->

<svg
        width="36"
        height="36"
        viewBox="0 0 36 36"
        version="1.1"
        id="svg5"
        xml:space="preserve"
        sodipodi:docname="pluginIcon.svg"
        inkscape:version="1.2-alpha1 (7fa1c12520, 2022-03-30, custom)"
        xmlns:inkscape="http://www.inkscape.org/namespaces/inkscape"
        xmlns:sodipodi="http://sodipodi.sourceforge.net/DTD/sodipodi-0.dtd"
        xmlns:xlink="http://www.w3.org/1999/xlink"
        xmlns="http://www.w3.org/2000/svg"
><sodipodi:namedview
     id="namedview7"
     pagecolor="#ffffff"
     bordercolor="#000000"
     borderopacity="0.25"
     inkscape:pageshadow="2"
     inkscape:pageopacity="0.0"
     inkscape:pagecheckerboard="0"
     inkscape:deskcolor="#d1d1d1"
     inkscape:document-units="mm"
     showgrid="false"
     inkscape:zoom="10.35098"
     inkscape:cx="-18.597273"
     inkscape:cy="11.206668"
     inkscape:window-width="2560"
     inkscape:window-height="1369"
     inkscape:window-x="-8"
     inkscape:window-y="-8"
     inkscape:window-maximized="1"
     inkscape:current-layer="layer3" /><defs
     id="defs2"><linearGradient
       inkscape:collect="always"
       id="linearGradient3829"><stop
         style="stop-color:#b0b0b0;stop-opacity:0.18834084;"
         offset="0"
         id="stop3825" /><stop
         style="stop-color:#adadad;stop-opacity:1;"
         offset="1"
         id="stop3827" /></linearGradient><linearGradient
       inkscape:collect="always"
       id="linearGradient3821"><stop
         style="stop-color:#b3f0ff;stop-opacity:1;"
         offset="0"
         id="stop3817" /><stop
         style="stop-color:#4251ff;stop-opacity:1;"
         offset="1"
         id="stop3819" /></linearGradient><linearGradient
       id="linearGradient3813"
       inkscape:swatch="solid"><stop
         style="stop-color:#525aff;stop-opacity:1;"
         offset="0"
         id="stop3811" /></linearGradient><linearGradient
       inkscape:collect="always"
       id="linearGradient1793"><stop
         style="stop-color:#e7b43e;stop-opacity:1;"
         offset="0.24595375"
         id="stop1789" /><stop
         style="stop-color:#c46b23;stop-opacity:1;"
         offset="1"
         id="stop1791" /></linearGradient><radialGradient
       inkscape:collect="always"
       xlink:href="#linearGradient1793"
       id="radialGradient1795"
       cx="85.201859"
       cy="119.48863"
       fx="85.201859"
       fy="119.48863"
       r="30.989679"
       gradientTransform="matrix(0.29723417,0,0,0.29555147,42.664834,39.161817)"
       gradientUnits="userSpaceOnUse" /><linearGradient
       inkscape:collect="always"
       xlink:href="#linearGradient3821"
       id="linearGradient3823"
       x1="17.067917"
       y1="97.485809"
       x2="75.719307"
       y2="97.485809"
       gradientUnits="userSpaceOnUse"
       gradientTransform="matrix(0.30621803,0,0,0.28291274,41.360974,39.343102)" /><linearGradient
       inkscape:collect="always"
       xlink:href="#linearGradient3829"
       id="linearGradient3831"
       x1="64.820946"
       y1="85.956795"
       x2="127.20277"
       y2="85.956795"
       gradientUnits="userSpaceOnUse"
       gradientTransform="matrix(0.29723417,0,0,0.28291274,40.77748,38.893969)" /></defs><g
     inkscape:groupmode="layer"
     id="layer3"
     inkscape:label="Layer 3"
     transform="translate(-44.586517,-49.635997)"><path
       fill="#6e6e6e"
       fill-rule="evenodd"
       d="m 78.586513,59.904741 h -9.271037 v -8.268744 h -9.270975 v 23.152495 h 18.542012 z m -8.304846,-8.268744 -0.03416,7.434752 8.339003,-0.136626 z m 4.596422,11.576241 v 1.243873 l -11.125223,-0.03416 v -1.209716 z m 0,3.307503 v 1.141407 l -11.091066,0.03416 -0.03416,-1.175564 z m 0,3.3075 v 1.653758 H 63.752866 v -1.653758 z"
       id="path864"
       style="fill:url(#linearGradient3831);fill-opacity:1;stroke-width:1.75112"
       sodipodi:nodetypes="cccccccccccccccccccccccccc" /></g><g
     inkscape:label="Layer 1"
     inkscape:groupmode="layer"
     id="layer1"
     transform="translate(-44.586517,-49.635997)"><path
       fill="#40b6e0"
       fill-opacity="0.7"
       fill-rule="evenodd"
       d="m 46.587496,59.794283 c 1.56323,1.934602 5.593557,2.530458 8.968984,2.511268 3.242489,-0.01861 7.782102,-0.740294 8.991133,-2.572631 l -0.02312,4.414539 c -0.0085,1.703249 -4.015563,3.08401 -8.968992,3.08401 -4.953445,0 -8.968993,-1.380752 -8.968993,-3.08401 z m 17.937968,5.345655 v 4.503626 c 0,1.620211 -4.015551,2.933609 -8.968984,2.933609 -4.953437,0 -8.968984,-1.313398 -8.968984,-2.933609 v -4.421816 c 1.69689,1.935933 5.837095,2.552173 8.991113,2.531709 3.198227,-0.0211 7.361477,-0.638022 8.946855,-2.613519 z m 0,5.693357 v 4.211114 c 0,1.703266 -4.015551,3.084012 -8.968984,3.084012 -4.953437,0 -8.968984,-1.380746 -8.968984,-3.084012 v -4.313385 c 1.740334,1.709619 5.261485,2.388544 8.968984,2.388544 3.707491,0 7.206491,-0.61757 8.968984,-2.286273 z M 55.55648,61.885818 c -4.953437,0 -8.968984,-1.380747 -8.968984,-3.084071 0,-1.703267 4.015547,-3.084013 8.968984,-3.084013 4.953433,0 8.968984,1.380746 8.968984,3.084013 0,1.703324 -4.015551,3.084071 -8.968984,3.084071 z"
       id="path176"
       style="fill:url(#linearGradient3823);fill-opacity:1;stroke-width:1.60648;stroke-dasharray:none"
       sodipodi:nodetypes="cscsssccssscsccssscscsssss" /><ellipse
       style="fill:#dae8ff;stroke-width:24.8762;fill-opacity:1"
       id="path942"
       cx="55.550758"
       cy="58.772865"
       rx="7.9926243"
       ry="2.5446603" /></g><g
     inkscape:groupmode="layer"
     id="layer2"
     inkscape:label="Layer 2"
     transform="translate(-44.586517,-49.635997)"><path
       fill="#6e6e6e"
       fill-rule="evenodd"
       d="m 74.999848,75.802706 2.201092,1.494456 c -0.423611,1.239891 -1.119006,2.364092 -2.019726,3.309779 l -2.46816,-1.05369 c -0.702488,0.585778 -1.527526,1.043049 -2.434031,1.332929 l -0.268831,2.550011 c -0.651635,0.131058 -1.327497,0.199806 -2.020361,0.199806 -0.692875,0 -1.368747,-0.06871 -2.020369,-0.199806 L 65.700595,80.88618 c -0.906519,-0.28973 -1.731557,-0.747151 -2.434031,-1.332929 l -2.468199,1.05369 c -0.900663,-0.945687 -1.596068,-2.069888 -2.019679,-3.309779 l 2.201092,-1.494456 c -0.09005,-0.428729 -0.137295,-0.872093 -0.137295,-1.325844 0,-0.453752 0.04726,-0.897113 0.137295,-1.325839 l -2.201092,-1.494461 c 0.423611,-1.239884 1.119016,-2.36409 2.019723,-3.309789 l 2.46817,1.0537 c 0.70247,-0.585778 1.527522,-1.043053 2.434028,-1.332932 l 0.268831,-2.550001 c 0.651627,-0.131057 1.327496,-0.19977 2.020371,-0.19977 0.692871,0 1.36873,0.06871 2.020365,0.19977 l 0.26883,2.550001 c 0.906513,0.289729 1.731555,0.747154 2.43404,1.332932 l 2.468162,-1.0537 c 0.900721,0.945699 1.596109,2.069905 2.019727,3.309789 l -2.201097,1.494461 c 0.09005,0.428726 0.137259,0.872087 0.137259,1.325839 0,0.453751 -0.04732,0.897115 -0.137259,1.325844 z m -7.01012,1.466549 c 1.547217,-0.03977 2.992744,-1.077765 2.952936,-2.642427 -0.04611,-1.810441 -1.340834,-2.962222 -2.952936,-2.941773 -1.719388,0.02253 -2.95292,1.124767 -2.95292,2.792079 0,1.626449 1.534423,2.828478 2.95292,2.792121 z"
       id="path9"
       style="display:inline;fill:url(#radialGradient1795);fill-opacity:1;stroke-width:1.44853"
       sodipodi:nodetypes="ccccccsccccccsccccccsccccccscsssss" /></g></svg>
