<?xml version="1.0" encoding="UTF-8"?>
<!-- Generator: Adobe Illustrator 18.1.1, SVG Export Plug-In . SVG Version: 6.00 Build 0)  -->
<svg version="1.1" id="Brush" xmlns="http://www.w3.org/2000/svg" xmlns:xlink="http://www.w3.org/1999/xlink" x="0px" y="0px" viewBox="0 0 96 96" enable-background="new 0 0 96 96" xml:space="preserve">
<radialGradient id="SVGID_1_" cx="45.0842" cy="40.375" r="57.7252" gradientTransform="matrix(1.0909 0 0 1.1089 -10.9091 -12.7915)" gradientUnits="userSpaceOnUse">
	<stop offset="0" style="stop-color:#4B3D31"/>
	<stop offset="0.7669" style="stop-color:#241405"/>
</radialGradient>
<rect fill-rule="evenodd" clip-rule="evenodd" fill="url(#SVGID_1_)" width="96" height="96"/>
<g>
	<path fill-rule="evenodd" clip-rule="evenodd" fill="#FF7618" d="M6.7,47.6c0,22.8,18.5,41.3,41.3,41.3s41.3-18.5,41.3-41.3   S70.8,6.3,48,6.3S6.7,24.7,6.7,47.6z M11,47.6c0-20.5,16.6-37.1,37-37.1s37,16.6,37,37.1S68.5,84.6,48,84.6S11,68,11,47.6z"/>
	<path fill-rule="evenodd" clip-rule="evenodd" fill="#FFE0CB" d="M48,23c3,0,5.7,1.8,7,4.3c-0.7,0.4-1.3,0.9-1.9,1.5   c-1.3,1.3-3.1,2.1-5,2.1c-1.9,0-3.7-0.7-5-2.1c-0.6-0.6-1.2-1.1-1.9-1.5C42.3,24.8,45,23,48,23z M55.7,29.9c0,0.3,0,0.6,0,0.9   c0,5,4.1,9,9,9c0.3,0,0.6,0,0.9,0c-0.2,0.3-0.5,0.6-0.7,0.9c-1.8,1.8-2.8,4.2-2.8,6.8c0,2.6,1,5,2.8,6.8c0.3,0.3,0.5,0.6,0.7,0.9   c-0.3,0-0.6,0-0.9,0c-5,0-9,4-9,9c0,0.3,0,0.6,0,0.9c-0.3-0.2-0.6-0.5-0.9-0.7c-1.8-1.8-4.2-2.8-6.8-2.8s-5,1-6.8,2.8   c-0.3,0.3-0.6,0.5-0.9,0.7c0-0.3,0-0.6,0-0.9c0-5-4-9-9-9c-0.3,0-0.6,0-0.9,0c0.2-0.3,0.5-0.6,0.7-0.9c1.8-1.8,2.8-4.2,2.8-6.8   c0-2.6-1-5-2.8-6.8c-0.3-0.3-0.5-0.6-0.7-0.9c0.3,0,0.6,0,0.9,0c5,0,9-4,9-9c0-0.3,0-0.6,0-0.9c0.3,0.2,0.6,0.5,0.9,0.7   c1.8,1.8,4.2,2.8,6.8,2.8c2.6,0,5-1,6.8-2.8C55.1,30.4,55.4,30.2,55.7,29.9z M68.2,40.6c2.6,1.3,4.3,3.9,4.3,6.9   c0,3-1.8,5.7-4.3,6.9c-0.4-0.7-0.9-1.3-1.5-1.9c-1.3-1.3-2.1-3.1-2.1-5c0-1.9,0.7-3.7,2.1-5C67.3,41.9,67.8,41.3,68.2,40.6z    M55,67.7c-1.3,2.6-3.9,4.3-7,4.3c-3,0-5.7-1.8-7-4.3c0.7-0.4,1.3-0.9,1.9-1.5c1.3-1.3,3.1-2.1,5-2.1c1.9,0,3.7,0.7,5,2.1   C53.6,66.8,54.3,67.3,55,67.7z M27.8,54.5c-2.6-1.3-4.3-3.9-4.3-6.9c0-3,1.8-5.7,4.3-6.9c0.4,0.7,0.9,1.3,1.5,1.9   c1.3,1.3,2.1,3.1,2.1,5c0,1.9-0.7,3.7-2.1,5C28.7,53.2,28.2,53.8,27.8,54.5z M48,73.3c3.5,0,6.6-2.1,8.1-5c1.2,0.5,2.4,0.8,3.8,0.8   c2.6,0,5-1,6.8-2.8c1.8-1.8,2.8-4.2,2.8-6.8c0-1.3-0.3-2.6-0.8-3.8c3-1.5,5-4.5,5-8.1s-2.1-6.6-5-8.1c0.5-1.2,0.8-2.5,0.8-3.8   c0-2.6-1-5-2.8-6.8C64.9,27,62.4,26,59.9,26c-1.3,0-2.6,0.3-3.8,0.8c-1.5-3-4.5-5.1-8.1-5.1c-3.5,0-6.6,2.1-8.1,5.1   c-1.2-0.5-2.5-0.8-3.8-0.8c-2.6,0-5,1-6.8,2.8c-1.8,1.8-2.8,4.3-2.8,6.8c0,1.3,0.3,2.6,0.8,3.8c-3,1.5-5,4.5-5,8.1s2.1,6.6,5,8.1   c-0.5,1.2-0.8,2.5-0.8,3.8c0,2.6,1,5,2.8,6.8c1.8,1.8,4.2,2.8,6.8,2.8c1.3,0,2.6-0.3,3.8-0.8C41.4,71.3,44.5,73.3,48,73.3z    M56.9,65.9c0.1-0.5,0.1-1,0.1-1.6c0-4.3,3.5-7.7,7.7-7.7c0.5,0,1,0,1.5-0.1c0.4,0.9,0.6,1.9,0.6,3c0,1.9-0.7,3.7-2.1,5   c-1.3,1.3-3.1,2.1-5,2.1C58.8,66.5,57.8,66.3,56.9,65.9z M66.3,38.7c-0.5-0.1-1-0.1-1.5-0.1c-4.3,0-7.7-3.5-7.7-7.7   c0-0.5,0-1-0.1-1.6c0.9-0.4,1.9-0.6,3-0.6c1.9,0,3.7,0.7,5,2.1c1.3,1.3,2.1,3.1,2.1,5C67,36.7,66.7,37.7,66.3,38.7z M39.1,29.2   c-0.1,0.5-0.1,1-0.1,1.6c0,4.3-3.5,7.7-7.7,7.7c-0.5,0-1,0-1.5,0.1c-0.4-0.9-0.6-1.9-0.6-3c0-1.9,0.7-3.7,2.1-5   c1.3-1.3,3.1-2.1,5-2.1C37.2,28.6,38.2,28.8,39.1,29.2z M29.7,56.4c0.5,0.1,1,0.1,1.5,0.1c4.3,0,7.7,3.5,7.7,7.7c0,0.5,0,1,0.1,1.6   c-0.9,0.4-1.9,0.6-3,0.6c-1.9,0-3.7-0.7-5-2.1c-1.3-1.3-2.1-3.1-2.1-5C29,58.4,29.3,57.4,29.7,56.4z"/>
</g>
<head xmlns=""/></svg>