<?xml version="1.0" encoding="utf-8"?>
<!-- Generator: Adobe Illustrator 22.1.0, SVG Export Plug-In . SVG Version: 6.00 Build 0)  -->
<svg version="1.1" id="Слой_1" xmlns="http://www.w3.org/2000/svg" xmlns:xlink="http://www.w3.org/1999/xlink" x="0px" y="0px"
	 viewBox="0 0 50 50" style="enable-background:new 0 0 50 50;" xml:space="preserve">
<style type="text/css">
	.st0{fill:url(#SVGID_1_);}
	.st1{fill:#FFFFFF;}
	.st2{font-family:'EuclidCircularB-MediumItalic';}
	.st3{font-size:7.0313px;}
</style>
<g>
	<g>
		
			<linearGradient id="SVGID_1_" gradientUnits="userSpaceOnUse" x1="25" y1="50" x2="25" y2="0" gradientTransform="matrix(1 0 0 -1 0 50)">
			<stop  offset="0" style="stop-color:#15D478"/>
			<stop  offset="1" style="stop-color:#13BD6B"/>
		</linearGradient>
		<rect class="st0" width="50" height="50"/>
		<g>
			<g>
				<path class="st1" d="M35.9,9.2V25h-3.7V10L35.9,9.2z"/>
				<path class="st1" d="M25.3,13.7c-3.2,0-5.8,2.6-5.8,5.8s2.6,5.8,5.8,5.8c3.2,0,5.8-2.6,5.8-5.8S28.5,13.7,25.3,13.7z M25.3,21.3
					c-1,0-1.9-0.8-1.9-1.9c0-1,0.8-1.9,1.9-1.9c1,0,1.9,0.8,1.9,1.9C27.1,20.5,26.3,21.3,25.3,21.3z"/>
				<path class="st1" d="M25.3,30.3c1,0,1.9-0.8,1.9-1.9c0-1-0.8-1.9-1.9-1.9c-1,0-1.9,0.8-1.9,1.9C23.4,29.4,24.2,30.3,25.3,30.3z"
					/>
				<path class="st1" d="M16.9,16.6c0.5-0.7,0.7-1.6,0.7-2.6c0-2.7-2.2-4.9-4.9-4.9h-2.1H7V25h3.8h2.8c2.7,0,4.9-2.2,4.9-4.9
					C18.4,18.8,17.8,17.6,16.9,16.6z M10.7,12.9h2.1c0.6,0,1.2,0.5,1.2,1.2c0,0.6-0.5,1.2-1.2,1.2h-2.1V12.9z M13.5,21.3h-2.8V19
					h2.8c0.6,0,1.2,0.5,1.2,1.2C14.7,20.8,14.1,21.3,13.5,21.3z"/>
				<path class="st1" d="M43,17.6v-3.7h-1.9V11l-3.8,0.8v5.8v3.8c0,0,0,0,0,0c0,2.3,1.4,3.6,3.5,3.7c0,0,0.1,0,0.1,0h0
					c0.1,0,0.1,0,0.1,0c0,0,0,0,0.1,0c1,0,1.8-0.5,1.8-0.5V22c0,0-0.3,0.1-0.8,0.1c-0.7,0-1-0.7-1-1.5v-2.9H43z"/>
			</g>
		</g>
	</g>
	<text transform="matrix(1 0 0 1 14.0596 39.9893)" class="st1 st2 st3">Toolkit</text>
</g>
</svg>
