<?xml version="1.0" encoding="UTF-8" standalone="no"?>
<svg
   xmlns="http://www.w3.org/2000/svg"
   width="16"
   height="16"
   viewBox="0 0 4.2333332 4.2333332"
   version="1.1"
   id="svg8">
  <defs
     id="defs2" />
  <g
     id="layer1"
     transform="translate(-67.3483,-57.778332)">
    <path
       d="m 71.535592,60.622867 c 0.01295,-0.214914 -0.0725,-0.383221 -0.258932,-0.489382 -0.178664,-0.10357 -0.401346,-0.08545 -0.561884,0.04661 -0.05956,0.05179 -0.106167,0.119107 -0.160538,0.176072 -0.0077,0.0052 -0.02072,0.0025 -0.03366,0 -0.145002,-0.03625 -0.621438,-0.157949 -0.774208,-0.199378 0.0077,-0.06991 0,-0.142413 -0.02072,-0.209733 -0.0751,-0.248577 -0.323666,-0.409115 -0.582598,-0.372864 -0.02589,-0.09322 -0.142413,-0.504919 -0.163128,-0.580009 -0.0233,-0.08026 -0.04661,-0.160539 -0.0725,-0.243397 l 0.02849,-0.01812 c 0.186431,-0.106167 0.284826,-0.315899 0.245986,-0.528223 -0.03366,-0.199378 -0.186432,-0.359917 -0.38581,-0.401346 -0.06214,-0.01295 -0.129466,-0.0077 -0.194199,-0.01295 -0.04143,0.01295 -0.08027,0.0233 -0.121698,0.03625 -0.0052,0.0025 -0.01039,0.0077 -0.01554,0.01039 -0.19161,0.0984 -0.290005,0.258933 -0.287415,0.471257 0.0025,0.204557 0.132055,0.388399 0.326255,0.455722 0.0751,0.02589 0.155359,0.03107 0.233039,0.04661 0.0077,0.0025 0.01295,0.01812 0.01812,0.03107 0.04402,0.145001 0.186431,0.624028 0.227861,0.76903 0.0025,0.0025 0.0025,0.0077 0.0025,0.01039 -0.238218,0.113929 -0.357327,0.383219 -0.279647,0.634384 0.01812,0.05696 0.04402,0.111341 0.08027,0.157949 -0.07768,0.08286 -0.26929,0.30554 -0.323665,0.365094 -0.06214,0.06991 -0.124288,0.137236 -0.189021,0.207148 -0.01295,-0.0077 -0.0233,-0.01039 -0.03366,-0.01812 -0.209735,-0.11393 -0.450542,-0.08803 -0.639563,0.06733 -0.170895,0.147591 -0.235628,0.38322 -0.163127,0.595544 0.0233,0.06733 0.06733,0.126877 0.100984,0.191611 0.03366,0.03107 0.06991,0.06214 0.10357,0.09322 0.0077,0.0025 0.01295,0.0052 0.02072,0.0077 0.201967,0.124287 0.409113,0.126877 0.608491,0.0025 0.194201,-0.119108 0.292594,-0.346968 0.243397,-0.56965 -0.01812,-0.08545 -0.05956,-0.165717 -0.09063,-0.245986 -0.0025,-0.01039 0.0077,-0.02072 0.02072,-0.03366 0.111341,-0.121699 0.362507,-0.401346 0.473848,-0.523044 0.0025,-0.0025 0.0025,-0.0052 0.0052,-0.0077 0.245985,0.160538 0.57483,0.09322 0.735368,-0.152771 0.01554,-0.02589 0.03107,-0.05179 0.04402,-0.08027 0.116521,0.03107 0.497152,0.134644 0.569653,0.155359 0.08286,0.02072 0.163127,0.04143 0.245986,0.06473 v 0.03366 c -0.0052,0.214914 0.124288,0.409114 0.326255,0.484204 0.191609,0.07509 0.406524,0.02589 0.546348,-0.124288 0.04402,-0.04661 0.07509,-0.108752 0.11134,-0.163127 l 0.03107,-0.124287 c 0.0025,0 0.0025,-0.0077 0.0025,-0.01554 z"
       style="fill:#ff9a00;stroke-width:0.0258932"
       id="path842" />
  </g>
</svg>
