<?xml version="1.0" encoding="UTF-8" standalone="no"?>
<svg
   width="40"
   height="40"
   viewBox="0 0 66.666667 66.666667"
   fill="none"
   version="1.1"
   id="svg114"
   sodipodi:docname="pluginIcon_dark.svg"
   inkscape:version="1.2.1 (9c6d41e, 2022-07-14)"
   xmlns:inkscape="http://www.inkscape.org/namespaces/inkscape"
   xmlns:sodipodi="http://sodipodi.sourceforge.net/DTD/sodipodi-0.dtd"
   xmlns="http://www.w3.org/2000/svg"
   xmlns:svg="http://www.w3.org/2000/svg">
  <defs
     id="defs118" />
  <sodipodi:namedview
     id="namedview116"
     pagecolor="#ffffff"
     bordercolor="#000000"
     borderopacity="0.25"
     inkscape:showpageshadow="2"
     inkscape:pageopacity="0.0"
     inkscape:pagecheckerboard="0"
     inkscape:deskcolor="#d1d1d1"
     showgrid="false"
     inkscape:zoom="7.6104017"
     inkscape:cx="23.454741"
     inkscape:cy="29.4334"
     inkscape:window-width="1512"
     inkscape:window-height="830"
     inkscape:window-x="0"
     inkscape:window-y="38"
     inkscape:window-maximized="0"
     inkscape:current-layer="svg114" />
  <path
     d="m 51.022244,21.598648 10.5108,11.662675 -10.5108,11.806695"
     stroke="#8f48ff"
     stroke-width="5.21715"
     stroke-linecap="round"
     id="path104"
     style="stroke:#d7bdff;stroke-opacity:1" />
  <circle
     cx="18.04936"
     cy="33.333332"
     r="4.8954449"
     fill="#44ea87"
     id="circle106"
     style="stroke-width:0.95" />
  <circle
     cx="31.15271"
     cy="33.333332"
     r="4.8954449"
     fill="#ffa836"
     id="circle108"
     style="stroke-width:0.95" />
  <circle
     cx="44.254158"
     cy="33.333332"
     r="4.8954449"
     fill="#8f48ff"
     id="circle110"
     style="fill:#d7bdff;fill-opacity:1;stroke-width:0.95" />
  <path
     d="M 39.461789,19.077285 C 36.036089,15.912218 31.465354,13.965088 26.433964,13.929853 15.717679,13.854822 6.3174955,23.133367 6.2424645,33.197477 6.2245,35.762572 3.790068,47.707492 3.49876,49.128027 c -0.011257,0.05491 0.047994,0.09481 0.096748,0.06716 l 7.344317,-4.168885 c 0.02761,-0.01568 0.06236,-0.0093 0.08255,0.0152 3.531549,4.28127 9.160774,7.65339 15.139789,7.695285 5.129145,0.03591 9.80742,-1.921565 13.29962,-5.14748"
     stroke="#34373b"
     stroke-width="3.58679"
     stroke-linecap="round"
     id="path112"
     style="stroke:#ffffff;stroke-opacity:1" />
</svg>
