<?xml version="1.0" standalone="no"?><!DOCTYPE svg PUBLIC "-//W3C//DTD SVG 1.1//EN" "http://www.w3.org/Graphics/SVG/1.1/DTD/svg11.dtd"><svg t="1572168651599" class="icon" viewBox="0 0 1024 1024" version="1.1" xmlns="http://www.w3.org/2000/svg" p-id="6747" data-darkreader-inline-fill="" xmlns:xlink="http://www.w3.org/1999/xlink" width="16" height="16"><defs><style type="text/css">[data-darkreader-inline-fill] { fill: var(--darkreader-inline-fill)  !important; }
</style></defs><path d="M281.6 102.4C183.6544 102.4 102.4 183.6544 102.4 281.6S183.6544 460.8 281.6 460.8H460.8V281.6A179.2 179.2 0 0 0 281.6 102.4zM921.6 281.6a179.2 179.2 0 1 0-358.4 0V460.8h179.2C842.3936 460.8 921.6 381.5936 921.6 281.6z m-819.2 460.8C102.4 840.3456 183.6544 921.6 281.6 921.6S460.8 840.3456 460.8 742.4V563.2H281.6A179.2 179.2 0 0 0 102.4 742.4zM742.4 921.6a179.2 179.2 0 0 0 179.2-179.2c0-97.9456-81.2544-179.2-179.2-179.2H563.2v177.152c0 99.9936 79.2064 181.248 179.2 181.248z" p-id="6748" fill="#1296db" data-darkreader-inline-fill="" style="--darkreader-inline-fill:#0f7ab2;"></path></svg>