<svg id="Layer_1" data-name="Layer 1" xmlns="http://www.w3.org/2000/svg" viewBox="0 0 16 16"><defs><style>.cls-1{fill:#fc1264;}.cls-2{fill:#17124b;}.cls-3{fill:#25cde3;}.cls-4{fill:#fdb42b;}.cls-5{fill:#22d685;}</style></defs><path class="cls-1" d="M6.24,2.72,4.11,4.85l.78.78L7,3.5a1.38,1.38,0,0,1,1.9,0l.64.64.78-.78L9.7,2.68A2.48,2.48,0,0,0,6.24,2.72Z"/><path class="cls-2" d="M8.78,11.09,11.1,8.77l.22-.22a.81.81,0,0,0,0-1.14l-.22-.22L8.8,4.89l-.22-.22a.81.81,0,0,0-1.14,0l-.22.22L4.9,7.21l-.21.21a.81.81,0,0,0,0,1.15l.21.22,2.31,2.3.21.21a.81.81,0,0,0,1.15,0ZM5.69,8,8,5.67,10.32,8,8,10.3Z"/><path class="cls-3" d="M9,12.49a1.37,1.37,0,0,1-1.89,0h0l-.66-.65-.78.78.65.65a2.48,2.48,0,0,0,3.46,0l2.14-2.14-.78-.78Z"/><polygon class="cls-3" points="11.9 9.56 11.9 9.56 12.16 9.82 11.9 9.56"/><polygon class="cls-1" points="3.32 5.63 3.71 6.03 3.32 5.63 3.32 5.63"/><path class="cls-4" d="M3.5,9a1.37,1.37,0,0,1,0-1.89l.65-.65-.79-.78-.64.64h0a2.48,2.48,0,0,0,0,3.46l2.13,2.13.78-.78Z"/><path class="cls-5" d="M13.28,6.24,11.15,4.11l-.78.78L12.5,7a1.37,1.37,0,0,1,0,1.89l-.64.65.78.78.64-.64A2.48,2.48,0,0,0,13.28,6.24Z"/></svg>