<svg width="138" height="138" viewBox="0 0 138 138" fill="none" xmlns="http://www.w3.org/2000/svg">
  <path d="M 0,135.46 C 15.7521,129.429 34.1035,101.535 34.1035,68.2516 34.1035,30.5573 15.7066,3.30277 0,0 H 104.69 V 0.0398176 C 123.193,1.28022 138,31.345 138,68.2516 c 0,31.2061 -10.586,59.0004 -25.042,67.1354 -2.614,1.097 -5.176,2.179 -8.024,2.538 -4.85,0.393 -9.012,-0.807 -13.433,-2.529 -7.831,-3.051 -13.599,-3.065 -21.399,0.064 -2.902,1.165 -5.744,2.257 -8.913,2.465 -4.252,0 -7.95,-0.958 -11.809,-2.58 -8.196,-3.442 -11.582,-3.416 -21.4004,0.115 -3.3485,1.205 -7.6363,2.465 -11.0478,2.465 C 11.5326,138.15 3.2449,136.318 0,135.46 Z" fill="#ffffff" />
</svg>
