<?xml version="1.0" encoding="UTF-8"?>
<!DOCTYPE svg PUBLIC "-//W3C//DTD SVG 1.1//EN" "http://www.w3.org/Graphics/SVG/1.1/DTD/svg11.dtd">
<!-- Creator: CorelDRAW 2020 (64-Bit) -->
<svg xmlns="http://www.w3.org/2000/svg" xml:space="preserve" width="80px" height="80px" version="1.1"
     style="shape-rendering:geometricPrecision; text-rendering:geometricPrecision; image-rendering:optimizeQuality; fill-rule:evenodd; clip-rule:evenodd"
     viewBox="0 0 80 80">
 <defs>
  <style type="text/css">
   <![CDATA[
    .fil0 {fill:#2D8CFF}
   ]]>
  </style>
 </defs>
    <g id="Layer_x0020_1">
  <metadata id="CorelCorpID_0Corel-Layer"/>
        <path class="fil0"
              d="M1 32.411l0 0.291c0.191,1.376 1.617,1.586 3.044,2.428 0.381,0.243 0.761,0.437 1.237,0.664l1.141 0.631c0.381,0.226 0.856,0.42 1.237,0.647 1.331,0.793 2.758,1.44 4.185,2.217l4.186 2.266c0.19,0.113 0.38,0.178 0.57,0.307 0.286,0.13 0.381,0.21 0.666,0.356l7.229 3.868c0.476,0.21 0.761,0.404 1.237,0.631 0.38,0.227 0.761,0.421 1.141,0.647l6.659 3.496c0.19,0.146 0.285,0.227 0.571,0.356 1.426,0.712 2.853,1.586 4.28,2.266l0.666 0.307c0,2.249 -0.285,5.599 -0.38,8.027 0,0.437 -0.095,0.485 -0.095,0.89 0,0.356 0.095,0.728 0,1.068l-0.096 2.007c-0.095,0.615 -0.095,1.44 0.096,1.861 0.38,0.663 0.856,0.89 1.331,0.89 0.571,0 1.142,-0.243 1.617,-0.534l1.237 -0.664c2.283,-1.133 4.47,-2.379 6.754,-3.576 1.712,-0.939 3.899,-2.007 5.517,-2.978 0.38,-0.243 0.856,-0.388 1.236,-0.631 0.191,-0.146 0.381,-0.194 0.571,-0.324l5.517 -2.977c0.476,-0.243 0.856,-0.389 1.332,-0.632 1.997,-1.197 4.09,-2.103 6.087,-3.301 1.237,-0.712 3.805,-1.926 4.947,-2.605 0.951,-0.567 2.949,-1.505 3.615,-1.975 0.475,-0.291 0.666,-0.582 0.666,-1.262l0 -12.461c0,-0.372 -0.096,-0.744 -0.286,-0.955 -0.571,-0.728 -1.332,-0.323 -1.998,0.033l-5.612 2.977c-1.617,0.955 -3.805,2.04 -5.517,2.946l-20.071 10.68c-0.38,0.211 -0.76,0.438 -1.046,0.632 -1.712,0.89 -1.712,1.051 -2.283,0.631 -0.761,-0.437 -1.522,-0.745 -2.188,-1.181l-1.712 -0.874c-0.19,-0.114 -0.38,-0.195 -0.571,-0.308l-8.846 -4.741c-0.381,-0.211 -0.761,-0.389 -1.141,-0.583 -1.903,-0.955 -3.71,-2.023 -5.517,-2.978l-8.942 -4.741c-0.38,-0.162 -6.468,-3.334 -6.659,-3.658 0.286,-0.081 1.618,-0.793 1.998,-1.019l6.088 -3.269c1.998,-1.052 3.995,-2.217 6.088,-3.253l12.08 -6.522c0.666,-0.388 1.427,-0.68 2.093,-1.084 0.951,-0.566 1.997,-1.1 3.044,-1.618 0.285,-0.195 0.571,-0.421 1.046,-0.518 0,1.586 -0.19,10.341 0.095,11.053 0.095,0.34 0.286,0.582 0.571,0.793 0.381,0.356 17.788,9.548 18.073,9.726 3.52,1.699 2.283,1.861 5.517,0.21 2.569,-1.246 5.042,-2.719 7.515,-3.981 0.571,-0.259 2.093,-0.987 2.378,-1.44 0.38,-0.664 0.38,-1.619 -0.19,-2.169 -0.286,-0.275 -0.666,-0.453 -1.047,-0.631l-8.656 -4.628c-0.38,-0.194 -0.761,-0.389 -1.141,-0.583 -0.381,-0.194 -0.666,-0.388 -1.046,-0.599l-16.361 -8.706c-1.047,-0.631 -2.189,-1.181 -3.33,-1.748 -0.19,-0.113 -0.285,-0.178 -0.475,-0.307 -0.191,-0.113 -0.286,-0.162 -0.571,-0.291 -1.617,-0.971 -2.283,-0.146 -3.9,0.679l-7.229 3.852c-0.381,0.21 -0.762,0.356 -1.142,0.599 -1.237,0.744 -2.949,1.553 -4.281,2.265l-1.141 0.631c-0.285,0.13 -0.38,0.211 -0.666,0.34l-2.378 1.295c-0.476,0.226 -0.761,0.388 -1.141,0.631l-16.837 8.998c-0.38,0.226 -0.666,0.631 -0.666,1.213z"/>
 </g>
</svg>
