<svg xmlns="http://www.w3.org/2000/svg" width="40" height="40" viewBox="0 0 40 40">
  <defs>
    <linearGradient id="pluginicon-a" x1="46.875%" x2="46.875%" y1="100%" y2="0%">
      <stop offset="0%" stop-color="#D45500"/>
      <stop offset="100%" stop-color="#DD6900"/>
    </linearGradient>
  </defs>
  <g fill="none">
    <rect width="40" height="40" fill="url(#pluginicon-a)" rx="1"/>
    <path fill="#FFF" d="M12.983 33.75A1.34 1.34 0 0 0 13.84 32.5V28.75H19.863C24.4 28.75 27.813 24.825 27.813 20.02 27.813 16.637 26.09 13.634 23.465 12.18A1.34 1.34 0 0 0 23.799 10.924L22.699 6.523C29.437 7.737 33.811 12.91 33.811 19.98 33.813 28.143 27.962 33.75 19.45 33.75H12.983z"/>
    <path fill="#FFF" d="M6.25 33.75L12.5 32.5V22.5H20V17.5H12.5V11.25H22.5L21.25 6.25H6.25z"/>
  </g>
</svg>
