<?xml version="1.0" encoding="UTF-8"?>
<svg width="13px" height="13px" viewBox="0 0 13 13" version="1.1" xmlns="http://www.w3.org/2000/svg" xmlns:xlink="http://www.w3.org/1999/xlink">
    <title>扫描迁移-深色</title>
    <defs>
        <polygon id="path-1" points="0 0 9.49095789 0 9.49095789 9.43399737 0 9.43399737"></polygon>
    </defs>
    <g id="切图" stroke="none" stroke-width="1" fill="none" fill-rule="evenodd">
        <g id="画板" transform="translate(-278.000000, -16.000000)">
            <g id="扫描迁移-深色" transform="translate(278.000000, 16.000000)">
                <polygon id="Fill-1" fill="#D20D17" points="5.81613158 7.43110789 5.44289474 8.47623947 3.75084211 8.18887105 5.74668421 9.61545 13 3.71789737"></polygon>
                <polygon id="Fill-2" fill="#DADADA" points="6.05505789 9.83607368 10.4812158 12.9998632 8.60511053 9.97291579 12.4835579 4.56012632"></polygon>
                <g id="编组" transform="translate(0.000000, -0.000000)">
                    <g>
                        <mask id="mask-2" fill="white">
                            <use xlink:href="#path-1"></use>
                        </mask>
                        <g id="Clip-4"></g>
                        <path d="M3.44698421,9.04365526 C3.23316842,8.89073421 3.09803684,8.66528684 3.05048421,8.42102368 C1.66495789,7.77683947 0.699878947,6.37591842 0.699878947,4.74989211 C0.699878947,2.51662895 2.5168,0.70005 4.75006316,0.70005 C6.98298421,0.70005 8.79990526,2.51662895 8.79990526,4.74989211 C8.79990526,4.81283947 8.79340526,4.87407632 8.79066842,4.93599737 L9.49095789,4.57405 C9.39790526,2.03255 7.3138,-0.000239473684 4.75006316,-0.000239473684 C2.1268,-0.000239473684 -6.84210526e-05,2.12662895 -6.84210526e-05,4.74989211 C-6.84210526e-05,7.11520789 1.7303,9.07102368 3.99298421,9.43399737 L3.44698421,9.04365526 Z" id="Fill-3" fill="#AFB1B3" mask="url(#mask-2)"></path>
                    </g>
                    <polygon id="Fill-5" fill="#AFB1B3" points="6.03631053 5.07472105 6.03631053 5.31761579 4.62991579 6.06340526 4.62991579 2.70940526 6.03631053 3.26019474 6.03631053 3.49522105 6.22788947 3.40148421 6.22788947 3.11240526 4.18723158 2.03135263 4.18723158 6.8328 6.22788947 5.54751053 6.22788947 5.18898421"></polygon>
                    <polygon id="Fill-7" fill="#AFB1B3" points="3.75084211 2.64139474 2.9055 2.19802632 2.9055 6.52086842 3.75084211 5.86984211 3.75084211 5.50960526 3.32834211 5.71726316 3.32834211 2.77994737 3.75084211 3.02934211"></polygon>
                    <path d="M6.92800789,4.80257632 L6.92800789,3.71776053 C6.54245526,4.18678684 5.18224474,4.18678684 5.18224474,4.18678684 C5.18224474,4.18678684 6.53800789,4.31541842 6.92800789,4.80257632" id="Fill-9" fill="#AFB1B3"></path>
                </g>
            </g>
        </g>
    </g>
</svg>