<?xml version="1.0" encoding="UTF-8"?>
<svg width="17px" height="16px" viewBox="0 0 17 16" version="1.1" xmlns="http://www.w3.org/2000/svg" xmlns:xlink="http://www.w3.org/1999/xlink">
    <title>开发框架-浅色-16</title>
    <defs>
        <polygon id="path-1" points="2.94821053 4.93515789 2.48842105 6.22147368 0.406315789 5.86778947 2.86231579 7.62357895 11.7898947 0.365052632"></polygon>
        <linearGradient x1="-0.00260985353%" y1="49.9984721%" x2="99.9974297%" y2="49.9984721%" id="linearGradient-3">
            <stop stop-color="#D50817" offset="0%"></stop>
            <stop stop-color="#B11019" offset="100%"></stop>
        </linearGradient>
        <polygon id="path-4" points="-1.50990331e-14 0.000168421053 11.6812632 0.000168421053 11.6812632 11.6109474 -1.50990331e-14 11.6109474"></polygon>
        <polygon id="path-6" points="0 16 16 16 16 0 0 0"></polygon>
    </defs>
    <g id="切图" stroke="none" stroke-width="1" fill="none" fill-rule="evenodd">
        <g id="图标切图" transform="translate(-152.000000, -81.000000)">
            <g id="开发框架-浅色-16" transform="translate(152.000000, 81.000000)">
                <g id="编组" transform="translate(4.210526, 4.210695)">
                    <mask id="mask-2" fill="white">
                        <use xlink:href="#path-1"></use>
                    </mask>
                    <g id="Clip-2"></g>
                    <polygon id="Fill-1" fill="url(#linearGradient-3)" mask="url(#mask-2)" points="2.94821053 4.93515789 2.48842105 6.22147368 0.406315789 5.86778947 2.86231579 7.62357895 11.7898947 0.365052632"></polygon>
                </g>
                <polygon id="Fill-3" fill="#7E7E7E" points="7.45275789 12.1057263 12.9003368 16.0000421 10.5908632 12.2745684 15.3643368 5.61267368"></polygon>
                <g id="编组" transform="translate(0.000000, 0.000168)">
                    <g id="编组-2" transform="translate(0.000000, -0.000168)">
                        <mask id="mask-5" fill="white">
                            <use xlink:href="#path-4"></use>
                        </mask>
                        <g id="Clip-5"></g>
                        <path d="M4.24252632,11.1305263 C3.97936842,10.9423158 3.81305263,10.6648421 3.75452632,10.3642105 C2.04926316,9.57136842 0.861473684,7.84715789 0.861473684,5.84589474 C0.861473684,3.09768421 3.09768421,0.861473684 5.84631579,0.861473684 C8.59452632,0.861473684 10.8307368,3.09768421 10.8307368,5.84589474 C10.8307368,5.92336842 10.8227368,5.99873684 10.8193684,6.07494737 L11.6812632,5.62947368 C11.5667368,2.50189474 9.00168421,3.55271368e-15 5.84631579,3.55271368e-15 C2.61768421,3.55271368e-15 -1.50990331e-14,2.61726316 -1.50990331e-14,5.84589474 C-1.50990331e-14,8.75705263 2.12968421,11.1642105 4.91452632,11.6109474 L4.24252632,11.1305263 Z" id="Fill-4" fill="#7E7E7E" mask="url(#mask-5)"></path>
                    </g>
                    <polygon id="Fill-6" fill="#7E7E7E" points="4.66808421 3.00926316 5.11734737 3.28336842 3.67818947 4.73263158 5.11734737 6.16463158 4.6744 6.43663158 2.84576842 4.72294737"></polygon>
                    <polygon id="Fill-8" fill="#7E7E7E" points="7.13890526 3.00926316 6.68964211 3.28336842 8.1288 4.73263158 6.68964211 6.16463158 7.13258947 6.43663158 8.96122105 4.72294737"></polygon>
                    <polygon id="Fill-10" fill="#7E7E7E" points="5.7528 6.06741053 5.36543158 6.26909474 6.04206316 3.10235789 6.35364211 3.25772632"></polygon>
                    <mask id="mask-7" fill="white">
                        <use xlink:href="#path-6"></use>
                    </mask>
                    <g id="Clip-13"></g>
                    <polygon id="Fill-12" fill="#7E7E7E" mask="url(#mask-7)" points="3.86863158 7.91115789 7.88336842 7.91115789 7.88336842 7.39747368 3.86863158 7.39747368"></polygon>
                </g>
            </g>
        </g>
    </g>
</svg>