<?xml version="1.0" encoding="UTF-8"?>
<svg width="128px" height="128px" viewBox="0 0 128 128" version="1.1" xmlns="http://www.w3.org/2000/svg" xmlns:xlink="http://www.w3.org/1999/xlink">
    <title>开发框架</title>
    <g id="页面-1" stroke="none" stroke-width="1" fill="none" fill-rule="evenodd">
        <g id="画板" transform="translate(-247.000000, -97.000000)">
            <rect fill="#8C8C8C" x="0" y="0" width="1270" height="1154"></rect>
            <g id="编组" transform="translate(247.000000, 97.000000)">
                <polygon id="Fill-1" fill="#FFFFFF" points="0 128 128 128 128 0 0 0"></polygon>
                <polygon id="Fill-4" fill="#CF0D18" points="68.5767 78.5088 66.2797 84.9368 55.8727 83.1718 68.1467 91.9448 112.7617 55.6718"></polygon>
                <polygon id="Fill-5" fill="#DADADA" points="70.0454 93.3013 97.2674 112.7613 85.7294 94.1443 109.5844 60.8513"></polygon>
                <path d="M58.3091,24.3623 L85.8991,30.8473 L58.3091,40.5633 L30.7191,30.8473 L58.3091,24.3623 Z M95.6341,27.8213 L58.9011,18.7953 L57.7171,18.7953 L20.9841,27.8213 L17.9501,30.3393 L17.9501,84.3033 L20.4541,86.6343 L47.2011,99.5103 C47.7401,99.3213 48.0421,99.2163 48.5811,99.0273 L49.9281,96.2303 C49.7391,95.6913 49.6341,95.3883 49.4451,94.8493 L24.0451,82.6783 L24.0451,34.2153 L54.5211,44.9463 L54.5211,74.8643 L60.6171,75.6403 L60.6171,44.9463 L91.0931,34.2153 L91.0931,56.7573 L97.1881,54.1703 L97.1881,30.3393 L95.6341,27.8213 Z" id="Fill-6" fill="#000000"></path>
            </g>
        </g>
    </g>
</svg>