<svg id="Layer1" data-name="Layer1" xmlns="http://www.w3.org/2000/svg" viewBox="0 0 545.87 545.79"><defs><style>.cls-1{fill:#19afaf;}</style></defs><path class="cls-1" d="M662.61,107.18C502.37,102.35,379.77,231.42,380,380.52c.71,150.78,121.37,268.63,264.61,272.23,160.65,4,277-123,281.13-262.51C930.62,227.77,802.29,111.4,662.61,107.18ZM876.25,466.81c-3.33,6.68-6,13.7-9.2,20.43-.87,1.8-2.81,3.08-4.25,4.6h0l-.9,1.13,0,0c-.29.36-.57.73-.86,1.1-8.24,11.32-20.38,17.39-32.25,23.8-22.14,11.95-45.18,21-70.58,23.42-27,2.51-53.1-1.81-78.79-9.69C662.6,526.4,645.81,521,628.9,515.93c-37.86-11.27-75.35-9.09-112.42,3.73-12.54,4.34-25,9-37.38,13.67a36,36,0,0,0-5.16,3c-.95-.26-2.27-.2-2.79-.82a235.1,235.1,0,0,1-42.32-71.73c-1.32-3.58-2.46-7.25-4-10.74-1.44-3.29-.56-5.89,1.84-8.09,9.19-8.41,18.47-16.71,27.66-25.11q9.75-8.91,19.37-18c12-11.28,23.48-23.14,36.15-33.59,3.41-2.81,10.46-2.43,15.58-1.7,23,3.27,43,14.31,62.92,25.38,16.4,9.11,32.34,19.14,50.76,24.05,22.44,6,44.68,5.77,66.45-2.38,8.58-3.21,16.48-8.23,24.84-12.07,1.77-.82,4.78-.94,6.31,0,10.62,6.8,21,13.92,31.46,21,11.81,8.05,25.11,11.51,39.09,11.29,13.35-.22,24.19-4.3,37.21-11.85,3.88,4.25,8,8.54,11.85,13,5.79,6.61,11.33,13.45,17.22,20C876.81,458.54,878.72,461.84,876.25,466.81ZM544.8,334.11c2-2.7,3.5-5.22,5.42-7.39,14-15.76,28-31.43,42-47.16,4.16-4.67,5.5-4.51,9.79.11,15.25,16.43,29.89,33.52,46.17,48.87,16.61,15.66,34.89,29.55,52.42,44.23,1.22,1,2.32,2.19,4.12,3.91a63.29,63.29,0,0,1-40,8.9c-20.38-2-37.57-11.86-54.67-21.75-19.79-11.44-39.68-22.45-61.95-28.4A33.6,33.6,0,0,1,544.8,334.11Zm211.13,35.3c8.42-8.2,16.16-15.9,24.18-23.31.7-.65,3.91,0,4.68,1,11,14.57,21.63,29.38,32.62,43.94,2.62,3.48,1.4,4.89-1.84,6.16-9,3.55-17.72,2.72-25.58-2.83-9.73-6.88-19.13-14.23-28.69-21.36C760,372.06,758.59,371.2,755.93,369.41Zm131.35,47.25c-36.79-41.18-70.23-83.54-98.26-130.89-2.09,1.88-3.58,3.11-4.94,4.47q-25.83,25.78-51.64,51.6c-4.22,4.21-5.46,4.17-10,.36-14.7-12.41-29.89-24.29-44.06-37.28s-27.6-26.94-41-40.82c-9.56-9.91-18.56-20.36-27.72-30.65-3.08-3.47-5.84-7.22-8.8-10.79-3.26-3.93-5-3.8-8.29.05-13.09,15.47-26,31-39.42,46.25-11.18,12.72-22.61,25.25-34.4,37.41q-34.42,35.52-69.41,70.48c-8.8,8.81-18.2,17-27.39,25.43-1.25,1.15-2.89,1.87-5.16,3.3-3.77-29.86-1-58.28,6.34-86.21,12.49-47.16,37.07-87.33,74.15-118.89C592,119.92,716,128.38,798.05,191.7,882.08,256.55,899.37,354.92,887.28,416.66Z" transform="translate(-380.02 -107.05)"/></svg>