<?xml version="1.0" encoding="UTF-8"?>
<svg width="60px" height="60px" viewBox="0 0 60 60" version="1.1" xmlns="http://www.w3.org/2000/svg" xmlns:xlink="http://www.w3.org/1999/xlink">
    <title>编译调试-应用商城</title>
    <defs>
        <polygon id="path-1" points="0 0 43.8044211 0 43.8044211 43.5415263 0 43.5415263"></polygon>
    </defs>
    <g id="切图" stroke="none" stroke-width="1" fill="none" fill-rule="evenodd">
        <g transform="translate(-19.000000, -136.000000)" id="编译调试-应用商城">
            <g transform="translate(19.000000, 136.000000)">
                <polygon id="Fill-1" fill="#D20D17" points="26.8436842 34.2974211 25.1210526 39.1211053 17.3115789 37.7947895 26.5231579 44.379 60 17.1595263"></polygon>
                <polygon id="Fill-2" fill="#DADADA" points="27.9464211 45.3972632 48.3748421 59.9993684 39.7158947 46.0288421 57.6164211 21.0467368"></polygon>
                <g id="编组">
                    <g>
                        <mask id="mask-2" fill="white">
                            <use xlink:href="#path-1"></use>
                        </mask>
                        <g id="Clip-4"></g>
                        <path d="M15.9091579,41.7399474 C14.9223158,41.0341579 14.2986316,39.9936316 14.0791579,38.8662632 C7.68442105,35.8931053 3.23021053,29.4273158 3.23021053,21.9225789 C3.23021053,11.6152105 11.616,3.231 21.9233684,3.231 C32.2291579,3.231 40.6149474,11.6152105 40.6149474,21.9225789 C40.6149474,22.2131053 40.5849474,22.4957368 40.5723158,22.7815263 L43.8044211,21.111 C43.3749474,9.381 33.756,-0.00110526316 21.9233684,-0.00110526316 C9.816,-0.00110526316 -0.000315789474,9.81521053 -0.000315789474,21.9225789 C-0.000315789474,32.8394211 7.986,41.8662632 18.4291579,43.5415263 L15.9091579,41.7399474 Z" id="Fill-3" fill="#FFFFFF" mask="url(#mask-2)"></path>
                    </g>
                    <path d="M29.6998421,9.042 C26.3272105,8.60936842 21.8635263,16.3746316 21.8635263,16.3746316 L26.8451053,15.5709474 L18.4482632,21.3562105 L16.7698421,12.792 L18.9519474,15.2551579 C18.9519474,15.2551579 24.0598421,6.95778947 29.6998421,9.042" id="Fill-5" fill="#FFFFFF"></path>
                    <polygon id="Fill-7" fill="#FFFFFF" points="15.342 16.3192105 8.48463158 22.4755263 24.2141053 28.7092105 32.1625263 19.2292105 23.8856842 26.3771053 10.7235789 21.8597368"></polygon>
                    <polygon id="Fill-9" fill="#FFFFFF" points="11.3537368 24.0851053 10.4300526 26.0587895 25.0321579 31.6166842 29.2905789 24.8051053 25.2563684 33.1135263 9.08636842 26.4787895"></polygon>
                </g>
            </g>
        </g>
    </g>
</svg>