<svg height="40" viewBox="0 0 40 40" width="40" xmlns="http://www.w3.org/2000/svg"><path d="m96 997c-11.045695 0-20-8.954305-20-20s8.954305-20 20-20 20 8.954305 20 20-8.954305 20-20 20zm10.123462-22.221857-11.3579618.000259c-.5453624 0-.9875061.442028-.9876489.98739l-.0011721 2.469023c-.0001428.545463.4419268.987765.9873902.987907.000089 0 .0001779.000001.0002669.000001l6.9147057-.000333c.545464-.000005.987653.442177.987657.98764l-.000008.246893v.246915c0 1.63639-1.326556 2.962947-2.9629465 2.962947l-9.3833994-.000027c-.5453851 0-.9875113-.442114-.9875263-.9875l-.0003676-9.382489c-.0000451-1.63639 1.3264748-2.962983 2.962865-2.963029h.0000817l13.8253081-.000531c.545224 0 .98731-.441812.987648-.987036l.002757-2.469023c.000338-.545463-.441573-.987923-.987036-.988261-.000204 0-.000409 0-.000613 0l-13.827084.000653c-4.0909597 0-7.407344 3.316366-7.4073666 7.407326l-.0001225 13.826594c-.000003.545464.44218.987652.9876434.987655l14.5680947-.000006c3.681798 0 6.666484-2.984686 6.666484-6.666484v-5.678835c0-.545464-.442185-.987649-.987649-.987649z" fill="#c71d23" fill-rule="evenodd" transform="translate(-76 -957)"/></svg>