<svg width="40" height="40" viewBox="0 0 40 40" fill="none" xmlns="http://www.w3.org/2000/svg">
  <g clip-path="url(#clip0)">
    <path d="M26.8468 17.4265L7.60681 21.4511C7.10922 21.5341 6.61164 21.6171 6.11405 21.7831C4.57983 22.2395 3.25293 23.1523 2.25776 24.4385C-3.50594 31.9068 2.67242 41.6986 11.5046 39.7486L32.6519 36.6782C34.8911 36.1804 36.7985 34.8527 38.0839 32.9441C43.5574 24.7704 36.4668 14.6052 26.8468 17.4265Z" fill="url(#paint0_linear)"/>
    <path d="M16.2739 2.53089C13.9104 0.373368 10.4273 -0.663901 6.48809 0.45635C4.87094 0.954238 3.41965 1.95002 2.38301 3.31921C-1.5562 8.42257 -0.229309 14.5632 3.70991 17.7165L24.7744 35.3086C26.8891 36.7193 29.6258 37.3416 32.6528 36.6778C34.8919 36.1799 36.7993 34.8522 38.0848 32.9436C41.3191 28.0892 40.158 22.4879 36.6335 19.3761L16.2739 2.53089Z" fill="url(#paint1_linear)"/>
    <path d="M9.18307 0.0414907C8.14644 0.124472 7.2342 0.248944 6.48782 0.497889C4.87067 0.954287 3.41938 1.95007 2.38274 3.31926C-3.75415 11.2855 2.83886 21.6582 12.2101 19.5836L37.421 10.0823C38.1674 9.91629 38.7894 9.50138 39.2041 8.83753C40.7797 6.47256 39.1626 3.6097 36.5917 3.6097L10.2197 0C9.84652 0 9.5148 -4.01869e-08 9.18307 0.0414907Z" fill="url(#paint2_linear)"/>
    <path d="M32.4462 7.55176H7.56689V32.4462H32.4462V7.55176Z" fill="black"/>
    <path d="M20.0036 27.7576H10.6738V29.3342H20.0036V27.7576Z" fill="#EDEAEA"/>
    <path d="M18.759 20.2476L17.7223 19.3348C16.9345 19.8327 15.9808 20.1232 14.9442 20.1232C12.083 20.1232 10.0098 17.9656 10.0098 15.3517V15.3102C10.0098 12.6548 12.083 10.4973 14.9856 10.4973C17.8882 10.4973 19.92 12.6548 19.92 15.2687V15.3102C19.92 16.306 19.6297 17.2188 19.0907 17.9656L20.0444 18.7955L18.759 20.2476ZM16.2296 18.0071L14.6954 16.7209L15.9808 15.2687L17.515 16.6379C17.6809 16.2645 17.7638 15.8081 17.7638 15.3517V15.3102C17.7638 13.7336 16.6028 12.3644 14.9442 12.3644C13.2855 12.3644 12.166 13.6506 12.166 15.2687V15.3102C12.166 16.8869 13.327 18.2561 14.9856 18.2561C15.4417 18.2561 15.8564 18.1731 16.2296 18.0071Z" fill="#EDEAEA"/>
    <path d="M21.54 10.6633H25.0646C28.0086 10.6633 29.999 12.6549 29.999 15.3103V15.3518C29.999 17.9657 27.9672 19.9987 25.0646 19.9987H21.54V10.6633ZM23.5718 12.4889V18.1317H25.0231C26.6817 18.1317 27.8428 17.0114 27.8428 15.3518V15.3103C27.8428 13.6507 26.7232 12.4889 25.0231 12.4889H23.5718Z" fill="#EDEAEA"/>
  </g>
  <defs>
    <linearGradient id="paint0_linear" x1="-0.792811" y1="31.4096" x2="31.8242" y2="26.721" gradientUnits="userSpaceOnUse">
      <stop offset="0.1763" stop-color="#FC7A26"/>
      <stop offset="0.6342" stop-color="#FF318C"/>
    </linearGradient>
    <linearGradient id="paint1_linear" x1="-5.55443" y1="-0.489349" x2="40.8581" y2="33.9824" gradientUnits="userSpaceOnUse">
      <stop stop-color="#FF318C"/>
      <stop offset="0.3993" stop-color="#B544C6"/>
      <stop offset="0.8741" stop-color="#FF318C"/>
    </linearGradient>
    <linearGradient id="paint2_linear" x1="-10.9388" y1="14.7927" x2="40.502" y2="2.73578" gradientUnits="userSpaceOnUse">
      <stop stop-color="#FF318C"/>
      <stop offset="0.1996" stop-color="#D73BAB"/>
      <stop offset="0.5147" stop-color="#9D4AD8"/>
      <stop offset="0.7481" stop-color="#7953F4"/>
      <stop offset="0.8723" stop-color="#6B57FF"/>
    </linearGradient>
    <clipPath id="clip0">
      <rect width="40" height="40" fill="white"/>
    </clipPath>
  </defs>
</svg>
