<svg xmlns="http://www.w3.org/2000/svg" width="16" height="16" viewBox="0 0 16 16"><rect style="fill:#138313" width="14" height="12" x="1" y="2" ry=".51720446"/><path style="fill:#fff;stroke-width:1" d="m2.8151977 6.3277252c0 .6735549.5578894 1.2425925 1.2182485 1.2425925s1.2182485-.5690376 1.2182485-1.2425925-.5578894-1.2425926-1.2182485-1.2425926-1.2182485.5690377-1.2182485 1.2425926zm0 3.3445483c0 .6735555.5578894 1.2425945 1.2182485 1.2425945s1.2182485-.569039 1.2182485-1.2425945c0-.6735548-.5578894-1.2425927-1.2182485-1.2425927s-1.2182485.5690379-1.2182485 1.2425927z"/><path style="fill:#fff;stroke-width:1" d="m7.1331388 7.9999997c0 1.5445312-.3074085 2.7638973-1.1157791 4.0993943l1.2979471 1.033559C8.52217 12.029716 9.3305406 9.8696952 9.3305406 7.9999997 9.3305406 6.1303044 8.52217 3.9702837 7.3153068 2.8670472L6.0173597 3.8773795c.8083706 1.3587228 1.1157791 2.5664763 1.1157791 4.1226202z"/></svg>