<?xml version="1.0" standalone="no"?><!DOCTYPE svg PUBLIC "-//W3C//DTD SVG 1.1//EN" "http://www.w3.org/Graphics/SVG/1.1/DTD/svg11.dtd"><svg t="1675321006315" class="icon" viewBox="0 0 1024 1024" version="1.1" xmlns="http://www.w3.org/2000/svg" p-id="3117" width="40" height="40" xmlns:xlink="http://www.w3.org/1999/xlink"><path d="M210.787774 872.205828c-13.384845 0-24.245194-10.853186-24.245194-24.238031 0-13.384845 10.860349-24.25031 24.245194-24.25031l653.699256 0c13.384845 0 24.245194 10.865465 24.245194 24.25031 0 13.384845-10.860349 24.238031-24.245194 24.238031L210.787774 872.205828z" p-id="3118" fill="#6E6E6E"></path><path d="M112.616894 665.920602c43.191708 64.057945 115.909893 90.554412 162.581865 59.319014 10.208503 15.315824 22.252817 30.119995 36.450167 44.058448l0 28.735461 474.113111 0 0-28.704762c0 0 123.654274-134.536113 71.304999-332.8856L232.631268 436.443164c0 0-6.180769 23.89113-9.016351 60.494793-36.081777-20.786419-75.601862-23.826662-104.82851-4.121877C72.122621 524.271488 69.357648 601.778746 112.616894 665.920602zM145.949047 533.087271c21.237697-14.319124 50.812269-10.223852 76.353992 7.759731 0.77055 42.434461 7.763824 92.842525 29.333072 141.433196-1.090844 0.881067-2.210341 1.733481-3.387144 2.526543-30.477129 20.549012-78.082356 3.2623-106.326631-38.639019C113.668853 604.27766 115.477035 553.624003 145.949047 533.087271z" p-id="3119" fill="#6E6E6E"></path><path d="M321.585229 921.651984 753.689574 921.651984c31.595602 0 60.123332-18.910699 72.427566-48.012504l15.464203-36.57501L233.69346 837.06447l15.464203 36.57501C261.461897 902.741285 289.989627 921.651984 321.585229 921.651984z" p-id="3120" fill="#6E6E6E"></path><path d="M609.745185 369.870955c0 0 0.957815-1.455141 2.855024-3.977591 11.115152-14.776542 7.348362-35.459606-1.051959-50.562583-7.312546-13.148461-18.181081-23.889083-28.716019-34.629705-24.87555-25.360598-49.235354-52.635801-61.727876-85.890182-11.273764-30.010501-11.885701-64.374146 0.720408-93.849458 12.413727-29.025057 41.302685-57.655118 74.065879-60.938907 3.201925-0.397043 4.910846-0.460488 4.910846-0.460488s-0.805342 1.590218-2.318812 4.293793c-11.803837 21.085224-20.472264 45.614897-19.525706 70.0361 0.952698 24.585955 11.710716 47.77612 24.730241 68.654636s28.480658 40.21798 40.449247 61.715597c11.969613 21.496593 20.437471 45.973054 17.739013 70.429049-2.365884 21.439288-20.880563 57.499575-47.230698 55.323003C611.484805 369.991706 609.745185 369.870955 609.745185 369.870955z" p-id="3121" fill="#d40000"></path></svg>