<?xml version="1.0" encoding="UTF-8" standalone="no"?>
<svg
   xmlns:dc="http://purl.org/dc/elements/1.1/"
   xmlns:cc="http://creativecommons.org/ns#"
   xmlns:rdf="http://www.w3.org/1999/02/22-rdf-syntax-ns#"
   xmlns:svg="http://www.w3.org/2000/svg"
   xmlns="http://www.w3.org/2000/svg"
   xmlns:sodipodi="http://sodipodi.sourceforge.net/DTD/sodipodi-0.dtd"
   xmlns:inkscape="http://www.inkscape.org/namespaces/inkscape"
   version="1.1"
   id="Layer_1"
   x="0px"
   y="0px"
   viewBox="0 0 40.000001 40.000005"
   xml:space="preserve"
   sodipodi:docname="pluginIcon.svg"
   width="40"
   height="40.000004"
   inkscape:version="1.0.1 (1.0.1+r75)"><metadata
   id="metadata25"><rdf:RDF><cc:Work
       rdf:about=""><dc:format>image/svg+xml</dc:format><dc:type
         rdf:resource="http://purl.org/dc/dcmitype/StillImage" /><dc:title></dc:title></cc:Work></rdf:RDF></metadata><defs
   id="defs23" /><sodipodi:namedview
   pagecolor="#ffffff"
   bordercolor="#666666"
   borderopacity="1"
   objecttolerance="10"
   gridtolerance="10"
   guidetolerance="10"
   inkscape:pageopacity="0"
   inkscape:pageshadow="2"
   inkscape:window-width="1340"
   inkscape:window-height="902"
   id="namedview21"
   showgrid="false"
   fit-margin-top="2"
   fit-margin-left="2"
   fit-margin-right="2"
   fit-margin-bottom="2"
   inkscape:zoom="0.84080611"
   inkscape:cx="-38.856248"
   inkscape:cy="-86.27771"
   inkscape:window-x="67"
   inkscape:window-y="27"
   inkscape:window-maximized="0"
   inkscape:current-layer="Layer_1" />
<style
   type="text/css"
   id="style2">
	.st0{fill:#FFFFFF;}
	.st1{fill:#31313A;}
	.st2{opacity:0.8;fill:#F7931E;}
	.st3{opacity:0.7;fill:#F7931E;}
	.st4{opacity:0.8;fill:#FBB03B;}
</style>
<g
   id="g18"
   transform="matrix(0.0431241,0,0,0.04051773,-2.3512217,-1.0226227)">
	<g
   id="g16">
		<polygon
   class="st0"
   points="100.9,656.7 100.9,733.3 518.3,963.1 935.7,733.3 935.7,646.5 935.7,513.7 935.7,294.1 527.2,74.6 100.9,304.3 100.9,513.7 "
   id="polygon4" />
		<g
   id="g14">
			<polygon
   class="st1"
   points="935.7,733.3 518.3,963.1 100.9,733.3 100.9,656.7 527.2,426.9 935.7,646.5 "
   id="polygon6" />
			<polygon
   class="st2"
   points="100.9,304.3 518.3,521 518.3,963.1 100.9,733.3 "
   id="polygon8" />
			<polygon
   class="st3"
   points="518.3,521 935.7,294.1 935.7,733.3 518.3,963.1 "
   id="polygon10" />
			<polygon
   class="st4"
   points="935.7,513.7 518.3,743.5 100.9,513.7 100.9,304.3 527.2,74.6 935.7,294.1 "
   id="polygon12" />
		</g>
	</g>
</g>
</svg>
