<svg version="1.1" id="Layer_1" xmlns="http://www.w3.org/2000/svg" xmlns:xlink="http://www.w3.org/1999/xlink" x="0px" y="0px"
	 width="100%" viewBox="0 0 180 180" enable-background="new 0 0 180 180" xml:space="preserve">
<path fill="#FC187C" opacity="1.000000" stroke="none" 
	d="
M28.000000,181.000000 
	C19.009449,181.000000 10.018897,181.000000 1.021259,181.000000 
	C1.014173,121.072441 1.014173,61.144875 1.014173,1.108656 
	C60.999878,1.108656 120.999908,1.108656 181.000000,1.108656 
	C181.000000,10.749692 181.000000,20.406189 180.596649,30.636290 
	C167.247711,33.406544 154.176025,35.045609 141.387604,37.937382 
	C124.427666,41.772427 108.406853,48.240517 93.737152,58.347618 
	C92.355492,59.258656 91.280067,60.149345 89.905136,61.167244 
	C88.747650,61.947975 87.889671,62.601494 86.740273,63.286617 
	C85.899773,63.848602 85.350708,64.378990 84.507187,65.033417 
	C82.815659,66.455666 81.418571,67.753876 79.706383,69.137764 
	C78.167374,70.439659 76.943466,71.655876 75.444214,72.981590 
	C74.404739,73.971245 73.640610,74.851410 72.568008,75.861038 
	C70.852440,77.665596 69.445351,79.340698 67.756836,81.194405 
	C65.604500,83.814301 63.733601,86.255608 61.598488,88.847931 
	C60.925789,89.670700 60.517300,90.342445 59.910770,91.185211 
	C59.422195,91.785599 59.131664,92.214951 58.582123,92.802277 
	C57.944744,93.647827 57.566368,94.335411 56.996086,95.232933 
	C56.456455,96.110596 56.108734,96.778320 55.509121,97.634300 
	C54.892170,98.554642 54.527111,99.286736 53.959927,100.237289 
	C53.516533,100.995316 53.275269,101.534882 52.765018,102.213669 
	C52.057499,103.241974 51.618969,104.131050 50.940735,105.272591 
	C49.674751,107.782524 48.648464,110.039986 47.380875,112.508568 
	C46.811161,113.485641 46.482750,114.251587 46.009029,115.217934 
	C45.706032,115.723434 45.656612,116.045166 45.439163,116.600555 
	C44.343750,118.901825 43.524632,120.986069 42.539207,123.374283 
	C42.272938,124.127266 42.172974,124.576279 41.838913,125.201965 
	C41.453030,125.926056 41.301247,126.473473 41.027725,127.255585 
	C40.868202,127.837929 40.830421,128.185562 40.553596,128.714325 
	C40.068295,129.614609 39.822033,130.333786 39.423988,131.361267 
	C39.203346,132.120285 39.134483,132.571014 38.830872,133.236816 
	C38.325203,134.652832 38.054283,135.853790 37.630093,137.373230 
	C37.388195,138.152283 37.299568,138.612869 36.987366,139.251465 
	C36.648190,139.969574 36.532585,140.509659 36.291477,141.363235 
	C36.127758,142.123230 36.089546,142.569717 35.837631,143.250809 
	C35.328648,144.675751 35.033363,145.866104 34.601898,147.384613 
	C34.426498,148.182327 34.387276,148.651886 34.118874,149.385010 
	C33.680622,150.775848 33.471558,151.903152 33.150642,153.346191 
	C33.019318,154.105942 32.999844,154.549942 32.801094,155.274918 
	C32.321800,157.055725 32.021782,158.555542 31.572508,160.413147 
	C31.359056,161.539246 31.294865,162.307526 31.024672,163.378693 
	C30.626957,165.129623 30.435244,166.577682 30.113750,168.405487 
	C29.767653,170.896713 29.551332,173.008194 29.093367,175.407806 
	C28.567812,177.463943 28.283905,179.231979 28.000000,181.000000 
z"/>
<path fill="#4800BF" opacity="1.000000" stroke="none" 
	d="
M53.034004,102.074440 
	C53.275269,101.534882 53.516533,100.995316 54.253696,100.096527 
	C55.086731,98.973549 55.423870,98.209793 55.761013,97.446045 
	C56.108734,96.778320 56.456455,96.110596 57.280205,95.105652 
	C58.117867,94.060402 58.479500,93.352356 58.841133,92.644310 
	C59.131664,92.214951 59.422195,91.785599 60.199821,91.065536 
	C61.078846,90.082199 61.470776,89.389557 61.862701,88.696915 
	C63.733601,86.255608 65.604500,83.814301 68.090836,81.118057 
	C70.096344,79.152603 71.486412,77.442085 72.876480,75.731567 
	C73.640610,74.851410 74.404739,73.971245 75.794510,72.949142 
	C77.620590,71.555489 78.821037,70.303787 80.021484,69.052086 
	C81.418571,67.753876 82.815659,66.455666 84.803452,64.992584 
	C85.940002,64.303474 86.485855,63.779247 87.031700,63.255020 
	C87.889671,62.601494 88.747650,61.947975 90.226814,61.145111 
	C91.913124,60.106270 92.978256,59.216770 94.043381,58.327267 
	C108.406853,48.240517 124.427666,41.772427 141.387604,37.937382 
	C154.176025,35.045609 167.247711,33.406544 180.596649,31.104946 
	C181.000000,53.687561 181.000000,76.375122 180.719299,99.599167 
	C179.955307,100.437325 179.472000,100.738998 178.635651,101.142212 
	C177.067902,101.274582 175.853195,101.305405 174.255127,101.255707 
	C172.565369,101.636948 171.258957,102.098717 169.593781,102.679787 
	C168.483994,102.847290 167.732986,102.895493 166.737122,102.773758 
	C164.975082,103.143707 163.457886,103.683586 161.614853,104.364410 
	C160.820862,104.558174 160.352722,104.611000 159.596619,104.530167 
	C156.852966,105.395859 154.397247,106.395210 151.633392,107.546310 
	C150.875717,107.775574 150.426208,107.853096 149.781494,107.805939 
	C149.051437,108.079041 148.516571,108.476830 147.771423,109.006584 
	C147.250290,109.281433 146.926025,109.325310 146.261078,109.265503 
	C145.277328,109.742569 144.620834,110.224304 143.704071,110.883636 
	C142.483582,111.456772 141.523376,111.852310 140.229797,112.255096 
	C139.257507,112.788673 138.618561,113.314987 137.766296,114.028015 
	C136.887009,114.556381 136.221039,114.898048 135.216415,115.255051 
	C134.249451,115.828957 133.621140,116.387527 132.771454,117.192490 
	C130.110260,119.327301 127.670433,121.215714 124.914200,123.172226 
	C124.086563,123.874832 123.575317,124.509361 122.907822,125.430374 
	C120.850899,127.818298 118.950226,129.919754 116.738045,132.144806 
	C116.022705,133.016571 115.618889,133.764709 115.074234,134.807434 
	C112.949944,138.400482 110.966476,141.698959 108.661987,145.133606 
	C107.632759,147.016052 106.924553,148.762314 106.201797,150.869812 
	C105.551056,152.796814 104.914856,154.362610 104.028183,156.056458 
	C103.493767,157.448929 103.209831,158.713303 102.925591,160.317108 
	C102.794373,161.087387 102.663460,161.518280 102.270187,162.127808 
	C101.789253,163.095139 101.570671,163.883835 101.400879,165.035828 
	C101.204582,166.588211 100.959511,167.777298 100.464287,169.073334 
	C100.092140,170.104416 99.970139,171.028534 99.878807,172.356750 
	C99.742638,173.822906 99.575798,174.884964 99.138351,176.143173 
	C96.889206,177.232086 94.918335,178.880234 92.930962,178.900360 
	C73.679321,179.095352 54.424583,178.962112 35.171593,179.072876 
	C32.078362,179.090683 30.026772,178.296143 29.335014,175.119675 
	C29.551332,173.008194 29.767653,170.896713 30.393663,168.258270 
	C30.945795,166.179489 31.088234,164.627655 31.230671,163.075821 
	C31.294865,162.307526 31.359056,161.539246 31.811913,160.250198 
	C32.460510,158.150940 32.720440,156.572433 32.980370,154.993927 
	C32.999844,154.549942 33.019318,154.105942 33.414604,153.217804 
	C33.976299,151.556244 34.162174,150.338837 34.348053,149.121445 
	C34.387276,148.651886 34.426498,148.182327 34.822884,147.233444 
	C35.470478,145.508148 35.760906,144.262177 36.051331,143.016205 
	C36.089546,142.569717 36.127758,142.123230 36.497559,141.283417 
	C36.956413,140.284531 37.083679,139.678986 37.210945,139.073441 
	C37.299568,138.612869 37.388195,138.152283 37.843124,137.215820 
	C38.494823,135.500534 38.780220,134.261124 39.065620,133.021729 
	C39.134483,132.571014 39.203346,132.120285 39.665367,131.191254 
	C40.303230,129.986374 40.547935,129.259781 40.792641,128.533203 
	C40.830421,128.185562 40.868202,127.837929 41.254051,127.185753 
	C41.759083,126.262573 41.916046,125.643929 42.073006,125.025291 
	C42.172974,124.576279 42.272938,124.127266 42.818424,123.224350 
	C44.081120,120.641464 44.898293,118.512497 45.715466,116.383522 
	C45.656612,116.045166 45.706032,115.723434 46.305840,115.063103 
	C47.039368,113.904396 47.330769,113.100922 47.622177,112.297447 
	C48.648464,110.039986 49.674751,107.782524 51.225494,105.149315 
	C52.177971,103.873856 52.605988,102.974152 53.034004,102.074440 
z"/>
<path fill="#FC187C" opacity="1.000000" stroke="none" 
	d="
M99.408966,175.947006 
	C99.575798,174.884964 99.742638,173.822906 100.086327,172.107956 
	C100.413589,170.625488 100.564003,169.795929 100.714432,168.966370 
	C100.959511,167.777298 101.204582,166.588211 101.640900,164.832275 
	C102.065620,163.493332 102.299088,162.721252 102.532547,161.949173 
	C102.663460,161.518280 102.794373,161.087387 103.138000,160.080765 
	C103.660027,158.312805 103.969345,157.120605 104.278656,155.928391 
	C104.914856,154.362610 105.551056,152.796814 106.477036,150.653275 
	C107.505547,148.382812 108.244270,146.690125 108.983002,144.997437 
	C110.966476,141.698959 112.949944,138.400482 115.344406,134.631607 
	C116.186798,133.447876 116.618179,132.734528 117.049561,132.021194 
	C118.950226,129.919754 120.850899,127.818298 123.199921,125.328568 
	C124.175713,124.328232 124.703156,123.716179 125.230606,123.104134 
	C127.670433,121.215714 130.110260,119.327301 133.082214,117.135483 
	C134.261230,116.301292 134.908157,115.770500 135.555069,115.239716 
	C136.221039,114.898048 136.887009,114.556381 138.079742,114.001236 
	C139.258713,113.274445 139.910950,112.761147 140.563171,112.247849 
	C141.523376,111.852310 142.483582,111.456772 144.017639,110.884186 
	C145.257111,110.228149 145.922729,109.749161 146.588348,109.270172 
	C146.926025,109.325310 147.250290,109.281433 148.063568,109.012878 
	C149.036209,108.568344 149.506454,108.249481 149.976685,107.930618 
	C150.426208,107.853096 150.875717,107.775574 151.986877,107.571533 
	C155.060532,106.517952 157.472549,105.590897 159.884567,104.663826 
	C160.352722,104.611000 160.820862,104.558174 161.943024,104.431961 
	C164.058685,103.886948 165.520325,103.415329 166.981964,102.943710 
	C167.732986,102.895493 168.483994,102.847290 169.948120,102.742096 
	C171.986969,102.235489 173.312714,101.785866 174.638474,101.336235 
	C175.853195,101.305405 177.067902,101.274582 178.890015,101.261765 
	C179.998276,101.519844 180.499130,101.759918 181.000000,102.000000 
	C181.000000,128.261581 181.000000,154.523178 181.000000,181.000000 
	C153.979492,181.000000 126.958405,181.000000 99.490654,180.633911 
	C99.165649,178.827545 99.287308,177.387283 99.408966,175.947006 
z"/>
<path fill="#6003B7" opacity="1.000000" stroke="none" 
	d="
M99.138351,176.143173 
	C99.287308,177.387283 99.165649,178.827545 99.021996,180.633911 
	C75.645775,181.000000 52.291542,181.000000 28.468657,181.000000 
	C28.283905,179.231979 28.567812,177.463943 29.093369,175.407806 
	C30.026772,178.296143 32.078362,179.090683 35.171593,179.072876 
	C54.424583,178.962112 73.679321,179.095352 92.930962,178.900360 
	C94.918335,178.880234 96.889206,177.232086 99.138351,176.143173 
z"/>
<path fill="#6003B7" opacity="1.000000" stroke="none" 
	d="
M181.000000,101.666672 
	C180.499130,101.759918 179.998276,101.519844 179.243042,101.160225 
	C179.472000,100.738998 179.955307,100.437325 180.719299,100.067825 
	C181.000000,100.444443 181.000000,100.888893 181.000000,101.666672 
z"/>
<path fill="#6003B7" opacity="1.000000" stroke="none" 
	d="
M72.568008,75.861031 
	C71.486412,77.442085 70.096344,79.152603 68.372269,80.939461 
	C69.445351,79.340698 70.852440,77.665596 72.568008,75.861031 
z"/>
<path fill="#6003B7" opacity="1.000000" stroke="none" 
	d="
M45.439163,116.600555 
	C44.898293,118.512497 44.081120,120.641464 42.984730,122.920380 
	C43.524632,120.986069 44.343750,118.901825 45.439163,116.600555 
z"/>
<path fill="#6003B7" opacity="1.000000" stroke="none" 
	d="
M79.706383,69.137764 
	C78.821037,70.303787 77.620590,71.555489 76.069855,72.839645 
	C76.943466,71.655876 78.167374,70.439659 79.706383,69.137764 
z"/>
<path fill="#6003B7" opacity="1.000000" stroke="none" 
	d="
M31.024670,163.378693 
	C31.088234,164.627655 30.945795,166.179489 30.523443,167.878540 
	C30.435244,166.577682 30.626957,165.129623 31.024670,163.378693 
z"/>
<path fill="#6003B7" opacity="1.000000" stroke="none" 
	d="
M32.801094,155.274918 
	C32.720440,156.572433 32.460510,158.150940 31.961172,159.892395 
	C32.021782,158.555542 32.321800,157.055725 32.801094,155.274918 
z"/>
<path fill="#6003B7" opacity="1.000000" stroke="none" 
	d="
M93.737152,58.347618 
	C92.978256,59.216770 91.913124,60.106270 90.526321,61.017902 
	C91.280067,60.149345 92.355492,59.258656 93.737152,58.347618 
z"/>
<path fill="#6003B7" opacity="1.000000" stroke="none" 
	d="
M38.830872,133.236816 
	C38.780220,134.261124 38.494823,135.500534 37.996399,136.897339 
	C38.054283,135.853790 38.325203,134.652832 38.830872,133.236816 
z"/>
<path fill="#6003B7" opacity="1.000000" stroke="none" 
	d="
M35.837631,143.250809 
	C35.760906,144.262177 35.470478,145.508148 34.959064,146.905273 
	C35.033363,145.866104 35.328648,144.675751 35.837631,143.250809 
z"/>
<path fill="#6003B7" opacity="1.000000" stroke="none" 
	d="
M34.118874,149.385010 
	C34.162174,150.338837 33.976299,151.556244 33.526455,152.902039 
	C33.471558,151.903152 33.680622,150.775848 34.118874,149.385010 
z"/>
<path fill="#6003B7" opacity="1.000000" stroke="none" 
	d="
M52.765022,102.213669 
	C52.605988,102.974152 52.177971,103.873856 51.465195,104.896843 
	C51.618969,104.131050 52.057499,103.241974 52.765022,102.213669 
z"/>
<path fill="#6003B7" opacity="1.000000" stroke="none" 
	d="
M36.987366,139.251465 
	C37.083679,139.678986 36.956413,140.284531 36.623070,140.969910 
	C36.532585,140.509659 36.648190,139.969574 36.987366,139.251465 
z"/>
<path fill="#6003B7" opacity="1.000000" stroke="none" 
	d="
M40.553600,128.714325 
	C40.547935,129.259781 40.303230,129.986374 39.817146,130.882950 
	C39.822033,130.333786 40.068295,129.614609 40.553600,128.714325 
z"/>
<path fill="#6003B7" opacity="1.000000" stroke="none" 
	d="
M41.838909,125.201965 
	C41.916046,125.643929 41.759083,126.262573 41.375793,126.951050 
	C41.301247,126.473473 41.453030,125.926056 41.838909,125.201965 
z"/>
<path fill="#6003B7" opacity="1.000000" stroke="none" 
	d="
M58.582127,92.802277 
	C58.479500,93.352356 58.117867,94.060402 57.472115,94.895721 
	C57.566368,94.335411 57.944744,93.647827 58.582127,92.802277 
z"/>
<path fill="#6003B7" opacity="1.000000" stroke="none" 
	d="
M47.380875,112.508568 
	C47.330769,113.100922 47.039368,113.904396 46.451149,114.862701 
	C46.482750,114.251587 46.811161,113.485641 47.380875,112.508568 
z"/>
<path fill="#6003B7" opacity="1.000000" stroke="none" 
	d="
M61.598488,88.847931 
	C61.470776,89.389557 61.078846,90.082199 60.397865,90.894516 
	C60.517300,90.342445 60.925789,89.670700 61.598488,88.847931 
z"/>
<path fill="#6003B7" opacity="1.000000" stroke="none" 
	d="
M86.740273,63.286621 
	C86.485855,63.779247 85.940002,64.303474 85.097900,64.868538 
	C85.350708,64.378990 85.899773,63.848602 86.740273,63.286621 
z"/>
<path fill="#6003B7" opacity="1.000000" stroke="none" 
	d="
M55.509121,97.634300 
	C55.423870,98.209793 55.086731,98.973549 54.455822,99.878059 
	C54.527111,99.286736 54.892170,98.554642 55.509121,97.634300 
z"/>
<path fill="#6003B7" opacity="1.000000" stroke="none" 
	d="
M159.596619,104.530167 
	C157.472549,105.590897 155.060532,106.517952 152.295013,107.419785 
	C154.397247,106.395210 156.852966,105.395859 159.596619,104.530167 
z"/>
<path fill="#6003B7" opacity="1.000000" stroke="none" 
	d="
M166.737122,102.773766 
	C165.520325,103.415329 164.058685,103.886948 162.268860,104.291016 
	C163.457886,103.683586 164.975082,103.143707 166.737122,102.773766 
z"/>
<path fill="#6003B7" opacity="1.000000" stroke="none" 
	d="
M108.661972,145.133606 
	C108.244270,146.690125 107.505547,148.382812 106.491585,150.292053 
	C106.924553,148.762314 107.632759,147.016052 108.661972,145.133606 
z"/>
<path fill="#6003B7" opacity="1.000000" stroke="none" 
	d="
M104.028183,156.056458 
	C103.969345,157.120605 103.660027,158.312805 103.138306,159.741364 
	C103.209831,158.713303 103.493767,157.448929 104.028183,156.056458 
z"/>
<path fill="#6003B7" opacity="1.000000" stroke="none" 
	d="
M174.255127,101.255707 
	C173.312714,101.785866 171.986969,102.235489 170.306885,102.622803 
	C171.258957,102.098717 172.565369,101.636948 174.255127,101.255707 
z"/>
<path fill="#6003B7" opacity="1.000000" stroke="none" 
	d="
M100.464279,169.073334 
	C100.564003,169.795929 100.413589,170.625488 100.055656,171.703842 
	C99.970139,171.028534 100.092140,170.104416 100.464279,169.073334 
z"/>
<path fill="#6003B7" opacity="1.000000" stroke="none" 
	d="
M102.270187,162.127808 
	C102.299088,162.721252 102.065620,163.493332 101.592125,164.468964 
	C101.570671,163.883835 101.789253,163.095139 102.270187,162.127808 
z"/>
<path fill="#6003B7" opacity="1.000000" stroke="none" 
	d="
M124.914200,123.172226 
	C124.703156,123.716179 124.175713,124.328232 123.356171,125.042084 
	C123.575317,124.509361 124.086563,123.874832 124.914200,123.172226 
z"/>
<path fill="#6003B7" opacity="1.000000" stroke="none" 
	d="
M116.738045,132.144806 
	C116.618179,132.734528 116.186798,133.447876 115.485245,134.337036 
	C115.618889,133.764709 116.022705,133.016571 116.738045,132.144806 
z"/>
<path fill="#6003B7" opacity="1.000000" stroke="none" 
	d="
M135.216415,115.255051 
	C134.908157,115.770500 134.261230,116.301292 133.303558,116.889084 
	C133.621140,116.387527 134.249451,115.828957 135.216415,115.255051 
z"/>
<path fill="#6003B7" opacity="1.000000" stroke="none" 
	d="
M140.229797,112.255096 
	C139.910950,112.761147 139.258713,113.274445 138.293060,113.814529 
	C138.618561,113.314987 139.257507,112.788673 140.229797,112.255096 
z"/>
<path fill="#6003B7" opacity="1.000000" stroke="none" 
	d="
M146.261078,109.265503 
	C145.922729,109.749161 145.257111,110.228149 144.277924,110.706589 
	C144.620834,110.224304 145.277328,109.742569 146.261078,109.265503 
z"/>
<path fill="#6003B7" opacity="1.000000" stroke="none" 
	d="
M149.781494,107.805939 
	C149.506454,108.249481 149.036209,108.568344 148.273834,108.880920 
	C148.516571,108.476830 149.051437,108.079041 149.781494,107.805939 
z"/>
</svg>